G75*
%MOIN*%
%OFA0B0*%
%FSLAX25Y25*%
%IPPOS*%
%LPD*%
%AMOC8*
5,1,8,0,0,1.08239X$1,22.5*
%
%ADD10C,0.06800*%
%ADD11C,0.08200*%
%ADD12C,0.05950*%
D10*
X0556651Y0056002D02*
X0562651Y0056002D01*
X0562651Y0066002D02*
X0556651Y0066002D01*
X0556651Y0076002D02*
X0562651Y0076002D01*
X0562651Y0086002D02*
X0556651Y0086002D01*
D11*
X0021851Y0162102D03*
X0021851Y0179902D03*
X0047451Y0179902D03*
X0047451Y0162102D03*
X0071851Y0162102D03*
X0071851Y0179902D03*
X0097451Y0179902D03*
X0097451Y0162102D03*
X0121851Y0162102D03*
X0121851Y0179902D03*
X0147451Y0179902D03*
X0147451Y0162102D03*
X0171851Y0162102D03*
X0171851Y0179902D03*
X0197451Y0179902D03*
X0197451Y0162102D03*
X0221851Y0162102D03*
X0221851Y0179902D03*
X0247451Y0179902D03*
X0247451Y0162102D03*
X0271851Y0162102D03*
X0271851Y0179902D03*
X0297451Y0179902D03*
X0297451Y0162102D03*
X0321851Y0162102D03*
X0321851Y0179902D03*
X0347451Y0179902D03*
X0347451Y0162102D03*
X0371851Y0162102D03*
X0371851Y0179902D03*
X0397451Y0179902D03*
X0397451Y0162102D03*
X0421851Y0162102D03*
X0421851Y0179902D03*
X0447451Y0179902D03*
X0447451Y0162102D03*
X0471851Y0162102D03*
X0471851Y0179902D03*
X0497451Y0179902D03*
X0497451Y0162102D03*
X0521851Y0162102D03*
X0521851Y0179902D03*
X0547451Y0179902D03*
X0547451Y0162102D03*
X0571851Y0162102D03*
X0571851Y0179902D03*
X0597451Y0179902D03*
X0597451Y0162102D03*
X0424651Y0081002D03*
X0409651Y0066002D03*
X0394651Y0081002D03*
X0379651Y0066002D03*
D12*
X0368188Y0080897D02*
X0364546Y0084538D01*
X0357475Y0077467D02*
X0361116Y0073826D01*
X0354045Y0066755D02*
X0350404Y0070396D01*
X0343333Y0063325D02*
X0346974Y0059684D01*
X0339903Y0052613D02*
X0336262Y0056254D01*
X0329191Y0049183D02*
X0332832Y0045542D01*
X0325761Y0038471D02*
X0322120Y0042112D01*
X0315049Y0035041D02*
X0318690Y0031400D01*
X0311619Y0024328D02*
X0307978Y0027970D01*
X0300907Y0020899D02*
X0304548Y0017257D01*
X0283335Y0038471D02*
X0279693Y0042112D01*
X0286764Y0049183D02*
X0290406Y0045542D01*
X0297477Y0052613D02*
X0293836Y0056254D01*
X0300907Y0063325D02*
X0304548Y0059684D01*
X0311619Y0066755D02*
X0307978Y0070396D01*
X0315049Y0077467D02*
X0318690Y0073826D01*
X0325761Y0080897D02*
X0322120Y0084538D01*
X0329191Y0091609D02*
X0332832Y0087968D01*
X0339903Y0095039D02*
X0336262Y0098680D01*
X0343333Y0105752D02*
X0346974Y0102110D01*
X0354045Y0109181D02*
X0350404Y0112823D01*
X0357475Y0119894D02*
X0361116Y0116252D01*
X0368188Y0123323D02*
X0364546Y0126965D01*
X0371617Y0134036D02*
X0375259Y0130394D01*
X0392830Y0112823D02*
X0396472Y0109181D01*
X0389401Y0102110D02*
X0385759Y0105752D01*
X0378688Y0098680D02*
X0382330Y0095039D01*
X0375259Y0087968D02*
X0371617Y0091609D01*
M02*
