G75*
%MOIN*%
%OFA0B0*%
%FSLAX25Y25*%
%IPPOS*%
%LPD*%
%AMOC8*
5,1,8,0,0,1.08239X$1,22.5*
%
%ADD10C,0.00800*%
%ADD11C,0.00500*%
%ADD12C,0.00400*%
D10*
X0383651Y0066002D02*
X0384651Y0066002D01*
X0384651Y0063002D01*
X0404651Y0063002D01*
X0404651Y0066002D01*
X0405651Y0066002D01*
X0404651Y0066002D02*
X0404651Y0069002D01*
X0384651Y0069002D01*
X0384651Y0066002D01*
X0399651Y0078002D02*
X0419651Y0078002D01*
X0419651Y0081002D01*
X0420651Y0081002D01*
X0419651Y0081002D02*
X0419651Y0084002D01*
X0399651Y0084002D01*
X0399651Y0081002D01*
X0398651Y0081002D01*
X0399651Y0081002D02*
X0399651Y0078002D01*
D11*
X0378741Y0133983D02*
X0279746Y0034988D01*
X0299192Y0015543D01*
X0398187Y0114537D01*
X0391116Y0121609D01*
X0391116Y0121608D02*
X0391015Y0121511D01*
X0390912Y0121416D01*
X0390806Y0121324D01*
X0390697Y0121235D01*
X0390587Y0121149D01*
X0390473Y0121066D01*
X0390358Y0120987D01*
X0390240Y0120910D01*
X0390120Y0120837D01*
X0389999Y0120768D01*
X0389875Y0120702D01*
X0389749Y0120639D01*
X0389622Y0120580D01*
X0389493Y0120525D01*
X0389363Y0120473D01*
X0389231Y0120425D01*
X0389098Y0120380D01*
X0388964Y0120339D01*
X0388829Y0120302D01*
X0388693Y0120269D01*
X0388555Y0120240D01*
X0388418Y0120215D01*
X0388279Y0120193D01*
X0388140Y0120175D01*
X0388000Y0120162D01*
X0387860Y0120152D01*
X0387720Y0120146D01*
X0387580Y0120144D01*
X0387440Y0120146D01*
X0387300Y0120152D01*
X0387160Y0120162D01*
X0387020Y0120175D01*
X0386881Y0120193D01*
X0386742Y0120215D01*
X0386605Y0120240D01*
X0386467Y0120269D01*
X0386331Y0120302D01*
X0386196Y0120339D01*
X0386062Y0120380D01*
X0385929Y0120425D01*
X0385797Y0120473D01*
X0385667Y0120525D01*
X0385538Y0120580D01*
X0385411Y0120639D01*
X0385285Y0120702D01*
X0385161Y0120768D01*
X0385040Y0120837D01*
X0384920Y0120910D01*
X0384802Y0120987D01*
X0384687Y0121066D01*
X0384573Y0121149D01*
X0384463Y0121235D01*
X0384354Y0121324D01*
X0384248Y0121416D01*
X0384145Y0121511D01*
X0384044Y0121608D01*
X0383947Y0121709D01*
X0383852Y0121812D01*
X0383760Y0121918D01*
X0383671Y0122027D01*
X0383585Y0122137D01*
X0383502Y0122251D01*
X0383423Y0122366D01*
X0383346Y0122484D01*
X0383273Y0122604D01*
X0383204Y0122725D01*
X0383138Y0122849D01*
X0383075Y0122975D01*
X0383016Y0123102D01*
X0382961Y0123231D01*
X0382909Y0123361D01*
X0382861Y0123493D01*
X0382816Y0123626D01*
X0382775Y0123760D01*
X0382738Y0123895D01*
X0382705Y0124031D01*
X0382676Y0124169D01*
X0382651Y0124306D01*
X0382629Y0124445D01*
X0382611Y0124584D01*
X0382598Y0124724D01*
X0382588Y0124864D01*
X0382582Y0125004D01*
X0382580Y0125144D01*
X0382582Y0125284D01*
X0382588Y0125424D01*
X0382598Y0125564D01*
X0382611Y0125704D01*
X0382629Y0125843D01*
X0382651Y0125982D01*
X0382676Y0126119D01*
X0382705Y0126257D01*
X0382738Y0126393D01*
X0382775Y0126528D01*
X0382816Y0126662D01*
X0382861Y0126795D01*
X0382909Y0126927D01*
X0382961Y0127057D01*
X0383016Y0127186D01*
X0383075Y0127313D01*
X0383138Y0127439D01*
X0383204Y0127563D01*
X0383273Y0127684D01*
X0383346Y0127804D01*
X0383423Y0127922D01*
X0383502Y0128037D01*
X0383585Y0128151D01*
X0383671Y0128261D01*
X0383760Y0128370D01*
X0383852Y0128476D01*
X0383947Y0128579D01*
X0384044Y0128680D01*
X0384045Y0128680D02*
X0378741Y0133983D01*
X0408531Y0087152D02*
X0408490Y0087150D01*
X0408449Y0087145D01*
X0408408Y0087136D01*
X0408369Y0087123D01*
X0408330Y0087107D01*
X0408293Y0087088D01*
X0408259Y0087066D01*
X0408226Y0087041D01*
X0408195Y0087013D01*
X0408167Y0086982D01*
X0408142Y0086949D01*
X0408120Y0086914D01*
X0408101Y0086878D01*
X0408085Y0086839D01*
X0408072Y0086800D01*
X0408063Y0086759D01*
X0408058Y0086718D01*
X0408056Y0086677D01*
X0408214Y0086307D02*
X0409111Y0085252D01*
X0408056Y0085252D01*
X0409111Y0086730D02*
X0409095Y0086775D01*
X0409075Y0086818D01*
X0409051Y0086860D01*
X0409025Y0086900D01*
X0408995Y0086938D01*
X0408963Y0086973D01*
X0408927Y0087006D01*
X0408890Y0087035D01*
X0408850Y0087062D01*
X0408808Y0087085D01*
X0408765Y0087105D01*
X0408720Y0087122D01*
X0408674Y0087135D01*
X0408626Y0087144D01*
X0408579Y0087150D01*
X0408531Y0087152D01*
X0408056Y0086677D02*
X0408058Y0086636D01*
X0408063Y0086595D01*
X0408071Y0086554D01*
X0408083Y0086515D01*
X0408097Y0086476D01*
X0408115Y0086439D01*
X0408136Y0086403D01*
X0408159Y0086369D01*
X0408186Y0086337D01*
X0408214Y0086308D01*
X0410191Y0085252D02*
X0410613Y0086096D01*
X0410719Y0086096D02*
X0411246Y0086096D01*
X0410719Y0086096D02*
X0410674Y0086098D01*
X0410630Y0086104D01*
X0410586Y0086113D01*
X0410543Y0086126D01*
X0410502Y0086143D01*
X0410461Y0086163D01*
X0410423Y0086187D01*
X0410387Y0086213D01*
X0410354Y0086243D01*
X0410323Y0086275D01*
X0410294Y0086310D01*
X0410269Y0086347D01*
X0410248Y0086386D01*
X0410229Y0086427D01*
X0410214Y0086469D01*
X0410203Y0086513D01*
X0410195Y0086557D01*
X0410191Y0086602D01*
X0410191Y0086646D01*
X0410195Y0086691D01*
X0410203Y0086735D01*
X0410214Y0086779D01*
X0410229Y0086821D01*
X0410248Y0086862D01*
X0410269Y0086901D01*
X0410294Y0086938D01*
X0410323Y0086973D01*
X0410354Y0087005D01*
X0410387Y0087035D01*
X0410423Y0087061D01*
X0410461Y0087085D01*
X0410502Y0087105D01*
X0410543Y0087122D01*
X0410586Y0087135D01*
X0410630Y0087144D01*
X0410674Y0087150D01*
X0410719Y0087152D01*
X0411246Y0087152D01*
X0411246Y0085252D01*
X0396246Y0072152D02*
X0395719Y0072152D01*
X0396246Y0072152D02*
X0396246Y0070252D01*
X0396246Y0071096D02*
X0395719Y0071096D01*
X0395613Y0071096D02*
X0395191Y0070252D01*
X0394111Y0070252D02*
X0393056Y0070252D01*
X0393584Y0070252D02*
X0393584Y0072152D01*
X0394111Y0071730D01*
X0395719Y0072152D02*
X0395674Y0072150D01*
X0395630Y0072144D01*
X0395586Y0072135D01*
X0395543Y0072122D01*
X0395502Y0072105D01*
X0395461Y0072085D01*
X0395423Y0072061D01*
X0395387Y0072035D01*
X0395354Y0072005D01*
X0395323Y0071973D01*
X0395294Y0071938D01*
X0395269Y0071901D01*
X0395248Y0071862D01*
X0395229Y0071821D01*
X0395214Y0071779D01*
X0395203Y0071735D01*
X0395195Y0071691D01*
X0395191Y0071646D01*
X0395191Y0071602D01*
X0395195Y0071557D01*
X0395203Y0071513D01*
X0395214Y0071469D01*
X0395229Y0071427D01*
X0395248Y0071386D01*
X0395269Y0071347D01*
X0395294Y0071310D01*
X0395323Y0071275D01*
X0395354Y0071243D01*
X0395387Y0071213D01*
X0395423Y0071187D01*
X0395461Y0071163D01*
X0395502Y0071143D01*
X0395543Y0071126D01*
X0395586Y0071113D01*
X0395630Y0071104D01*
X0395674Y0071098D01*
X0395719Y0071096D01*
D12*
X0374141Y0108452D02*
X0375948Y0110259D01*
X0375045Y0109356D02*
X0371792Y0112609D01*
X0373418Y0112789D01*
X0376208Y0113229D02*
X0376388Y0113952D01*
X0376569Y0114675D01*
X0378196Y0113591D02*
X0378173Y0113508D01*
X0378147Y0113426D01*
X0378117Y0113346D01*
X0378084Y0113266D01*
X0378048Y0113188D01*
X0378009Y0113112D01*
X0377966Y0113038D01*
X0377920Y0112965D01*
X0377871Y0112894D01*
X0377819Y0112826D01*
X0377765Y0112760D01*
X0377707Y0112696D01*
X0377647Y0112634D01*
X0377584Y0112576D01*
X0377519Y0112520D01*
X0377452Y0112466D01*
X0377382Y0112416D01*
X0378015Y0112326D02*
X0374762Y0115578D01*
X0375394Y0115488D02*
X0375440Y0115517D01*
X0375488Y0115543D01*
X0375537Y0115565D01*
X0375588Y0115584D01*
X0375640Y0115600D01*
X0375693Y0115611D01*
X0375747Y0115619D01*
X0375801Y0115623D01*
X0375855Y0115623D01*
X0375910Y0115619D01*
X0375963Y0115611D01*
X0376016Y0115599D01*
X0376069Y0115584D01*
X0376119Y0115565D01*
X0376169Y0115543D01*
X0376217Y0115517D01*
X0376262Y0115487D01*
X0376306Y0115455D01*
X0376347Y0115419D01*
X0376385Y0115381D01*
X0376421Y0115340D01*
X0376454Y0115297D01*
X0376483Y0115251D01*
X0376509Y0115203D01*
X0376532Y0115154D01*
X0376551Y0115103D01*
X0376567Y0115051D01*
X0376578Y0114998D01*
X0376586Y0114944D01*
X0376590Y0114890D01*
X0376591Y0114836D01*
X0376587Y0114782D01*
X0376580Y0114728D01*
X0376568Y0114675D01*
X0375394Y0115488D02*
X0375324Y0115438D01*
X0375257Y0115384D01*
X0375192Y0115328D01*
X0375129Y0115270D01*
X0375069Y0115208D01*
X0375011Y0115144D01*
X0374957Y0115078D01*
X0374905Y0115010D01*
X0374856Y0114939D01*
X0374810Y0114866D01*
X0374767Y0114792D01*
X0374728Y0114716D01*
X0374692Y0114638D01*
X0374659Y0114558D01*
X0374629Y0114478D01*
X0374603Y0114396D01*
X0374580Y0114313D01*
X0376208Y0113229D02*
X0376196Y0113176D01*
X0376189Y0113122D01*
X0376185Y0113068D01*
X0376186Y0113014D01*
X0376190Y0112959D01*
X0376198Y0112906D01*
X0376209Y0112853D01*
X0376225Y0112801D01*
X0376244Y0112750D01*
X0376267Y0112701D01*
X0376293Y0112653D01*
X0376322Y0112607D01*
X0376355Y0112564D01*
X0376391Y0112523D01*
X0376429Y0112485D01*
X0376470Y0112449D01*
X0376514Y0112417D01*
X0376559Y0112387D01*
X0376607Y0112361D01*
X0376657Y0112339D01*
X0376707Y0112320D01*
X0376760Y0112305D01*
X0376813Y0112293D01*
X0376866Y0112285D01*
X0376921Y0112281D01*
X0376975Y0112281D01*
X0377029Y0112285D01*
X0377083Y0112293D01*
X0377136Y0112304D01*
X0377188Y0112320D01*
X0377239Y0112339D01*
X0377288Y0112361D01*
X0377336Y0112387D01*
X0377382Y0112416D01*
X0379283Y0115402D02*
X0376934Y0117751D01*
X0378741Y0119558D02*
X0381090Y0117209D01*
X0381091Y0117209D02*
X0381139Y0117158D01*
X0381185Y0117104D01*
X0381227Y0117048D01*
X0381266Y0116989D01*
X0381302Y0116929D01*
X0381335Y0116866D01*
X0381364Y0116802D01*
X0381390Y0116737D01*
X0381412Y0116670D01*
X0381430Y0116602D01*
X0381445Y0116533D01*
X0381455Y0116463D01*
X0381462Y0116393D01*
X0381465Y0116323D01*
X0381464Y0116252D01*
X0381459Y0116182D01*
X0381450Y0116112D01*
X0381438Y0116043D01*
X0381421Y0115974D01*
X0381401Y0115907D01*
X0381378Y0115840D01*
X0381350Y0115776D01*
X0381319Y0115712D01*
X0381285Y0115651D01*
X0381247Y0115591D01*
X0381206Y0115534D01*
X0381162Y0115479D01*
X0381115Y0115427D01*
X0381065Y0115377D01*
X0381013Y0115330D01*
X0380958Y0115286D01*
X0380901Y0115245D01*
X0380841Y0115207D01*
X0380780Y0115173D01*
X0380716Y0115142D01*
X0380652Y0115114D01*
X0380585Y0115091D01*
X0380518Y0115071D01*
X0380449Y0115054D01*
X0380380Y0115042D01*
X0380310Y0115033D01*
X0380240Y0115028D01*
X0380169Y0115027D01*
X0380099Y0115030D01*
X0380029Y0115037D01*
X0379959Y0115047D01*
X0379890Y0115062D01*
X0379822Y0115080D01*
X0379755Y0115102D01*
X0379690Y0115128D01*
X0379626Y0115157D01*
X0379563Y0115190D01*
X0379503Y0115226D01*
X0379444Y0115265D01*
X0379388Y0115307D01*
X0379334Y0115353D01*
X0379283Y0115401D01*
M02*
