%
M48
M72
T01C0.0315
T02C0.0354
T03C0.0400
%
T01
X37344Y13222
X36637Y12514
X35930Y11807
X35222Y11100
X34515Y10393
X33808Y9686
X33101Y8979
X32394Y8272
X31687Y7565
X30980Y6858
X30273Y6150
X29566Y5443
X28859Y4736
X28151Y4029
X30273Y1908
X30980Y2615
X31687Y3322
X32394Y4029
X33101Y4736
X33808Y5443
X34515Y6150
X35222Y6858
X35930Y7565
X36637Y8272
X37344Y8979
X38051Y9686
X38758Y10393
X39465Y11100
T02
X39465Y8100
X37965Y6600
X40965Y6600
X42465Y8100
T03
X2185Y16210
X2185Y17990
X4745Y17990
X4745Y16210
X7185Y16210
X7185Y17990
X9745Y17990
X9745Y16210
X12185Y16210
X12185Y17990
X14745Y17990
X14745Y16210
X17185Y16210
X17185Y17990
X19745Y17990
X19745Y16210
X22185Y16210
X22185Y17990
X24745Y17990
X24745Y16210
X27185Y16210
X27185Y17990
X29745Y17990
X29745Y16210
X32185Y16210
X32185Y17990
X34745Y17990
X34745Y16210
X37185Y16210
X37185Y17990
X39745Y17990
X39745Y16210
X42185Y16210
X42185Y17990
X44745Y17990
X44745Y16210
X47185Y16210
X47185Y17990
X49745Y17990
X49745Y16210
X52185Y16210
X52185Y17990
X54745Y17990
X54745Y16210
X57185Y16210
X57185Y17990
X59745Y17990
X59745Y16210
X55965Y8600
X55965Y7600
X55965Y6600
X55965Y5600
M30
