G04 EAGLE Gerber X2 export*
%TF.Part,Single*%
%TF.FileFunction,Copper,L1,Top,Mixed*%
%TF.FilePolarity,Positive*%
%TF.GenerationSoftware,Autodesk,EAGLE,8.7.1*%
%TF.CreationDate,2018-04-09T02:22:03Z*%
G75*
%MOMM*%
%FSLAX34Y34*%
%LPD*%
%AMOC8*
5,1,8,0,0,1.08239X$1,22.5*%
G01*
%ADD10C,1.524000*%
%ADD11C,1.879600*%
%ADD12C,1.308000*%
%ADD13C,0.152400*%


D10*
X1389380Y215900D02*
X1404620Y215900D01*
X1404620Y190500D02*
X1389380Y190500D01*
X1389380Y165100D02*
X1404620Y165100D01*
X1404620Y139700D02*
X1389380Y139700D01*
D11*
X1016000Y165100D03*
X939800Y165100D03*
X1054100Y203200D03*
X977900Y203200D03*
X30988Y454406D03*
X96012Y454406D03*
X30988Y409194D03*
X96012Y409194D03*
X1173988Y454406D03*
X1239012Y454406D03*
X1173988Y409194D03*
X1239012Y409194D03*
X1300988Y454406D03*
X1366012Y454406D03*
X1300988Y409194D03*
X1366012Y409194D03*
X1427988Y454406D03*
X1493012Y454406D03*
X1427988Y409194D03*
X1493012Y409194D03*
X157988Y454406D03*
X223012Y454406D03*
X157988Y409194D03*
X223012Y409194D03*
X284988Y454406D03*
X350012Y454406D03*
X284988Y409194D03*
X350012Y409194D03*
X411988Y454406D03*
X477012Y454406D03*
X411988Y409194D03*
X477012Y409194D03*
X538988Y454406D03*
X604012Y454406D03*
X538988Y409194D03*
X604012Y409194D03*
X665988Y454406D03*
X731012Y454406D03*
X665988Y409194D03*
X731012Y409194D03*
X792988Y454406D03*
X858012Y454406D03*
X792988Y409194D03*
X858012Y409194D03*
X919988Y454406D03*
X985012Y454406D03*
X919988Y409194D03*
X985012Y409194D03*
X1046988Y454406D03*
X1112012Y454406D03*
X1046988Y409194D03*
X1112012Y409194D03*
D12*
X982524Y274776D02*
X973276Y284024D01*
X955315Y266064D02*
X964564Y256815D01*
X946603Y238855D02*
X937355Y248103D01*
X919394Y230143D02*
X928643Y220894D01*
X910682Y202933D02*
X901434Y212182D01*
X883473Y194222D02*
X892722Y184973D01*
X874761Y167012D02*
X865512Y176261D01*
X847552Y158301D02*
X856801Y149052D01*
X838840Y131091D02*
X829591Y140340D01*
X811631Y122380D02*
X820880Y113131D01*
X802919Y95170D02*
X793670Y104419D01*
X775710Y86459D02*
X784959Y77210D01*
X766998Y59249D02*
X757749Y68498D01*
X739789Y50538D02*
X749038Y41289D01*
X695156Y95170D02*
X685907Y104419D01*
X703868Y122380D02*
X713117Y113131D01*
X731077Y131091D02*
X721828Y140340D01*
X739789Y158301D02*
X749038Y149052D01*
X766998Y167012D02*
X757749Y176261D01*
X775710Y194222D02*
X784959Y184973D01*
X802919Y202933D02*
X793670Y212182D01*
X811631Y230143D02*
X820880Y220894D01*
X838840Y238855D02*
X829591Y248103D01*
X847552Y266064D02*
X856801Y256815D01*
X874761Y274776D02*
X865512Y284024D01*
X883473Y301985D02*
X892722Y292736D01*
X910682Y310697D02*
X901434Y319945D01*
X919394Y337906D02*
X928643Y328657D01*
D13*
X886968Y298704D02*
X821436Y298704D01*
X665988Y454152D01*
X886968Y298704D02*
X888097Y297361D01*
X665988Y454152D02*
X665988Y454406D01*
X905256Y342900D02*
X905256Y315468D01*
X905256Y342900D02*
X794004Y454152D01*
X905256Y315468D02*
X906058Y315321D01*
X794004Y454152D02*
X792988Y454406D01*
X925068Y396240D02*
X925068Y333756D01*
X925068Y396240D02*
X932688Y403860D01*
X932688Y441960D01*
X920496Y454152D01*
X925068Y333756D02*
X924018Y333282D01*
X920496Y454152D02*
X919988Y454406D01*
X978408Y385572D02*
X978408Y280416D01*
X978408Y385572D02*
X1046988Y454152D01*
X978408Y280416D02*
X977900Y279400D01*
X1046988Y454152D02*
X1046988Y454406D01*
X982980Y262128D02*
X960120Y262128D01*
X982980Y262128D02*
X1175004Y454152D01*
X960120Y262128D02*
X959940Y261439D01*
X1173988Y454406D02*
X1175004Y454152D01*
X1397508Y143256D02*
X1397508Y140208D01*
X1397508Y143256D02*
X1427988Y173736D01*
X1427988Y396240D02*
X1427988Y409194D01*
X1427988Y396240D02*
X1427988Y173736D01*
X1397508Y140208D02*
X1397000Y139700D01*
X1348740Y408432D02*
X1301496Y408432D01*
X1348740Y408432D02*
X1360932Y396240D01*
X1427988Y396240D01*
X1301496Y408432D02*
X1300988Y409194D01*
X1222248Y409956D02*
X1175004Y409956D01*
X1222248Y409956D02*
X1234440Y422148D01*
X1287780Y422148D01*
X1299972Y409956D01*
X1175004Y409956D02*
X1173988Y409194D01*
X1299972Y409956D02*
X1300988Y409194D01*
X79248Y409956D02*
X32004Y409956D01*
X79248Y409956D02*
X91440Y422148D01*
X144780Y422148D01*
X156972Y409956D01*
X32004Y409956D02*
X30988Y409194D01*
X156972Y409956D02*
X157988Y409194D01*
X284988Y409956D02*
X333756Y409956D01*
X345948Y422148D01*
X399288Y422148D01*
X411480Y409956D01*
X411988Y409194D01*
X493776Y409956D02*
X537972Y409956D01*
X493776Y409956D02*
X481584Y422148D01*
X425196Y422148D01*
X413004Y409956D01*
X537972Y409956D02*
X538988Y409194D01*
X413004Y409956D02*
X411988Y409194D01*
X205740Y409956D02*
X158496Y409956D01*
X205740Y409956D02*
X217932Y422148D01*
X272796Y422148D01*
X284988Y409956D01*
X158496Y409956D02*
X157988Y409194D01*
X284988Y409194D02*
X284988Y409956D01*
X691896Y100584D02*
X708660Y117348D01*
X691896Y100584D02*
X690532Y99795D01*
X708660Y117348D02*
X708492Y117755D01*
X708660Y118872D02*
X725424Y135636D01*
X726453Y135716D01*
X708660Y118872D02*
X708492Y117755D01*
X743712Y118872D02*
X815340Y118872D01*
X743712Y118872D02*
X726948Y135636D01*
X815340Y118872D02*
X816255Y117755D01*
X726948Y135636D02*
X726453Y135716D01*
X725424Y137160D02*
X725424Y348996D01*
X665988Y408432D01*
X725424Y137160D02*
X726453Y135716D01*
X665988Y408432D02*
X665988Y409194D01*
X586740Y409956D02*
X539496Y409956D01*
X586740Y409956D02*
X598932Y422148D01*
X653796Y422148D01*
X665988Y409956D01*
X539496Y409956D02*
X538988Y409194D01*
X665988Y409194D02*
X665988Y409956D01*
X1040892Y190500D02*
X1397000Y190500D01*
X1040892Y190500D02*
X1016508Y166116D01*
X1016000Y165100D01*
X915924Y82296D02*
X781812Y82296D01*
X915924Y82296D02*
X1036320Y202692D01*
X1053084Y202692D01*
X781812Y82296D02*
X780334Y81834D01*
X1053084Y202692D02*
X1054100Y203200D01*
X1065276Y214884D02*
X1395984Y214884D01*
X1065276Y214884D02*
X1054608Y204216D01*
X1395984Y214884D02*
X1397000Y215900D01*
X1054608Y204216D02*
X1054100Y203200D01*
X818388Y152400D02*
X745236Y152400D01*
X818388Y152400D02*
X833628Y137160D01*
X745236Y152400D02*
X744413Y153676D01*
X833628Y137160D02*
X834216Y135716D01*
X940308Y166116D02*
X976884Y202692D01*
X940308Y166116D02*
X939800Y165100D01*
X976884Y202692D02*
X977900Y203200D01*
X911352Y137160D02*
X835152Y137160D01*
X911352Y137160D02*
X938784Y164592D01*
X835152Y137160D02*
X834216Y135716D01*
X938784Y164592D02*
X939800Y165100D01*
M02*
