<?xml version="1.0" encoding="UTF-8" standalone="no"?>
<svg
   xmlns:dc="http://purl.org/dc/elements/1.1/"
   xmlns:cc="http://creativecommons.org/ns#"
   xmlns:rdf="http://www.w3.org/1999/02/22-rdf-syntax-ns#"
   xmlns:svg="http://www.w3.org/2000/svg"
   xmlns="http://www.w3.org/2000/svg"
   xmlns:sodipodi="http://sodipodi.sourceforge.net/DTD/sodipodi-0.dtd"
   xmlns:inkscape="http://www.inkscape.org/namespaces/inkscape"
   id="Layer_1"
   data-name="Layer 1"
   viewBox="0 0 1234.0442 1697.3686"
   version="1.1"
   sodipodi:docname="lightplate_box_final.svg"
   inkscape:version="0.92.1 r15371"
   width="326.50754mm"
   height="449.09546mm">
  <sodipodi:namedview
     pagecolor="#ffffff"
     bordercolor="#666666"
     borderopacity="1"
     objecttolerance="10"
     gridtolerance="10"
     guidetolerance="10"
     inkscape:pageopacity="0"
     inkscape:pageshadow="2"
     inkscape:window-width="1920"
     inkscape:window-height="1027"
     id="namedview685"
     showgrid="false"
     inkscape:measure-start="0,0"
     inkscape:measure-end="0,0"
     inkscape:document-units="mm"
     inkscape:snap-perpendicular="true"
     inkscape:snap-tangential="true"
     inkscape:zoom="0.28094669"
     inkscape:cx="949.61668"
     inkscape:cy="1109.0515"
     inkscape:window-x="-8"
     inkscape:window-y="-8"
     inkscape:window-maximized="1"
     inkscape:current-layer="Layer_1"
     showborder="true"
     units="mm"
     fit-margin-top="0"
     fit-margin-left="0"
     fit-margin-right="0"
     fit-margin-bottom="0">
    <inkscape:grid
       type="xygrid"
       id="grid6398"
       units="mm"
       spacingx="24.077178"
       spacingy="24.077178"
       empspacing="2"
       dotted="false"
       color="#863fff"
       opacity="0.1254902"
       originx="883.50721"
       originy="-536.99822" />
  </sodipodi:namedview>
  <metadata
     id="metadata687">
    <rdf:RDF>
      <cc:Work
         rdf:about="">
        <dc:format>image/svg+xml</dc:format>
        <dc:type
           rdf:resource="http://purl.org/dc/dcmitype/StillImage" />
        <dc:title>lightplate</dc:title>
      </cc:Work>
    </rdf:RDF>
  </metadata>
  <defs
     id="defs4">
    <style
       id="style2">
      .cls-1 {
        fill: none;
        stroke: #231f20;
        stroke-miterlimit: 10;
        stroke-width: 0.25px;
      }
    </style>
  </defs>
  <title
     id="title6">lightplate</title>
  <path
     style="fill:#ff0a0a;fill-opacity:0.52525252;stroke:none;stroke-width:1.13385832;stroke-miterlimit:4;stroke-dasharray:none;stroke-opacity:1"
     d="m 679.5189,0 v 12.14258 h 0.14453 v 24.78516 h 12 v 48.20703 h -12 v 49.56836 h 12 v 48.20898 h -12 v 49.56836 h 12 v 48.20703 h -12 v 49.56836 h 12 v 48.20899 h -12 v 49.56836 h 12 v 48.20703 h -12 v 49.56836 h 12 v 48.20898 h -12 v 36.78321 h 34.43945 v -12 h 43.51758 v 12 h 44.87891 v -12 h 43.51758 v 12 h 44.8789 v -12 h 43.51758 v 12 h 44.87891 v -12 h 43.51756 v 12 h 44.8789 v -12 h 43.5196 v 12 h 44.8789 v -12 h 43.5175 v 12 h 34.4395 v -36.78321 h -12 v -48.20898 h 12 v -49.56836 h -12 v -48.20703 h 12 v -49.56836 h -12 v -48.20899 h 12 v -49.56836 h -12 v -48.20703 h 12 v -49.56836 h -12 v -48.20898 h 12 v -49.56836 h -12 v -48.20703 h 12 v -36.78516 h -34.4395 v 12 h -43.5175 v -12 h -44.8789 v 12 h -43.5196 v -12 h -44.8789 v 12 h -43.51756 v -12 h -44.87891 v 12 h -43.51758 v -12 h -44.8789 v 12 h -43.51758 v -12 h -44.87891 v 12 h -43.51758 v -12 -0.14258 z"
     id="rect4763"
     inkscape:connector-curvature="0" />
  <path
     style="display:inline;opacity:1;fill:#ff0f0f;fill-opacity:0.49494952;stroke:none;stroke-width:1.83069026;stroke-miterlimit:4;stroke-dasharray:none;stroke-opacity:1"
     d="m 259.5586,27.90462 h -6.877 -0.6816 -19.0351 v -12 h -40.795 v 12 h -39.4316 v -12 h -40.7949 v 12 h -39.4336 v -12 h -40.793 v 12 h -19.7168 v 21.75781 h -12 v 44.878909 h 12 v 43.519531 h -12 v 44.87695 h 12 v 43.51953 h -12 v 44.87891 h 12 v 43.51758 h -12 v 44.8789 h 12 v 43.51758 h -12 v 44.87891 h 12 v 43.51758 h -12 v 44.8789 h 12 v 21.07618 0.68359 h 19.7168 v 12 h 40.793 v -12 h 39.4336 v 12 h 40.7949 v -12 h 39.4316 v 12 h 40.795 v -12 h 19.7167 6.877 v -0.68359 -48.1543 h -6.877 v -72.23047 h 6.877 v -96.16211 h -6.877 v -96.45703 h 6.877 v -96.30859 h -6.877 v -72.23047 h 6.877 z"
     id="rect4651-6"
     inkscape:connector-curvature="0" />
  <path
     style="fill:#ff0f0f;fill-opacity:0.49494952;stroke:none;stroke-width:1.17123365;stroke-miterlimit:4;stroke-dasharray:none;stroke-opacity:1"
     d="m 380.66329,0.35943 v 12 24.10352 13.69141 h 222.74416 v 407.66018 h -222.74416 v 37.7949 h -7.55859 v 102.7441 h 7.55859 v 12.6641 h 20.39649 v -12 h 39.43357 v 12 h 40.793 v -12 h 39.4336 v 12 h 40.793 v -12 h 39.4335 v 12 h 20.3965 v -36.1055 h 12 v -49.5683 h -12 v -48.2071 h 12 v -49.5683 h -12 v -48.209 h 12 v -49.5684 h -12 v -48.207 h 12 v -49.5684 h -12 v -48.20894 h 12 v -49.56836 h -12 v -48.20703 h 12 v -49.56836 h -12 v -36.10352 h -20.3965 v 12 h -39.4335 v -12 h -40.793 v 12 h -39.4336 v -12 h -40.793 v 12 h -39.43357 v -12 z"
     id="rect4653"
     inkscape:connector-curvature="0" />
  <path
     style="fill:#ff0f0f;fill-opacity:0.49494952;stroke:none;stroke-width:1.83069026;stroke-miterlimit:4;stroke-dasharray:none;stroke-opacity:1"
     d="m 713.4232,646.64844 v 12 h -21.75977 v 19.7168 h -12 v 40.79297 h 12 v 39.43359 h -12 v 40.79297 h 12 v 39.43359 h -12 v 40.79297 h 12 v 19.03711 0.67969 21.99805 h 529.69727 0.6836 v -21.99805 -0.18359 -19.53321 h 12 v -40.79297 h -12 v -39.43359 h 12 v -40.79297 h -12 v -39.43359 h 12 v -40.79297 h -12 v -19.7168 h -0.6836 -21.0762 v -12 h -44.8769 v 12 h -43.5196 v -12 h -44.8789 v 12 h -43.5176 v -12 h -44.87885 v 12 h -43.51758 v -12 h -44.87891 v 12 h -43.51757 v -12 h -44.87891 v 12 h -43.51758 v -12 z m 2.3164,252 h 72.23242 v 5.66797 h -72.23242 z m 192.61719,0 h 96.30861 v 5.66797 h -96.30861 z m 216.69531,0 h 72.2305 v 5.66797 h -72.2305 z"
     id="path4790"
     inkscape:connector-curvature="0" />
  <path
     style="display:inline;fill:#009609;fill-opacity:0.52525252;stroke:none;stroke-width:1.13385832;stroke-miterlimit:4;stroke-dasharray:none;stroke-opacity:1"
     d="m 413.19111,1065.0347 v 22.2597 h -48.1543 v 483.252 h 24.07813 v 0.1094 48.1543 54.4805 h 48.15429 v 24.0781 h 72.23065 v -24.0781 h 96.30871 v 24.0781 h 96.45697 v -24.0781 h 96.16045 v 24.0781 h 72.23189 v -24.0781 h 48.1543 v -54.4805 -48.1543 -0.1094 h 24.07617 v -483.252 h -48.15429 v -22.2597 h -72.23089 v 22.2597 h -120.3863 v -22.2597 h -96.3086 v 22.2597 h -120.38559 v -22.2597 z"
     id="boardoutline"
     inkscape:connector-curvature="0"
     sodipodi:nodetypes="ccccccccccccccccccccccccccccccccccccc"
     inkscape:label="boardoutline" />
  <path
     inkscape:connector-curvature="0"
     style="fill:#ff0f0f;fill-opacity:0.49494952;stroke:none;stroke-width:1.17123365;stroke-miterlimit:4;stroke-dasharray:none;stroke-opacity:1"
     d="m 570.66453,287.42557 v 12 24.10352 13.69141 h -222.74412 v 407.66015 h 222.74412 v 37.7949 h 7.55859 v 102.7441 h -7.55859 v 12.6641 h -20.39649 v -12 h -39.43353 v 12 h -40.793 v -12 h -39.4336 v 12 h -40.793 v -12 h -39.4335 v 12 h -20.3965 v -36.1055 h -12 v -49.5683 h 12 v -48.2071 h -12 v -49.5683 h 12 v -48.209 h -12 v -49.5684 h 12 v -48.207 h -12 v -49.5684 h 12 v -48.20891 h -12 v -49.56836 h 12 v -48.20703 h -12 v -49.56836 h 12 v -36.10352 h 20.3965 v 12 h 39.4335 v -12 h 40.793 v 12 h 39.4336 v -12 h 40.793 v 12 h 39.43353 v -12 z"
     id="rect4653-8" />
</svg>
