G75*
%MOIN*%
%OFA0B0*%
%FSLAX25Y25*%
%IPPOS*%
%LPD*%
%AMOC8*
5,1,8,0,0,1.08239X$1,22.5*
%
%ADD10C,0.06800*%
%ADD11C,0.08200*%
%ADD12C,0.05950*%
D10*
X0615342Y0083933D02*
X0621342Y0083933D01*
X0621342Y0093933D02*
X0615342Y0093933D01*
X0615342Y0103933D02*
X0621342Y0103933D01*
X0621342Y0113933D02*
X0615342Y0113933D01*
D11*
X0080542Y0190033D03*
X0080542Y0207833D03*
X0106142Y0207833D03*
X0106142Y0190033D03*
X0130542Y0190033D03*
X0130542Y0207833D03*
X0156142Y0207833D03*
X0156142Y0190033D03*
X0180542Y0190033D03*
X0180542Y0207833D03*
X0206142Y0207833D03*
X0206142Y0190033D03*
X0230542Y0190033D03*
X0230542Y0207833D03*
X0256142Y0207833D03*
X0256142Y0190033D03*
X0280542Y0190033D03*
X0280542Y0207833D03*
X0306142Y0207833D03*
X0306142Y0190033D03*
X0330542Y0190033D03*
X0330542Y0207833D03*
X0356142Y0207833D03*
X0356142Y0190033D03*
X0380542Y0190033D03*
X0380542Y0207833D03*
X0406142Y0207833D03*
X0406142Y0190033D03*
X0430542Y0190033D03*
X0430542Y0207833D03*
X0456142Y0207833D03*
X0456142Y0190033D03*
X0480542Y0190033D03*
X0480542Y0207833D03*
X0506142Y0207833D03*
X0506142Y0190033D03*
X0530542Y0190033D03*
X0530542Y0207833D03*
X0556142Y0207833D03*
X0556142Y0190033D03*
X0580542Y0190033D03*
X0580542Y0207833D03*
X0606142Y0207833D03*
X0606142Y0190033D03*
X0630542Y0190033D03*
X0630542Y0207833D03*
X0656142Y0207833D03*
X0656142Y0190033D03*
X0483342Y0108933D03*
X0468342Y0093933D03*
X0453342Y0108933D03*
X0438342Y0093933D03*
D12*
X0426878Y0108828D02*
X0423237Y0112469D01*
X0416166Y0105398D02*
X0419807Y0101757D01*
X0412736Y0094686D02*
X0409095Y0098327D01*
X0402024Y0091256D02*
X0405665Y0087615D01*
X0398594Y0080544D02*
X0394953Y0084185D01*
X0387882Y0077114D02*
X0391523Y0073473D01*
X0384452Y0066402D02*
X0380810Y0070043D01*
X0373739Y0062972D02*
X0377381Y0059331D01*
X0370310Y0052260D02*
X0366668Y0055901D01*
X0359597Y0048830D02*
X0363239Y0045189D01*
X0342025Y0066402D02*
X0338384Y0070043D01*
X0345455Y0077114D02*
X0349096Y0073473D01*
X0356168Y0080544D02*
X0352526Y0084185D01*
X0359597Y0091256D02*
X0363239Y0087615D01*
X0370310Y0094686D02*
X0366668Y0098327D01*
X0373739Y0105398D02*
X0377381Y0101757D01*
X0384452Y0108828D02*
X0380810Y0112469D01*
X0387882Y0119541D02*
X0391523Y0115899D01*
X0398594Y0122970D02*
X0394953Y0126612D01*
X0402024Y0133683D02*
X0405665Y0130041D01*
X0412736Y0137112D02*
X0409095Y0140754D01*
X0416166Y0147825D02*
X0419807Y0144183D01*
X0426878Y0151255D02*
X0423237Y0154896D01*
X0430308Y0161967D02*
X0433949Y0158326D01*
X0451521Y0140754D02*
X0455162Y0137112D01*
X0448091Y0130041D02*
X0444450Y0133683D01*
X0437379Y0126612D02*
X0441020Y0122970D01*
X0433949Y0115899D02*
X0430308Y0119541D01*
M02*
