%
M48
M72
T01C0.0315
T02C0.0354
T03C0.0400
%
T01
X43213Y16015
X42506Y15308
X41799Y14600
X41092Y13893
X40384Y13186
X39677Y12479
X38970Y11772
X38263Y11065
X37556Y10358
X36849Y9651
X36142Y8944
X35435Y8236
X34728Y7529
X34020Y6822
X36142Y4701
X36849Y5408
X37556Y6115
X38263Y6822
X38970Y7529
X39677Y8236
X40384Y8944
X41092Y9651
X41799Y10358
X42506Y11065
X43213Y11772
X43920Y12479
X44627Y13186
X45334Y13893
T02
X45334Y10893
X43834Y9393
X46834Y9393
X48334Y10893
T03
X8054Y19003
X8054Y20783
X10614Y20783
X10614Y19003
X13054Y19003
X13054Y20783
X15614Y20783
X15614Y19003
X18054Y19003
X18054Y20783
X20614Y20783
X20614Y19003
X23054Y19003
X23054Y20783
X25614Y20783
X25614Y19003
X28054Y19003
X28054Y20783
X30614Y20783
X30614Y19003
X33054Y19003
X33054Y20783
X35614Y20783
X35614Y19003
X38054Y19003
X38054Y20783
X40614Y20783
X40614Y19003
X43054Y19003
X43054Y20783
X45614Y20783
X45614Y19003
X48054Y19003
X48054Y20783
X50614Y20783
X50614Y19003
X53054Y19003
X53054Y20783
X55614Y20783
X55614Y19003
X58054Y19003
X58054Y20783
X60614Y20783
X60614Y19003
X63054Y19003
X63054Y20783
X65614Y20783
X65614Y19003
X61834Y11393
X61834Y10393
X61834Y9393
X61834Y8393
M30
