G75*
%MOIN*%
%OFA0B0*%
%FSLAX25Y25*%
%IPPOS*%
%LPD*%
%AMOC8*
5,1,8,0,0,1.08239X$1,22.5*
%
%ADD10C,0.06000*%
%ADD11C,0.07400*%
%ADD12C,0.05150*%
%ADD13C,0.00600*%
D10*
X0615342Y0083933D02*
X0621342Y0083933D01*
X0621342Y0093933D02*
X0615342Y0093933D01*
X0615342Y0103933D02*
X0621342Y0103933D01*
X0621342Y0113933D02*
X0615342Y0113933D01*
D11*
X0606142Y0190033D03*
X0606142Y0207833D03*
X0630542Y0207833D03*
X0630542Y0190033D03*
X0656142Y0190033D03*
X0656142Y0207833D03*
X0580542Y0207833D03*
X0580542Y0190033D03*
X0556142Y0190033D03*
X0556142Y0207833D03*
X0530542Y0207833D03*
X0530542Y0190033D03*
X0506142Y0190033D03*
X0506142Y0207833D03*
X0480542Y0207833D03*
X0480542Y0190033D03*
X0456142Y0190033D03*
X0456142Y0207833D03*
X0430542Y0207833D03*
X0430542Y0190033D03*
X0406142Y0190033D03*
X0406142Y0207833D03*
X0380542Y0207833D03*
X0380542Y0190033D03*
X0356142Y0190033D03*
X0356142Y0207833D03*
X0330542Y0207833D03*
X0330542Y0190033D03*
X0306142Y0190033D03*
X0306142Y0207833D03*
X0280542Y0207833D03*
X0280542Y0190033D03*
X0256142Y0190033D03*
X0256142Y0207833D03*
X0230542Y0207833D03*
X0230542Y0190033D03*
X0206142Y0190033D03*
X0206142Y0207833D03*
X0180542Y0207833D03*
X0180542Y0190033D03*
X0156142Y0190033D03*
X0156142Y0207833D03*
X0130542Y0207833D03*
X0130542Y0190033D03*
X0106142Y0190033D03*
X0106142Y0207833D03*
X0080542Y0207833D03*
X0080542Y0190033D03*
X0438342Y0093933D03*
X0453342Y0108933D03*
X0468342Y0093933D03*
X0483342Y0108933D03*
D12*
X0455162Y0137112D02*
X0451521Y0140754D01*
X0444450Y0133683D02*
X0448091Y0130041D01*
X0441020Y0122970D02*
X0437379Y0126612D01*
X0430308Y0119541D02*
X0433949Y0115899D01*
X0426878Y0108828D02*
X0423237Y0112469D01*
X0416166Y0105398D02*
X0419807Y0101757D01*
X0412736Y0094686D02*
X0409095Y0098327D01*
X0402024Y0091256D02*
X0405665Y0087615D01*
X0398594Y0080544D02*
X0394953Y0084185D01*
X0387882Y0077114D02*
X0391523Y0073473D01*
X0384452Y0066402D02*
X0380810Y0070043D01*
X0373739Y0062972D02*
X0377381Y0059331D01*
X0370310Y0052260D02*
X0366668Y0055901D01*
X0359597Y0048830D02*
X0363239Y0045189D01*
X0342025Y0066402D02*
X0338384Y0070043D01*
X0345455Y0077114D02*
X0349096Y0073473D01*
X0356168Y0080544D02*
X0352526Y0084185D01*
X0359597Y0091256D02*
X0363239Y0087615D01*
X0370310Y0094686D02*
X0366668Y0098327D01*
X0373739Y0105398D02*
X0377381Y0101757D01*
X0384452Y0108828D02*
X0380810Y0112469D01*
X0387882Y0119541D02*
X0391523Y0115899D01*
X0398594Y0122970D02*
X0394953Y0126612D01*
X0402024Y0133683D02*
X0405665Y0130041D01*
X0412736Y0137112D02*
X0409095Y0140754D01*
X0416166Y0147825D02*
X0419807Y0144183D01*
X0426878Y0151255D02*
X0423237Y0154896D01*
X0430308Y0161967D02*
X0433949Y0158326D01*
D13*
X0177542Y0111133D02*
X0080942Y0207733D01*
X0080542Y0207833D01*
X0130542Y0207833D02*
X0130742Y0207733D01*
X0220742Y0117733D01*
X0389342Y0117733D01*
X0389702Y0117720D01*
X0396542Y0124933D02*
X0396773Y0124791D01*
X0396542Y0124933D02*
X0263342Y0124933D01*
X0180542Y0207733D01*
X0180542Y0207833D01*
X0230542Y0207833D02*
X0230942Y0207733D01*
X0306542Y0132133D01*
X0403742Y0132133D01*
X0403844Y0131862D01*
X0410342Y0139333D02*
X0410915Y0138933D01*
X0410342Y0139333D02*
X0349142Y0139333D01*
X0280742Y0207733D01*
X0280542Y0207833D01*
X0330542Y0190333D02*
X0330542Y0190033D01*
X0330542Y0190333D02*
X0349742Y0190333D01*
X0354542Y0195133D01*
X0375542Y0195133D01*
X0380342Y0190333D01*
X0380542Y0190033D01*
X0380942Y0190333D01*
X0385742Y0195133D01*
X0407942Y0195133D01*
X0412742Y0190333D01*
X0430142Y0190333D01*
X0430542Y0190033D01*
X0430742Y0190333D01*
X0435542Y0195133D01*
X0457742Y0195133D01*
X0462542Y0190333D01*
X0480542Y0190333D01*
X0480542Y0190033D01*
X0480542Y0190333D02*
X0499742Y0190333D01*
X0504542Y0195133D01*
X0525542Y0195133D01*
X0530342Y0190333D01*
X0530542Y0190033D01*
X0580542Y0207833D02*
X0580742Y0207733D01*
X0497942Y0124933D01*
X0439742Y0124933D01*
X0439200Y0124791D01*
X0432542Y0117733D02*
X0432129Y0117720D01*
X0432542Y0117733D02*
X0540542Y0117733D01*
X0630542Y0207733D01*
X0630542Y0207833D01*
X0617942Y0094333D02*
X0618342Y0093933D01*
X0617942Y0094333D02*
X0474542Y0094333D01*
X0460142Y0108733D01*
X0453542Y0108733D01*
X0453342Y0108933D01*
X0452942Y0093733D02*
X0467942Y0093733D01*
X0468342Y0093933D01*
X0452942Y0093733D02*
X0413342Y0054133D01*
X0368942Y0054133D01*
X0368489Y0054080D01*
X0382631Y0110649D02*
X0382142Y0111133D01*
X0177542Y0111133D01*
M02*
