G75*
%MOIN*%
%OFA0B0*%
%FSLAX25Y25*%
%IPPOS*%
%LPD*%
%AMOC8*
5,1,8,0,0,1.08239X$1,22.5*
%
%ADD10C,0.06000*%
%ADD11C,0.07400*%
%ADD12C,0.05150*%
%ADD13C,0.01000*%
D10*
X0556651Y0056002D02*
X0562651Y0056002D01*
X0562651Y0066002D02*
X0556651Y0066002D01*
X0556651Y0076002D02*
X0562651Y0076002D01*
X0562651Y0086002D02*
X0556651Y0086002D01*
D11*
X0547451Y0162102D03*
X0547451Y0179902D03*
X0571851Y0179902D03*
X0571851Y0162102D03*
X0597451Y0162102D03*
X0597451Y0179902D03*
X0521851Y0179902D03*
X0521851Y0162102D03*
X0497451Y0162102D03*
X0497451Y0179902D03*
X0471851Y0179902D03*
X0471851Y0162102D03*
X0447451Y0162102D03*
X0447451Y0179902D03*
X0421851Y0179902D03*
X0421851Y0162102D03*
X0397451Y0162102D03*
X0397451Y0179902D03*
X0371851Y0179902D03*
X0371851Y0162102D03*
X0347451Y0162102D03*
X0347451Y0179902D03*
X0321851Y0179902D03*
X0321851Y0162102D03*
X0297451Y0162102D03*
X0297451Y0179902D03*
X0271851Y0179902D03*
X0271851Y0162102D03*
X0247451Y0162102D03*
X0247451Y0179902D03*
X0221851Y0179902D03*
X0221851Y0162102D03*
X0197451Y0162102D03*
X0197451Y0179902D03*
X0171851Y0179902D03*
X0171851Y0162102D03*
X0147451Y0162102D03*
X0147451Y0179902D03*
X0121851Y0179902D03*
X0121851Y0162102D03*
X0097451Y0162102D03*
X0097451Y0179902D03*
X0071851Y0179902D03*
X0071851Y0162102D03*
X0047451Y0162102D03*
X0047451Y0179902D03*
X0021851Y0179902D03*
X0021851Y0162102D03*
X0379651Y0066002D03*
X0394651Y0081002D03*
X0409651Y0066002D03*
X0424651Y0081002D03*
D12*
X0396472Y0109181D02*
X0392830Y0112823D01*
X0385759Y0105752D02*
X0389401Y0102110D01*
X0382330Y0095039D02*
X0378688Y0098680D01*
X0371617Y0091609D02*
X0375259Y0087968D01*
X0368188Y0080897D02*
X0364546Y0084538D01*
X0357475Y0077467D02*
X0361116Y0073826D01*
X0354045Y0066755D02*
X0350404Y0070396D01*
X0343333Y0063325D02*
X0346974Y0059684D01*
X0339903Y0052613D02*
X0336262Y0056254D01*
X0329191Y0049183D02*
X0332832Y0045542D01*
X0325761Y0038471D02*
X0322120Y0042112D01*
X0315049Y0035041D02*
X0318690Y0031400D01*
X0311619Y0024328D02*
X0307978Y0027970D01*
X0300907Y0020899D02*
X0304548Y0017257D01*
X0283335Y0038471D02*
X0279693Y0042112D01*
X0286764Y0049183D02*
X0290406Y0045542D01*
X0297477Y0052613D02*
X0293836Y0056254D01*
X0300907Y0063325D02*
X0304548Y0059684D01*
X0311619Y0066755D02*
X0307978Y0070396D01*
X0315049Y0077467D02*
X0318690Y0073826D01*
X0325761Y0080897D02*
X0322120Y0084538D01*
X0329191Y0091609D02*
X0332832Y0087968D01*
X0339903Y0095039D02*
X0336262Y0098680D01*
X0343333Y0105752D02*
X0346974Y0102110D01*
X0354045Y0109181D02*
X0350404Y0112823D01*
X0357475Y0119894D02*
X0361116Y0116252D01*
X0368188Y0123323D02*
X0364546Y0126965D01*
X0371617Y0134036D02*
X0375259Y0130394D01*
D13*
X0118651Y0083002D02*
X0022651Y0179002D01*
X0021851Y0179902D01*
X0071851Y0179902D02*
X0072651Y0179002D01*
X0079651Y0172002D01*
X0169651Y0172002D01*
X0251651Y0090002D01*
X0330651Y0090002D01*
X0331012Y0089789D01*
X0337651Y0097002D02*
X0338083Y0096860D01*
X0337651Y0097002D02*
X0247651Y0097002D01*
X0170651Y0174002D01*
X0127651Y0174002D01*
X0122651Y0179002D01*
X0121851Y0179902D01*
X0116651Y0168002D02*
X0121651Y0163002D01*
X0121851Y0162102D01*
X0122651Y0163002D01*
X0140651Y0163002D01*
X0145651Y0168002D01*
X0166651Y0168002D01*
X0171651Y0163002D01*
X0171851Y0162102D01*
X0172651Y0179002D02*
X0171851Y0179902D01*
X0172651Y0179002D02*
X0247651Y0104002D01*
X0344651Y0104002D01*
X0345154Y0103931D01*
X0352225Y0111002D02*
X0330651Y0111002D01*
X0267651Y0174002D01*
X0227651Y0174002D01*
X0222651Y0179002D01*
X0221851Y0179902D01*
X0222651Y0163002D02*
X0221851Y0162102D01*
X0222651Y0163002D02*
X0240651Y0163002D01*
X0245651Y0168002D01*
X0266651Y0168002D01*
X0271651Y0163002D01*
X0271851Y0162102D01*
X0272651Y0179002D02*
X0271851Y0179902D01*
X0272651Y0179002D02*
X0332651Y0119002D01*
X0358651Y0119002D01*
X0359296Y0118073D01*
X0366367Y0125144D02*
X0365651Y0126002D01*
X0365651Y0136002D01*
X0322651Y0179002D01*
X0321851Y0179902D01*
X0371851Y0179902D02*
X0372651Y0179002D01*
X0377651Y0174002D01*
X0377651Y0160002D01*
X0373651Y0156002D01*
X0373651Y0133002D01*
X0373438Y0132215D01*
X0394651Y0151002D02*
X0422651Y0179002D01*
X0421851Y0179902D01*
X0394651Y0151002D02*
X0394651Y0111002D01*
X0397651Y0104002D02*
X0387651Y0104002D01*
X0387580Y0103931D01*
X0397651Y0104002D02*
X0472651Y0179002D01*
X0471851Y0179902D01*
X0472651Y0163002D02*
X0471851Y0162102D01*
X0472651Y0163002D02*
X0490651Y0163002D01*
X0495651Y0168002D01*
X0516651Y0168002D01*
X0521651Y0163002D01*
X0521851Y0162102D01*
X0522651Y0162002D01*
X0539651Y0162002D01*
X0545651Y0156002D01*
X0571651Y0156002D01*
X0571651Y0068002D01*
X0559651Y0056002D01*
X0559651Y0076002D02*
X0427651Y0076002D01*
X0417651Y0066002D01*
X0409651Y0066002D01*
X0398651Y0066002D01*
X0359651Y0027002D01*
X0310651Y0027002D01*
X0309798Y0026149D01*
X0316869Y0033220D02*
X0317651Y0034002D01*
X0363651Y0034002D01*
X0410651Y0081002D01*
X0424651Y0081002D01*
X0429651Y0086002D01*
X0559651Y0086002D01*
X0571651Y0156002D02*
X0571651Y0162002D01*
X0571851Y0162102D01*
X0394651Y0081002D02*
X0379651Y0066002D01*
X0368651Y0055002D01*
X0338651Y0055002D01*
X0338083Y0054433D01*
X0337651Y0055002D01*
X0331651Y0061002D01*
X0303651Y0061002D01*
X0302727Y0061504D01*
X0296651Y0054002D02*
X0295656Y0054433D01*
X0295651Y0054002D01*
X0288651Y0047002D01*
X0288585Y0047362D01*
X0287651Y0047002D01*
X0281651Y0041002D01*
X0281514Y0040291D01*
X0296651Y0054002D02*
X0302651Y0048002D01*
X0330651Y0048002D01*
X0331012Y0047362D01*
X0323940Y0082718D02*
X0323651Y0083002D01*
X0118651Y0083002D01*
X0090651Y0163002D02*
X0072651Y0163002D01*
X0071851Y0162102D01*
X0090651Y0163002D02*
X0095651Y0168002D01*
X0116651Y0168002D01*
M02*
