G75*
%MOIN*%
%OFA0B0*%
%FSLAX26Y26*%
%IPPOS*%
%LPD*%
%AMOC8*
5,1,8,0,0,1.08239X$1,22.5*
%
%ADD10C,0.000039*%
D10*
X00210972Y01923685D02*
X00250804Y01918479D01*
X00290632Y01923684D01*
X00327739Y01939066D01*
X00359596Y01963542D01*
X00384072Y01995397D01*
X00399455Y02032505D01*
X00404661Y02072337D01*
X00403344Y02092429D01*
X00399418Y02112162D01*
X00392947Y02131222D01*
X00384048Y02149268D01*
X00372870Y02165996D01*
X00359598Y02181130D01*
X00344459Y02194406D01*
X00327729Y02205584D01*
X00309676Y02214485D01*
X00290623Y02220953D01*
X00270891Y02224878D01*
X00250804Y02226194D01*
X00230712Y02224877D01*
X00210978Y02220951D01*
X00191918Y02214480D01*
X00173873Y02205580D01*
X00157144Y02194403D01*
X00142010Y02181130D01*
X00128734Y02165992D01*
X00117557Y02149262D01*
X00108655Y02131208D01*
X00102188Y02112156D01*
X00098263Y02092424D01*
X00096946Y02072337D01*
X00102152Y02032508D01*
X00117533Y01995402D01*
X00142009Y01963544D01*
X00173865Y01939069D01*
X00210972Y01923685D01*
X00603759Y02032508D02*
X00598554Y02072337D01*
X00599870Y02092424D01*
X00603796Y02112156D01*
X00610263Y02131208D01*
X00619165Y02149262D01*
X00630342Y02165992D01*
X00643618Y02181130D01*
X00658752Y02194403D01*
X00675481Y02205580D01*
X00693526Y02214480D01*
X00712586Y02220951D01*
X00732320Y02224877D01*
X00752412Y02226194D01*
X00772499Y02224878D01*
X00792231Y02220953D01*
X00811284Y02214485D01*
X00829337Y02205584D01*
X00846067Y02194406D01*
X00861205Y02181130D01*
X00874478Y02165996D01*
X00885656Y02149268D01*
X00894555Y02131222D01*
X00901026Y02112162D01*
X00904952Y02092429D01*
X00906269Y02072337D01*
X00901064Y02032505D01*
X00885680Y01995397D01*
X00861205Y01963542D01*
X00829347Y01939066D01*
X00792240Y01923684D01*
X00752412Y01918479D01*
X00712580Y01923685D01*
X00675472Y01939069D01*
X00643617Y01963544D01*
X00619141Y01995402D01*
X00603759Y02032508D01*
X00712580Y02425293D02*
X00675472Y02440676D01*
X00643617Y02465152D01*
X00619141Y02497009D01*
X00603759Y02534116D01*
X00598554Y02573945D01*
X00599870Y02594031D01*
X00603796Y02613763D01*
X00610263Y02632817D01*
X00619165Y02650870D01*
X00630342Y02667600D01*
X00643618Y02682738D01*
X00658752Y02696011D01*
X00675481Y02707188D01*
X00693526Y02716087D01*
X00712586Y02722559D01*
X00732320Y02726485D01*
X00752412Y02727802D01*
X00772499Y02726486D01*
X00792231Y02722561D01*
X00811284Y02716093D01*
X00829337Y02707192D01*
X00846067Y02696014D01*
X00861205Y02682738D01*
X00874478Y02667604D01*
X00885656Y02650876D01*
X00894555Y02632830D01*
X00901026Y02613770D01*
X00904952Y02594037D01*
X00906269Y02573945D01*
X00901064Y02534113D01*
X00885680Y02497005D01*
X00861205Y02465150D01*
X00829347Y02440674D01*
X00792240Y02425292D01*
X00752412Y02420087D01*
X00712580Y02425293D01*
X00399455Y02534113D02*
X00384072Y02497005D01*
X00359596Y02465150D01*
X00327739Y02440674D01*
X00290632Y02425292D01*
X00250804Y02420087D01*
X00210972Y02425293D01*
X00173865Y02440676D01*
X00142009Y02465152D01*
X00117533Y02497009D01*
X00102152Y02534116D01*
X00096946Y02573945D01*
X00098263Y02594031D01*
X00102188Y02613763D01*
X00108655Y02632817D01*
X00117557Y02650870D01*
X00128734Y02667600D01*
X00142010Y02682738D01*
X00157144Y02696011D01*
X00173873Y02707188D01*
X00191918Y02716087D01*
X00210978Y02722559D01*
X00230712Y02726485D01*
X00250804Y02727802D01*
X00270891Y02726486D01*
X00290623Y02722561D01*
X00309676Y02716093D01*
X00327729Y02707192D01*
X00344459Y02696014D01*
X00359598Y02682738D01*
X00372870Y02667604D01*
X00384048Y02650876D01*
X00392947Y02632830D01*
X00399418Y02613770D01*
X00403344Y02594037D01*
X00404661Y02573945D01*
X00399455Y02534113D01*
X00290632Y02926900D02*
X00250804Y02921695D01*
X00210972Y02926901D01*
X00173865Y02942284D01*
X00142009Y02966760D01*
X00117533Y02998617D01*
X00102152Y03035724D01*
X00096946Y03075552D01*
X00098263Y03095639D01*
X00102188Y03115371D01*
X00108655Y03134424D01*
X00117557Y03152478D01*
X00128734Y03169208D01*
X00142010Y03184346D01*
X00157144Y03197619D01*
X00173873Y03208796D01*
X00191918Y03217695D01*
X00210978Y03224167D01*
X00230712Y03228093D01*
X00250804Y03229410D01*
X00270891Y03228094D01*
X00290623Y03224169D01*
X00309676Y03217701D01*
X00327729Y03208800D01*
X00344459Y03197622D01*
X00359598Y03184346D01*
X00372870Y03169212D01*
X00384048Y03152484D01*
X00392947Y03134438D01*
X00399418Y03115378D01*
X00403344Y03095644D01*
X00404661Y03075552D01*
X00399455Y03035721D01*
X00384072Y02998613D01*
X00359596Y02966758D01*
X00327739Y02942282D01*
X00290632Y02926900D01*
X00603759Y03035724D02*
X00619141Y02998617D01*
X00643617Y02966760D01*
X00675472Y02942284D01*
X00712580Y02926901D01*
X00752412Y02921695D01*
X00792240Y02926900D01*
X00829347Y02942282D01*
X00861205Y02966758D01*
X00885680Y02998613D01*
X00901064Y03035721D01*
X00906269Y03075552D01*
X00904952Y03095644D01*
X00901026Y03115378D01*
X00894555Y03134438D01*
X00885656Y03152484D01*
X00874478Y03169212D01*
X00861205Y03184346D01*
X00846067Y03197622D01*
X00829337Y03208800D01*
X00811284Y03217701D01*
X00792231Y03224169D01*
X00772499Y03228094D01*
X00752412Y03229410D01*
X00732320Y03228093D01*
X00712586Y03224167D01*
X00693526Y03217695D01*
X00675481Y03208796D01*
X00658752Y03197619D01*
X00643618Y03184346D01*
X00630342Y03169208D01*
X00619165Y03152478D01*
X00610263Y03134424D01*
X00603796Y03115371D01*
X00599870Y03095639D01*
X00598554Y03075552D01*
X00603759Y03035724D01*
X00712580Y03428509D02*
X00752412Y03423303D01*
X00792240Y03428508D01*
X00829347Y03443890D01*
X00861205Y03468366D01*
X00885680Y03500221D01*
X00901064Y03537329D01*
X00906269Y03577160D01*
X00904952Y03597252D01*
X00901026Y03616986D01*
X00894555Y03636046D01*
X00885656Y03654091D01*
X00874478Y03670820D01*
X00861205Y03685954D01*
X00846067Y03699230D01*
X00829337Y03710407D01*
X00811284Y03719309D01*
X00792231Y03725776D01*
X00772499Y03729702D01*
X00752412Y03731018D01*
X00732320Y03729701D01*
X00712586Y03725774D01*
X00693526Y03719303D01*
X00675481Y03710404D01*
X00658752Y03699227D01*
X00643618Y03685954D01*
X00630342Y03670816D01*
X00619165Y03654085D01*
X00610263Y03636032D01*
X00603796Y03616979D01*
X00599870Y03597247D01*
X00598554Y03577160D01*
X00603759Y03537332D01*
X00619141Y03500226D01*
X00643617Y03468368D01*
X00675472Y03443892D01*
X00712580Y03428509D01*
X00399455Y03537329D02*
X00384072Y03500221D01*
X00359596Y03468366D01*
X00327739Y03443890D01*
X00290632Y03428508D01*
X00250804Y03423303D01*
X00210972Y03428509D01*
X00173865Y03443892D01*
X00142009Y03468368D01*
X00117533Y03500226D01*
X00102152Y03537332D01*
X00096946Y03577160D01*
X00098263Y03597247D01*
X00102188Y03616979D01*
X00108655Y03636032D01*
X00117557Y03654085D01*
X00128734Y03670816D01*
X00142010Y03685954D01*
X00157144Y03699227D01*
X00173873Y03710404D01*
X00191918Y03719303D01*
X00210978Y03725774D01*
X00230712Y03729701D01*
X00250804Y03731018D01*
X00270891Y03729702D01*
X00290623Y03725776D01*
X00309676Y03719309D01*
X00327729Y03710407D01*
X00344459Y03699230D01*
X00359598Y03685954D01*
X00372870Y03670820D01*
X00384048Y03654091D01*
X00392947Y03636046D01*
X00399418Y03616986D01*
X00403344Y03597252D01*
X00404661Y03577160D01*
X00399455Y03537329D01*
X00290632Y03930116D02*
X00250804Y03924911D01*
X00210972Y03930117D01*
X00173865Y03945500D01*
X00142009Y03969976D01*
X00117533Y04001833D01*
X00102152Y04038940D01*
X00096946Y04078768D01*
X00098263Y04098855D01*
X00102188Y04118587D01*
X00108655Y04137640D01*
X00117557Y04155693D01*
X00128734Y04172424D01*
X00142010Y04187562D01*
X00157144Y04200835D01*
X00173873Y04212012D01*
X00191918Y04220911D01*
X00210978Y04227382D01*
X00230712Y04231309D01*
X00250804Y04232626D01*
X00270891Y04231309D01*
X00290623Y04227384D01*
X00309676Y04220917D01*
X00327729Y04212015D01*
X00344459Y04200838D01*
X00359598Y04187562D01*
X00372870Y04172428D01*
X00384048Y04155699D01*
X00392947Y04137654D01*
X00399418Y04118594D01*
X00403344Y04098860D01*
X00404661Y04078768D01*
X00399455Y04038937D01*
X00384072Y04001829D01*
X00359596Y03969974D01*
X00327739Y03945498D01*
X00290632Y03930116D01*
X00603759Y04038940D02*
X00619141Y04001833D01*
X00643617Y03969976D01*
X00675472Y03945500D01*
X00712580Y03930117D01*
X00752412Y03924911D01*
X00792240Y03930116D01*
X00829347Y03945498D01*
X00861205Y03969974D01*
X00885680Y04001829D01*
X00901064Y04038937D01*
X00906269Y04078768D01*
X00904952Y04098860D01*
X00901026Y04118594D01*
X00894555Y04137654D01*
X00885656Y04155699D01*
X00874478Y04172428D01*
X00861205Y04187562D01*
X00846067Y04200838D01*
X00829337Y04212015D01*
X00811284Y04220917D01*
X00792231Y04227384D01*
X00772499Y04231309D01*
X00752412Y04232626D01*
X00732320Y04231309D01*
X00712586Y04227382D01*
X00693526Y04220911D01*
X00675481Y04212012D01*
X00658752Y04200835D01*
X00643618Y04187562D01*
X00630342Y04172424D01*
X00619165Y04155693D01*
X00610263Y04137640D01*
X00603796Y04118587D01*
X00599870Y04098855D01*
X00598554Y04078768D01*
X00603759Y04038940D01*
X00712593Y04431760D02*
X00693540Y04438228D01*
X00675487Y04447129D01*
X00658757Y04458306D01*
X00643618Y04471582D01*
X00630345Y04486717D01*
X00619168Y04503445D01*
X00610269Y04521491D01*
X00603798Y04540550D01*
X00599871Y04560284D01*
X00598554Y04580376D01*
X00603760Y04620207D01*
X00619144Y04657315D01*
X00643619Y04689171D01*
X00675477Y04713647D01*
X00712583Y04729029D01*
X00752412Y04734234D01*
X00792243Y04729028D01*
X00829351Y04713644D01*
X00861207Y04689169D01*
X00885682Y04657311D01*
X00901064Y04620205D01*
X00906269Y04580376D01*
X00904953Y04560289D01*
X00901028Y04540557D01*
X00894561Y04521504D01*
X00885659Y04503451D01*
X00874482Y04486721D01*
X00861205Y04471582D01*
X00846071Y04458309D01*
X00829343Y04447133D01*
X00811298Y04438233D01*
X00792237Y04431762D01*
X00772504Y04427835D01*
X00752412Y04426518D01*
X00732325Y04427835D01*
X00712593Y04431760D01*
X00399420Y04540557D02*
X00392953Y04521504D01*
X00384051Y04503451D01*
X00372874Y04486721D01*
X00359598Y04471582D01*
X00344463Y04458309D01*
X00327735Y04447133D01*
X00309690Y04438233D01*
X00290630Y04431762D01*
X00270896Y04427835D01*
X00250804Y04426518D01*
X00230717Y04427835D01*
X00210985Y04431760D01*
X00191932Y04438228D01*
X00173879Y04447129D01*
X00157149Y04458306D01*
X00142010Y04471582D01*
X00128737Y04486717D01*
X00117560Y04503445D01*
X00108661Y04521491D01*
X00102190Y04540550D01*
X00098263Y04560284D01*
X00096946Y04580376D01*
X00102152Y04620207D01*
X00117536Y04657315D01*
X00142011Y04689171D01*
X00173869Y04713647D01*
X00210976Y04729029D01*
X00250804Y04734234D01*
X00290635Y04729028D01*
X00327743Y04713644D01*
X00359599Y04689169D01*
X00384074Y04657311D01*
X00399456Y04620205D01*
X00404661Y04580376D01*
X00403345Y04560289D01*
X00399420Y04540557D01*
X00290630Y04933370D02*
X00270896Y04929443D01*
X00250804Y04928126D01*
X00230717Y04929443D01*
X00210985Y04933368D01*
X00191932Y04939835D01*
X00173879Y04948737D01*
X00157149Y04959914D01*
X00142010Y04973190D01*
X00128737Y04988325D01*
X00117560Y05005053D01*
X00108661Y05023098D01*
X00102190Y05042158D01*
X00098263Y05061892D01*
X00096946Y05081984D01*
X00102152Y05121815D01*
X00117536Y05158923D01*
X00142011Y05190779D01*
X00173869Y05215255D01*
X00210976Y05230637D01*
X00250804Y05235842D01*
X00290635Y05230636D01*
X00327743Y05215252D01*
X00359599Y05190777D01*
X00384074Y05158919D01*
X00399456Y05121813D01*
X00404661Y05081984D01*
X00403345Y05061897D01*
X00399420Y05042165D01*
X00392953Y05023112D01*
X00384051Y05005059D01*
X00372874Y04988329D01*
X00359598Y04973190D01*
X00344463Y04959917D01*
X00327735Y04948741D01*
X00309690Y04939841D01*
X00290630Y04933370D01*
X00603798Y05042158D02*
X00599871Y05061892D01*
X00598554Y05081984D01*
X00603760Y05121815D01*
X00619144Y05158923D01*
X00643619Y05190779D01*
X00675477Y05215255D01*
X00712583Y05230637D01*
X00752412Y05235842D01*
X00792243Y05230636D01*
X00829351Y05215252D01*
X00861207Y05190777D01*
X00885682Y05158919D01*
X00901064Y05121813D01*
X00906269Y05081984D01*
X00904953Y05061897D01*
X00901028Y05042165D01*
X00894561Y05023112D01*
X00885659Y05005059D01*
X00874482Y04988329D01*
X00861205Y04973190D01*
X00846071Y04959917D01*
X00829343Y04948741D01*
X00811298Y04939841D01*
X00792237Y04933370D01*
X00772504Y04929443D01*
X00752412Y04928126D01*
X00732325Y04929443D01*
X00712593Y04933368D01*
X00693540Y04939835D01*
X00675487Y04948737D01*
X00658757Y04959914D01*
X00643618Y04973190D01*
X00630345Y04988325D01*
X00619168Y05005053D01*
X00610269Y05023098D01*
X00603798Y05042158D01*
X00712593Y05434976D02*
X00693540Y05441443D01*
X00675487Y05450345D01*
X00658757Y05461522D01*
X00643618Y05474798D01*
X00630345Y05489933D01*
X00619168Y05506661D01*
X00610269Y05524706D01*
X00603798Y05543766D01*
X00599871Y05563500D01*
X00598554Y05583592D01*
X00599870Y05603679D01*
X00603796Y05623411D01*
X00610263Y05642464D01*
X00619165Y05660517D01*
X00630342Y05677247D01*
X00643618Y05692386D01*
X00658752Y05705658D01*
X00675481Y05716835D01*
X00693526Y05725735D01*
X00712586Y05732206D01*
X00732320Y05736133D01*
X00752412Y05737450D01*
X00772499Y05736133D01*
X00792231Y05732208D01*
X00811283Y05725741D01*
X00829337Y05716839D01*
X00846067Y05705661D01*
X00861205Y05692386D01*
X00874478Y05677251D01*
X00885656Y05660523D01*
X00894555Y05642478D01*
X00901026Y05623418D01*
X00904952Y05603684D01*
X00906269Y05583592D01*
X00904953Y05563505D01*
X00901028Y05543773D01*
X00894561Y05524720D01*
X00885659Y05506667D01*
X00874482Y05489937D01*
X00861205Y05474798D01*
X00846071Y05461525D01*
X00829343Y05450348D01*
X00811298Y05441449D01*
X00792237Y05434978D01*
X00772504Y05431051D01*
X00752412Y05429734D01*
X00732325Y05431051D01*
X00712593Y05434976D01*
X00399420Y05543773D02*
X00392953Y05524720D01*
X00384051Y05506667D01*
X00372874Y05489937D01*
X00359598Y05474798D01*
X00344463Y05461525D01*
X00327735Y05450348D01*
X00309689Y05441449D01*
X00290630Y05434978D01*
X00270896Y05431051D01*
X00250804Y05429734D01*
X00230717Y05431051D01*
X00210985Y05434976D01*
X00191932Y05441443D01*
X00173879Y05450345D01*
X00157149Y05461522D01*
X00142010Y05474798D01*
X00128737Y05489933D01*
X00117560Y05506661D01*
X00108661Y05524706D01*
X00102190Y05543766D01*
X00098263Y05563500D01*
X00096946Y05583592D01*
X00102152Y05623424D01*
X00117536Y05660531D01*
X00142011Y05692387D01*
X00173869Y05716863D01*
X00210976Y05732244D01*
X00250804Y05737450D01*
X00270891Y05736133D01*
X00290623Y05732208D01*
X00309676Y05725741D01*
X00327729Y05716839D01*
X00344459Y05705661D01*
X00359598Y05692386D01*
X00372870Y05677251D01*
X00384048Y05660523D01*
X00392947Y05642478D01*
X00399418Y05623418D01*
X00403344Y05603684D01*
X00404661Y05583592D01*
X00403345Y05563505D01*
X00399420Y05543773D01*
X00376175Y06170719D02*
X00368671Y06171210D01*
X00361290Y06172679D01*
X00354174Y06175096D01*
X00347437Y06178418D01*
X00341186Y06182594D01*
X00335530Y06187554D01*
X00330571Y06193208D01*
X00326391Y06199466D01*
X00323069Y06206206D01*
X00320654Y06213319D01*
X00319187Y06220692D01*
X00318695Y06228199D01*
X00319186Y06235703D01*
X00320655Y06243084D01*
X00323072Y06250200D01*
X00326394Y06256937D01*
X00330570Y06263188D01*
X00335530Y06268844D01*
X00341184Y06273802D01*
X00347442Y06277983D01*
X00354182Y06281305D01*
X00361295Y06283720D01*
X00368668Y06285187D01*
X00376175Y06285679D01*
X00391055Y06283734D01*
X00404919Y06277987D01*
X00416820Y06268843D01*
X00425964Y06256941D01*
X00431713Y06243072D01*
X00433655Y06228199D01*
X00431710Y06213318D01*
X00425963Y06199455D01*
X00416819Y06187554D01*
X00404917Y06178410D01*
X00391048Y06172661D01*
X00376175Y06170719D01*
X00180969Y06213318D02*
X00175221Y06199455D01*
X00166078Y06187554D01*
X00154176Y06178410D01*
X00140305Y06172661D01*
X00125433Y06170719D01*
X00117929Y06171210D01*
X00110548Y06172679D01*
X00103433Y06175096D01*
X00096695Y06178418D01*
X00090445Y06182594D01*
X00084788Y06187554D01*
X00079829Y06193208D01*
X00075649Y06199466D01*
X00072327Y06206206D01*
X00069912Y06213319D01*
X00068445Y06220692D01*
X00067953Y06228199D01*
X00068445Y06235703D01*
X00069913Y06243084D01*
X00072329Y06250200D01*
X00075652Y06256937D01*
X00079828Y06263188D01*
X00084788Y06268844D01*
X00090443Y06273802D01*
X00096700Y06277983D01*
X00103440Y06281305D01*
X00110554Y06283720D01*
X00117926Y06285187D01*
X00125433Y06285679D01*
X00140314Y06283734D01*
X00154177Y06277987D01*
X00166078Y06268843D01*
X00175222Y06256941D01*
X00180971Y06243072D01*
X00182913Y06228199D01*
X00180969Y06213318D01*
X00569561Y06228199D02*
X00570052Y06235703D01*
X00571521Y06243084D01*
X00573938Y06250200D01*
X00577260Y06256937D01*
X00581436Y06263188D01*
X00586396Y06268844D01*
X00592050Y06273802D01*
X00598308Y06277983D01*
X00605048Y06281305D01*
X00612161Y06283720D01*
X00619534Y06285187D01*
X00627041Y06285679D01*
X00641922Y06283734D01*
X00655785Y06277987D01*
X00667686Y06268843D01*
X00676830Y06256941D01*
X00682579Y06243072D01*
X00684521Y06228199D01*
X00682576Y06213318D01*
X00676829Y06199455D01*
X00667685Y06187554D01*
X00655783Y06178410D01*
X00641913Y06172661D01*
X00627041Y06170719D01*
X00619537Y06171210D01*
X00612156Y06172679D01*
X00605041Y06175096D01*
X00598303Y06178418D01*
X00592052Y06182594D01*
X00586396Y06187554D01*
X00581437Y06193208D01*
X00577258Y06199466D01*
X00573935Y06206206D01*
X00571520Y06213319D01*
X00570053Y06220692D01*
X00569561Y06228199D01*
X00820302Y06228199D02*
X00820794Y06235703D01*
X00822263Y06243084D01*
X00824680Y06250200D01*
X00828002Y06256937D01*
X00832178Y06263188D01*
X00837138Y06268844D01*
X00842792Y06273802D01*
X00849050Y06277983D01*
X00855790Y06281305D01*
X00862903Y06283720D01*
X00870276Y06285187D01*
X00877783Y06285679D01*
X00892663Y06283734D01*
X00906527Y06277987D01*
X00918428Y06268843D01*
X00927572Y06256941D01*
X00933320Y06243072D01*
X00935263Y06228199D01*
X00933318Y06213318D01*
X00927571Y06199455D01*
X00918427Y06187554D01*
X00906525Y06178410D01*
X00892656Y06172661D01*
X00877783Y06170719D01*
X00870278Y06171210D01*
X00862898Y06172679D01*
X00855782Y06175096D01*
X00849045Y06178418D01*
X00842794Y06182594D01*
X00837138Y06187554D01*
X00832179Y06193208D01*
X00827999Y06199466D01*
X00824676Y06206206D01*
X00822261Y06213319D01*
X00820795Y06220692D01*
X00820302Y06228199D01*
X01071169Y06228199D02*
X01073113Y06243080D01*
X01078861Y06256943D01*
X01088004Y06268844D01*
X01099906Y06277988D01*
X01113776Y06283737D01*
X01128649Y06285679D01*
X01143530Y06283734D01*
X01157393Y06277987D01*
X01169294Y06268843D01*
X01178438Y06256941D01*
X01184187Y06243072D01*
X01186129Y06228199D01*
X01184184Y06213318D01*
X01178437Y06199455D01*
X01169293Y06187554D01*
X01157391Y06178410D01*
X01143522Y06172661D01*
X01128649Y06170719D01*
X01113768Y06172663D01*
X01099905Y06178411D01*
X01088004Y06187555D01*
X01078860Y06199456D01*
X01073111Y06213326D01*
X01071169Y06228199D01*
X01321910Y06228199D02*
X01323855Y06243080D01*
X01329602Y06256943D01*
X01338746Y06268844D01*
X01350648Y06277988D01*
X01364518Y06283737D01*
X01379391Y06285679D01*
X01394272Y06283734D01*
X01408135Y06277987D01*
X01420036Y06268843D01*
X01429180Y06256941D01*
X01434928Y06243072D01*
X01436871Y06228199D01*
X01434926Y06213318D01*
X01429179Y06199455D01*
X01420035Y06187554D01*
X01408133Y06178410D01*
X01394263Y06172661D01*
X01379391Y06170719D01*
X01364510Y06172663D01*
X01350646Y06178411D01*
X01338746Y06187555D01*
X01329602Y06199456D01*
X01323853Y06213326D01*
X01321910Y06228199D01*
X01572776Y06228199D02*
X01574721Y06243080D01*
X01580469Y06256943D01*
X01589612Y06268844D01*
X01601514Y06277988D01*
X01615384Y06283737D01*
X01630257Y06285679D01*
X01645137Y06283734D01*
X01659001Y06277987D01*
X01670902Y06268843D01*
X01680046Y06256941D01*
X01685795Y06243072D01*
X01687737Y06228199D01*
X01685792Y06213318D01*
X01680045Y06199455D01*
X01670901Y06187554D01*
X01658999Y06178410D01*
X01645129Y06172661D01*
X01630257Y06170719D01*
X01615376Y06172663D01*
X01601513Y06178411D01*
X01589611Y06187555D01*
X01580468Y06199456D01*
X01574719Y06213326D01*
X01572776Y06228199D01*
X01823518Y06228199D02*
X01825463Y06243080D01*
X01831210Y06256943D01*
X01840354Y06268844D01*
X01852256Y06277988D01*
X01866126Y06283737D01*
X01880998Y06285679D01*
X01895879Y06283734D01*
X01909742Y06277987D01*
X01921644Y06268843D01*
X01930788Y06256941D01*
X01936536Y06243072D01*
X01938479Y06228199D01*
X01936534Y06213318D01*
X01930787Y06199455D01*
X01921643Y06187554D01*
X01909741Y06178410D01*
X01895871Y06172661D01*
X01880998Y06170719D01*
X01866118Y06172663D01*
X01852254Y06178411D01*
X01840353Y06187555D01*
X01831209Y06199456D01*
X01825461Y06213326D01*
X01823518Y06228199D01*
X02074384Y06228199D02*
X02076329Y06243080D01*
X02082076Y06256943D01*
X02091220Y06268844D01*
X02103122Y06277988D01*
X02116992Y06283737D01*
X02131865Y06285679D01*
X02146745Y06283734D01*
X02160609Y06277987D01*
X02172510Y06268843D01*
X02181654Y06256941D01*
X02187402Y06243072D01*
X02189345Y06228199D01*
X02187400Y06213318D01*
X02181653Y06199455D01*
X02172509Y06187554D01*
X02160607Y06178410D01*
X02146737Y06172661D01*
X02131865Y06170719D01*
X02116984Y06172663D01*
X02103120Y06178411D01*
X02091219Y06187555D01*
X02082076Y06199456D01*
X02076327Y06213326D01*
X02074384Y06228199D01*
X02325126Y06228199D02*
X02327071Y06243080D01*
X02332818Y06256943D01*
X02341962Y06268844D01*
X02353864Y06277988D01*
X02367734Y06283737D01*
X02382606Y06285679D01*
X02397487Y06283734D01*
X02411350Y06277987D01*
X02423252Y06268843D01*
X02432396Y06256941D01*
X02438144Y06243072D01*
X02440087Y06228199D01*
X02438142Y06213318D01*
X02432394Y06199455D01*
X02423251Y06187554D01*
X02411349Y06178410D01*
X02397479Y06172661D01*
X02382606Y06170719D01*
X02367726Y06172663D01*
X02353862Y06178411D01*
X02341961Y06187555D01*
X02332817Y06199456D01*
X02327069Y06213326D01*
X02325126Y06228199D01*
X02575992Y06228199D02*
X02577937Y06243080D01*
X02583684Y06256943D01*
X02592828Y06268844D01*
X02604730Y06277988D01*
X02618600Y06283737D01*
X02633472Y06285679D01*
X02648354Y06283734D01*
X02662217Y06277987D01*
X02674118Y06268843D01*
X02683262Y06256941D01*
X02689010Y06243072D01*
X02690953Y06228199D01*
X02689008Y06213318D01*
X02683261Y06199455D01*
X02674117Y06187554D01*
X02662215Y06178410D01*
X02648345Y06172661D01*
X02633472Y06170719D01*
X02618592Y06172663D01*
X02604728Y06178411D01*
X02592828Y06187555D01*
X02583683Y06199456D01*
X02577935Y06213326D01*
X02575992Y06228199D01*
X02826734Y06228199D02*
X02828679Y06243080D01*
X02834426Y06256943D01*
X02843570Y06268844D01*
X02855472Y06277988D01*
X02869342Y06283737D01*
X02884214Y06285679D01*
X02899095Y06283734D01*
X02912958Y06277987D01*
X02924859Y06268843D01*
X02934004Y06256941D01*
X02939752Y06243072D01*
X02941695Y06228199D01*
X02939750Y06213318D01*
X02934002Y06199455D01*
X02924859Y06187554D01*
X02912957Y06178410D01*
X02899087Y06172661D01*
X02884214Y06170719D01*
X02869333Y06172663D01*
X02855470Y06178411D01*
X02843569Y06187555D01*
X02834425Y06199456D01*
X02828677Y06213326D01*
X02826734Y06228199D01*
X03077600Y06228199D02*
X03079545Y06243080D01*
X03085292Y06256943D01*
X03094436Y06268844D01*
X03106338Y06277988D01*
X03120208Y06283737D01*
X03135080Y06285679D01*
X03149961Y06283734D01*
X03163824Y06277987D01*
X03175726Y06268843D01*
X03184870Y06256941D01*
X03190618Y06243072D01*
X03192561Y06228199D01*
X03190616Y06213318D01*
X03184868Y06199455D01*
X03175725Y06187554D01*
X03163823Y06178410D01*
X03149953Y06172661D01*
X03135080Y06170719D01*
X03120200Y06172663D01*
X03106336Y06178411D01*
X03094435Y06187555D01*
X03085291Y06199456D01*
X03079543Y06213326D01*
X03077600Y06228199D01*
X03328342Y06228199D02*
X03330287Y06243080D01*
X03336034Y06256943D01*
X03345178Y06268844D01*
X03357079Y06277988D01*
X03370950Y06283737D01*
X03385822Y06285679D01*
X03400703Y06283734D01*
X03414566Y06277987D01*
X03426467Y06268843D01*
X03435611Y06256941D01*
X03441360Y06243072D01*
X03443302Y06228199D01*
X03441358Y06213318D01*
X03435610Y06199455D01*
X03426467Y06187554D01*
X03414565Y06178410D01*
X03400695Y06172661D01*
X03385822Y06170719D01*
X03370941Y06172663D01*
X03357078Y06178411D01*
X03345177Y06187555D01*
X03336033Y06199456D01*
X03330285Y06213326D01*
X03328342Y06228199D01*
X03579208Y06228199D02*
X03581153Y06243080D01*
X03586900Y06256943D01*
X03596044Y06268844D01*
X03607946Y06277988D01*
X03621816Y06283737D01*
X03636688Y06285679D01*
X03651569Y06283734D01*
X03665432Y06277987D01*
X03677333Y06268843D01*
X03686478Y06256941D01*
X03692226Y06243072D01*
X03694169Y06228199D01*
X03692224Y06213318D01*
X03686476Y06199455D01*
X03677333Y06187554D01*
X03665431Y06178410D01*
X03651561Y06172661D01*
X03636688Y06170719D01*
X03621807Y06172663D01*
X03607944Y06178411D01*
X03596043Y06187555D01*
X03586899Y06199456D01*
X03581151Y06213326D01*
X03579208Y06228199D01*
X03829950Y06228199D02*
X03831894Y06243080D01*
X03837642Y06256943D01*
X03846786Y06268844D01*
X03858688Y06277988D01*
X03872557Y06283737D01*
X03887430Y06285679D01*
X03902311Y06283734D01*
X03916174Y06277987D01*
X03928075Y06268843D01*
X03937219Y06256941D01*
X03942968Y06243072D01*
X03944911Y06228199D01*
X03942965Y06213318D01*
X03937219Y06199455D01*
X03928074Y06187554D01*
X03916172Y06178410D01*
X03902303Y06172661D01*
X03887430Y06170719D01*
X03872549Y06172663D01*
X03858686Y06178411D01*
X03846785Y06187555D01*
X03837641Y06199456D01*
X03831892Y06213326D01*
X03829950Y06228199D01*
X04080816Y06228199D02*
X04082761Y06243080D01*
X04088508Y06256943D01*
X04097652Y06268844D01*
X04109554Y06277988D01*
X04123424Y06283737D01*
X04138296Y06285679D01*
X04153177Y06283734D01*
X04167040Y06277987D01*
X04178941Y06268843D01*
X04188085Y06256941D01*
X04193834Y06243072D01*
X04195777Y06228199D01*
X04193831Y06213318D01*
X04188085Y06199455D01*
X04178941Y06187554D01*
X04167039Y06178410D01*
X04153169Y06172661D01*
X04138296Y06170719D01*
X04123415Y06172663D01*
X04109552Y06178411D01*
X04097651Y06187555D01*
X04088507Y06199456D01*
X04082759Y06213326D01*
X04080816Y06228199D01*
X04331558Y06228199D02*
X04333502Y06243080D01*
X04339250Y06256943D01*
X04348394Y06268844D01*
X04360296Y06277988D01*
X04374165Y06283737D01*
X04389038Y06285679D01*
X04403919Y06283734D01*
X04417782Y06277987D01*
X04429683Y06268843D01*
X04438827Y06256941D01*
X04444576Y06243072D01*
X04446518Y06228199D01*
X04444574Y06213318D01*
X04438826Y06199455D01*
X04429682Y06187554D01*
X04417780Y06178410D01*
X04403911Y06172661D01*
X04389038Y06170719D01*
X04374157Y06172663D01*
X04360294Y06178411D01*
X04348393Y06187555D01*
X04339249Y06199456D01*
X04333500Y06213326D01*
X04331558Y06228199D01*
X04582424Y06228199D02*
X04584368Y06243080D01*
X04590116Y06256943D01*
X04599260Y06268844D01*
X04611161Y06277988D01*
X04625031Y06283737D01*
X04639904Y06285679D01*
X04654785Y06283734D01*
X04668648Y06277987D01*
X04680549Y06268843D01*
X04689693Y06256941D01*
X04695442Y06243072D01*
X04697384Y06228199D01*
X04695439Y06213318D01*
X04689692Y06199455D01*
X04680548Y06187554D01*
X04668646Y06178410D01*
X04654777Y06172661D01*
X04639904Y06170719D01*
X04625023Y06172663D01*
X04611160Y06178411D01*
X04599259Y06187555D01*
X04590115Y06199456D01*
X04584367Y06213326D01*
X04582424Y06228199D01*
X04833165Y06228199D02*
X04835110Y06243080D01*
X04840858Y06256943D01*
X04850002Y06268844D01*
X04861904Y06277988D01*
X04875773Y06283737D01*
X04890646Y06285679D01*
X04905527Y06283734D01*
X04919390Y06277987D01*
X04931291Y06268843D01*
X04940435Y06256941D01*
X04946183Y06243072D01*
X04948126Y06228199D01*
X04946181Y06213318D01*
X04940434Y06199455D01*
X04931290Y06187554D01*
X04919388Y06178410D01*
X04905518Y06172661D01*
X04890646Y06170719D01*
X04875765Y06172663D01*
X04861902Y06178411D01*
X04850001Y06187555D01*
X04840857Y06199456D01*
X04835108Y06213326D01*
X04833165Y06228199D01*
X05084031Y06228199D02*
X05085976Y06243080D01*
X05091724Y06256943D01*
X05100868Y06268844D01*
X05112770Y06277988D01*
X05126639Y06283737D01*
X05141512Y06285679D01*
X05156393Y06283734D01*
X05170256Y06277987D01*
X05182157Y06268843D01*
X05191301Y06256941D01*
X05197050Y06243072D01*
X05198992Y06228199D01*
X05197048Y06213318D01*
X05191300Y06199455D01*
X05182156Y06187554D01*
X05170254Y06178410D01*
X05156385Y06172661D01*
X05141512Y06170719D01*
X05126631Y06172663D01*
X05112768Y06178411D01*
X05100867Y06187555D01*
X05091723Y06199456D01*
X05085974Y06213326D01*
X05084031Y06228199D01*
X05334773Y06228199D02*
X05336719Y06243080D01*
X05342466Y06256943D01*
X05351609Y06268844D01*
X05363511Y06277988D01*
X05377381Y06283737D01*
X05392254Y06285679D01*
X05407135Y06283734D01*
X05420998Y06277987D01*
X05432899Y06268843D01*
X05442043Y06256941D01*
X05447791Y06243072D01*
X05449734Y06228199D01*
X05447789Y06213318D01*
X05442042Y06199455D01*
X05432898Y06187554D01*
X05420996Y06178410D01*
X05407126Y06172661D01*
X05392254Y06170719D01*
X05377373Y06172663D01*
X05363510Y06178411D01*
X05351609Y06187555D01*
X05342465Y06199456D01*
X05336716Y06213326D01*
X05334773Y06228199D01*
X05585639Y06228199D02*
X05587584Y06243080D01*
X05593332Y06256943D01*
X05602476Y06268844D01*
X05614378Y06277988D01*
X05628247Y06283737D01*
X05643120Y06285679D01*
X05658001Y06283734D01*
X05671864Y06277987D01*
X05683765Y06268843D01*
X05692909Y06256941D01*
X05698657Y06243072D01*
X05700600Y06228199D01*
X05698656Y06213318D01*
X05692908Y06199455D01*
X05683764Y06187554D01*
X05671862Y06178410D01*
X05657992Y06172661D01*
X05643120Y06170719D01*
X05628239Y06172663D01*
X05614376Y06178411D01*
X05602475Y06187555D01*
X05593331Y06199456D01*
X05587582Y06213326D01*
X05585639Y06228199D01*
X05836382Y06228199D02*
X05838326Y06243080D01*
X05844074Y06256943D01*
X05853217Y06268844D01*
X05865119Y06277988D01*
X05878989Y06283737D01*
X05893862Y06285679D01*
X05908742Y06283734D01*
X05922606Y06277987D01*
X05934507Y06268843D01*
X05943651Y06256941D01*
X05949399Y06243072D01*
X05951342Y06228199D01*
X05949397Y06213318D01*
X05943650Y06199455D01*
X05934506Y06187554D01*
X05922604Y06178410D01*
X05908734Y06172661D01*
X05893862Y06170719D01*
X05878981Y06172663D01*
X05865118Y06178411D01*
X05853217Y06187555D01*
X05844072Y06199456D01*
X05838324Y06213326D01*
X05836382Y06228199D01*
X05768491Y05737450D02*
X05808322Y05732244D01*
X05845430Y05716860D01*
X05877285Y05692385D01*
X05901761Y05660527D01*
X05917143Y05623421D01*
X05922348Y05583592D01*
X05917142Y05543761D01*
X05901759Y05506653D01*
X05877283Y05474797D01*
X05845426Y05450321D01*
X05808319Y05434939D01*
X05768491Y05429734D01*
X05728659Y05434940D01*
X05691552Y05450324D01*
X05659696Y05474799D01*
X05635220Y05506657D01*
X05619838Y05543763D01*
X05614633Y05583592D01*
X05619839Y05623424D01*
X05635223Y05660531D01*
X05659698Y05692387D01*
X05691556Y05716863D01*
X05728662Y05732244D01*
X05768491Y05737450D01*
X05415535Y05623421D02*
X05420741Y05583592D01*
X05415535Y05543761D01*
X05400151Y05506653D01*
X05375676Y05474797D01*
X05343818Y05450321D01*
X05306711Y05434939D01*
X05266883Y05429734D01*
X05227052Y05434940D01*
X05189944Y05450324D01*
X05158088Y05474799D01*
X05133612Y05506657D01*
X05118230Y05543763D01*
X05113026Y05583592D01*
X05118231Y05623424D01*
X05133615Y05660531D01*
X05158090Y05692387D01*
X05189948Y05716863D01*
X05227054Y05732244D01*
X05266883Y05737450D01*
X05306715Y05732244D01*
X05343822Y05716860D01*
X05375678Y05692385D01*
X05400154Y05660527D01*
X05415535Y05623421D01*
X05306715Y05230636D02*
X05266883Y05235842D01*
X05227054Y05230637D01*
X05189948Y05215255D01*
X05158090Y05190779D01*
X05133615Y05158923D01*
X05118231Y05121815D01*
X05113026Y05081984D01*
X05114342Y05061892D01*
X05118269Y05042158D01*
X05124740Y05023098D01*
X05133639Y05005053D01*
X05144817Y04988325D01*
X05158089Y04973190D01*
X05173228Y04959914D01*
X05189958Y04948737D01*
X05208011Y04939835D01*
X05227064Y04933368D01*
X05246796Y04929443D01*
X05266883Y04928126D01*
X05286975Y04929443D01*
X05306709Y04933370D01*
X05325768Y04939841D01*
X05343814Y04948741D01*
X05360542Y04959917D01*
X05375677Y04973190D01*
X05388953Y04988329D01*
X05400130Y05005059D01*
X05409031Y05023112D01*
X05415499Y05042165D01*
X05419424Y05061897D01*
X05420741Y05081984D01*
X05415535Y05121813D01*
X05400154Y05158919D01*
X05375678Y05190777D01*
X05343822Y05215252D01*
X05306715Y05230636D01*
X05619839Y05121815D02*
X05635223Y05158923D01*
X05659698Y05190779D01*
X05691556Y05215255D01*
X05728662Y05230637D01*
X05768491Y05235842D01*
X05808322Y05230636D01*
X05845430Y05215252D01*
X05877285Y05190777D01*
X05901761Y05158919D01*
X05917143Y05121813D01*
X05922348Y05081984D01*
X05921032Y05061897D01*
X05917107Y05042165D01*
X05910639Y05023112D01*
X05901738Y05005059D01*
X05890561Y04988329D01*
X05877285Y04973190D01*
X05862150Y04959917D01*
X05845422Y04948741D01*
X05827376Y04939841D01*
X05808317Y04933370D01*
X05788583Y04929443D01*
X05768491Y04928126D01*
X05748404Y04929443D01*
X05728672Y04933368D01*
X05709619Y04939835D01*
X05691566Y04948737D01*
X05674835Y04959914D01*
X05659697Y04973190D01*
X05646424Y04988325D01*
X05635247Y05005053D01*
X05626348Y05023098D01*
X05619877Y05042158D01*
X05615950Y05061892D01*
X05614633Y05081984D01*
X05619839Y05121815D01*
X05728662Y04729029D02*
X05691556Y04713647D01*
X05659698Y04689171D01*
X05635223Y04657315D01*
X05619839Y04620207D01*
X05614633Y04580376D01*
X05615950Y04560284D01*
X05619877Y04540550D01*
X05626348Y04521491D01*
X05635247Y04503445D01*
X05646424Y04486717D01*
X05659697Y04471582D01*
X05674835Y04458306D01*
X05691566Y04447129D01*
X05709619Y04438228D01*
X05728672Y04431760D01*
X05748404Y04427835D01*
X05768491Y04426518D01*
X05788583Y04427835D01*
X05808317Y04431762D01*
X05827376Y04438233D01*
X05845422Y04447133D01*
X05862150Y04458309D01*
X05877285Y04471582D01*
X05890561Y04486721D01*
X05901738Y04503451D01*
X05910639Y04521504D01*
X05917107Y04540557D01*
X05921032Y04560289D01*
X05922348Y04580376D01*
X05917143Y04620205D01*
X05901761Y04657311D01*
X05877285Y04689169D01*
X05845430Y04713644D01*
X05808322Y04729028D01*
X05768491Y04734234D01*
X05728662Y04729029D01*
X05415535Y04620205D02*
X05420741Y04580376D01*
X05419424Y04560289D01*
X05415499Y04540557D01*
X05409031Y04521504D01*
X05400130Y04503451D01*
X05388953Y04486721D01*
X05375677Y04471582D01*
X05360542Y04458309D01*
X05343814Y04447133D01*
X05325768Y04438233D01*
X05306709Y04431762D01*
X05286975Y04427835D01*
X05266883Y04426518D01*
X05246796Y04427835D01*
X05227064Y04431760D01*
X05208011Y04438228D01*
X05189958Y04447129D01*
X05173228Y04458306D01*
X05158089Y04471582D01*
X05144817Y04486717D01*
X05133639Y04503445D01*
X05124740Y04521491D01*
X05118269Y04540550D01*
X05114342Y04560284D01*
X05113026Y04580376D01*
X05118231Y04620207D01*
X05133615Y04657315D01*
X05158090Y04689171D01*
X05189948Y04713647D01*
X05227054Y04729029D01*
X05266883Y04734234D01*
X05306715Y04729028D01*
X05343822Y04713644D01*
X05375678Y04689169D01*
X05400154Y04657311D01*
X05415535Y04620205D01*
X05306702Y04227384D02*
X05286970Y04231309D01*
X05266883Y04232626D01*
X05246791Y04231309D01*
X05227057Y04227382D01*
X05207997Y04220911D01*
X05189952Y04212012D01*
X05173224Y04200835D01*
X05158089Y04187562D01*
X05144813Y04172424D01*
X05133636Y04155693D01*
X05124734Y04137640D01*
X05118267Y04118587D01*
X05114342Y04098855D01*
X05113026Y04078768D01*
X05118230Y04038940D01*
X05133612Y04001833D01*
X05158088Y03969976D01*
X05189944Y03945500D01*
X05227052Y03930117D01*
X05266883Y03924911D01*
X05306711Y03930116D01*
X05343818Y03945498D01*
X05375676Y03969974D01*
X05400151Y04001829D01*
X05415535Y04038937D01*
X05420741Y04078768D01*
X05419424Y04098860D01*
X05415497Y04118594D01*
X05409026Y04137654D01*
X05400126Y04155699D01*
X05388950Y04172428D01*
X05375677Y04187562D01*
X05360538Y04200838D01*
X05343808Y04212015D01*
X05325755Y04220917D01*
X05306702Y04227384D01*
X05619875Y04118587D02*
X05626342Y04137640D01*
X05635244Y04155693D01*
X05646421Y04172424D01*
X05659697Y04187562D01*
X05674831Y04200835D01*
X05691560Y04212012D01*
X05709605Y04220911D01*
X05728665Y04227382D01*
X05748399Y04231309D01*
X05768491Y04232626D01*
X05788578Y04231309D01*
X05808310Y04227384D01*
X05827363Y04220917D01*
X05845416Y04212015D01*
X05862146Y04200838D01*
X05877285Y04187562D01*
X05890557Y04172428D01*
X05901734Y04155699D01*
X05910634Y04137654D01*
X05917105Y04118594D01*
X05921031Y04098860D01*
X05922348Y04078768D01*
X05917142Y04038937D01*
X05901759Y04001829D01*
X05877283Y03969974D01*
X05845426Y03945498D01*
X05808319Y03930116D01*
X05768491Y03924911D01*
X05728659Y03930117D01*
X05691552Y03945500D01*
X05659696Y03969976D01*
X05635220Y04001833D01*
X05619838Y04038940D01*
X05614633Y04078768D01*
X05615950Y04098855D01*
X05619875Y04118587D01*
X05728665Y03725774D02*
X05709605Y03719303D01*
X05691560Y03710404D01*
X05674831Y03699227D01*
X05659697Y03685954D01*
X05646421Y03670816D01*
X05635244Y03654085D01*
X05626342Y03636032D01*
X05619875Y03616979D01*
X05615950Y03597247D01*
X05614633Y03577160D01*
X05619838Y03537332D01*
X05635220Y03500226D01*
X05659696Y03468368D01*
X05691552Y03443892D01*
X05728659Y03428509D01*
X05768491Y03423303D01*
X05808319Y03428508D01*
X05845426Y03443890D01*
X05877283Y03468366D01*
X05901759Y03500221D01*
X05917142Y03537329D01*
X05922348Y03577160D01*
X05921031Y03597252D01*
X05917105Y03616986D01*
X05910634Y03636046D01*
X05901734Y03654091D01*
X05890557Y03670820D01*
X05877285Y03685954D01*
X05862146Y03699230D01*
X05845416Y03710407D01*
X05827363Y03719309D01*
X05808310Y03725776D01*
X05788578Y03729702D01*
X05768491Y03731018D01*
X05748399Y03729701D01*
X05728665Y03725774D01*
X05415497Y03616986D02*
X05419424Y03597252D01*
X05420741Y03577160D01*
X05415535Y03537329D01*
X05400151Y03500221D01*
X05375676Y03468366D01*
X05343818Y03443890D01*
X05306711Y03428508D01*
X05266883Y03423303D01*
X05227052Y03428509D01*
X05189944Y03443892D01*
X05158088Y03468368D01*
X05133612Y03500226D01*
X05118230Y03537332D01*
X05113026Y03577160D01*
X05114342Y03597247D01*
X05118267Y03616979D01*
X05124734Y03636032D01*
X05133636Y03654085D01*
X05144813Y03670816D01*
X05158089Y03685954D01*
X05173224Y03699227D01*
X05189952Y03710404D01*
X05207997Y03719303D01*
X05227057Y03725774D01*
X05246791Y03729701D01*
X05266883Y03731018D01*
X05286970Y03729702D01*
X05306702Y03725776D01*
X05325755Y03719309D01*
X05343808Y03710407D01*
X05360538Y03699230D01*
X05375677Y03685954D01*
X05388950Y03670820D01*
X05400126Y03654091D01*
X05409026Y03636046D01*
X05415497Y03616986D01*
X05306702Y03224169D02*
X05286970Y03228094D01*
X05266883Y03229410D01*
X05246791Y03228093D01*
X05227057Y03224167D01*
X05207997Y03217695D01*
X05189952Y03208796D01*
X05173224Y03197619D01*
X05158089Y03184346D01*
X05144813Y03169208D01*
X05133636Y03152478D01*
X05124734Y03134424D01*
X05118267Y03115371D01*
X05114342Y03095639D01*
X05113026Y03075552D01*
X05118230Y03035724D01*
X05133612Y02998617D01*
X05158088Y02966760D01*
X05189944Y02942284D01*
X05227052Y02926901D01*
X05266883Y02921695D01*
X05306711Y02926900D01*
X05343818Y02942282D01*
X05375676Y02966758D01*
X05400151Y02998613D01*
X05415535Y03035721D01*
X05420741Y03075552D01*
X05419424Y03095644D01*
X05415497Y03115378D01*
X05409026Y03134438D01*
X05400126Y03152484D01*
X05388950Y03169212D01*
X05375677Y03184346D01*
X05360538Y03197622D01*
X05343808Y03208800D01*
X05325755Y03217701D01*
X05306702Y03224169D01*
X05619875Y03115371D02*
X05626342Y03134424D01*
X05635244Y03152478D01*
X05646421Y03169208D01*
X05659697Y03184346D01*
X05674831Y03197619D01*
X05691560Y03208796D01*
X05709605Y03217695D01*
X05728665Y03224167D01*
X05748399Y03228093D01*
X05768491Y03229410D01*
X05788578Y03228094D01*
X05808310Y03224169D01*
X05827363Y03217701D01*
X05845416Y03208800D01*
X05862146Y03197622D01*
X05877285Y03184346D01*
X05890557Y03169212D01*
X05901734Y03152484D01*
X05910634Y03134438D01*
X05917105Y03115378D01*
X05921031Y03095644D01*
X05922348Y03075552D01*
X05917142Y03035721D01*
X05901759Y02998613D01*
X05877283Y02966758D01*
X05845426Y02942282D01*
X05808319Y02926900D01*
X05768491Y02921695D01*
X05728659Y02926901D01*
X05691552Y02942284D01*
X05659696Y02966760D01*
X05635220Y02998617D01*
X05619838Y03035724D01*
X05614633Y03075552D01*
X05615950Y03095639D01*
X05619875Y03115371D01*
X05728665Y02722559D02*
X05709605Y02716087D01*
X05691560Y02707188D01*
X05674831Y02696011D01*
X05659697Y02682738D01*
X05646421Y02667600D01*
X05635244Y02650870D01*
X05626342Y02632816D01*
X05619875Y02613763D01*
X05615950Y02594031D01*
X05614633Y02573945D01*
X05619838Y02534116D01*
X05635220Y02497009D01*
X05659696Y02465152D01*
X05691552Y02440676D01*
X05728659Y02425293D01*
X05768491Y02420087D01*
X05808319Y02425292D01*
X05845426Y02440674D01*
X05877283Y02465150D01*
X05901759Y02497005D01*
X05917142Y02534113D01*
X05922348Y02573945D01*
X05921031Y02594037D01*
X05917105Y02613770D01*
X05910634Y02632830D01*
X05901734Y02650876D01*
X05890557Y02667604D01*
X05877285Y02682738D01*
X05862146Y02696014D01*
X05845416Y02707192D01*
X05827363Y02716093D01*
X05808310Y02722561D01*
X05788578Y02726486D01*
X05768491Y02727802D01*
X05748399Y02726485D01*
X05728665Y02722559D01*
X05415497Y02613770D02*
X05419424Y02594037D01*
X05420741Y02573945D01*
X05415535Y02534113D01*
X05400151Y02497005D01*
X05375676Y02465150D01*
X05343818Y02440674D01*
X05306711Y02425292D01*
X05266883Y02420087D01*
X05227052Y02425293D01*
X05189944Y02440676D01*
X05158088Y02465152D01*
X05133612Y02497009D01*
X05118230Y02534116D01*
X05113026Y02573945D01*
X05114342Y02594031D01*
X05118267Y02613763D01*
X05124734Y02632816D01*
X05133636Y02650870D01*
X05144813Y02667600D01*
X05158089Y02682738D01*
X05173224Y02696011D01*
X05189952Y02707188D01*
X05207997Y02716087D01*
X05227057Y02722559D01*
X05246791Y02726485D01*
X05266883Y02727802D01*
X05286970Y02726486D01*
X05306702Y02722561D01*
X05325755Y02716093D01*
X05343808Y02707192D01*
X05360538Y02696014D01*
X05375677Y02682738D01*
X05388950Y02667604D01*
X05400126Y02650876D01*
X05409026Y02632830D01*
X05415497Y02613770D01*
X05306702Y02220953D02*
X05286970Y02224878D01*
X05266883Y02226194D01*
X05246791Y02224877D01*
X05227057Y02220951D01*
X05207997Y02214480D01*
X05189952Y02205580D01*
X05173224Y02194403D01*
X05158089Y02181130D01*
X05144813Y02165992D01*
X05133636Y02149262D01*
X05124734Y02131208D01*
X05118267Y02112156D01*
X05114342Y02092424D01*
X05113026Y02072337D01*
X05118230Y02032508D01*
X05133612Y01995402D01*
X05158088Y01963544D01*
X05189944Y01939069D01*
X05227052Y01923685D01*
X05266883Y01918479D01*
X05306711Y01923684D01*
X05343818Y01939066D01*
X05375676Y01963542D01*
X05400151Y01995397D01*
X05415535Y02032505D01*
X05420741Y02072337D01*
X05419424Y02092429D01*
X05415497Y02112162D01*
X05409026Y02131222D01*
X05400126Y02149268D01*
X05388950Y02165996D01*
X05375677Y02181130D01*
X05360538Y02194406D01*
X05343808Y02205584D01*
X05325755Y02214485D01*
X05306702Y02220953D01*
X05619875Y02112156D02*
X05615950Y02092424D01*
X05614633Y02072337D01*
X05619838Y02032508D01*
X05635220Y01995402D01*
X05659696Y01963544D01*
X05691552Y01939069D01*
X05728659Y01923685D01*
X05768491Y01918479D01*
X05808319Y01923684D01*
X05845426Y01939066D01*
X05877283Y01963542D01*
X05901759Y01995397D01*
X05917142Y02032505D01*
X05922348Y02072337D01*
X05921031Y02092429D01*
X05917105Y02112162D01*
X05910634Y02131222D01*
X05901734Y02149268D01*
X05890557Y02165996D01*
X05877285Y02181130D01*
X05862146Y02194406D01*
X05845416Y02205584D01*
X05827363Y02214485D01*
X05808310Y02220953D01*
X05788578Y02224878D01*
X05768491Y02226194D01*
X05748399Y02224877D01*
X05728665Y02220951D01*
X05709605Y02214480D01*
X05691560Y02205580D01*
X05674831Y02194403D01*
X05659697Y02181130D01*
X05646421Y02165992D01*
X05635244Y02149262D01*
X05626342Y02131208D01*
X05619875Y02112156D01*
X04919132Y02072337D02*
X04913927Y02032505D01*
X04898543Y01995397D01*
X04874068Y01963542D01*
X04842210Y01939066D01*
X04805104Y01923684D01*
X04765275Y01918479D01*
X04725443Y01923685D01*
X04688336Y01939069D01*
X04656480Y01963544D01*
X04632004Y01995402D01*
X04616622Y02032508D01*
X04611417Y02072337D01*
X04612734Y02092424D01*
X04616659Y02112156D01*
X04623126Y02131208D01*
X04632028Y02149262D01*
X04643205Y02165992D01*
X04656482Y02181130D01*
X04671616Y02194403D01*
X04688344Y02205580D01*
X04706389Y02214480D01*
X04725449Y02220951D01*
X04745183Y02224877D01*
X04765275Y02226194D01*
X04785362Y02224878D01*
X04805094Y02220953D01*
X04824147Y02214485D01*
X04842200Y02205584D01*
X04858930Y02194406D01*
X04874069Y02181130D01*
X04887342Y02165996D01*
X04898518Y02149268D01*
X04907418Y02131222D01*
X04913889Y02112162D01*
X04917816Y02092429D01*
X04919132Y02072337D01*
X04805104Y02425292D02*
X04765275Y02420087D01*
X04725443Y02425293D01*
X04688336Y02440676D01*
X04656480Y02465152D01*
X04632004Y02497009D01*
X04616622Y02534116D01*
X04611417Y02573945D01*
X04612734Y02594031D01*
X04616659Y02613763D01*
X04623126Y02632816D01*
X04632028Y02650870D01*
X04643205Y02667600D01*
X04656482Y02682738D01*
X04671616Y02696011D01*
X04688344Y02707188D01*
X04706389Y02716087D01*
X04725449Y02722559D01*
X04745183Y02726485D01*
X04765275Y02727802D01*
X04785362Y02726486D01*
X04805094Y02722561D01*
X04824147Y02716093D01*
X04842200Y02707192D01*
X04858930Y02696014D01*
X04874069Y02682738D01*
X04887342Y02667604D01*
X04898518Y02650876D01*
X04907418Y02632830D01*
X04913889Y02613770D01*
X04917816Y02594037D01*
X04919132Y02573945D01*
X04913927Y02534113D01*
X04898543Y02497005D01*
X04874068Y02465150D01*
X04842210Y02440674D01*
X04805104Y02425292D01*
X04412319Y02534113D02*
X04396935Y02497005D01*
X04372460Y02465150D01*
X04340602Y02440674D01*
X04303496Y02425292D01*
X04263667Y02420087D01*
X04223836Y02425293D01*
X04186728Y02440676D01*
X04154872Y02465152D01*
X04130396Y02497009D01*
X04115015Y02534116D01*
X04109810Y02573945D01*
X04111126Y02594031D01*
X04115051Y02613763D01*
X04121518Y02632816D01*
X04130420Y02650870D01*
X04141598Y02667600D01*
X04154874Y02682738D01*
X04170008Y02696011D01*
X04186736Y02707188D01*
X04204781Y02716087D01*
X04223841Y02722559D01*
X04243575Y02726485D01*
X04263667Y02727802D01*
X04283754Y02726486D01*
X04303486Y02722561D01*
X04322539Y02716093D01*
X04340592Y02707192D01*
X04357322Y02696014D01*
X04372461Y02682738D01*
X04385734Y02667604D01*
X04396911Y02650876D01*
X04405810Y02632830D01*
X04412281Y02613770D01*
X04416208Y02594037D01*
X04417525Y02573945D01*
X04412319Y02534113D01*
X04303486Y02220953D02*
X04283754Y02224878D01*
X04263667Y02226194D01*
X04243575Y02224877D01*
X04223841Y02220951D01*
X04204781Y02214480D01*
X04186736Y02205580D01*
X04170008Y02194403D01*
X04154874Y02181130D01*
X04141598Y02165992D01*
X04130420Y02149262D01*
X04121518Y02131208D01*
X04115051Y02112156D01*
X04111126Y02092424D01*
X04109810Y02072337D01*
X04115015Y02032508D01*
X04130396Y01995402D01*
X04154872Y01963544D01*
X04186728Y01939069D01*
X04223836Y01923685D01*
X04263667Y01918479D01*
X04303496Y01923684D01*
X04340602Y01939066D01*
X04372460Y01963542D01*
X04396935Y01995397D01*
X04412319Y02032505D01*
X04417525Y02072337D01*
X04416208Y02092429D01*
X04412281Y02112162D01*
X04405810Y02131222D01*
X04396911Y02149268D01*
X04385734Y02165996D01*
X04372461Y02181130D01*
X04357322Y02194406D01*
X04340592Y02205584D01*
X04322539Y02214485D01*
X04303486Y02220953D01*
X03910674Y02112162D02*
X03914600Y02092429D01*
X03915917Y02072337D01*
X03910711Y02032505D01*
X03895327Y01995397D01*
X03870852Y01963542D01*
X03838994Y01939066D01*
X03801888Y01923684D01*
X03762059Y01918479D01*
X03722228Y01923685D01*
X03685120Y01939069D01*
X03653265Y01963544D01*
X03628789Y01995402D01*
X03613407Y02032508D01*
X03608202Y02072337D01*
X03609518Y02092424D01*
X03613443Y02112156D01*
X03619911Y02131208D01*
X03628812Y02149262D01*
X03639990Y02165992D01*
X03653266Y02181130D01*
X03668400Y02194403D01*
X03685128Y02205580D01*
X03703174Y02214480D01*
X03722234Y02220951D01*
X03741967Y02224877D01*
X03762059Y02226194D01*
X03782146Y02224878D01*
X03801878Y02220953D01*
X03820931Y02214485D01*
X03838984Y02205584D01*
X03855715Y02194406D01*
X03870853Y02181130D01*
X03884126Y02165996D01*
X03895303Y02149268D01*
X03904202Y02131222D01*
X03910674Y02112162D01*
X03801888Y02425292D02*
X03762059Y02420087D01*
X03722228Y02425293D01*
X03685120Y02440676D01*
X03653265Y02465152D01*
X03628789Y02497009D01*
X03613407Y02534116D01*
X03608202Y02573945D01*
X03609518Y02594031D01*
X03613443Y02613763D01*
X03619911Y02632816D01*
X03628812Y02650870D01*
X03639990Y02667600D01*
X03653266Y02682738D01*
X03668400Y02696011D01*
X03685128Y02707188D01*
X03703174Y02716087D01*
X03722234Y02722559D01*
X03741967Y02726485D01*
X03762059Y02727802D01*
X03782146Y02726486D01*
X03801878Y02722561D01*
X03820931Y02716093D01*
X03838984Y02707192D01*
X03855715Y02696014D01*
X03870853Y02682738D01*
X03884126Y02667604D01*
X03895303Y02650876D01*
X03904202Y02632830D01*
X03910674Y02613770D01*
X03914600Y02594037D01*
X03915917Y02573945D01*
X03910711Y02534113D01*
X03895327Y02497005D01*
X03870852Y02465150D01*
X03838994Y02440674D01*
X03801888Y02425292D01*
X03409103Y02534113D02*
X03393719Y02497005D01*
X03369244Y02465150D01*
X03337386Y02440674D01*
X03300280Y02425292D01*
X03260451Y02420087D01*
X03220620Y02425293D01*
X03183512Y02440676D01*
X03151657Y02465152D01*
X03127181Y02497009D01*
X03111799Y02534116D01*
X03106594Y02573945D01*
X03107910Y02594031D01*
X03111835Y02613763D01*
X03118303Y02632816D01*
X03127204Y02650870D01*
X03138382Y02667600D01*
X03151657Y02682738D01*
X03166792Y02696011D01*
X03183520Y02707188D01*
X03201566Y02716087D01*
X03220626Y02722559D01*
X03240359Y02726485D01*
X03260451Y02727802D01*
X03280538Y02726486D01*
X03300270Y02722561D01*
X03319323Y02716093D01*
X03337376Y02707192D01*
X03354107Y02696014D01*
X03369245Y02682738D01*
X03382518Y02667604D01*
X03393695Y02650876D01*
X03402594Y02632830D01*
X03409065Y02613770D01*
X03412992Y02594037D01*
X03414309Y02573945D01*
X03409103Y02534113D01*
X03300270Y02220953D02*
X03319323Y02214485D01*
X03337376Y02205584D01*
X03354107Y02194406D01*
X03369245Y02181130D01*
X03382518Y02165996D01*
X03393695Y02149268D01*
X03402594Y02131222D01*
X03409065Y02112162D01*
X03412992Y02092429D01*
X03414309Y02072337D01*
X03409103Y02032505D01*
X03393719Y01995397D01*
X03369244Y01963542D01*
X03337386Y01939066D01*
X03300280Y01923684D01*
X03260451Y01918479D01*
X03220620Y01923685D01*
X03183512Y01939069D01*
X03151657Y01963544D01*
X03127181Y01995402D01*
X03111799Y02032508D01*
X03106594Y02072337D01*
X03107910Y02092424D01*
X03111835Y02112156D01*
X03118303Y02131208D01*
X03127204Y02149262D01*
X03138382Y02165992D01*
X03151657Y02181130D01*
X03166792Y02194403D01*
X03183520Y02205580D01*
X03201566Y02214480D01*
X03220626Y02220951D01*
X03240359Y02224877D01*
X03260451Y02226194D01*
X03280538Y02224878D01*
X03300270Y02220953D01*
X02907457Y02112162D02*
X02911384Y02092429D01*
X02912701Y02072337D01*
X02907495Y02032505D01*
X02892111Y01995397D01*
X02867636Y01963542D01*
X02835778Y01939066D01*
X02798672Y01923684D01*
X02758843Y01918479D01*
X02719012Y01923685D01*
X02681904Y01939069D01*
X02650049Y01963544D01*
X02625573Y01995402D01*
X02610191Y02032508D01*
X02604986Y02072337D01*
X02606302Y02092424D01*
X02610228Y02112156D01*
X02616695Y02131208D01*
X02625596Y02149262D01*
X02636774Y02165992D01*
X02650050Y02181130D01*
X02665184Y02194403D01*
X02681912Y02205580D01*
X02699958Y02214480D01*
X02719018Y02220951D01*
X02738752Y02224877D01*
X02758843Y02226194D01*
X02778930Y02224878D01*
X02798663Y02220953D01*
X02817715Y02214485D01*
X02835768Y02205584D01*
X02852499Y02194406D01*
X02867637Y02181130D01*
X02880910Y02165996D01*
X02892087Y02149268D01*
X02900986Y02131222D01*
X02907457Y02112162D01*
X02798672Y02425292D02*
X02758843Y02420087D01*
X02719012Y02425293D01*
X02681904Y02440676D01*
X02650049Y02465152D01*
X02625573Y02497009D01*
X02610191Y02534116D01*
X02604986Y02573945D01*
X02606302Y02594031D01*
X02610228Y02613763D01*
X02616695Y02632816D01*
X02625596Y02650870D01*
X02636774Y02667600D01*
X02650050Y02682738D01*
X02665184Y02696011D01*
X02681912Y02707188D01*
X02699958Y02716087D01*
X02719018Y02722559D01*
X02738752Y02726485D01*
X02758843Y02727802D01*
X02778930Y02726486D01*
X02798663Y02722561D01*
X02817715Y02716093D01*
X02835768Y02707192D01*
X02852499Y02696014D01*
X02867637Y02682738D01*
X02880910Y02667604D01*
X02892087Y02650876D01*
X02900986Y02632830D01*
X02907457Y02613770D01*
X02911384Y02594037D01*
X02912701Y02573945D01*
X02907495Y02534113D01*
X02892111Y02497005D01*
X02867636Y02465150D01*
X02835778Y02440674D01*
X02798672Y02425292D01*
X02405887Y02534113D02*
X02390504Y02497005D01*
X02366028Y02465150D01*
X02334171Y02440674D01*
X02297064Y02425292D01*
X02257235Y02420087D01*
X02217404Y02425293D01*
X02180297Y02440676D01*
X02148441Y02465152D01*
X02123965Y02497009D01*
X02108583Y02534116D01*
X02103378Y02573945D01*
X02104694Y02594031D01*
X02108620Y02613763D01*
X02115087Y02632816D01*
X02123989Y02650870D01*
X02135166Y02667600D01*
X02148442Y02682738D01*
X02163576Y02696011D01*
X02180304Y02707188D01*
X02198350Y02716087D01*
X02217410Y02722559D01*
X02237143Y02726485D01*
X02257235Y02727802D01*
X02277322Y02726486D01*
X02297054Y02722561D01*
X02316108Y02716093D01*
X02334161Y02707192D01*
X02350891Y02696014D01*
X02366029Y02682738D01*
X02379302Y02667604D01*
X02390479Y02650876D01*
X02399378Y02632830D01*
X02405850Y02613770D01*
X02409776Y02594037D01*
X02411093Y02573945D01*
X02405887Y02534113D01*
X02297054Y02220953D02*
X02316108Y02214485D01*
X02334161Y02205584D01*
X02350891Y02194406D01*
X02366029Y02181130D01*
X02379302Y02165996D01*
X02390479Y02149268D01*
X02399378Y02131222D01*
X02405850Y02112162D01*
X02409776Y02092429D01*
X02411093Y02072337D01*
X02405887Y02032505D01*
X02390504Y01995397D01*
X02366028Y01963542D01*
X02334171Y01939066D01*
X02297064Y01923684D01*
X02257235Y01918479D01*
X02217404Y01923685D01*
X02180297Y01939069D01*
X02148441Y01963544D01*
X02123965Y01995402D01*
X02108583Y02032508D01*
X02103378Y02072337D01*
X02104694Y02092424D01*
X02108620Y02112156D01*
X02115087Y02131208D01*
X02123989Y02149262D01*
X02135166Y02165992D01*
X02148442Y02181130D01*
X02163576Y02194403D01*
X02180304Y02205580D01*
X02198350Y02214480D01*
X02217410Y02220951D01*
X02237143Y02224877D01*
X02257235Y02226194D01*
X02277322Y02224878D01*
X02297054Y02220953D01*
X01904242Y02112162D02*
X01908168Y02092429D01*
X01909485Y02072337D01*
X01904279Y02032505D01*
X01888896Y01995397D01*
X01864420Y01963542D01*
X01832563Y01939066D01*
X01795456Y01923684D01*
X01755628Y01918479D01*
X01715796Y01923685D01*
X01678688Y01939069D01*
X01646833Y01963544D01*
X01622357Y01995402D01*
X01606975Y02032508D01*
X01601770Y02072337D01*
X01603086Y02092424D01*
X01607012Y02112156D01*
X01613479Y02131208D01*
X01622380Y02149262D01*
X01633558Y02165992D01*
X01646834Y02181130D01*
X01661968Y02194403D01*
X01678696Y02205580D01*
X01696742Y02214480D01*
X01715802Y02220951D01*
X01735535Y02224877D01*
X01755628Y02226194D01*
X01775715Y02224878D01*
X01795446Y02220953D01*
X01814500Y02214485D01*
X01832553Y02205584D01*
X01849283Y02194406D01*
X01864421Y02181130D01*
X01877694Y02165996D01*
X01888871Y02149268D01*
X01897770Y02131222D01*
X01904242Y02112162D01*
X01795456Y02425292D02*
X01755628Y02420087D01*
X01715796Y02425293D01*
X01678688Y02440676D01*
X01646833Y02465152D01*
X01622357Y02497009D01*
X01606975Y02534116D01*
X01601770Y02573945D01*
X01603086Y02594031D01*
X01607012Y02613763D01*
X01613479Y02632816D01*
X01622380Y02650870D01*
X01633558Y02667600D01*
X01646834Y02682738D01*
X01661968Y02696011D01*
X01678696Y02707188D01*
X01696742Y02716087D01*
X01715802Y02722559D01*
X01735535Y02726485D01*
X01755628Y02727802D01*
X01775715Y02726486D01*
X01795446Y02722561D01*
X01814500Y02716093D01*
X01832553Y02707192D01*
X01849283Y02696014D01*
X01864421Y02682738D01*
X01877694Y02667604D01*
X01888871Y02650876D01*
X01897770Y02632830D01*
X01904242Y02613770D01*
X01908168Y02594037D01*
X01909485Y02573945D01*
X01904279Y02534113D01*
X01888896Y02497005D01*
X01864420Y02465150D01*
X01832563Y02440674D01*
X01795456Y02425292D01*
X01402671Y02534113D02*
X01387288Y02497005D01*
X01362813Y02465150D01*
X01330955Y02440674D01*
X01293848Y02425292D01*
X01254020Y02420087D01*
X01233933Y02421403D01*
X01214201Y02425328D01*
X01195148Y02431796D01*
X01177094Y02440697D01*
X01160365Y02451875D01*
X01145226Y02465151D01*
X01131953Y02480285D01*
X01120776Y02497013D01*
X01111877Y02515059D01*
X01105406Y02534119D01*
X01101479Y02553852D01*
X01100162Y02573945D01*
X01101478Y02594031D01*
X01105404Y02613763D01*
X01111871Y02632817D01*
X01120773Y02650870D01*
X01131950Y02667600D01*
X01145226Y02682738D01*
X01160360Y02696011D01*
X01177089Y02707188D01*
X01195134Y02716087D01*
X01214194Y02722559D01*
X01233928Y02726485D01*
X01254020Y02727802D01*
X01274107Y02726486D01*
X01293839Y02722561D01*
X01312892Y02716093D01*
X01330945Y02707192D01*
X01347675Y02696014D01*
X01362813Y02682738D01*
X01376086Y02667604D01*
X01387263Y02650876D01*
X01396163Y02632830D01*
X01402634Y02613770D01*
X01406560Y02594037D01*
X01407877Y02573945D01*
X01402671Y02534113D01*
X01293839Y02220953D02*
X01312892Y02214485D01*
X01330945Y02205584D01*
X01347675Y02194406D01*
X01362813Y02181130D01*
X01376086Y02165996D01*
X01387263Y02149268D01*
X01396163Y02131222D01*
X01402634Y02112162D01*
X01406560Y02092429D01*
X01407877Y02072337D01*
X01402671Y02032505D01*
X01387288Y01995397D01*
X01362813Y01963542D01*
X01330955Y01939066D01*
X01293848Y01923684D01*
X01254020Y01918479D01*
X01233933Y01919795D01*
X01214201Y01923720D01*
X01195148Y01930188D01*
X01177094Y01939089D01*
X01160365Y01950267D01*
X01145226Y01963543D01*
X01131953Y01978677D01*
X01120776Y01995406D01*
X01111877Y02013451D01*
X01105406Y02032511D01*
X01101479Y02052244D01*
X01100162Y02072337D01*
X01101478Y02092424D01*
X01105404Y02112156D01*
X01111871Y02131208D01*
X01120773Y02149262D01*
X01131950Y02165992D01*
X01145226Y02181130D01*
X01160360Y02194403D01*
X01177089Y02205580D01*
X01195134Y02214480D01*
X01214194Y02220951D01*
X01233928Y02224877D01*
X01254020Y02226194D01*
X01274107Y02224878D01*
X01293839Y02220953D01*
X01254020Y02921695D02*
X01233933Y02923011D01*
X01214201Y02926936D01*
X01195148Y02933404D01*
X01177094Y02942305D01*
X01160365Y02953483D01*
X01145226Y02966759D01*
X01131953Y02981893D01*
X01120776Y02998621D01*
X01111877Y03016667D01*
X01105406Y03035727D01*
X01101479Y03055460D01*
X01100162Y03075552D01*
X01101478Y03095639D01*
X01105404Y03115371D01*
X01111871Y03134424D01*
X01120773Y03152478D01*
X01131950Y03169208D01*
X01145226Y03184346D01*
X01160360Y03197619D01*
X01177089Y03208796D01*
X01195134Y03217695D01*
X01214194Y03224167D01*
X01233928Y03228093D01*
X01254020Y03229410D01*
X01274107Y03228094D01*
X01293839Y03224169D01*
X01312892Y03217701D01*
X01330945Y03208800D01*
X01347675Y03197622D01*
X01362813Y03184346D01*
X01376086Y03169212D01*
X01387263Y03152484D01*
X01396163Y03134438D01*
X01402634Y03115378D01*
X01406560Y03095644D01*
X01407877Y03075552D01*
X01402671Y03035721D01*
X01387288Y02998613D01*
X01362813Y02966758D01*
X01330955Y02942282D01*
X01293848Y02926900D01*
X01254020Y02921695D01*
X01606975Y03035724D02*
X01622357Y02998617D01*
X01646833Y02966760D01*
X01678688Y02942284D01*
X01715796Y02926901D01*
X01755628Y02921695D01*
X01795456Y02926900D01*
X01832563Y02942282D01*
X01864420Y02966758D01*
X01888896Y02998613D01*
X01904279Y03035721D01*
X01909485Y03075552D01*
X01908168Y03095644D01*
X01904242Y03115378D01*
X01897770Y03134438D01*
X01888871Y03152484D01*
X01877694Y03169212D01*
X01864421Y03184346D01*
X01849283Y03197622D01*
X01832553Y03208800D01*
X01814500Y03217701D01*
X01795446Y03224169D01*
X01775715Y03228094D01*
X01755628Y03229410D01*
X01735535Y03228093D01*
X01715802Y03224167D01*
X01696742Y03217695D01*
X01678696Y03208796D01*
X01661968Y03197619D01*
X01646834Y03184346D01*
X01633558Y03169208D01*
X01622380Y03152478D01*
X01613479Y03134424D01*
X01607012Y03115371D01*
X01603086Y03095639D01*
X01601770Y03075552D01*
X01606975Y03035724D01*
X01715796Y03428509D02*
X01755628Y03423303D01*
X01795456Y03428508D01*
X01832563Y03443890D01*
X01864420Y03468366D01*
X01888896Y03500221D01*
X01904279Y03537329D01*
X01909485Y03577160D01*
X01908168Y03597252D01*
X01904242Y03616986D01*
X01897770Y03636046D01*
X01888871Y03654091D01*
X01877694Y03670820D01*
X01864421Y03685954D01*
X01849283Y03699230D01*
X01832553Y03710407D01*
X01814500Y03719309D01*
X01795446Y03725776D01*
X01775715Y03729702D01*
X01755628Y03731018D01*
X01735535Y03729701D01*
X01715802Y03725774D01*
X01696742Y03719303D01*
X01678696Y03710404D01*
X01661968Y03699227D01*
X01646834Y03685954D01*
X01633558Y03670816D01*
X01622380Y03654085D01*
X01613479Y03636032D01*
X01607012Y03616979D01*
X01603086Y03597247D01*
X01601770Y03577160D01*
X01606975Y03537332D01*
X01622357Y03500226D01*
X01646833Y03468368D01*
X01678688Y03443892D01*
X01715796Y03428509D01*
X01402671Y03537329D02*
X01387288Y03500221D01*
X01362813Y03468366D01*
X01330955Y03443890D01*
X01293848Y03428508D01*
X01254020Y03423303D01*
X01233933Y03424619D01*
X01214201Y03428545D01*
X01195148Y03435012D01*
X01177094Y03443913D01*
X01160365Y03455091D01*
X01145226Y03468367D01*
X01131953Y03483501D01*
X01120776Y03500229D01*
X01111877Y03518275D01*
X01105406Y03537335D01*
X01101479Y03557068D01*
X01100162Y03577160D01*
X01101478Y03597247D01*
X01105404Y03616979D01*
X01111871Y03636032D01*
X01120773Y03654085D01*
X01131950Y03670816D01*
X01145226Y03685954D01*
X01160360Y03699227D01*
X01177089Y03710404D01*
X01195134Y03719303D01*
X01214194Y03725774D01*
X01233928Y03729701D01*
X01254020Y03731018D01*
X01274107Y03729702D01*
X01293839Y03725776D01*
X01312892Y03719309D01*
X01330945Y03710407D01*
X01347675Y03699230D01*
X01362813Y03685954D01*
X01376086Y03670820D01*
X01387263Y03654091D01*
X01396163Y03636046D01*
X01402634Y03616986D01*
X01406560Y03597252D01*
X01407877Y03577160D01*
X01402671Y03537329D01*
X01293848Y03930116D02*
X01254020Y03924911D01*
X01233933Y03926227D01*
X01214201Y03930152D01*
X01195148Y03936620D01*
X01177094Y03945521D01*
X01160365Y03956698D01*
X01145226Y03969974D01*
X01131953Y03985109D01*
X01120776Y04001837D01*
X01111877Y04019883D01*
X01105406Y04038943D01*
X01101479Y04058676D01*
X01100162Y04078768D01*
X01101478Y04098855D01*
X01105404Y04118587D01*
X01111871Y04137640D01*
X01120773Y04155693D01*
X01131950Y04172424D01*
X01145226Y04187562D01*
X01160360Y04200835D01*
X01177089Y04212012D01*
X01195134Y04220911D01*
X01214194Y04227382D01*
X01233928Y04231309D01*
X01254020Y04232626D01*
X01274107Y04231309D01*
X01293839Y04227384D01*
X01312892Y04220917D01*
X01330945Y04212015D01*
X01347675Y04200838D01*
X01362813Y04187562D01*
X01376086Y04172428D01*
X01387263Y04155699D01*
X01396163Y04137654D01*
X01402634Y04118594D01*
X01406560Y04098860D01*
X01407877Y04078768D01*
X01402671Y04038937D01*
X01387288Y04001829D01*
X01362813Y03969974D01*
X01330955Y03945498D01*
X01293848Y03930116D01*
X01606975Y04038940D02*
X01622357Y04001833D01*
X01646833Y03969976D01*
X01678688Y03945500D01*
X01715796Y03930117D01*
X01755628Y03924911D01*
X01795456Y03930116D01*
X01832563Y03945498D01*
X01864420Y03969974D01*
X01888896Y04001829D01*
X01904279Y04038937D01*
X01909485Y04078768D01*
X01908168Y04098860D01*
X01904242Y04118594D01*
X01897770Y04137654D01*
X01888871Y04155699D01*
X01877694Y04172428D01*
X01864421Y04187562D01*
X01849283Y04200838D01*
X01832553Y04212015D01*
X01814500Y04220917D01*
X01795446Y04227384D01*
X01775715Y04231309D01*
X01755628Y04232626D01*
X01735535Y04231309D01*
X01715802Y04227382D01*
X01696742Y04220911D01*
X01678696Y04212012D01*
X01661968Y04200835D01*
X01646834Y04187562D01*
X01633558Y04172424D01*
X01622380Y04155693D01*
X01613479Y04137640D01*
X01607012Y04118587D01*
X01603086Y04098855D01*
X01601770Y04078768D01*
X01606975Y04038940D01*
X01715809Y04431760D02*
X01696756Y04438228D01*
X01678702Y04447129D01*
X01661972Y04458306D01*
X01646834Y04471582D01*
X01633561Y04486717D01*
X01622384Y04503445D01*
X01613485Y04521491D01*
X01607013Y04540550D01*
X01603087Y04560284D01*
X01601770Y04580376D01*
X01606976Y04620207D01*
X01622359Y04657315D01*
X01646835Y04689171D01*
X01678693Y04713647D01*
X01715799Y04729029D01*
X01755628Y04734234D01*
X01795459Y04729028D01*
X01832567Y04713644D01*
X01864422Y04689169D01*
X01888898Y04657311D01*
X01904280Y04620205D01*
X01909485Y04580376D01*
X01908169Y04560289D01*
X01904244Y04540557D01*
X01897776Y04521504D01*
X01888875Y04503451D01*
X01877697Y04486721D01*
X01864421Y04471582D01*
X01849287Y04458309D01*
X01832559Y04447133D01*
X01814513Y04438233D01*
X01795453Y04431762D01*
X01775720Y04427835D01*
X01755628Y04426518D01*
X01735541Y04427835D01*
X01715809Y04431760D01*
X01402636Y04540557D02*
X01396169Y04521504D01*
X01387267Y04503451D01*
X01376089Y04486721D01*
X01362813Y04471582D01*
X01347679Y04458309D01*
X01330951Y04447133D01*
X01312906Y04438233D01*
X01293845Y04431762D01*
X01274112Y04427835D01*
X01254020Y04426518D01*
X01233933Y04427835D01*
X01214201Y04431760D01*
X01195148Y04438228D01*
X01177094Y04447129D01*
X01160365Y04458306D01*
X01145226Y04471582D01*
X01131953Y04486717D01*
X01120776Y04503445D01*
X01111877Y04521491D01*
X01105406Y04540550D01*
X01101479Y04560284D01*
X01100162Y04580376D01*
X01101478Y04600463D01*
X01105404Y04620195D01*
X01111871Y04639248D01*
X01120773Y04657301D01*
X01131950Y04674031D01*
X01145226Y04689170D01*
X01160360Y04702443D01*
X01177089Y04713620D01*
X01195134Y04722519D01*
X01214194Y04728990D01*
X01233928Y04732917D01*
X01254020Y04734234D01*
X01293851Y04729028D01*
X01330959Y04713644D01*
X01362815Y04689169D01*
X01387290Y04657311D01*
X01402672Y04620205D01*
X01407877Y04580376D01*
X01406561Y04560289D01*
X01402636Y04540557D01*
X01293845Y04933370D02*
X01274112Y04929443D01*
X01254020Y04928126D01*
X01233933Y04929443D01*
X01214201Y04933368D01*
X01195148Y04939835D01*
X01177094Y04948737D01*
X01160365Y04959914D01*
X01145226Y04973190D01*
X01131953Y04988325D01*
X01120776Y05005053D01*
X01111877Y05023098D01*
X01105406Y05042158D01*
X01101479Y05061892D01*
X01100162Y05081984D01*
X01101478Y05102071D01*
X01105404Y05121803D01*
X01111871Y05140856D01*
X01120773Y05158909D01*
X01131950Y05175639D01*
X01145226Y05190778D01*
X01160360Y05204051D01*
X01177089Y05215228D01*
X01195134Y05224127D01*
X01214194Y05230598D01*
X01233928Y05234525D01*
X01254020Y05235842D01*
X01293851Y05230636D01*
X01330959Y05215252D01*
X01362815Y05190777D01*
X01387290Y05158919D01*
X01402672Y05121813D01*
X01407877Y05081984D01*
X01406561Y05061897D01*
X01402636Y05042165D01*
X01396169Y05023112D01*
X01387267Y05005059D01*
X01376089Y04988329D01*
X01362813Y04973190D01*
X01347679Y04959917D01*
X01330951Y04948741D01*
X01312906Y04939841D01*
X01293845Y04933370D01*
X01607013Y05042158D02*
X01603087Y05061892D01*
X01601770Y05081984D01*
X01606976Y05121815D01*
X01622359Y05158923D01*
X01646835Y05190779D01*
X01678693Y05215255D01*
X01715799Y05230637D01*
X01755628Y05235842D01*
X01795459Y05230636D01*
X01832567Y05215252D01*
X01864422Y05190777D01*
X01888898Y05158919D01*
X01904280Y05121813D01*
X01909485Y05081984D01*
X01908169Y05061897D01*
X01904244Y05042165D01*
X01897776Y05023112D01*
X01888875Y05005059D01*
X01877697Y04988329D01*
X01864421Y04973190D01*
X01849287Y04959917D01*
X01832559Y04948741D01*
X01814513Y04939841D01*
X01795453Y04933370D01*
X01775720Y04929443D01*
X01755628Y04928126D01*
X01735541Y04929443D01*
X01715809Y04933368D01*
X01696756Y04939835D01*
X01678702Y04948737D01*
X01661972Y04959914D01*
X01646834Y04973190D01*
X01633561Y04988325D01*
X01622384Y05005053D01*
X01613485Y05023098D01*
X01607013Y05042158D01*
X01715796Y05434940D02*
X01678688Y05450324D01*
X01646833Y05474799D01*
X01622357Y05506657D01*
X01606975Y05543763D01*
X01601770Y05583592D01*
X01606976Y05623424D01*
X01622359Y05660531D01*
X01646835Y05692387D01*
X01678693Y05716863D01*
X01715799Y05732244D01*
X01755628Y05737450D01*
X01795459Y05732244D01*
X01832567Y05716860D01*
X01864422Y05692385D01*
X01888898Y05660527D01*
X01904280Y05623421D01*
X01909485Y05583592D01*
X01904279Y05543761D01*
X01888896Y05506653D01*
X01864420Y05474797D01*
X01832563Y05450321D01*
X01795456Y05434939D01*
X01755628Y05429734D01*
X01715796Y05434940D01*
X01402672Y05543761D02*
X01387288Y05506653D01*
X01362813Y05474797D01*
X01330955Y05450321D01*
X01293848Y05434939D01*
X01254020Y05429734D01*
X01233933Y05431051D01*
X01214201Y05434976D01*
X01195148Y05441443D01*
X01177094Y05450345D01*
X01160365Y05461522D01*
X01145226Y05474798D01*
X01131953Y05489933D01*
X01120776Y05506661D01*
X01111877Y05524706D01*
X01105406Y05543766D01*
X01101479Y05563500D01*
X01100162Y05583592D01*
X01101478Y05603679D01*
X01105404Y05623411D01*
X01111871Y05642464D01*
X01120773Y05660517D01*
X01131950Y05677247D01*
X01145226Y05692386D01*
X01160360Y05705659D01*
X01177089Y05716835D01*
X01195134Y05725735D01*
X01214194Y05732206D01*
X01233928Y05736133D01*
X01254020Y05737450D01*
X01293851Y05732244D01*
X01330959Y05716860D01*
X01362815Y05692385D01*
X01387291Y05660527D01*
X01402672Y05623421D01*
X01407877Y05583592D01*
X01402672Y05543761D01*
X02103378Y05583592D02*
X02108584Y05623424D01*
X02123967Y05660531D01*
X02148443Y05692387D01*
X02180301Y05716863D01*
X02217407Y05732244D01*
X02257235Y05737450D01*
X02297067Y05732244D01*
X02334175Y05716860D01*
X02366030Y05692385D01*
X02390506Y05660527D01*
X02405888Y05623421D01*
X02411093Y05583592D01*
X02405887Y05543761D01*
X02390504Y05506653D01*
X02366028Y05474797D01*
X02334171Y05450321D01*
X02297064Y05434939D01*
X02257235Y05429734D01*
X02217404Y05434940D01*
X02180297Y05450324D01*
X02148441Y05474799D01*
X02123965Y05506657D01*
X02108583Y05543763D01*
X02103378Y05583592D01*
X02217407Y05230637D02*
X02180301Y05215255D01*
X02148443Y05190779D01*
X02123967Y05158923D01*
X02108584Y05121815D01*
X02103378Y05081984D01*
X02104695Y05061892D01*
X02108621Y05042158D01*
X02115093Y05023098D01*
X02123992Y05005053D01*
X02135169Y04988325D01*
X02148442Y04973190D01*
X02163580Y04959914D01*
X02180310Y04948737D01*
X02198364Y04939835D01*
X02217417Y04933368D01*
X02237148Y04929443D01*
X02257235Y04928126D01*
X02277328Y04929443D01*
X02297061Y04933370D01*
X02316121Y04939841D01*
X02334167Y04948741D01*
X02350895Y04959917D01*
X02366029Y04973190D01*
X02379305Y04988329D01*
X02390483Y05005059D01*
X02399384Y05023112D01*
X02405852Y05042165D01*
X02409777Y05061897D01*
X02411093Y05081984D01*
X02405888Y05121813D01*
X02390506Y05158919D01*
X02366030Y05190777D01*
X02334175Y05215252D01*
X02297067Y05230636D01*
X02257235Y05235842D01*
X02217407Y05230637D01*
X02610192Y05121815D02*
X02625576Y05158923D01*
X02650051Y05190779D01*
X02681909Y05215255D01*
X02719015Y05230637D01*
X02758843Y05235842D01*
X02798675Y05230636D01*
X02835783Y05215252D01*
X02867638Y05190777D01*
X02892114Y05158919D01*
X02907496Y05121813D01*
X02912701Y05081984D01*
X02911385Y05061897D01*
X02907459Y05042165D01*
X02900992Y05023112D01*
X02892091Y05005059D01*
X02880913Y04988329D01*
X02867637Y04973190D01*
X02852503Y04959917D01*
X02835774Y04948741D01*
X02817729Y04939841D01*
X02798669Y04933370D01*
X02778935Y04929443D01*
X02758843Y04928126D01*
X02738757Y04929443D01*
X02719024Y04933368D01*
X02699972Y04939835D01*
X02681918Y04948737D01*
X02665188Y04959914D01*
X02650050Y04973190D01*
X02636777Y04988325D01*
X02625600Y05005053D01*
X02616700Y05023098D01*
X02610229Y05042158D01*
X02606303Y05061892D01*
X02604986Y05081984D01*
X02610192Y05121815D01*
X02719012Y05434940D02*
X02681904Y05450324D01*
X02650049Y05474799D01*
X02625573Y05506657D01*
X02610191Y05543763D01*
X02604986Y05583592D01*
X02610192Y05623424D01*
X02625576Y05660531D01*
X02650051Y05692387D01*
X02681909Y05716863D01*
X02719015Y05732244D01*
X02758843Y05737450D01*
X02798675Y05732244D01*
X02835783Y05716860D01*
X02867638Y05692385D01*
X02892114Y05660527D01*
X02907496Y05623421D01*
X02912701Y05583592D01*
X02907495Y05543761D01*
X02892111Y05506653D01*
X02867636Y05474797D01*
X02835778Y05450321D01*
X02798672Y05434939D01*
X02758843Y05429734D01*
X02719012Y05434940D01*
X03111799Y05543763D02*
X03106594Y05583592D01*
X03111800Y05623424D01*
X03127183Y05660531D01*
X03151659Y05692387D01*
X03183516Y05716863D01*
X03220623Y05732244D01*
X03260451Y05737450D01*
X03300283Y05732244D01*
X03337391Y05716860D01*
X03369246Y05692385D01*
X03393722Y05660527D01*
X03409104Y05623421D01*
X03414309Y05583592D01*
X03409103Y05543761D01*
X03393719Y05506653D01*
X03369244Y05474797D01*
X03337386Y05450321D01*
X03300280Y05434939D01*
X03260451Y05429734D01*
X03220620Y05434940D01*
X03183512Y05450324D01*
X03151657Y05474799D01*
X03127181Y05506657D01*
X03111799Y05543763D01*
X03220623Y05230637D02*
X03183516Y05215255D01*
X03151659Y05190779D01*
X03127183Y05158923D01*
X03111800Y05121815D01*
X03106594Y05081984D01*
X03107911Y05061892D01*
X03111837Y05042158D01*
X03118308Y05023098D01*
X03127208Y05005053D01*
X03138385Y04988325D01*
X03151657Y04973190D01*
X03166796Y04959914D01*
X03183526Y04948737D01*
X03201579Y04939835D01*
X03220632Y04933368D01*
X03240365Y04929443D01*
X03260451Y04928126D01*
X03280543Y04929443D01*
X03300277Y04933370D01*
X03319337Y04939841D01*
X03337382Y04948741D01*
X03354111Y04959917D01*
X03369245Y04973190D01*
X03382521Y04988329D01*
X03393698Y05005059D01*
X03402600Y05023112D01*
X03409067Y05042165D01*
X03412992Y05061897D01*
X03414309Y05081984D01*
X03409104Y05121813D01*
X03393722Y05158919D01*
X03369246Y05190777D01*
X03337391Y05215252D01*
X03300283Y05230636D01*
X03260451Y05235842D01*
X03220623Y05230637D01*
X03613407Y05121815D02*
X03628791Y05158923D01*
X03653266Y05190779D01*
X03685124Y05215255D01*
X03722231Y05230637D01*
X03762059Y05235842D01*
X03801891Y05230636D01*
X03838998Y05215252D01*
X03870854Y05190777D01*
X03895330Y05158919D01*
X03910712Y05121813D01*
X03915917Y05081984D01*
X03914600Y05061897D01*
X03910675Y05042165D01*
X03904208Y05023112D01*
X03895306Y05005059D01*
X03884129Y04988329D01*
X03870853Y04973190D01*
X03855719Y04959917D01*
X03838991Y04948741D01*
X03820945Y04939841D01*
X03801885Y04933370D01*
X03782151Y04929443D01*
X03762059Y04928126D01*
X03741972Y04929443D01*
X03722240Y04933368D01*
X03703187Y04939835D01*
X03685134Y04948737D01*
X03668404Y04959914D01*
X03653266Y04973190D01*
X03639993Y04988325D01*
X03628816Y05005053D01*
X03619916Y05023098D01*
X03613445Y05042158D01*
X03609519Y05061892D01*
X03608202Y05081984D01*
X03613407Y05121815D01*
X03722228Y05434940D02*
X03685120Y05450324D01*
X03653265Y05474799D01*
X03628789Y05506657D01*
X03613407Y05543763D01*
X03608202Y05583592D01*
X03613407Y05623424D01*
X03628791Y05660531D01*
X03653266Y05692387D01*
X03685124Y05716863D01*
X03722231Y05732244D01*
X03762059Y05737450D01*
X03801891Y05732244D01*
X03838998Y05716860D01*
X03870854Y05692385D01*
X03895330Y05660527D01*
X03910712Y05623421D01*
X03915917Y05583592D01*
X03910711Y05543761D01*
X03895327Y05506653D01*
X03870852Y05474797D01*
X03838994Y05450321D01*
X03801888Y05434939D01*
X03762059Y05429734D01*
X03722228Y05434940D01*
X04115015Y05543763D02*
X04109810Y05583592D01*
X04115015Y05623424D01*
X04130399Y05660531D01*
X04154874Y05692387D01*
X04186732Y05716863D01*
X04223839Y05732244D01*
X04263667Y05737450D01*
X04303499Y05732244D01*
X04340606Y05716860D01*
X04372462Y05692385D01*
X04396938Y05660527D01*
X04412320Y05623421D01*
X04417525Y05583592D01*
X04412319Y05543761D01*
X04396935Y05506653D01*
X04372460Y05474797D01*
X04340602Y05450321D01*
X04303496Y05434939D01*
X04263667Y05429734D01*
X04223836Y05434940D01*
X04186728Y05450324D01*
X04154872Y05474799D01*
X04130396Y05506657D01*
X04115015Y05543763D01*
X04223839Y05230637D02*
X04263667Y05235842D01*
X04303499Y05230636D01*
X04340606Y05215252D01*
X04372462Y05190777D01*
X04396938Y05158919D01*
X04412320Y05121813D01*
X04417525Y05081984D01*
X04416209Y05061897D01*
X04412283Y05042165D01*
X04405816Y05023112D01*
X04396914Y05005059D01*
X04385737Y04988329D01*
X04372461Y04973190D01*
X04357327Y04959917D01*
X04340598Y04948741D01*
X04322553Y04939841D01*
X04303493Y04933370D01*
X04283759Y04929443D01*
X04263667Y04928126D01*
X04243580Y04929443D01*
X04223848Y04933368D01*
X04204795Y04939835D01*
X04186742Y04948737D01*
X04170012Y04959914D01*
X04154874Y04973190D01*
X04141601Y04988325D01*
X04130424Y05005053D01*
X04121524Y05023098D01*
X04115053Y05042158D01*
X04111127Y05061892D01*
X04109810Y05081984D01*
X04115015Y05121815D01*
X04130399Y05158923D01*
X04154874Y05190779D01*
X04186732Y05215255D01*
X04223839Y05230637D01*
X04616623Y05121815D02*
X04632007Y05158923D01*
X04656482Y05190779D01*
X04688340Y05215255D01*
X04725446Y05230637D01*
X04765275Y05235842D01*
X04805107Y05230636D01*
X04842214Y05215252D01*
X04874070Y05190777D01*
X04898546Y05158919D01*
X04913928Y05121813D01*
X04919132Y05081984D01*
X04917816Y05061897D01*
X04913891Y05042165D01*
X04907424Y05023112D01*
X04898522Y05005059D01*
X04887344Y04988329D01*
X04874069Y04973190D01*
X04858934Y04959917D01*
X04842206Y04948741D01*
X04824161Y04939841D01*
X04805101Y04933370D01*
X04785367Y04929443D01*
X04765275Y04928126D01*
X04745188Y04929443D01*
X04725456Y04933368D01*
X04706403Y04939835D01*
X04688350Y04948737D01*
X04671620Y04959914D01*
X04656482Y04973190D01*
X04643208Y04988325D01*
X04632031Y05005053D01*
X04623132Y05023098D01*
X04616661Y05042158D01*
X04612734Y05061892D01*
X04611417Y05081984D01*
X04616623Y05121815D01*
X04725443Y05434940D02*
X04688336Y05450324D01*
X04656480Y05474799D01*
X04632004Y05506657D01*
X04616622Y05543763D01*
X04611417Y05583592D01*
X04616623Y05623424D01*
X04632007Y05660531D01*
X04656482Y05692387D01*
X04688340Y05716863D01*
X04725446Y05732244D01*
X04765275Y05737450D01*
X04805107Y05732244D01*
X04842214Y05716860D01*
X04874070Y05692385D01*
X04898546Y05660527D01*
X04913928Y05623421D01*
X04919132Y05583592D01*
X04913927Y05543761D01*
X04898543Y05506653D01*
X04874068Y05474797D01*
X04842210Y05450321D01*
X04805104Y05434939D01*
X04765275Y05429734D01*
X04725443Y05434940D01*
X04765275Y04734234D02*
X04725446Y04729029D01*
X04688340Y04713647D01*
X04656482Y04689171D01*
X04632007Y04657315D01*
X04616623Y04620207D01*
X04611417Y04580376D01*
X04612734Y04560284D01*
X04616661Y04540550D01*
X04623132Y04521491D01*
X04632031Y04503445D01*
X04643208Y04486717D01*
X04656482Y04471582D01*
X04671620Y04458306D01*
X04688350Y04447129D01*
X04706403Y04438228D01*
X04725456Y04431760D01*
X04745188Y04427835D01*
X04765275Y04426518D01*
X04785367Y04427835D01*
X04805101Y04431762D01*
X04824161Y04438233D01*
X04842206Y04447133D01*
X04858934Y04458309D01*
X04874069Y04471582D01*
X04887344Y04486721D01*
X04898522Y04503451D01*
X04907424Y04521504D01*
X04913891Y04540557D01*
X04917816Y04560289D01*
X04919132Y04580376D01*
X04913928Y04620205D01*
X04898546Y04657311D01*
X04874070Y04689169D01*
X04842214Y04713644D01*
X04805107Y04729028D01*
X04765275Y04734234D01*
X04412320Y04620205D02*
X04417525Y04580376D01*
X04416209Y04560289D01*
X04412283Y04540557D01*
X04405816Y04521504D01*
X04396914Y04503451D01*
X04385737Y04486721D01*
X04372461Y04471582D01*
X04357327Y04458309D01*
X04340598Y04447133D01*
X04322553Y04438233D01*
X04303493Y04431762D01*
X04283759Y04427835D01*
X04263667Y04426518D01*
X04243580Y04427835D01*
X04223848Y04431760D01*
X04204795Y04438228D01*
X04186742Y04447129D01*
X04170012Y04458306D01*
X04154874Y04471582D01*
X04141601Y04486717D01*
X04130424Y04503445D01*
X04121524Y04521491D01*
X04115053Y04540550D01*
X04111127Y04560284D01*
X04109810Y04580376D01*
X04115015Y04620207D01*
X04130399Y04657315D01*
X04154874Y04689171D01*
X04186732Y04713647D01*
X04223839Y04729029D01*
X04263667Y04734234D01*
X04303499Y04729028D01*
X04340606Y04713644D01*
X04372462Y04689169D01*
X04396938Y04657311D01*
X04412320Y04620205D01*
X04303486Y04227384D02*
X04283754Y04231309D01*
X04263667Y04232626D01*
X04243575Y04231309D01*
X04223841Y04227382D01*
X04204781Y04220911D01*
X04186736Y04212012D01*
X04170008Y04200835D01*
X04154874Y04187562D01*
X04141598Y04172424D01*
X04130420Y04155693D01*
X04121518Y04137640D01*
X04115051Y04118587D01*
X04111126Y04098855D01*
X04109810Y04078768D01*
X04115015Y04038940D01*
X04130396Y04001833D01*
X04154872Y03969976D01*
X04186728Y03945500D01*
X04223836Y03930117D01*
X04263667Y03924911D01*
X04303496Y03930116D01*
X04340602Y03945498D01*
X04372460Y03969974D01*
X04396935Y04001829D01*
X04412319Y04038937D01*
X04417525Y04078768D01*
X04416208Y04098860D01*
X04412281Y04118594D01*
X04405810Y04137654D01*
X04396911Y04155699D01*
X04385734Y04172428D01*
X04372461Y04187562D01*
X04357322Y04200838D01*
X04340592Y04212015D01*
X04322539Y04220917D01*
X04303486Y04227384D01*
X04616659Y04118587D02*
X04623126Y04137640D01*
X04632028Y04155693D01*
X04643205Y04172424D01*
X04656482Y04187562D01*
X04671616Y04200835D01*
X04688344Y04212012D01*
X04706389Y04220911D01*
X04725449Y04227382D01*
X04745183Y04231309D01*
X04765275Y04232626D01*
X04785362Y04231309D01*
X04805094Y04227384D01*
X04824147Y04220917D01*
X04842200Y04212015D01*
X04858930Y04200838D01*
X04874069Y04187562D01*
X04887342Y04172428D01*
X04898518Y04155699D01*
X04907418Y04137654D01*
X04913889Y04118594D01*
X04917816Y04098860D01*
X04919132Y04078768D01*
X04913927Y04038937D01*
X04898543Y04001829D01*
X04874068Y03969974D01*
X04842210Y03945498D01*
X04805104Y03930116D01*
X04765275Y03924911D01*
X04725443Y03930117D01*
X04688336Y03945500D01*
X04656480Y03969976D01*
X04632004Y04001833D01*
X04616622Y04038940D01*
X04611417Y04078768D01*
X04612734Y04098855D01*
X04616659Y04118587D01*
X04725449Y03725774D02*
X04745183Y03729701D01*
X04765275Y03731018D01*
X04785362Y03729702D01*
X04805094Y03725776D01*
X04824147Y03719309D01*
X04842200Y03710407D01*
X04858930Y03699230D01*
X04874069Y03685954D01*
X04887342Y03670820D01*
X04898518Y03654091D01*
X04907418Y03636046D01*
X04913889Y03616986D01*
X04917816Y03597252D01*
X04919132Y03577160D01*
X04913927Y03537329D01*
X04898543Y03500221D01*
X04874068Y03468366D01*
X04842210Y03443890D01*
X04805104Y03428508D01*
X04765275Y03423303D01*
X04725443Y03428509D01*
X04688336Y03443892D01*
X04656480Y03468368D01*
X04632004Y03500226D01*
X04616622Y03537332D01*
X04611417Y03577160D01*
X04612734Y03597247D01*
X04616659Y03616979D01*
X04623126Y03636032D01*
X04632028Y03654085D01*
X04643205Y03670816D01*
X04656482Y03685954D01*
X04671616Y03699227D01*
X04688344Y03710404D01*
X04706389Y03719303D01*
X04725449Y03725774D01*
X04412281Y03616986D02*
X04416208Y03597252D01*
X04417525Y03577160D01*
X04412319Y03537329D01*
X04396935Y03500221D01*
X04372460Y03468366D01*
X04340602Y03443890D01*
X04303496Y03428508D01*
X04263667Y03423303D01*
X04223836Y03428509D01*
X04186728Y03443892D01*
X04154872Y03468368D01*
X04130396Y03500226D01*
X04115015Y03537332D01*
X04109810Y03577160D01*
X04111126Y03597247D01*
X04115051Y03616979D01*
X04121518Y03636032D01*
X04130420Y03654085D01*
X04141598Y03670816D01*
X04154874Y03685954D01*
X04170008Y03699227D01*
X04186736Y03710404D01*
X04204781Y03719303D01*
X04223841Y03725774D01*
X04243575Y03729701D01*
X04263667Y03731018D01*
X04283754Y03729702D01*
X04303486Y03725776D01*
X04322539Y03719309D01*
X04340592Y03710407D01*
X04357322Y03699230D01*
X04372461Y03685954D01*
X04385734Y03670820D01*
X04396911Y03654091D01*
X04405810Y03636046D01*
X04412281Y03616986D01*
X04303486Y03224169D02*
X04283754Y03228094D01*
X04263667Y03229410D01*
X04243575Y03228093D01*
X04223841Y03224167D01*
X04204781Y03217695D01*
X04186736Y03208796D01*
X04170008Y03197619D01*
X04154874Y03184346D01*
X04141598Y03169208D01*
X04130420Y03152478D01*
X04121518Y03134424D01*
X04115051Y03115371D01*
X04111126Y03095639D01*
X04109810Y03075552D01*
X04115015Y03035724D01*
X04130396Y02998617D01*
X04154872Y02966760D01*
X04186728Y02942284D01*
X04223836Y02926901D01*
X04263667Y02921695D01*
X04303496Y02926900D01*
X04340602Y02942282D01*
X04372460Y02966758D01*
X04396935Y02998613D01*
X04412319Y03035721D01*
X04417525Y03075552D01*
X04416208Y03095644D01*
X04412281Y03115378D01*
X04405810Y03134438D01*
X04396911Y03152484D01*
X04385734Y03169212D01*
X04372461Y03184346D01*
X04357322Y03197622D01*
X04340592Y03208800D01*
X04322539Y03217701D01*
X04303486Y03224169D01*
X04616659Y03115371D02*
X04623126Y03134424D01*
X04632028Y03152478D01*
X04643205Y03169208D01*
X04656482Y03184346D01*
X04671616Y03197619D01*
X04688344Y03208796D01*
X04706389Y03217695D01*
X04725449Y03224167D01*
X04745183Y03228093D01*
X04765275Y03229410D01*
X04785362Y03228094D01*
X04805094Y03224169D01*
X04824147Y03217701D01*
X04842200Y03208800D01*
X04858930Y03197622D01*
X04874069Y03184346D01*
X04887342Y03169212D01*
X04898518Y03152484D01*
X04907418Y03134438D01*
X04913889Y03115378D01*
X04917816Y03095644D01*
X04919132Y03075552D01*
X04913927Y03035721D01*
X04898543Y02998613D01*
X04874068Y02966758D01*
X04842210Y02942282D01*
X04805104Y02926900D01*
X04765275Y02921695D01*
X04725443Y02926901D01*
X04688336Y02942284D01*
X04656480Y02966760D01*
X04632004Y02998617D01*
X04616622Y03035724D01*
X04611417Y03075552D01*
X04612734Y03095639D01*
X04616659Y03115371D01*
X03915917Y03075552D02*
X03914600Y03095644D01*
X03910674Y03115378D01*
X03904202Y03134438D01*
X03895303Y03152484D01*
X03884126Y03169212D01*
X03870853Y03184346D01*
X03855715Y03197622D01*
X03838984Y03208800D01*
X03820931Y03217701D01*
X03801878Y03224169D01*
X03782146Y03228094D01*
X03762059Y03229410D01*
X03741967Y03228093D01*
X03722234Y03224167D01*
X03703174Y03217695D01*
X03685128Y03208796D01*
X03668400Y03197619D01*
X03653266Y03184346D01*
X03639990Y03169208D01*
X03628812Y03152478D01*
X03619911Y03134424D01*
X03613443Y03115371D01*
X03609518Y03095639D01*
X03608202Y03075552D01*
X03613407Y03035724D01*
X03628789Y02998617D01*
X03653265Y02966760D01*
X03685120Y02942284D01*
X03722228Y02926901D01*
X03762059Y02921695D01*
X03801888Y02926900D01*
X03838994Y02942282D01*
X03870852Y02966758D01*
X03895327Y02998613D01*
X03910711Y03035721D01*
X03915917Y03075552D01*
X03801888Y03428508D02*
X03762059Y03423303D01*
X03722228Y03428509D01*
X03685120Y03443892D01*
X03653265Y03468368D01*
X03628789Y03500226D01*
X03613407Y03537332D01*
X03608202Y03577160D01*
X03609518Y03597247D01*
X03613443Y03616979D01*
X03619911Y03636032D01*
X03628812Y03654085D01*
X03639990Y03670816D01*
X03653266Y03685954D01*
X03668400Y03699227D01*
X03685128Y03710404D01*
X03703174Y03719303D01*
X03722234Y03725774D01*
X03741967Y03729701D01*
X03762059Y03731018D01*
X03782146Y03729702D01*
X03801878Y03725776D01*
X03820931Y03719309D01*
X03838984Y03710407D01*
X03855715Y03699230D01*
X03870853Y03685954D01*
X03884126Y03670820D01*
X03895303Y03654091D01*
X03904202Y03636046D01*
X03910674Y03616986D01*
X03914600Y03597252D01*
X03915917Y03577160D01*
X03910711Y03537329D01*
X03895327Y03500221D01*
X03870852Y03468366D01*
X03838994Y03443890D01*
X03801888Y03428508D01*
X03409103Y03537329D02*
X03393719Y03500221D01*
X03369244Y03468366D01*
X03337386Y03443890D01*
X03300280Y03428508D01*
X03260451Y03423303D01*
X03220620Y03428509D01*
X03183512Y03443892D01*
X03151657Y03468368D01*
X03127181Y03500226D01*
X03111799Y03537332D01*
X03106594Y03577160D01*
X03107910Y03597247D01*
X03111835Y03616979D01*
X03118303Y03636032D01*
X03127204Y03654085D01*
X03138382Y03670816D01*
X03151657Y03685954D01*
X03166792Y03699227D01*
X03183520Y03710404D01*
X03201566Y03719303D01*
X03220626Y03725774D01*
X03240359Y03729701D01*
X03260451Y03731018D01*
X03280538Y03729702D01*
X03300270Y03725776D01*
X03319323Y03719309D01*
X03337376Y03710407D01*
X03354107Y03699230D01*
X03369245Y03685954D01*
X03382518Y03670820D01*
X03393695Y03654091D01*
X03402594Y03636046D01*
X03409065Y03616986D01*
X03412992Y03597252D01*
X03414309Y03577160D01*
X03409103Y03537329D01*
X03300270Y03224169D02*
X03280538Y03228094D01*
X03260451Y03229410D01*
X03240359Y03228093D01*
X03220626Y03224167D01*
X03201566Y03217695D01*
X03183520Y03208796D01*
X03166792Y03197619D01*
X03151657Y03184346D01*
X03138382Y03169208D01*
X03127204Y03152478D01*
X03118303Y03134424D01*
X03111835Y03115371D01*
X03107910Y03095639D01*
X03106594Y03075552D01*
X03111799Y03035724D01*
X03127181Y02998617D01*
X03151657Y02966760D01*
X03183512Y02942284D01*
X03220620Y02926901D01*
X03260451Y02921695D01*
X03300280Y02926900D01*
X03337386Y02942282D01*
X03369244Y02966758D01*
X03393719Y02998613D01*
X03409103Y03035721D01*
X03414309Y03075552D01*
X03412992Y03095644D01*
X03409065Y03115378D01*
X03402594Y03134438D01*
X03393695Y03152484D01*
X03382518Y03169212D01*
X03369245Y03184346D01*
X03354107Y03197622D01*
X03337376Y03208800D01*
X03319323Y03217701D01*
X03300270Y03224169D01*
X02907457Y03115378D02*
X02911384Y03095644D01*
X02912701Y03075552D01*
X02907495Y03035721D01*
X02892111Y02998613D01*
X02867636Y02966758D01*
X02835778Y02942282D01*
X02798672Y02926900D01*
X02758843Y02921695D01*
X02719012Y02926901D01*
X02681904Y02942284D01*
X02650049Y02966760D01*
X02625573Y02998617D01*
X02610191Y03035724D01*
X02604986Y03075552D01*
X02606302Y03095639D01*
X02610228Y03115371D01*
X02616695Y03134424D01*
X02625596Y03152478D01*
X02636774Y03169208D01*
X02650050Y03184346D01*
X02665184Y03197619D01*
X02681912Y03208796D01*
X02699958Y03217695D01*
X02719018Y03224167D01*
X02738752Y03228093D01*
X02758843Y03229410D01*
X02778930Y03228094D01*
X02798663Y03224169D01*
X02817715Y03217701D01*
X02835768Y03208800D01*
X02852499Y03197622D01*
X02867637Y03184346D01*
X02880910Y03169212D01*
X02892087Y03152484D01*
X02900986Y03134438D01*
X02907457Y03115378D01*
X02798672Y03428508D02*
X02758843Y03423303D01*
X02719012Y03428509D01*
X02681904Y03443892D01*
X02650049Y03468368D01*
X02625573Y03500226D01*
X02610191Y03537332D01*
X02604986Y03577160D01*
X02606302Y03597247D01*
X02610228Y03616979D01*
X02616695Y03636032D01*
X02625596Y03654085D01*
X02636774Y03670816D01*
X02650050Y03685954D01*
X02665184Y03699227D01*
X02681912Y03710404D01*
X02699958Y03719303D01*
X02719018Y03725774D01*
X02738752Y03729701D01*
X02758843Y03731018D01*
X02778930Y03729702D01*
X02798663Y03725776D01*
X02817715Y03719309D01*
X02835768Y03710407D01*
X02852499Y03699230D01*
X02867637Y03685954D01*
X02880910Y03670820D01*
X02892087Y03654091D01*
X02900986Y03636046D01*
X02907457Y03616986D01*
X02911384Y03597252D01*
X02912701Y03577160D01*
X02907495Y03537329D01*
X02892111Y03500221D01*
X02867636Y03468366D01*
X02835778Y03443890D01*
X02798672Y03428508D01*
X02405887Y03537329D02*
X02390504Y03500221D01*
X02366028Y03468366D01*
X02334171Y03443890D01*
X02297064Y03428508D01*
X02257235Y03423303D01*
X02217404Y03428509D01*
X02180297Y03443892D01*
X02148441Y03468368D01*
X02123965Y03500226D01*
X02108583Y03537332D01*
X02103378Y03577160D01*
X02104694Y03597247D01*
X02108620Y03616979D01*
X02115087Y03636032D01*
X02123989Y03654085D01*
X02135166Y03670816D01*
X02148442Y03685954D01*
X02163576Y03699227D01*
X02180304Y03710404D01*
X02198350Y03719303D01*
X02217410Y03725774D01*
X02237143Y03729701D01*
X02257235Y03731018D01*
X02277322Y03729702D01*
X02297054Y03725776D01*
X02316108Y03719309D01*
X02334161Y03710407D01*
X02350891Y03699230D01*
X02366029Y03685954D01*
X02379302Y03670820D01*
X02390479Y03654091D01*
X02399378Y03636046D01*
X02405850Y03616986D01*
X02409776Y03597252D01*
X02411093Y03577160D01*
X02405887Y03537329D01*
X02297054Y03224169D02*
X02277322Y03228094D01*
X02257235Y03229410D01*
X02237143Y03228093D01*
X02217410Y03224167D01*
X02198350Y03217695D01*
X02180304Y03208796D01*
X02163576Y03197619D01*
X02148442Y03184346D01*
X02135166Y03169208D01*
X02123989Y03152478D01*
X02115087Y03134424D01*
X02108620Y03115371D01*
X02104694Y03095639D01*
X02103378Y03075552D01*
X02108583Y03035724D01*
X02123965Y02998617D01*
X02148441Y02966760D01*
X02180297Y02942284D01*
X02217404Y02926901D01*
X02257235Y02921695D01*
X02297064Y02926900D01*
X02334171Y02942282D01*
X02366028Y02966758D01*
X02390504Y02998613D01*
X02405887Y03035721D01*
X02411093Y03075552D01*
X02409776Y03095644D01*
X02405850Y03115378D01*
X02399378Y03134438D01*
X02390479Y03152484D01*
X02379302Y03169212D01*
X02366029Y03184346D01*
X02350891Y03197622D01*
X02334161Y03208800D01*
X02316108Y03217701D01*
X02297054Y03224169D01*
X02257235Y03924911D02*
X02217404Y03930117D01*
X02180297Y03945500D01*
X02148441Y03969976D01*
X02123965Y04001833D01*
X02108583Y04038940D01*
X02103378Y04078768D01*
X02104694Y04098855D01*
X02108620Y04118587D01*
X02115087Y04137640D01*
X02123989Y04155693D01*
X02135166Y04172424D01*
X02148442Y04187562D01*
X02163576Y04200835D01*
X02180304Y04212012D01*
X02198350Y04220911D01*
X02217410Y04227382D01*
X02237143Y04231309D01*
X02257235Y04232626D01*
X02277322Y04231309D01*
X02297054Y04227384D01*
X02316108Y04220917D01*
X02334161Y04212015D01*
X02350891Y04200838D01*
X02366029Y04187562D01*
X02379302Y04172428D01*
X02390479Y04155699D01*
X02399378Y04137654D01*
X02405850Y04118594D01*
X02409776Y04098860D01*
X02411093Y04078768D01*
X02405887Y04038937D01*
X02390504Y04001829D01*
X02366028Y03969974D01*
X02334171Y03945498D01*
X02297064Y03930116D01*
X02257235Y03924911D01*
X02610191Y04038940D02*
X02625573Y04001833D01*
X02650049Y03969976D01*
X02681904Y03945500D01*
X02719012Y03930117D01*
X02758843Y03924911D01*
X02798672Y03930116D01*
X02835778Y03945498D01*
X02867636Y03969974D01*
X02892111Y04001829D01*
X02907495Y04038937D01*
X02912701Y04078768D01*
X02911384Y04098860D01*
X02907457Y04118594D01*
X02900986Y04137654D01*
X02892087Y04155699D01*
X02880910Y04172428D01*
X02867637Y04187562D01*
X02852499Y04200838D01*
X02835768Y04212015D01*
X02817715Y04220917D01*
X02798663Y04227384D01*
X02778930Y04231309D01*
X02758843Y04232626D01*
X02738752Y04231309D01*
X02719018Y04227382D01*
X02699958Y04220911D01*
X02681912Y04212012D01*
X02665184Y04200835D01*
X02650050Y04187562D01*
X02636774Y04172424D01*
X02625596Y04155693D01*
X02616695Y04137640D01*
X02610228Y04118587D01*
X02606302Y04098855D01*
X02604986Y04078768D01*
X02610191Y04038940D01*
X02719024Y04431760D02*
X02699972Y04438228D01*
X02681918Y04447129D01*
X02665188Y04458306D01*
X02650050Y04471582D01*
X02636777Y04486717D01*
X02625600Y04503445D01*
X02616700Y04521491D01*
X02610229Y04540550D01*
X02606303Y04560284D01*
X02604986Y04580376D01*
X02610192Y04620207D01*
X02625576Y04657315D01*
X02650051Y04689171D01*
X02681909Y04713647D01*
X02719015Y04729029D01*
X02758843Y04734234D01*
X02798675Y04729028D01*
X02835783Y04713644D01*
X02867638Y04689169D01*
X02892114Y04657311D01*
X02907496Y04620205D01*
X02912701Y04580376D01*
X02911385Y04560289D01*
X02907459Y04540557D01*
X02900992Y04521504D01*
X02892091Y04503451D01*
X02880913Y04486721D01*
X02867637Y04471582D01*
X02852503Y04458309D01*
X02835774Y04447133D01*
X02817729Y04438233D01*
X02798669Y04431762D01*
X02778935Y04427835D01*
X02758843Y04426518D01*
X02738757Y04427835D01*
X02719024Y04431760D01*
X02405852Y04540557D02*
X02399384Y04521504D01*
X02390483Y04503451D01*
X02379305Y04486721D01*
X02366029Y04471582D01*
X02350895Y04458309D01*
X02334167Y04447133D01*
X02316121Y04438233D01*
X02297061Y04431762D01*
X02277328Y04427835D01*
X02257235Y04426518D01*
X02237148Y04427835D01*
X02217417Y04431760D01*
X02198364Y04438228D01*
X02180310Y04447129D01*
X02163580Y04458306D01*
X02148442Y04471582D01*
X02135169Y04486717D01*
X02123992Y04503445D01*
X02115093Y04521491D01*
X02108621Y04540550D01*
X02104695Y04560284D01*
X02103378Y04580376D01*
X02108584Y04620207D01*
X02123967Y04657315D01*
X02148443Y04689171D01*
X02180301Y04713647D01*
X02217407Y04729029D01*
X02257235Y04734234D01*
X02297067Y04729028D01*
X02334175Y04713644D01*
X02366030Y04689169D01*
X02390506Y04657311D01*
X02405888Y04620205D01*
X02411093Y04580376D01*
X02409777Y04560289D01*
X02405852Y04540557D01*
X03106594Y04580376D02*
X03111800Y04620207D01*
X03127183Y04657315D01*
X03151659Y04689171D01*
X03183516Y04713647D01*
X03220623Y04729029D01*
X03260451Y04734234D01*
X03300283Y04729028D01*
X03337391Y04713644D01*
X03369246Y04689169D01*
X03393722Y04657311D01*
X03409104Y04620205D01*
X03414309Y04580376D01*
X03412992Y04560289D01*
X03409067Y04540557D01*
X03402600Y04521504D01*
X03393698Y04503451D01*
X03382521Y04486721D01*
X03369245Y04471582D01*
X03354111Y04458309D01*
X03337382Y04447133D01*
X03319337Y04438233D01*
X03300277Y04431762D01*
X03280543Y04427835D01*
X03260451Y04426518D01*
X03240365Y04427835D01*
X03220632Y04431760D01*
X03201579Y04438228D01*
X03183526Y04447129D01*
X03166796Y04458306D01*
X03151657Y04471582D01*
X03138385Y04486717D01*
X03127208Y04503445D01*
X03118308Y04521491D01*
X03111837Y04540550D01*
X03107911Y04560284D01*
X03106594Y04580376D01*
X03220626Y04227382D02*
X03240359Y04231309D01*
X03260451Y04232626D01*
X03280538Y04231309D01*
X03300270Y04227384D01*
X03319323Y04220917D01*
X03337376Y04212015D01*
X03354107Y04200838D01*
X03369245Y04187562D01*
X03382518Y04172428D01*
X03393695Y04155699D01*
X03402594Y04137654D01*
X03409065Y04118594D01*
X03412992Y04098860D01*
X03414309Y04078768D01*
X03409103Y04038937D01*
X03393719Y04001829D01*
X03369244Y03969974D01*
X03337386Y03945498D01*
X03300280Y03930116D01*
X03260451Y03924911D01*
X03220620Y03930117D01*
X03183512Y03945500D01*
X03151657Y03969976D01*
X03127181Y04001833D01*
X03111799Y04038940D01*
X03106594Y04078768D01*
X03107910Y04098855D01*
X03111835Y04118587D01*
X03118303Y04137640D01*
X03127204Y04155693D01*
X03138382Y04172424D01*
X03151657Y04187562D01*
X03166792Y04200835D01*
X03183520Y04212012D01*
X03201566Y04220911D01*
X03220626Y04227382D01*
X03613443Y04118587D02*
X03619911Y04137640D01*
X03628812Y04155693D01*
X03639990Y04172424D01*
X03653266Y04187562D01*
X03668400Y04200835D01*
X03685128Y04212012D01*
X03703174Y04220911D01*
X03722234Y04227382D01*
X03741967Y04231309D01*
X03762059Y04232626D01*
X03782146Y04231309D01*
X03801878Y04227384D01*
X03820931Y04220917D01*
X03838984Y04212015D01*
X03855715Y04200838D01*
X03870853Y04187562D01*
X03884126Y04172428D01*
X03895303Y04155699D01*
X03904202Y04137654D01*
X03910674Y04118594D01*
X03914600Y04098860D01*
X03915917Y04078768D01*
X03910711Y04038937D01*
X03895327Y04001829D01*
X03870852Y03969974D01*
X03838994Y03945498D01*
X03801888Y03930116D01*
X03762059Y03924911D01*
X03722228Y03930117D01*
X03685120Y03945500D01*
X03653265Y03969976D01*
X03628789Y04001833D01*
X03613407Y04038940D01*
X03608202Y04078768D01*
X03609518Y04098855D01*
X03613443Y04118587D01*
X03722240Y04431760D02*
X03703187Y04438228D01*
X03685134Y04447129D01*
X03668404Y04458306D01*
X03653266Y04471582D01*
X03639993Y04486717D01*
X03628816Y04503445D01*
X03619916Y04521491D01*
X03613445Y04540550D01*
X03609519Y04560284D01*
X03608202Y04580376D01*
X03613407Y04620207D01*
X03628791Y04657315D01*
X03653266Y04689171D01*
X03685124Y04713647D01*
X03722231Y04729029D01*
X03762059Y04734234D01*
X03801891Y04729028D01*
X03838998Y04713644D01*
X03870854Y04689169D01*
X03895330Y04657311D01*
X03910712Y04620205D01*
X03915917Y04580376D01*
X03914600Y04560289D01*
X03910675Y04540557D01*
X03904208Y04521504D01*
X03895306Y04503451D01*
X03884129Y04486721D01*
X03870853Y04471582D01*
X03855719Y04458309D01*
X03838991Y04447133D01*
X03820945Y04438233D01*
X03801885Y04431762D01*
X03782151Y04427835D01*
X03762059Y04426518D01*
X03741972Y04427835D01*
X03722240Y04431760D01*
M02*
