G75*
%MOIN*%
%OFA0B0*%
%FSLAX26Y26*%
%IPPOS*%
%LPD*%
%AMOC8*
5,1,8,0,0,1.08239X$1,22.5*
%
%ADD10C,0.060000*%
%ADD11C,0.074000*%
%ADD12C,0.051496*%
%ADD13C,0.010000*%
D10*
X05470000Y00550000D02*
X05530000Y00550000D01*
X05530000Y00650000D02*
X05470000Y00650000D01*
X05470000Y00750000D02*
X05530000Y00750000D01*
X05530000Y00850000D02*
X05470000Y00850000D01*
D11*
X00122000Y01611000D03*
X00122000Y01789000D03*
X00378000Y01789000D03*
X00378000Y01611000D03*
X00622000Y01611000D03*
X00622000Y01789000D03*
X00878000Y01789000D03*
X00878000Y01611000D03*
X01122000Y01611000D03*
X01122000Y01789000D03*
X01378000Y01789000D03*
X01378000Y01611000D03*
X01622000Y01611000D03*
X01622000Y01789000D03*
X01878000Y01789000D03*
X01878000Y01611000D03*
X02122000Y01611000D03*
X02122000Y01789000D03*
X02378000Y01789000D03*
X02378000Y01611000D03*
X02622000Y01611000D03*
X02622000Y01789000D03*
X02878000Y01789000D03*
X02878000Y01611000D03*
X03122000Y01611000D03*
X03122000Y01789000D03*
X03378000Y01789000D03*
X03378000Y01611000D03*
X03622000Y01611000D03*
X03622000Y01789000D03*
X03878000Y01789000D03*
X03878000Y01611000D03*
X04122000Y01611000D03*
X04122000Y01789000D03*
X04378000Y01789000D03*
X04378000Y01611000D03*
X04622000Y01611000D03*
X04622000Y01789000D03*
X04878000Y01789000D03*
X04878000Y01611000D03*
X05122000Y01611000D03*
X05122000Y01789000D03*
X05378000Y01789000D03*
X05378000Y01611000D03*
X05622000Y01611000D03*
X05622000Y01789000D03*
X05878000Y01789000D03*
X05878000Y01611000D03*
X04150000Y00800000D03*
X04000000Y00650000D03*
X03850000Y00800000D03*
X03700000Y00650000D03*
D12*
X03585364Y00798951D02*
X03548951Y00835364D01*
X03478240Y00764653D02*
X03514653Y00728240D01*
X03443943Y00657529D02*
X03407529Y00693942D01*
X03336819Y00623232D02*
X03373232Y00586819D01*
X03302521Y00516108D02*
X03266108Y00552521D01*
X03195397Y00481810D02*
X03231811Y00445397D01*
X03161100Y00374687D02*
X03124687Y00411100D01*
X03053976Y00340389D02*
X03090389Y00303976D01*
X03019679Y00233265D02*
X02983265Y00269678D01*
X02912555Y00198968D02*
X02948968Y00162555D01*
X02736836Y00374687D02*
X02700423Y00411100D01*
X02771133Y00481810D02*
X02807547Y00445397D01*
X02878257Y00516108D02*
X02841844Y00552521D01*
X02912555Y00623232D02*
X02948968Y00586819D01*
X03019679Y00657529D02*
X02983265Y00693942D01*
X03053976Y00764653D02*
X03090389Y00728240D01*
X03161100Y00798951D02*
X03124687Y00835364D01*
X03195397Y00906074D02*
X03231811Y00869661D01*
X03302521Y00940372D02*
X03266108Y00976785D01*
X03336819Y01047496D02*
X03373232Y01011083D01*
X03443943Y01081793D02*
X03407529Y01118207D01*
X03478240Y01188917D02*
X03514653Y01152504D01*
X03585364Y01223215D02*
X03548951Y01259628D01*
X03619661Y01330339D02*
X03656075Y01293925D01*
X03831793Y01118207D02*
X03868207Y01081793D01*
X03797496Y01011083D02*
X03761083Y01047496D01*
X03690372Y00976785D02*
X03726785Y00940372D01*
X03656075Y00869661D02*
X03619661Y00906074D01*
D13*
X03637868Y00887868D02*
X03640000Y00890000D01*
X04740000Y00890000D01*
X05630000Y01780000D01*
X05622000Y01789000D01*
X05130000Y01780000D02*
X05122000Y01789000D01*
X05130000Y01780000D02*
X04310000Y00960000D01*
X03710000Y00960000D01*
X03708579Y00958579D01*
X03850000Y00800000D02*
X03930000Y00800000D01*
X04080000Y00650000D01*
X05500000Y00650000D01*
X04622000Y01611000D02*
X04620000Y01620000D01*
X04570000Y01670000D01*
X04360000Y01670000D01*
X04310000Y01620000D01*
X04130000Y01620000D01*
X04122000Y01611000D01*
X04120000Y01620000D01*
X03950000Y01620000D01*
X03900000Y01670000D01*
X03680000Y01670000D01*
X03630000Y01620000D01*
X03622000Y01611000D01*
X03620000Y01620000D01*
X03570000Y01670000D01*
X03360000Y01670000D01*
X03310000Y01620000D01*
X03130000Y01620000D01*
X03122000Y01611000D01*
X03120000Y01620000D01*
X03070000Y01670000D01*
X02860000Y01670000D01*
X02810000Y01620000D01*
X02790000Y01620000D01*
X02860000Y01550000D01*
X02860000Y00540000D01*
X02860051Y00534314D01*
X02790000Y01620000D02*
X02630000Y01620000D01*
X02622000Y01611000D01*
X02122000Y01611000D02*
X02120000Y01620000D01*
X02070000Y01670000D01*
X01860000Y01670000D01*
X01810000Y01620000D01*
X01630000Y01620000D01*
X01622000Y01611000D01*
X00622000Y01611000D02*
X00620000Y01620000D01*
X00570000Y01670000D01*
X00360000Y01670000D01*
X00310000Y01620000D01*
X00130000Y01620000D01*
X00122000Y01611000D01*
M02*
