G75*
%MOIN*%
%OFA0B0*%
%FSLAX26Y26*%
%IPPOS*%
%LPD*%
%AMOC8*
5,1,8,0,0,1.08239X$1,22.5*
%
%ADD10C,0.000039*%
%ADD11C,0.006000*%
%ADD12C,0.005000*%
%ADD13C,0.008000*%
D10*
X00250814Y00250814D02*
X00752421Y00250814D01*
X00752421Y00000000D01*
X01504822Y00000000D01*
X01504822Y00250814D01*
X02508036Y00250814D01*
X02508036Y00000000D01*
X03512797Y00000000D01*
X03512797Y00250814D01*
X04514465Y00250814D01*
X04514465Y00000000D01*
X05266886Y00000000D01*
X05266886Y00250814D01*
X05768494Y00250814D01*
X05768494Y01321065D01*
X06019287Y01321065D01*
X06019287Y06354940D01*
X05517680Y06354940D01*
X05517680Y06586813D01*
X04765279Y06586813D01*
X04765279Y06354940D01*
X03511251Y06354940D01*
X03511251Y06586813D01*
X02508036Y06586813D01*
X02508036Y06354940D01*
X01254028Y06354940D01*
X01254028Y06586813D01*
X00501607Y06586813D01*
X00501607Y06354940D01*
X00000000Y06354940D01*
X00000000Y01321065D01*
X00250814Y01321065D01*
X00250814Y00250814D01*
D11*
X05450000Y00525000D02*
X05475000Y00500000D01*
X05525000Y00500000D01*
X05550000Y00525000D01*
X05550000Y00575000D01*
X05525000Y00600000D01*
X05475000Y00600000D01*
X05450000Y00575000D01*
X05450000Y00525000D01*
X05475000Y00600000D02*
X05450000Y00625000D01*
X05450000Y00675000D01*
X05475000Y00700000D01*
X05450000Y00725000D01*
X05450000Y00775000D01*
X05475000Y00800000D01*
X05450000Y00825000D01*
X05450000Y00875000D01*
X05475000Y00900000D01*
X05525000Y00900000D01*
X05550000Y00875000D01*
X05550000Y00825000D01*
X05525000Y00800000D01*
X05550000Y00775000D01*
X05550000Y00725000D01*
X05525000Y00700000D01*
X05475000Y00700000D01*
X05525000Y00700000D02*
X05550000Y00675000D01*
X05550000Y00625000D01*
X05525000Y00600000D01*
X05525000Y00800000D02*
X05475000Y00800000D01*
D12*
X05574500Y00809206D02*
X05609500Y00809206D01*
X05609742Y00809203D01*
X05609983Y00809194D01*
X05610224Y00809180D01*
X05610465Y00809159D01*
X05610705Y00809133D01*
X05610945Y00809101D01*
X05611184Y00809063D01*
X05611421Y00809020D01*
X05611658Y00808970D01*
X05611893Y00808915D01*
X05612127Y00808855D01*
X05612359Y00808788D01*
X05612590Y00808717D01*
X05612819Y00808639D01*
X05613046Y00808556D01*
X05613271Y00808468D01*
X05613494Y00808374D01*
X05613714Y00808275D01*
X05613932Y00808170D01*
X05614147Y00808061D01*
X05614360Y00807946D01*
X05614570Y00807826D01*
X05614776Y00807701D01*
X05614980Y00807571D01*
X05615181Y00807436D01*
X05615378Y00807296D01*
X05615572Y00807152D01*
X05615762Y00807003D01*
X05615948Y00806849D01*
X05616131Y00806691D01*
X05616310Y00806529D01*
X05616485Y00806362D01*
X05616656Y00806191D01*
X05616823Y00806016D01*
X05616985Y00805837D01*
X05617143Y00805654D01*
X05617297Y00805468D01*
X05617446Y00805278D01*
X05617590Y00805084D01*
X05617730Y00804887D01*
X05617865Y00804686D01*
X05617995Y00804482D01*
X05618120Y00804276D01*
X05618240Y00804066D01*
X05618355Y00803853D01*
X05618464Y00803638D01*
X05618569Y00803420D01*
X05618668Y00803200D01*
X05618762Y00802977D01*
X05618850Y00802752D01*
X05618933Y00802525D01*
X05619011Y00802296D01*
X05619082Y00802065D01*
X05619149Y00801833D01*
X05619209Y00801599D01*
X05619264Y00801364D01*
X05619314Y00801127D01*
X05619357Y00800890D01*
X05619395Y00800651D01*
X05619427Y00800411D01*
X05619453Y00800171D01*
X05619474Y00799930D01*
X05619488Y00799689D01*
X05619497Y00799448D01*
X05619500Y00799206D01*
X05619500Y00794206D01*
X05619500Y00832750D02*
X05574500Y00832750D01*
X05574500Y00845250D01*
X05574504Y00845554D01*
X05574515Y00845859D01*
X05574533Y00846162D01*
X05574559Y00846466D01*
X05574593Y00846768D01*
X05574633Y00847070D01*
X05574681Y00847371D01*
X05574736Y00847670D01*
X05574799Y00847968D01*
X05574869Y00848264D01*
X05574946Y00848559D01*
X05575030Y00848851D01*
X05575121Y00849142D01*
X05575220Y00849430D01*
X05575325Y00849715D01*
X05575437Y00849998D01*
X05575556Y00850279D01*
X05575682Y00850556D01*
X05575814Y00850830D01*
X05575954Y00851100D01*
X05576099Y00851368D01*
X05576252Y00851631D01*
X05576410Y00851891D01*
X05576575Y00852147D01*
X05576746Y00852399D01*
X05576923Y00852646D01*
X05577106Y00852890D01*
X05577295Y00853128D01*
X05577490Y00853362D01*
X05577690Y00853591D01*
X05577896Y00853816D01*
X05578108Y00854035D01*
X05578324Y00854249D01*
X05578546Y00854457D01*
X05578772Y00854661D01*
X05579004Y00854858D01*
X05579240Y00855050D01*
X05579481Y00855236D01*
X05579727Y00855416D01*
X05579976Y00855590D01*
X05580230Y00855758D01*
X05580488Y00855920D01*
X05580750Y00856075D01*
X05581015Y00856224D01*
X05581284Y00856367D01*
X05581557Y00856503D01*
X05581832Y00856632D01*
X05582111Y00856754D01*
X05582393Y00856870D01*
X05582677Y00856979D01*
X05582964Y00857080D01*
X05583253Y00857175D01*
X05583545Y00857263D01*
X05583838Y00857344D01*
X05584134Y00857417D01*
X05584431Y00857483D01*
X05584730Y00857542D01*
X05585030Y00857594D01*
X05585331Y00857638D01*
X05585633Y00857675D01*
X05585936Y00857705D01*
X05586239Y00857727D01*
X05586543Y00857742D01*
X05586848Y00857749D01*
X05587152Y00857749D01*
X05587457Y00857742D01*
X05587761Y00857727D01*
X05588064Y00857705D01*
X05588367Y00857675D01*
X05588669Y00857638D01*
X05588970Y00857594D01*
X05589270Y00857542D01*
X05589569Y00857483D01*
X05589866Y00857417D01*
X05590162Y00857344D01*
X05590455Y00857263D01*
X05590747Y00857175D01*
X05591036Y00857080D01*
X05591323Y00856979D01*
X05591607Y00856870D01*
X05591889Y00856754D01*
X05592168Y00856632D01*
X05592443Y00856503D01*
X05592716Y00856367D01*
X05592985Y00856224D01*
X05593250Y00856075D01*
X05593512Y00855920D01*
X05593770Y00855758D01*
X05594024Y00855590D01*
X05594273Y00855416D01*
X05594519Y00855236D01*
X05594760Y00855050D01*
X05594996Y00854858D01*
X05595228Y00854661D01*
X05595454Y00854457D01*
X05595676Y00854249D01*
X05595892Y00854035D01*
X05596104Y00853816D01*
X05596310Y00853591D01*
X05596510Y00853362D01*
X05596705Y00853128D01*
X05596894Y00852890D01*
X05597077Y00852646D01*
X05597254Y00852399D01*
X05597425Y00852147D01*
X05597590Y00851891D01*
X05597748Y00851631D01*
X05597901Y00851368D01*
X05598046Y00851100D01*
X05598186Y00850830D01*
X05598318Y00850556D01*
X05598444Y00850279D01*
X05598563Y00849998D01*
X05598675Y00849715D01*
X05598780Y00849430D01*
X05598879Y00849142D01*
X05598970Y00848851D01*
X05599054Y00848559D01*
X05599131Y00848264D01*
X05599201Y00847968D01*
X05599264Y00847670D01*
X05599319Y00847371D01*
X05599367Y00847070D01*
X05599407Y00846768D01*
X05599441Y00846466D01*
X05599467Y00846162D01*
X05599485Y00845859D01*
X05599496Y00845554D01*
X05599500Y00845250D01*
X05599500Y00832750D01*
X05584500Y00875500D02*
X05574500Y00888000D01*
X05619500Y00888000D01*
X05619500Y00875500D02*
X05619500Y00900500D01*
X05744362Y01832500D02*
X05754918Y01832500D01*
X05749640Y01832500D02*
X05749640Y01851500D01*
X05744362Y01847278D01*
X05731927Y01840417D02*
X05726121Y01843583D01*
X05728232Y01851500D02*
X05728421Y01851498D01*
X05728609Y01851491D01*
X05728798Y01851480D01*
X05728986Y01851464D01*
X05729173Y01851444D01*
X05729360Y01851419D01*
X05729547Y01851390D01*
X05729733Y01851356D01*
X05729917Y01851319D01*
X05730101Y01851276D01*
X05730284Y01851229D01*
X05730466Y01851178D01*
X05730646Y01851123D01*
X05730825Y01851063D01*
X05731003Y01850999D01*
X05731178Y01850931D01*
X05731353Y01850859D01*
X05731525Y01850783D01*
X05731696Y01850702D01*
X05731865Y01850617D01*
X05732031Y01850529D01*
X05732196Y01850436D01*
X05732358Y01850340D01*
X05732518Y01850240D01*
X05732675Y01850136D01*
X05732830Y01850028D01*
X05732982Y01849917D01*
X05726121Y01843584D02*
X05726012Y01843650D01*
X05725906Y01843719D01*
X05725801Y01843792D01*
X05725699Y01843867D01*
X05725599Y01843946D01*
X05725501Y01844027D01*
X05725406Y01844112D01*
X05725314Y01844199D01*
X05725224Y01844289D01*
X05725136Y01844381D01*
X05725052Y01844476D01*
X05724970Y01844574D01*
X05724891Y01844674D01*
X05724816Y01844776D01*
X05724743Y01844880D01*
X05724673Y01844987D01*
X05724607Y01845096D01*
X05724544Y01845206D01*
X05724484Y01845318D01*
X05724428Y01845432D01*
X05724375Y01845548D01*
X05724325Y01845665D01*
X05724279Y01845784D01*
X05724236Y01845903D01*
X05724197Y01846024D01*
X05724162Y01846147D01*
X05724130Y01846270D01*
X05724102Y01846394D01*
X05724078Y01846519D01*
X05724057Y01846644D01*
X05724040Y01846770D01*
X05724027Y01846897D01*
X05724018Y01847024D01*
X05724012Y01847151D01*
X05724010Y01847278D01*
X05724012Y01847406D01*
X05724018Y01847533D01*
X05724027Y01847660D01*
X05724041Y01847787D01*
X05724058Y01847913D01*
X05724079Y01848039D01*
X05724104Y01848164D01*
X05724133Y01848288D01*
X05724165Y01848412D01*
X05724201Y01848534D01*
X05724241Y01848655D01*
X05724284Y01848775D01*
X05724331Y01848894D01*
X05724382Y01849011D01*
X05724436Y01849126D01*
X05724494Y01849240D01*
X05724555Y01849352D01*
X05724619Y01849462D01*
X05724687Y01849570D01*
X05724757Y01849676D01*
X05724831Y01849780D01*
X05724909Y01849882D01*
X05724989Y01849981D01*
X05725072Y01850078D01*
X05725158Y01850172D01*
X05725247Y01850263D01*
X05725338Y01850352D01*
X05725432Y01850438D01*
X05725529Y01850521D01*
X05725628Y01850602D01*
X05725730Y01850679D01*
X05725834Y01850753D01*
X05725940Y01850824D01*
X05726048Y01850891D01*
X05726158Y01850955D01*
X05726270Y01851016D01*
X05726384Y01851074D01*
X05726499Y01851128D01*
X05726616Y01851179D01*
X05726735Y01851226D01*
X05726855Y01851269D01*
X05726976Y01851309D01*
X05727098Y01851345D01*
X05727222Y01851377D01*
X05727346Y01851406D01*
X05727471Y01851431D01*
X05727597Y01851452D01*
X05727723Y01851469D01*
X05727850Y01851483D01*
X05727977Y01851492D01*
X05728105Y01851498D01*
X05728232Y01851500D01*
X05723483Y01835139D02*
X05723635Y01834989D01*
X05723790Y01834843D01*
X05723949Y01834701D01*
X05724112Y01834562D01*
X05724277Y01834428D01*
X05724446Y01834297D01*
X05724618Y01834171D01*
X05724793Y01834049D01*
X05724971Y01833931D01*
X05725151Y01833817D01*
X05725335Y01833707D01*
X05725520Y01833602D01*
X05725709Y01833502D01*
X05725899Y01833406D01*
X05726092Y01833314D01*
X05726287Y01833228D01*
X05726484Y01833146D01*
X05726683Y01833068D01*
X05726884Y01832996D01*
X05727086Y01832928D01*
X05727290Y01832865D01*
X05727495Y01832807D01*
X05727702Y01832754D01*
X05727910Y01832706D01*
X05728119Y01832663D01*
X05728329Y01832625D01*
X05728540Y01832592D01*
X05728751Y01832564D01*
X05728964Y01832541D01*
X05729176Y01832523D01*
X05729389Y01832510D01*
X05729603Y01832503D01*
X05729816Y01832500D01*
X05729944Y01832502D01*
X05730071Y01832508D01*
X05730198Y01832517D01*
X05730325Y01832531D01*
X05730451Y01832548D01*
X05730577Y01832569D01*
X05730702Y01832594D01*
X05730826Y01832623D01*
X05730950Y01832655D01*
X05731072Y01832691D01*
X05731193Y01832731D01*
X05731313Y01832774D01*
X05731432Y01832821D01*
X05731549Y01832872D01*
X05731664Y01832926D01*
X05731778Y01832984D01*
X05731890Y01833045D01*
X05732000Y01833109D01*
X05732108Y01833177D01*
X05732214Y01833247D01*
X05732318Y01833321D01*
X05732420Y01833399D01*
X05732519Y01833479D01*
X05732616Y01833562D01*
X05732710Y01833648D01*
X05732801Y01833737D01*
X05732890Y01833828D01*
X05732976Y01833922D01*
X05733059Y01834019D01*
X05733139Y01834118D01*
X05733217Y01834220D01*
X05733291Y01834324D01*
X05733361Y01834430D01*
X05733429Y01834538D01*
X05733493Y01834648D01*
X05733554Y01834760D01*
X05733612Y01834874D01*
X05733666Y01834989D01*
X05733717Y01835106D01*
X05733764Y01835225D01*
X05733807Y01835345D01*
X05733847Y01835466D01*
X05733883Y01835588D01*
X05733915Y01835712D01*
X05733944Y01835836D01*
X05733969Y01835961D01*
X05733990Y01836087D01*
X05734007Y01836213D01*
X05734021Y01836340D01*
X05734030Y01836467D01*
X05734036Y01836594D01*
X05734038Y01836722D01*
X05734036Y01836849D01*
X05734030Y01836976D01*
X05734021Y01837103D01*
X05734008Y01837230D01*
X05733991Y01837356D01*
X05733970Y01837481D01*
X05733946Y01837606D01*
X05733918Y01837730D01*
X05733886Y01837853D01*
X05733851Y01837975D01*
X05733812Y01838097D01*
X05733769Y01838216D01*
X05733723Y01838335D01*
X05733673Y01838452D01*
X05733620Y01838568D01*
X05733564Y01838682D01*
X05733504Y01838794D01*
X05733441Y01838904D01*
X05733375Y01839013D01*
X05733305Y01839119D01*
X05733232Y01839224D01*
X05733157Y01839326D01*
X05733078Y01839426D01*
X05732996Y01839523D01*
X05732912Y01839619D01*
X05732825Y01839711D01*
X05732734Y01839801D01*
X05732642Y01839888D01*
X05732547Y01839972D01*
X05732449Y01840054D01*
X05732349Y01840133D01*
X05732247Y01840208D01*
X05732142Y01840281D01*
X05732036Y01840350D01*
X05731927Y01840416D01*
X05765962Y01832500D02*
X05774934Y01843055D01*
X05771768Y01851500D02*
X05771615Y01851498D01*
X05771461Y01851492D01*
X05771308Y01851483D01*
X05771155Y01851469D01*
X05771003Y01851452D01*
X05770851Y01851431D01*
X05770699Y01851406D01*
X05770548Y01851377D01*
X05770398Y01851344D01*
X05770249Y01851308D01*
X05770101Y01851268D01*
X05769954Y01851224D01*
X05769808Y01851177D01*
X05769663Y01851126D01*
X05769520Y01851071D01*
X05769378Y01851013D01*
X05769238Y01850951D01*
X05769099Y01850885D01*
X05768962Y01850816D01*
X05768826Y01850744D01*
X05768693Y01850668D01*
X05768561Y01850589D01*
X05768432Y01850507D01*
X05768304Y01850422D01*
X05768179Y01850333D01*
X05768056Y01850241D01*
X05767935Y01850146D01*
X05767817Y01850048D01*
X05767701Y01849947D01*
X05767588Y01849844D01*
X05767478Y01849737D01*
X05767370Y01849628D01*
X05767265Y01849516D01*
X05767163Y01849401D01*
X05767064Y01849284D01*
X05766967Y01849165D01*
X05766874Y01849043D01*
X05766784Y01848919D01*
X05766697Y01848792D01*
X05766613Y01848664D01*
X05766533Y01848533D01*
X05766456Y01848400D01*
X05766382Y01848266D01*
X05766311Y01848129D01*
X05766245Y01847991D01*
X05766181Y01847852D01*
X05766121Y01847710D01*
X05766065Y01847568D01*
X05766012Y01847423D01*
X05765963Y01847278D01*
X05774935Y01843056D02*
X05775036Y01843155D01*
X05775135Y01843258D01*
X05775231Y01843363D01*
X05775325Y01843471D01*
X05775415Y01843581D01*
X05775501Y01843694D01*
X05775585Y01843809D01*
X05775666Y01843927D01*
X05775743Y01844047D01*
X05775817Y01844168D01*
X05775887Y01844292D01*
X05775954Y01844418D01*
X05776017Y01844546D01*
X05776077Y01844675D01*
X05776133Y01844806D01*
X05776186Y01844938D01*
X05776234Y01845072D01*
X05776279Y01845207D01*
X05776320Y01845344D01*
X05776358Y01845481D01*
X05776391Y01845620D01*
X05776421Y01845759D01*
X05776447Y01845899D01*
X05776468Y01846040D01*
X05776486Y01846181D01*
X05776500Y01846323D01*
X05776510Y01846465D01*
X05776516Y01846608D01*
X05776518Y01846750D01*
X05776516Y01846886D01*
X05776510Y01847021D01*
X05776501Y01847156D01*
X05776487Y01847291D01*
X05776470Y01847426D01*
X05776448Y01847560D01*
X05776423Y01847693D01*
X05776395Y01847826D01*
X05776362Y01847958D01*
X05776326Y01848088D01*
X05776286Y01848218D01*
X05776242Y01848346D01*
X05776194Y01848473D01*
X05776143Y01848599D01*
X05776089Y01848723D01*
X05776031Y01848846D01*
X05775969Y01848967D01*
X05775904Y01849086D01*
X05775836Y01849203D01*
X05775764Y01849318D01*
X05775689Y01849431D01*
X05775611Y01849542D01*
X05775530Y01849651D01*
X05775445Y01849757D01*
X05775358Y01849861D01*
X05775268Y01849962D01*
X05775174Y01850060D01*
X05775078Y01850156D01*
X05774980Y01850250D01*
X05774879Y01850340D01*
X05774775Y01850427D01*
X05774669Y01850512D01*
X05774560Y01850593D01*
X05774449Y01850671D01*
X05774336Y01850746D01*
X05774221Y01850818D01*
X05774104Y01850886D01*
X05773985Y01850951D01*
X05773864Y01851013D01*
X05773741Y01851071D01*
X05773617Y01851125D01*
X05773491Y01851176D01*
X05773364Y01851224D01*
X05773236Y01851268D01*
X05773106Y01851308D01*
X05772976Y01851344D01*
X05772844Y01851377D01*
X05772711Y01851405D01*
X05772578Y01851430D01*
X05772444Y01851452D01*
X05772309Y01851469D01*
X05772174Y01851483D01*
X05772039Y01851492D01*
X05771904Y01851498D01*
X05771768Y01851500D01*
X05776518Y01832500D02*
X05765962Y01832500D01*
X05276518Y01832500D02*
X05265962Y01832500D01*
X05271240Y01832500D02*
X05271240Y01851500D01*
X05265962Y01847278D01*
X05249640Y01851500D02*
X05249640Y01832500D01*
X05244362Y01832500D02*
X05254918Y01832500D01*
X05244362Y01847278D02*
X05249640Y01851500D01*
X05231927Y01840417D02*
X05226121Y01843583D01*
X05228232Y01851500D02*
X05228421Y01851498D01*
X05228609Y01851491D01*
X05228798Y01851480D01*
X05228986Y01851464D01*
X05229173Y01851444D01*
X05229360Y01851419D01*
X05229547Y01851390D01*
X05229733Y01851356D01*
X05229917Y01851319D01*
X05230101Y01851276D01*
X05230284Y01851229D01*
X05230466Y01851178D01*
X05230646Y01851123D01*
X05230825Y01851063D01*
X05231003Y01850999D01*
X05231178Y01850931D01*
X05231353Y01850859D01*
X05231525Y01850783D01*
X05231696Y01850702D01*
X05231865Y01850617D01*
X05232031Y01850529D01*
X05232196Y01850436D01*
X05232358Y01850340D01*
X05232518Y01850240D01*
X05232675Y01850136D01*
X05232830Y01850028D01*
X05232982Y01849917D01*
X05226121Y01843584D02*
X05226012Y01843650D01*
X05225906Y01843719D01*
X05225801Y01843792D01*
X05225699Y01843867D01*
X05225599Y01843946D01*
X05225501Y01844027D01*
X05225406Y01844112D01*
X05225314Y01844199D01*
X05225224Y01844289D01*
X05225136Y01844381D01*
X05225052Y01844476D01*
X05224970Y01844574D01*
X05224891Y01844674D01*
X05224816Y01844776D01*
X05224743Y01844880D01*
X05224673Y01844987D01*
X05224607Y01845096D01*
X05224544Y01845206D01*
X05224484Y01845318D01*
X05224428Y01845432D01*
X05224375Y01845548D01*
X05224325Y01845665D01*
X05224279Y01845784D01*
X05224236Y01845903D01*
X05224197Y01846024D01*
X05224162Y01846147D01*
X05224130Y01846270D01*
X05224102Y01846394D01*
X05224078Y01846519D01*
X05224057Y01846644D01*
X05224040Y01846770D01*
X05224027Y01846897D01*
X05224018Y01847024D01*
X05224012Y01847151D01*
X05224010Y01847278D01*
X05224012Y01847406D01*
X05224018Y01847533D01*
X05224027Y01847660D01*
X05224041Y01847787D01*
X05224058Y01847913D01*
X05224079Y01848039D01*
X05224104Y01848164D01*
X05224133Y01848288D01*
X05224165Y01848412D01*
X05224201Y01848534D01*
X05224241Y01848655D01*
X05224284Y01848775D01*
X05224331Y01848894D01*
X05224382Y01849011D01*
X05224436Y01849126D01*
X05224494Y01849240D01*
X05224555Y01849352D01*
X05224619Y01849462D01*
X05224687Y01849570D01*
X05224757Y01849676D01*
X05224831Y01849780D01*
X05224909Y01849882D01*
X05224989Y01849981D01*
X05225072Y01850078D01*
X05225158Y01850172D01*
X05225247Y01850263D01*
X05225338Y01850352D01*
X05225432Y01850438D01*
X05225529Y01850521D01*
X05225628Y01850602D01*
X05225730Y01850679D01*
X05225834Y01850753D01*
X05225940Y01850824D01*
X05226048Y01850891D01*
X05226158Y01850955D01*
X05226270Y01851016D01*
X05226384Y01851074D01*
X05226499Y01851128D01*
X05226616Y01851179D01*
X05226735Y01851226D01*
X05226855Y01851269D01*
X05226976Y01851309D01*
X05227098Y01851345D01*
X05227222Y01851377D01*
X05227346Y01851406D01*
X05227471Y01851431D01*
X05227597Y01851452D01*
X05227723Y01851469D01*
X05227850Y01851483D01*
X05227977Y01851492D01*
X05228105Y01851498D01*
X05228232Y01851500D01*
X05223483Y01835139D02*
X05223635Y01834989D01*
X05223790Y01834843D01*
X05223949Y01834701D01*
X05224112Y01834562D01*
X05224277Y01834428D01*
X05224446Y01834297D01*
X05224618Y01834171D01*
X05224793Y01834049D01*
X05224971Y01833931D01*
X05225151Y01833817D01*
X05225335Y01833707D01*
X05225520Y01833602D01*
X05225709Y01833502D01*
X05225899Y01833406D01*
X05226092Y01833314D01*
X05226287Y01833228D01*
X05226484Y01833146D01*
X05226683Y01833068D01*
X05226884Y01832996D01*
X05227086Y01832928D01*
X05227290Y01832865D01*
X05227495Y01832807D01*
X05227702Y01832754D01*
X05227910Y01832706D01*
X05228119Y01832663D01*
X05228329Y01832625D01*
X05228540Y01832592D01*
X05228751Y01832564D01*
X05228964Y01832541D01*
X05229176Y01832523D01*
X05229389Y01832510D01*
X05229603Y01832503D01*
X05229816Y01832500D01*
X05229944Y01832502D01*
X05230071Y01832508D01*
X05230198Y01832517D01*
X05230325Y01832531D01*
X05230451Y01832548D01*
X05230577Y01832569D01*
X05230702Y01832594D01*
X05230826Y01832623D01*
X05230950Y01832655D01*
X05231072Y01832691D01*
X05231193Y01832731D01*
X05231313Y01832774D01*
X05231432Y01832821D01*
X05231549Y01832872D01*
X05231664Y01832926D01*
X05231778Y01832984D01*
X05231890Y01833045D01*
X05232000Y01833109D01*
X05232108Y01833177D01*
X05232214Y01833247D01*
X05232318Y01833321D01*
X05232420Y01833399D01*
X05232519Y01833479D01*
X05232616Y01833562D01*
X05232710Y01833648D01*
X05232801Y01833737D01*
X05232890Y01833828D01*
X05232976Y01833922D01*
X05233059Y01834019D01*
X05233139Y01834118D01*
X05233217Y01834220D01*
X05233291Y01834324D01*
X05233361Y01834430D01*
X05233429Y01834538D01*
X05233493Y01834648D01*
X05233554Y01834760D01*
X05233612Y01834874D01*
X05233666Y01834989D01*
X05233717Y01835106D01*
X05233764Y01835225D01*
X05233807Y01835345D01*
X05233847Y01835466D01*
X05233883Y01835588D01*
X05233915Y01835712D01*
X05233944Y01835836D01*
X05233969Y01835961D01*
X05233990Y01836087D01*
X05234007Y01836213D01*
X05234021Y01836340D01*
X05234030Y01836467D01*
X05234036Y01836594D01*
X05234038Y01836722D01*
X05234036Y01836849D01*
X05234030Y01836976D01*
X05234021Y01837103D01*
X05234008Y01837230D01*
X05233991Y01837356D01*
X05233970Y01837481D01*
X05233946Y01837606D01*
X05233918Y01837730D01*
X05233886Y01837853D01*
X05233851Y01837975D01*
X05233812Y01838097D01*
X05233769Y01838216D01*
X05233723Y01838335D01*
X05233673Y01838452D01*
X05233620Y01838568D01*
X05233564Y01838682D01*
X05233504Y01838794D01*
X05233441Y01838904D01*
X05233375Y01839013D01*
X05233305Y01839119D01*
X05233232Y01839224D01*
X05233157Y01839326D01*
X05233078Y01839426D01*
X05232996Y01839523D01*
X05232912Y01839619D01*
X05232825Y01839711D01*
X05232734Y01839801D01*
X05232642Y01839888D01*
X05232547Y01839972D01*
X05232449Y01840054D01*
X05232349Y01840133D01*
X05232247Y01840208D01*
X05232142Y01840281D01*
X05232036Y01840350D01*
X05231927Y01840416D01*
X04767545Y01835139D02*
X04767386Y01835477D01*
X04767234Y01835818D01*
X04767090Y01836164D01*
X04766955Y01836512D01*
X04766828Y01836864D01*
X04766710Y01837218D01*
X04766600Y01837576D01*
X04766499Y01837935D01*
X04766406Y01838297D01*
X04766322Y01838662D01*
X04766247Y01839028D01*
X04766180Y01839396D01*
X04766122Y01839765D01*
X04766073Y01840135D01*
X04766033Y01840507D01*
X04766002Y01840880D01*
X04765980Y01841253D01*
X04765966Y01841626D01*
X04765962Y01842000D01*
X04776517Y01842000D02*
X04776513Y01842374D01*
X04776499Y01842747D01*
X04776477Y01843120D01*
X04776446Y01843493D01*
X04776406Y01843864D01*
X04776357Y01844235D01*
X04776299Y01844604D01*
X04776232Y01844972D01*
X04776157Y01845338D01*
X04776073Y01845702D01*
X04775980Y01846065D01*
X04775879Y01846424D01*
X04775769Y01846782D01*
X04775651Y01847136D01*
X04775524Y01847488D01*
X04775389Y01847836D01*
X04775245Y01848181D01*
X04775094Y01848523D01*
X04774934Y01848861D01*
X04775462Y01847278D02*
X04767018Y01836722D01*
X04771240Y01832500D02*
X04771364Y01832502D01*
X04771488Y01832508D01*
X04771612Y01832518D01*
X04771736Y01832532D01*
X04771859Y01832549D01*
X04771981Y01832571D01*
X04772102Y01832596D01*
X04772223Y01832626D01*
X04772343Y01832659D01*
X04772462Y01832696D01*
X04772579Y01832737D01*
X04772695Y01832781D01*
X04772809Y01832829D01*
X04772922Y01832881D01*
X04773034Y01832936D01*
X04773143Y01832995D01*
X04773251Y01833057D01*
X04773356Y01833123D01*
X04773459Y01833192D01*
X04773561Y01833264D01*
X04773659Y01833339D01*
X04773756Y01833418D01*
X04773849Y01833499D01*
X04773940Y01833584D01*
X04774029Y01833671D01*
X04774114Y01833761D01*
X04774197Y01833854D01*
X04774277Y01833949D01*
X04774353Y01834047D01*
X04774427Y01834147D01*
X04774497Y01834250D01*
X04774564Y01834354D01*
X04774627Y01834461D01*
X04774688Y01834570D01*
X04774744Y01834680D01*
X04774797Y01834793D01*
X04774847Y01834907D01*
X04774893Y01835022D01*
X04774935Y01835139D01*
X04771240Y01832500D02*
X04771116Y01832502D01*
X04770992Y01832508D01*
X04770868Y01832518D01*
X04770744Y01832532D01*
X04770621Y01832549D01*
X04770499Y01832571D01*
X04770377Y01832596D01*
X04770257Y01832626D01*
X04770137Y01832659D01*
X04770018Y01832696D01*
X04769901Y01832737D01*
X04769785Y01832781D01*
X04769671Y01832829D01*
X04769558Y01832881D01*
X04769446Y01832936D01*
X04769337Y01832995D01*
X04769229Y01833057D01*
X04769124Y01833123D01*
X04769021Y01833192D01*
X04768919Y01833264D01*
X04768821Y01833339D01*
X04768724Y01833418D01*
X04768631Y01833499D01*
X04768540Y01833584D01*
X04768451Y01833671D01*
X04768366Y01833761D01*
X04768283Y01833854D01*
X04768203Y01833949D01*
X04768127Y01834047D01*
X04768053Y01834147D01*
X04767983Y01834250D01*
X04767916Y01834355D01*
X04767853Y01834461D01*
X04767792Y01834570D01*
X04767736Y01834681D01*
X04767683Y01834793D01*
X04767633Y01834907D01*
X04767587Y01835022D01*
X04767545Y01835139D01*
X04774934Y01835139D02*
X04775094Y01835477D01*
X04775245Y01835818D01*
X04775389Y01836164D01*
X04775524Y01836512D01*
X04775651Y01836864D01*
X04775769Y01837218D01*
X04775879Y01837576D01*
X04775980Y01837935D01*
X04776073Y01838297D01*
X04776157Y01838662D01*
X04776232Y01839028D01*
X04776299Y01839396D01*
X04776357Y01839765D01*
X04776406Y01840135D01*
X04776446Y01840507D01*
X04776477Y01840880D01*
X04776499Y01841253D01*
X04776513Y01841626D01*
X04776517Y01842000D01*
X04765962Y01842000D02*
X04765966Y01842374D01*
X04765980Y01842747D01*
X04766002Y01843120D01*
X04766033Y01843493D01*
X04766073Y01843865D01*
X04766122Y01844235D01*
X04766180Y01844604D01*
X04766247Y01844972D01*
X04766322Y01845338D01*
X04766406Y01845702D01*
X04766499Y01846065D01*
X04766600Y01846424D01*
X04766710Y01846782D01*
X04766828Y01847136D01*
X04766955Y01847488D01*
X04767090Y01847836D01*
X04767234Y01848181D01*
X04767386Y01848523D01*
X04767545Y01848861D01*
X04771240Y01851500D02*
X04771364Y01851498D01*
X04771488Y01851492D01*
X04771612Y01851482D01*
X04771736Y01851468D01*
X04771859Y01851451D01*
X04771981Y01851429D01*
X04772103Y01851404D01*
X04772223Y01851374D01*
X04772343Y01851341D01*
X04772462Y01851304D01*
X04772579Y01851263D01*
X04772695Y01851219D01*
X04772809Y01851171D01*
X04772922Y01851119D01*
X04773034Y01851064D01*
X04773143Y01851005D01*
X04773251Y01850943D01*
X04773356Y01850877D01*
X04773459Y01850808D01*
X04773561Y01850736D01*
X04773659Y01850661D01*
X04773756Y01850582D01*
X04773849Y01850501D01*
X04773940Y01850416D01*
X04774029Y01850329D01*
X04774114Y01850239D01*
X04774197Y01850146D01*
X04774277Y01850051D01*
X04774353Y01849953D01*
X04774427Y01849853D01*
X04774497Y01849750D01*
X04774564Y01849645D01*
X04774627Y01849539D01*
X04774688Y01849430D01*
X04774744Y01849319D01*
X04774797Y01849207D01*
X04774847Y01849093D01*
X04774893Y01848978D01*
X04774935Y01848861D01*
X04771240Y01851500D02*
X04771116Y01851498D01*
X04770992Y01851492D01*
X04770868Y01851482D01*
X04770744Y01851468D01*
X04770621Y01851451D01*
X04770499Y01851429D01*
X04770377Y01851404D01*
X04770257Y01851374D01*
X04770137Y01851341D01*
X04770018Y01851304D01*
X04769901Y01851263D01*
X04769785Y01851219D01*
X04769670Y01851171D01*
X04769558Y01851119D01*
X04769446Y01851064D01*
X04769337Y01851005D01*
X04769229Y01850943D01*
X04769124Y01850877D01*
X04769021Y01850808D01*
X04768919Y01850736D01*
X04768821Y01850661D01*
X04768724Y01850582D01*
X04768631Y01850501D01*
X04768539Y01850416D01*
X04768451Y01850329D01*
X04768366Y01850239D01*
X04768283Y01850146D01*
X04768203Y01850051D01*
X04768127Y01849953D01*
X04768053Y01849853D01*
X04767983Y01849750D01*
X04767916Y01849645D01*
X04767853Y01849539D01*
X04767792Y01849430D01*
X04767736Y01849319D01*
X04767683Y01849207D01*
X04767633Y01849093D01*
X04767587Y01848978D01*
X04767545Y01848861D01*
X04749640Y01851500D02*
X04749640Y01832500D01*
X04744362Y01832500D02*
X04754918Y01832500D01*
X04744362Y01847278D02*
X04749640Y01851500D01*
X04731927Y01840417D02*
X04726121Y01843583D01*
X04728232Y01851500D02*
X04728421Y01851498D01*
X04728609Y01851491D01*
X04728798Y01851480D01*
X04728986Y01851464D01*
X04729173Y01851444D01*
X04729360Y01851419D01*
X04729547Y01851390D01*
X04729733Y01851356D01*
X04729917Y01851319D01*
X04730101Y01851276D01*
X04730284Y01851229D01*
X04730466Y01851178D01*
X04730646Y01851123D01*
X04730825Y01851063D01*
X04731003Y01850999D01*
X04731178Y01850931D01*
X04731353Y01850859D01*
X04731525Y01850783D01*
X04731696Y01850702D01*
X04731865Y01850617D01*
X04732031Y01850529D01*
X04732196Y01850436D01*
X04732358Y01850340D01*
X04732518Y01850240D01*
X04732675Y01850136D01*
X04732830Y01850028D01*
X04732982Y01849917D01*
X04726121Y01843584D02*
X04726012Y01843650D01*
X04725906Y01843719D01*
X04725801Y01843792D01*
X04725699Y01843867D01*
X04725599Y01843946D01*
X04725501Y01844027D01*
X04725406Y01844112D01*
X04725314Y01844199D01*
X04725224Y01844289D01*
X04725136Y01844381D01*
X04725052Y01844476D01*
X04724970Y01844574D01*
X04724891Y01844674D01*
X04724816Y01844776D01*
X04724743Y01844880D01*
X04724673Y01844987D01*
X04724607Y01845096D01*
X04724544Y01845206D01*
X04724484Y01845318D01*
X04724428Y01845432D01*
X04724375Y01845548D01*
X04724325Y01845665D01*
X04724279Y01845784D01*
X04724236Y01845903D01*
X04724197Y01846024D01*
X04724162Y01846147D01*
X04724130Y01846270D01*
X04724102Y01846394D01*
X04724078Y01846519D01*
X04724057Y01846644D01*
X04724040Y01846770D01*
X04724027Y01846897D01*
X04724018Y01847024D01*
X04724012Y01847151D01*
X04724010Y01847278D01*
X04724012Y01847406D01*
X04724018Y01847533D01*
X04724027Y01847660D01*
X04724041Y01847787D01*
X04724058Y01847913D01*
X04724079Y01848039D01*
X04724104Y01848164D01*
X04724133Y01848288D01*
X04724165Y01848412D01*
X04724201Y01848534D01*
X04724241Y01848655D01*
X04724284Y01848775D01*
X04724331Y01848894D01*
X04724382Y01849011D01*
X04724436Y01849126D01*
X04724494Y01849240D01*
X04724555Y01849352D01*
X04724619Y01849462D01*
X04724687Y01849570D01*
X04724757Y01849676D01*
X04724831Y01849780D01*
X04724909Y01849882D01*
X04724989Y01849981D01*
X04725072Y01850078D01*
X04725158Y01850172D01*
X04725247Y01850263D01*
X04725338Y01850352D01*
X04725432Y01850438D01*
X04725529Y01850521D01*
X04725628Y01850602D01*
X04725730Y01850679D01*
X04725834Y01850753D01*
X04725940Y01850824D01*
X04726048Y01850891D01*
X04726158Y01850955D01*
X04726270Y01851016D01*
X04726384Y01851074D01*
X04726499Y01851128D01*
X04726616Y01851179D01*
X04726735Y01851226D01*
X04726855Y01851269D01*
X04726976Y01851309D01*
X04727098Y01851345D01*
X04727222Y01851377D01*
X04727346Y01851406D01*
X04727471Y01851431D01*
X04727597Y01851452D01*
X04727723Y01851469D01*
X04727850Y01851483D01*
X04727977Y01851492D01*
X04728105Y01851498D01*
X04728232Y01851500D01*
X04723483Y01835139D02*
X04723635Y01834989D01*
X04723790Y01834843D01*
X04723949Y01834701D01*
X04724112Y01834562D01*
X04724277Y01834428D01*
X04724446Y01834297D01*
X04724618Y01834171D01*
X04724793Y01834049D01*
X04724971Y01833931D01*
X04725151Y01833817D01*
X04725335Y01833707D01*
X04725520Y01833602D01*
X04725709Y01833502D01*
X04725899Y01833406D01*
X04726092Y01833314D01*
X04726287Y01833228D01*
X04726484Y01833146D01*
X04726683Y01833068D01*
X04726884Y01832996D01*
X04727086Y01832928D01*
X04727290Y01832865D01*
X04727495Y01832807D01*
X04727702Y01832754D01*
X04727910Y01832706D01*
X04728119Y01832663D01*
X04728329Y01832625D01*
X04728540Y01832592D01*
X04728751Y01832564D01*
X04728964Y01832541D01*
X04729176Y01832523D01*
X04729389Y01832510D01*
X04729603Y01832503D01*
X04729816Y01832500D01*
X04729944Y01832502D01*
X04730071Y01832508D01*
X04730198Y01832517D01*
X04730325Y01832531D01*
X04730451Y01832548D01*
X04730577Y01832569D01*
X04730702Y01832594D01*
X04730826Y01832623D01*
X04730950Y01832655D01*
X04731072Y01832691D01*
X04731193Y01832731D01*
X04731313Y01832774D01*
X04731432Y01832821D01*
X04731549Y01832872D01*
X04731664Y01832926D01*
X04731778Y01832984D01*
X04731890Y01833045D01*
X04732000Y01833109D01*
X04732108Y01833177D01*
X04732214Y01833247D01*
X04732318Y01833321D01*
X04732420Y01833399D01*
X04732519Y01833479D01*
X04732616Y01833562D01*
X04732710Y01833648D01*
X04732801Y01833737D01*
X04732890Y01833828D01*
X04732976Y01833922D01*
X04733059Y01834019D01*
X04733139Y01834118D01*
X04733217Y01834220D01*
X04733291Y01834324D01*
X04733361Y01834430D01*
X04733429Y01834538D01*
X04733493Y01834648D01*
X04733554Y01834760D01*
X04733612Y01834874D01*
X04733666Y01834989D01*
X04733717Y01835106D01*
X04733764Y01835225D01*
X04733807Y01835345D01*
X04733847Y01835466D01*
X04733883Y01835588D01*
X04733915Y01835712D01*
X04733944Y01835836D01*
X04733969Y01835961D01*
X04733990Y01836087D01*
X04734007Y01836213D01*
X04734021Y01836340D01*
X04734030Y01836467D01*
X04734036Y01836594D01*
X04734038Y01836722D01*
X04734036Y01836849D01*
X04734030Y01836976D01*
X04734021Y01837103D01*
X04734008Y01837230D01*
X04733991Y01837356D01*
X04733970Y01837481D01*
X04733946Y01837606D01*
X04733918Y01837730D01*
X04733886Y01837853D01*
X04733851Y01837975D01*
X04733812Y01838097D01*
X04733769Y01838216D01*
X04733723Y01838335D01*
X04733673Y01838452D01*
X04733620Y01838568D01*
X04733564Y01838682D01*
X04733504Y01838794D01*
X04733441Y01838904D01*
X04733375Y01839013D01*
X04733305Y01839119D01*
X04733232Y01839224D01*
X04733157Y01839326D01*
X04733078Y01839426D01*
X04732996Y01839523D01*
X04732912Y01839619D01*
X04732825Y01839711D01*
X04732734Y01839801D01*
X04732642Y01839888D01*
X04732547Y01839972D01*
X04732449Y01840054D01*
X04732349Y01840133D01*
X04732247Y01840208D01*
X04732142Y01840281D01*
X04732036Y01840350D01*
X04731927Y01840416D01*
X04265718Y01840944D02*
X04265718Y01846222D01*
X04265718Y01840944D02*
X04259384Y01840944D01*
X04265717Y01840944D02*
X04265715Y01840740D01*
X04265707Y01840536D01*
X04265695Y01840332D01*
X04265678Y01840129D01*
X04265655Y01839926D01*
X04265628Y01839724D01*
X04265596Y01839522D01*
X04265560Y01839322D01*
X04265518Y01839122D01*
X04265472Y01838923D01*
X04265420Y01838726D01*
X04265364Y01838529D01*
X04265304Y01838335D01*
X04265238Y01838141D01*
X04265168Y01837950D01*
X04265094Y01837760D01*
X04265014Y01837572D01*
X04264931Y01837386D01*
X04264842Y01837202D01*
X04264750Y01837020D01*
X04264653Y01836840D01*
X04264551Y01836663D01*
X04264446Y01836489D01*
X04264336Y01836317D01*
X04264222Y01836147D01*
X04264104Y01835981D01*
X04263982Y01835817D01*
X04263857Y01835656D01*
X04263727Y01835499D01*
X04263593Y01835345D01*
X04263456Y01835194D01*
X04263316Y01835046D01*
X04263171Y01834901D01*
X04263023Y01834761D01*
X04262872Y01834624D01*
X04262718Y01834490D01*
X04262561Y01834360D01*
X04262400Y01834235D01*
X04262236Y01834113D01*
X04262070Y01833995D01*
X04261900Y01833881D01*
X04261728Y01833771D01*
X04261554Y01833666D01*
X04261377Y01833564D01*
X04261197Y01833467D01*
X04261015Y01833375D01*
X04260831Y01833286D01*
X04260645Y01833203D01*
X04260457Y01833123D01*
X04260267Y01833049D01*
X04260076Y01832979D01*
X04259882Y01832913D01*
X04259688Y01832853D01*
X04259491Y01832797D01*
X04259294Y01832745D01*
X04259095Y01832699D01*
X04258895Y01832657D01*
X04258695Y01832621D01*
X04258493Y01832589D01*
X04258291Y01832562D01*
X04258088Y01832539D01*
X04257885Y01832522D01*
X04257681Y01832510D01*
X04257477Y01832502D01*
X04257273Y01832500D01*
X04255162Y01845167D02*
X04255162Y01846222D01*
X04255162Y01845167D02*
X04255164Y01845039D01*
X04255170Y01844912D01*
X04255179Y01844785D01*
X04255193Y01844658D01*
X04255210Y01844532D01*
X04255231Y01844406D01*
X04255256Y01844281D01*
X04255285Y01844157D01*
X04255317Y01844033D01*
X04255353Y01843911D01*
X04255393Y01843790D01*
X04255436Y01843670D01*
X04255483Y01843551D01*
X04255534Y01843434D01*
X04255588Y01843319D01*
X04255646Y01843205D01*
X04255707Y01843093D01*
X04255771Y01842983D01*
X04255839Y01842875D01*
X04255909Y01842769D01*
X04255983Y01842665D01*
X04256061Y01842563D01*
X04256141Y01842464D01*
X04256224Y01842367D01*
X04256310Y01842273D01*
X04256399Y01842182D01*
X04256490Y01842093D01*
X04256584Y01842007D01*
X04256681Y01841924D01*
X04256780Y01841844D01*
X04256882Y01841766D01*
X04256986Y01841692D01*
X04257092Y01841622D01*
X04257200Y01841554D01*
X04257310Y01841490D01*
X04257422Y01841429D01*
X04257536Y01841371D01*
X04257651Y01841317D01*
X04257768Y01841266D01*
X04257887Y01841219D01*
X04258007Y01841176D01*
X04258128Y01841136D01*
X04258250Y01841100D01*
X04258374Y01841068D01*
X04258498Y01841039D01*
X04258623Y01841014D01*
X04258749Y01840993D01*
X04258875Y01840976D01*
X04259002Y01840962D01*
X04259129Y01840953D01*
X04259256Y01840947D01*
X04259384Y01840945D01*
X04255162Y01846222D02*
X04255164Y01846366D01*
X04255170Y01846510D01*
X04255180Y01846654D01*
X04255193Y01846798D01*
X04255211Y01846941D01*
X04255233Y01847083D01*
X04255258Y01847225D01*
X04255288Y01847366D01*
X04255321Y01847507D01*
X04255358Y01847646D01*
X04255399Y01847784D01*
X04255443Y01847921D01*
X04255491Y01848057D01*
X04255543Y01848192D01*
X04255599Y01848325D01*
X04255658Y01848456D01*
X04255721Y01848586D01*
X04255787Y01848714D01*
X04255857Y01848840D01*
X04255930Y01848964D01*
X04256007Y01849087D01*
X04256087Y01849207D01*
X04256170Y01849324D01*
X04256256Y01849440D01*
X04256346Y01849553D01*
X04256438Y01849663D01*
X04256534Y01849771D01*
X04256632Y01849877D01*
X04256733Y01849980D01*
X04256837Y01850079D01*
X04256944Y01850176D01*
X04257054Y01850270D01*
X04257165Y01850361D01*
X04257280Y01850449D01*
X04257396Y01850534D01*
X04257515Y01850615D01*
X04257636Y01850694D01*
X04257759Y01850769D01*
X04257885Y01850840D01*
X04258012Y01850908D01*
X04258141Y01850973D01*
X04258271Y01851034D01*
X04258404Y01851091D01*
X04258537Y01851145D01*
X04258673Y01851195D01*
X04258809Y01851242D01*
X04258947Y01851284D01*
X04259086Y01851323D01*
X04259225Y01851358D01*
X04259366Y01851390D01*
X04259508Y01851417D01*
X04259650Y01851441D01*
X04259793Y01851460D01*
X04259936Y01851476D01*
X04260080Y01851488D01*
X04260224Y01851496D01*
X04260368Y01851500D01*
X04260512Y01851500D01*
X04260656Y01851496D01*
X04260800Y01851488D01*
X04260944Y01851476D01*
X04261087Y01851460D01*
X04261230Y01851441D01*
X04261372Y01851417D01*
X04261514Y01851390D01*
X04261655Y01851358D01*
X04261794Y01851323D01*
X04261933Y01851284D01*
X04262071Y01851242D01*
X04262207Y01851195D01*
X04262343Y01851145D01*
X04262476Y01851091D01*
X04262609Y01851034D01*
X04262739Y01850973D01*
X04262868Y01850908D01*
X04262995Y01850840D01*
X04263121Y01850769D01*
X04263244Y01850694D01*
X04263365Y01850615D01*
X04263484Y01850534D01*
X04263600Y01850449D01*
X04263715Y01850361D01*
X04263826Y01850270D01*
X04263936Y01850176D01*
X04264043Y01850079D01*
X04264147Y01849980D01*
X04264248Y01849877D01*
X04264346Y01849771D01*
X04264442Y01849663D01*
X04264534Y01849553D01*
X04264624Y01849440D01*
X04264710Y01849324D01*
X04264793Y01849207D01*
X04264873Y01849087D01*
X04264950Y01848964D01*
X04265023Y01848840D01*
X04265093Y01848714D01*
X04265159Y01848586D01*
X04265222Y01848456D01*
X04265281Y01848325D01*
X04265337Y01848192D01*
X04265389Y01848057D01*
X04265437Y01847921D01*
X04265481Y01847784D01*
X04265522Y01847646D01*
X04265559Y01847507D01*
X04265592Y01847366D01*
X04265622Y01847225D01*
X04265647Y01847083D01*
X04265669Y01846941D01*
X04265687Y01846798D01*
X04265700Y01846654D01*
X04265710Y01846510D01*
X04265716Y01846366D01*
X04265718Y01846222D01*
X04242727Y01840417D02*
X04236921Y01843583D01*
X04239032Y01851500D02*
X04239221Y01851498D01*
X04239409Y01851491D01*
X04239598Y01851480D01*
X04239786Y01851464D01*
X04239973Y01851444D01*
X04240160Y01851419D01*
X04240347Y01851390D01*
X04240533Y01851356D01*
X04240717Y01851319D01*
X04240901Y01851276D01*
X04241084Y01851229D01*
X04241266Y01851178D01*
X04241446Y01851123D01*
X04241625Y01851063D01*
X04241803Y01850999D01*
X04241978Y01850931D01*
X04242153Y01850859D01*
X04242325Y01850783D01*
X04242496Y01850702D01*
X04242665Y01850617D01*
X04242831Y01850529D01*
X04242996Y01850436D01*
X04243158Y01850340D01*
X04243318Y01850240D01*
X04243475Y01850136D01*
X04243630Y01850028D01*
X04243782Y01849917D01*
X04236921Y01843584D02*
X04236812Y01843650D01*
X04236706Y01843719D01*
X04236601Y01843792D01*
X04236499Y01843867D01*
X04236399Y01843946D01*
X04236301Y01844027D01*
X04236206Y01844112D01*
X04236114Y01844199D01*
X04236024Y01844289D01*
X04235936Y01844381D01*
X04235852Y01844476D01*
X04235770Y01844574D01*
X04235691Y01844674D01*
X04235616Y01844776D01*
X04235543Y01844880D01*
X04235473Y01844987D01*
X04235407Y01845096D01*
X04235344Y01845206D01*
X04235284Y01845318D01*
X04235228Y01845432D01*
X04235175Y01845548D01*
X04235125Y01845665D01*
X04235079Y01845784D01*
X04235036Y01845903D01*
X04234997Y01846024D01*
X04234962Y01846147D01*
X04234930Y01846270D01*
X04234902Y01846394D01*
X04234878Y01846519D01*
X04234857Y01846644D01*
X04234840Y01846770D01*
X04234827Y01846897D01*
X04234818Y01847024D01*
X04234812Y01847151D01*
X04234810Y01847278D01*
X04234812Y01847406D01*
X04234818Y01847533D01*
X04234827Y01847660D01*
X04234841Y01847787D01*
X04234858Y01847913D01*
X04234879Y01848039D01*
X04234904Y01848164D01*
X04234933Y01848288D01*
X04234965Y01848412D01*
X04235001Y01848534D01*
X04235041Y01848655D01*
X04235084Y01848775D01*
X04235131Y01848894D01*
X04235182Y01849011D01*
X04235236Y01849126D01*
X04235294Y01849240D01*
X04235355Y01849352D01*
X04235419Y01849462D01*
X04235487Y01849570D01*
X04235557Y01849676D01*
X04235631Y01849780D01*
X04235709Y01849882D01*
X04235789Y01849981D01*
X04235872Y01850078D01*
X04235958Y01850172D01*
X04236047Y01850263D01*
X04236138Y01850352D01*
X04236232Y01850438D01*
X04236329Y01850521D01*
X04236428Y01850602D01*
X04236530Y01850679D01*
X04236634Y01850753D01*
X04236740Y01850824D01*
X04236848Y01850891D01*
X04236958Y01850955D01*
X04237070Y01851016D01*
X04237184Y01851074D01*
X04237299Y01851128D01*
X04237416Y01851179D01*
X04237535Y01851226D01*
X04237655Y01851269D01*
X04237776Y01851309D01*
X04237898Y01851345D01*
X04238022Y01851377D01*
X04238146Y01851406D01*
X04238271Y01851431D01*
X04238397Y01851452D01*
X04238523Y01851469D01*
X04238650Y01851483D01*
X04238777Y01851492D01*
X04238905Y01851498D01*
X04239032Y01851500D01*
X04234283Y01835139D02*
X04234435Y01834989D01*
X04234590Y01834843D01*
X04234749Y01834701D01*
X04234912Y01834562D01*
X04235077Y01834428D01*
X04235246Y01834297D01*
X04235418Y01834171D01*
X04235593Y01834049D01*
X04235771Y01833931D01*
X04235951Y01833817D01*
X04236135Y01833707D01*
X04236320Y01833602D01*
X04236509Y01833502D01*
X04236699Y01833406D01*
X04236892Y01833314D01*
X04237087Y01833228D01*
X04237284Y01833146D01*
X04237483Y01833068D01*
X04237684Y01832996D01*
X04237886Y01832928D01*
X04238090Y01832865D01*
X04238295Y01832807D01*
X04238502Y01832754D01*
X04238710Y01832706D01*
X04238919Y01832663D01*
X04239129Y01832625D01*
X04239340Y01832592D01*
X04239551Y01832564D01*
X04239764Y01832541D01*
X04239976Y01832523D01*
X04240189Y01832510D01*
X04240403Y01832503D01*
X04240616Y01832500D01*
X04240744Y01832502D01*
X04240871Y01832508D01*
X04240998Y01832517D01*
X04241125Y01832531D01*
X04241251Y01832548D01*
X04241377Y01832569D01*
X04241502Y01832594D01*
X04241626Y01832623D01*
X04241750Y01832655D01*
X04241872Y01832691D01*
X04241993Y01832731D01*
X04242113Y01832774D01*
X04242232Y01832821D01*
X04242349Y01832872D01*
X04242464Y01832926D01*
X04242578Y01832984D01*
X04242690Y01833045D01*
X04242800Y01833109D01*
X04242908Y01833177D01*
X04243014Y01833247D01*
X04243118Y01833321D01*
X04243220Y01833399D01*
X04243319Y01833479D01*
X04243416Y01833562D01*
X04243510Y01833648D01*
X04243601Y01833737D01*
X04243690Y01833828D01*
X04243776Y01833922D01*
X04243859Y01834019D01*
X04243939Y01834118D01*
X04244017Y01834220D01*
X04244091Y01834324D01*
X04244161Y01834430D01*
X04244229Y01834538D01*
X04244293Y01834648D01*
X04244354Y01834760D01*
X04244412Y01834874D01*
X04244466Y01834989D01*
X04244517Y01835106D01*
X04244564Y01835225D01*
X04244607Y01835345D01*
X04244647Y01835466D01*
X04244683Y01835588D01*
X04244715Y01835712D01*
X04244744Y01835836D01*
X04244769Y01835961D01*
X04244790Y01836087D01*
X04244807Y01836213D01*
X04244821Y01836340D01*
X04244830Y01836467D01*
X04244836Y01836594D01*
X04244838Y01836722D01*
X04244836Y01836849D01*
X04244830Y01836976D01*
X04244821Y01837103D01*
X04244808Y01837230D01*
X04244791Y01837356D01*
X04244770Y01837481D01*
X04244746Y01837606D01*
X04244718Y01837730D01*
X04244686Y01837853D01*
X04244651Y01837975D01*
X04244612Y01838097D01*
X04244569Y01838216D01*
X04244523Y01838335D01*
X04244473Y01838452D01*
X04244420Y01838568D01*
X04244364Y01838682D01*
X04244304Y01838794D01*
X04244241Y01838904D01*
X04244175Y01839013D01*
X04244105Y01839119D01*
X04244032Y01839224D01*
X04243957Y01839326D01*
X04243878Y01839426D01*
X04243796Y01839523D01*
X04243712Y01839619D01*
X04243625Y01839711D01*
X04243534Y01839801D01*
X04243442Y01839888D01*
X04243347Y01839972D01*
X04243249Y01840054D01*
X04243149Y01840133D01*
X04243047Y01840208D01*
X04242942Y01840281D01*
X04242836Y01840350D01*
X04242727Y01840416D01*
X03765718Y01837778D02*
X03765716Y01837634D01*
X03765710Y01837490D01*
X03765700Y01837346D01*
X03765687Y01837202D01*
X03765669Y01837059D01*
X03765647Y01836917D01*
X03765622Y01836775D01*
X03765592Y01836634D01*
X03765559Y01836493D01*
X03765522Y01836354D01*
X03765481Y01836216D01*
X03765437Y01836079D01*
X03765389Y01835943D01*
X03765337Y01835808D01*
X03765281Y01835675D01*
X03765222Y01835544D01*
X03765159Y01835414D01*
X03765093Y01835286D01*
X03765023Y01835160D01*
X03764950Y01835036D01*
X03764873Y01834913D01*
X03764793Y01834793D01*
X03764710Y01834676D01*
X03764624Y01834560D01*
X03764534Y01834447D01*
X03764442Y01834337D01*
X03764346Y01834229D01*
X03764248Y01834123D01*
X03764147Y01834020D01*
X03764043Y01833921D01*
X03763936Y01833824D01*
X03763826Y01833730D01*
X03763715Y01833639D01*
X03763600Y01833551D01*
X03763484Y01833466D01*
X03763365Y01833385D01*
X03763244Y01833306D01*
X03763121Y01833231D01*
X03762995Y01833160D01*
X03762868Y01833092D01*
X03762739Y01833027D01*
X03762609Y01832966D01*
X03762476Y01832909D01*
X03762343Y01832855D01*
X03762207Y01832805D01*
X03762071Y01832758D01*
X03761933Y01832716D01*
X03761794Y01832677D01*
X03761655Y01832642D01*
X03761514Y01832610D01*
X03761372Y01832583D01*
X03761230Y01832559D01*
X03761087Y01832540D01*
X03760944Y01832524D01*
X03760800Y01832512D01*
X03760656Y01832504D01*
X03760512Y01832500D01*
X03760368Y01832500D01*
X03760224Y01832504D01*
X03760080Y01832512D01*
X03759936Y01832524D01*
X03759793Y01832540D01*
X03759650Y01832559D01*
X03759508Y01832583D01*
X03759366Y01832610D01*
X03759225Y01832642D01*
X03759086Y01832677D01*
X03758947Y01832716D01*
X03758809Y01832758D01*
X03758673Y01832805D01*
X03758537Y01832855D01*
X03758404Y01832909D01*
X03758271Y01832966D01*
X03758141Y01833027D01*
X03758012Y01833092D01*
X03757885Y01833160D01*
X03757759Y01833231D01*
X03757636Y01833306D01*
X03757515Y01833385D01*
X03757396Y01833466D01*
X03757280Y01833551D01*
X03757165Y01833639D01*
X03757054Y01833730D01*
X03756944Y01833824D01*
X03756837Y01833921D01*
X03756733Y01834020D01*
X03756632Y01834123D01*
X03756534Y01834229D01*
X03756438Y01834337D01*
X03756346Y01834447D01*
X03756256Y01834560D01*
X03756170Y01834676D01*
X03756087Y01834793D01*
X03756007Y01834913D01*
X03755930Y01835036D01*
X03755857Y01835160D01*
X03755787Y01835286D01*
X03755721Y01835414D01*
X03755658Y01835544D01*
X03755599Y01835675D01*
X03755543Y01835808D01*
X03755491Y01835943D01*
X03755443Y01836079D01*
X03755399Y01836216D01*
X03755358Y01836354D01*
X03755321Y01836493D01*
X03755288Y01836634D01*
X03755258Y01836775D01*
X03755233Y01836917D01*
X03755211Y01837059D01*
X03755193Y01837202D01*
X03755180Y01837346D01*
X03755170Y01837490D01*
X03755164Y01837634D01*
X03755162Y01837778D01*
X03755164Y01837922D01*
X03755170Y01838066D01*
X03755180Y01838210D01*
X03755193Y01838354D01*
X03755211Y01838497D01*
X03755233Y01838639D01*
X03755258Y01838781D01*
X03755288Y01838922D01*
X03755321Y01839063D01*
X03755358Y01839202D01*
X03755399Y01839340D01*
X03755443Y01839477D01*
X03755491Y01839613D01*
X03755543Y01839748D01*
X03755599Y01839881D01*
X03755658Y01840012D01*
X03755721Y01840142D01*
X03755787Y01840270D01*
X03755857Y01840396D01*
X03755930Y01840520D01*
X03756007Y01840643D01*
X03756087Y01840763D01*
X03756170Y01840880D01*
X03756256Y01840996D01*
X03756346Y01841109D01*
X03756438Y01841219D01*
X03756534Y01841327D01*
X03756632Y01841433D01*
X03756733Y01841536D01*
X03756837Y01841635D01*
X03756944Y01841732D01*
X03757054Y01841826D01*
X03757165Y01841917D01*
X03757280Y01842005D01*
X03757396Y01842090D01*
X03757515Y01842171D01*
X03757636Y01842250D01*
X03757759Y01842325D01*
X03757885Y01842396D01*
X03758012Y01842464D01*
X03758141Y01842529D01*
X03758271Y01842590D01*
X03758404Y01842647D01*
X03758537Y01842701D01*
X03758673Y01842751D01*
X03758809Y01842798D01*
X03758947Y01842840D01*
X03759086Y01842879D01*
X03759225Y01842914D01*
X03759366Y01842946D01*
X03759508Y01842973D01*
X03759650Y01842997D01*
X03759793Y01843016D01*
X03759936Y01843032D01*
X03760080Y01843044D01*
X03760224Y01843052D01*
X03760368Y01843056D01*
X03760512Y01843056D01*
X03760656Y01843052D01*
X03760800Y01843044D01*
X03760944Y01843032D01*
X03761087Y01843016D01*
X03761230Y01842997D01*
X03761372Y01842973D01*
X03761514Y01842946D01*
X03761655Y01842914D01*
X03761794Y01842879D01*
X03761933Y01842840D01*
X03762071Y01842798D01*
X03762207Y01842751D01*
X03762343Y01842701D01*
X03762476Y01842647D01*
X03762609Y01842590D01*
X03762739Y01842529D01*
X03762868Y01842464D01*
X03762995Y01842396D01*
X03763121Y01842325D01*
X03763244Y01842250D01*
X03763365Y01842171D01*
X03763484Y01842090D01*
X03763600Y01842005D01*
X03763715Y01841917D01*
X03763826Y01841826D01*
X03763936Y01841732D01*
X03764043Y01841635D01*
X03764147Y01841536D01*
X03764248Y01841433D01*
X03764346Y01841327D01*
X03764442Y01841219D01*
X03764534Y01841109D01*
X03764624Y01840996D01*
X03764710Y01840880D01*
X03764793Y01840763D01*
X03764873Y01840643D01*
X03764950Y01840520D01*
X03765023Y01840396D01*
X03765093Y01840270D01*
X03765159Y01840142D01*
X03765222Y01840012D01*
X03765281Y01839881D01*
X03765337Y01839748D01*
X03765389Y01839613D01*
X03765437Y01839477D01*
X03765481Y01839340D01*
X03765522Y01839202D01*
X03765559Y01839063D01*
X03765592Y01838922D01*
X03765622Y01838781D01*
X03765647Y01838639D01*
X03765669Y01838497D01*
X03765687Y01838354D01*
X03765700Y01838210D01*
X03765710Y01838066D01*
X03765716Y01837922D01*
X03765718Y01837778D01*
X03764662Y01847278D02*
X03764660Y01847149D01*
X03764654Y01847021D01*
X03764644Y01846892D01*
X03764631Y01846764D01*
X03764613Y01846637D01*
X03764591Y01846510D01*
X03764566Y01846383D01*
X03764537Y01846258D01*
X03764504Y01846134D01*
X03764467Y01846010D01*
X03764427Y01845888D01*
X03764382Y01845767D01*
X03764334Y01845647D01*
X03764283Y01845529D01*
X03764228Y01845413D01*
X03764169Y01845298D01*
X03764107Y01845186D01*
X03764042Y01845075D01*
X03763973Y01844966D01*
X03763901Y01844859D01*
X03763825Y01844755D01*
X03763747Y01844653D01*
X03763665Y01844553D01*
X03763580Y01844456D01*
X03763493Y01844362D01*
X03763403Y01844270D01*
X03763309Y01844181D01*
X03763214Y01844095D01*
X03763115Y01844012D01*
X03763014Y01843932D01*
X03762911Y01843855D01*
X03762806Y01843781D01*
X03762698Y01843710D01*
X03762588Y01843643D01*
X03762476Y01843579D01*
X03762362Y01843519D01*
X03762247Y01843462D01*
X03762130Y01843409D01*
X03762011Y01843359D01*
X03761891Y01843313D01*
X03761769Y01843271D01*
X03761646Y01843232D01*
X03761522Y01843197D01*
X03761397Y01843166D01*
X03761272Y01843139D01*
X03761145Y01843115D01*
X03761018Y01843096D01*
X03760890Y01843080D01*
X03760762Y01843068D01*
X03760633Y01843060D01*
X03760504Y01843056D01*
X03760376Y01843056D01*
X03760247Y01843060D01*
X03760118Y01843068D01*
X03759990Y01843080D01*
X03759862Y01843096D01*
X03759735Y01843115D01*
X03759608Y01843139D01*
X03759483Y01843166D01*
X03759358Y01843197D01*
X03759234Y01843232D01*
X03759111Y01843271D01*
X03758989Y01843313D01*
X03758869Y01843359D01*
X03758750Y01843409D01*
X03758633Y01843462D01*
X03758518Y01843519D01*
X03758404Y01843579D01*
X03758292Y01843643D01*
X03758182Y01843710D01*
X03758074Y01843781D01*
X03757969Y01843855D01*
X03757866Y01843932D01*
X03757765Y01844012D01*
X03757666Y01844095D01*
X03757571Y01844181D01*
X03757477Y01844270D01*
X03757387Y01844362D01*
X03757300Y01844456D01*
X03757215Y01844553D01*
X03757133Y01844653D01*
X03757055Y01844755D01*
X03756979Y01844859D01*
X03756907Y01844966D01*
X03756838Y01845075D01*
X03756773Y01845186D01*
X03756711Y01845298D01*
X03756652Y01845413D01*
X03756597Y01845529D01*
X03756546Y01845647D01*
X03756498Y01845767D01*
X03756453Y01845888D01*
X03756413Y01846010D01*
X03756376Y01846134D01*
X03756343Y01846258D01*
X03756314Y01846383D01*
X03756289Y01846510D01*
X03756267Y01846637D01*
X03756249Y01846764D01*
X03756236Y01846892D01*
X03756226Y01847021D01*
X03756220Y01847149D01*
X03756218Y01847278D01*
X03756220Y01847407D01*
X03756226Y01847535D01*
X03756236Y01847664D01*
X03756249Y01847792D01*
X03756267Y01847919D01*
X03756289Y01848046D01*
X03756314Y01848173D01*
X03756343Y01848298D01*
X03756376Y01848422D01*
X03756413Y01848546D01*
X03756453Y01848668D01*
X03756498Y01848789D01*
X03756546Y01848909D01*
X03756597Y01849027D01*
X03756652Y01849143D01*
X03756711Y01849258D01*
X03756773Y01849370D01*
X03756838Y01849481D01*
X03756907Y01849590D01*
X03756979Y01849697D01*
X03757055Y01849801D01*
X03757133Y01849903D01*
X03757215Y01850003D01*
X03757300Y01850100D01*
X03757387Y01850194D01*
X03757477Y01850286D01*
X03757571Y01850375D01*
X03757666Y01850461D01*
X03757765Y01850544D01*
X03757866Y01850624D01*
X03757969Y01850701D01*
X03758074Y01850775D01*
X03758182Y01850846D01*
X03758292Y01850913D01*
X03758404Y01850977D01*
X03758518Y01851037D01*
X03758633Y01851094D01*
X03758750Y01851147D01*
X03758869Y01851197D01*
X03758989Y01851243D01*
X03759111Y01851285D01*
X03759234Y01851324D01*
X03759358Y01851359D01*
X03759483Y01851390D01*
X03759608Y01851417D01*
X03759735Y01851441D01*
X03759862Y01851460D01*
X03759990Y01851476D01*
X03760118Y01851488D01*
X03760247Y01851496D01*
X03760376Y01851500D01*
X03760504Y01851500D01*
X03760633Y01851496D01*
X03760762Y01851488D01*
X03760890Y01851476D01*
X03761018Y01851460D01*
X03761145Y01851441D01*
X03761272Y01851417D01*
X03761397Y01851390D01*
X03761522Y01851359D01*
X03761646Y01851324D01*
X03761769Y01851285D01*
X03761891Y01851243D01*
X03762011Y01851197D01*
X03762130Y01851147D01*
X03762247Y01851094D01*
X03762362Y01851037D01*
X03762476Y01850977D01*
X03762588Y01850913D01*
X03762698Y01850846D01*
X03762806Y01850775D01*
X03762911Y01850701D01*
X03763014Y01850624D01*
X03763115Y01850544D01*
X03763214Y01850461D01*
X03763309Y01850375D01*
X03763403Y01850286D01*
X03763493Y01850194D01*
X03763580Y01850100D01*
X03763665Y01850003D01*
X03763747Y01849903D01*
X03763825Y01849801D01*
X03763901Y01849697D01*
X03763973Y01849590D01*
X03764042Y01849481D01*
X03764107Y01849370D01*
X03764169Y01849258D01*
X03764228Y01849143D01*
X03764283Y01849027D01*
X03764334Y01848909D01*
X03764382Y01848789D01*
X03764427Y01848668D01*
X03764467Y01848546D01*
X03764504Y01848422D01*
X03764537Y01848298D01*
X03764566Y01848173D01*
X03764591Y01848046D01*
X03764613Y01847919D01*
X03764631Y01847792D01*
X03764644Y01847664D01*
X03764654Y01847535D01*
X03764660Y01847407D01*
X03764662Y01847278D01*
X03742727Y01840417D02*
X03736921Y01843583D01*
X03739032Y01851500D02*
X03739221Y01851498D01*
X03739409Y01851491D01*
X03739598Y01851480D01*
X03739786Y01851464D01*
X03739973Y01851444D01*
X03740160Y01851419D01*
X03740347Y01851390D01*
X03740533Y01851356D01*
X03740717Y01851319D01*
X03740901Y01851276D01*
X03741084Y01851229D01*
X03741266Y01851178D01*
X03741446Y01851123D01*
X03741625Y01851063D01*
X03741803Y01850999D01*
X03741978Y01850931D01*
X03742153Y01850859D01*
X03742325Y01850783D01*
X03742496Y01850702D01*
X03742665Y01850617D01*
X03742831Y01850529D01*
X03742996Y01850436D01*
X03743158Y01850340D01*
X03743318Y01850240D01*
X03743475Y01850136D01*
X03743630Y01850028D01*
X03743782Y01849917D01*
X03736921Y01843584D02*
X03736812Y01843650D01*
X03736706Y01843719D01*
X03736601Y01843792D01*
X03736499Y01843867D01*
X03736399Y01843946D01*
X03736301Y01844027D01*
X03736206Y01844112D01*
X03736114Y01844199D01*
X03736024Y01844289D01*
X03735936Y01844381D01*
X03735852Y01844476D01*
X03735770Y01844574D01*
X03735691Y01844674D01*
X03735616Y01844776D01*
X03735543Y01844880D01*
X03735473Y01844987D01*
X03735407Y01845096D01*
X03735344Y01845206D01*
X03735284Y01845318D01*
X03735228Y01845432D01*
X03735175Y01845548D01*
X03735125Y01845665D01*
X03735079Y01845784D01*
X03735036Y01845903D01*
X03734997Y01846024D01*
X03734962Y01846147D01*
X03734930Y01846270D01*
X03734902Y01846394D01*
X03734878Y01846519D01*
X03734857Y01846644D01*
X03734840Y01846770D01*
X03734827Y01846897D01*
X03734818Y01847024D01*
X03734812Y01847151D01*
X03734810Y01847278D01*
X03734812Y01847406D01*
X03734818Y01847533D01*
X03734827Y01847660D01*
X03734841Y01847787D01*
X03734858Y01847913D01*
X03734879Y01848039D01*
X03734904Y01848164D01*
X03734933Y01848288D01*
X03734965Y01848412D01*
X03735001Y01848534D01*
X03735041Y01848655D01*
X03735084Y01848775D01*
X03735131Y01848894D01*
X03735182Y01849011D01*
X03735236Y01849126D01*
X03735294Y01849240D01*
X03735355Y01849352D01*
X03735419Y01849462D01*
X03735487Y01849570D01*
X03735557Y01849676D01*
X03735631Y01849780D01*
X03735709Y01849882D01*
X03735789Y01849981D01*
X03735872Y01850078D01*
X03735958Y01850172D01*
X03736047Y01850263D01*
X03736138Y01850352D01*
X03736232Y01850438D01*
X03736329Y01850521D01*
X03736428Y01850602D01*
X03736530Y01850679D01*
X03736634Y01850753D01*
X03736740Y01850824D01*
X03736848Y01850891D01*
X03736958Y01850955D01*
X03737070Y01851016D01*
X03737184Y01851074D01*
X03737299Y01851128D01*
X03737416Y01851179D01*
X03737535Y01851226D01*
X03737655Y01851269D01*
X03737776Y01851309D01*
X03737898Y01851345D01*
X03738022Y01851377D01*
X03738146Y01851406D01*
X03738271Y01851431D01*
X03738397Y01851452D01*
X03738523Y01851469D01*
X03738650Y01851483D01*
X03738777Y01851492D01*
X03738905Y01851498D01*
X03739032Y01851500D01*
X03734283Y01835139D02*
X03734435Y01834989D01*
X03734590Y01834843D01*
X03734749Y01834701D01*
X03734912Y01834562D01*
X03735077Y01834428D01*
X03735246Y01834297D01*
X03735418Y01834171D01*
X03735593Y01834049D01*
X03735771Y01833931D01*
X03735951Y01833817D01*
X03736135Y01833707D01*
X03736320Y01833602D01*
X03736509Y01833502D01*
X03736699Y01833406D01*
X03736892Y01833314D01*
X03737087Y01833228D01*
X03737284Y01833146D01*
X03737483Y01833068D01*
X03737684Y01832996D01*
X03737886Y01832928D01*
X03738090Y01832865D01*
X03738295Y01832807D01*
X03738502Y01832754D01*
X03738710Y01832706D01*
X03738919Y01832663D01*
X03739129Y01832625D01*
X03739340Y01832592D01*
X03739551Y01832564D01*
X03739764Y01832541D01*
X03739976Y01832523D01*
X03740189Y01832510D01*
X03740403Y01832503D01*
X03740616Y01832500D01*
X03740744Y01832502D01*
X03740871Y01832508D01*
X03740998Y01832517D01*
X03741125Y01832531D01*
X03741251Y01832548D01*
X03741377Y01832569D01*
X03741502Y01832594D01*
X03741626Y01832623D01*
X03741750Y01832655D01*
X03741872Y01832691D01*
X03741993Y01832731D01*
X03742113Y01832774D01*
X03742232Y01832821D01*
X03742349Y01832872D01*
X03742464Y01832926D01*
X03742578Y01832984D01*
X03742690Y01833045D01*
X03742800Y01833109D01*
X03742908Y01833177D01*
X03743014Y01833247D01*
X03743118Y01833321D01*
X03743220Y01833399D01*
X03743319Y01833479D01*
X03743416Y01833562D01*
X03743510Y01833648D01*
X03743601Y01833737D01*
X03743690Y01833828D01*
X03743776Y01833922D01*
X03743859Y01834019D01*
X03743939Y01834118D01*
X03744017Y01834220D01*
X03744091Y01834324D01*
X03744161Y01834430D01*
X03744229Y01834538D01*
X03744293Y01834648D01*
X03744354Y01834760D01*
X03744412Y01834874D01*
X03744466Y01834989D01*
X03744517Y01835106D01*
X03744564Y01835225D01*
X03744607Y01835345D01*
X03744647Y01835466D01*
X03744683Y01835588D01*
X03744715Y01835712D01*
X03744744Y01835836D01*
X03744769Y01835961D01*
X03744790Y01836087D01*
X03744807Y01836213D01*
X03744821Y01836340D01*
X03744830Y01836467D01*
X03744836Y01836594D01*
X03744838Y01836722D01*
X03744836Y01836849D01*
X03744830Y01836976D01*
X03744821Y01837103D01*
X03744808Y01837230D01*
X03744791Y01837356D01*
X03744770Y01837481D01*
X03744746Y01837606D01*
X03744718Y01837730D01*
X03744686Y01837853D01*
X03744651Y01837975D01*
X03744612Y01838097D01*
X03744569Y01838216D01*
X03744523Y01838335D01*
X03744473Y01838452D01*
X03744420Y01838568D01*
X03744364Y01838682D01*
X03744304Y01838794D01*
X03744241Y01838904D01*
X03744175Y01839013D01*
X03744105Y01839119D01*
X03744032Y01839224D01*
X03743957Y01839326D01*
X03743878Y01839426D01*
X03743796Y01839523D01*
X03743712Y01839619D01*
X03743625Y01839711D01*
X03743534Y01839801D01*
X03743442Y01839888D01*
X03743347Y01839972D01*
X03743249Y01840054D01*
X03743149Y01840133D01*
X03743047Y01840208D01*
X03742942Y01840281D01*
X03742836Y01840350D01*
X03742727Y01840416D01*
X03265718Y01851500D02*
X03260440Y01832500D01*
X03255162Y01849389D02*
X03255162Y01851500D01*
X03265718Y01851500D01*
X03242727Y01840417D02*
X03236921Y01843583D01*
X03239032Y01851500D02*
X03239221Y01851498D01*
X03239409Y01851491D01*
X03239598Y01851480D01*
X03239786Y01851464D01*
X03239973Y01851444D01*
X03240160Y01851419D01*
X03240347Y01851390D01*
X03240533Y01851356D01*
X03240717Y01851319D01*
X03240901Y01851276D01*
X03241084Y01851229D01*
X03241266Y01851178D01*
X03241446Y01851123D01*
X03241625Y01851063D01*
X03241803Y01850999D01*
X03241978Y01850931D01*
X03242153Y01850859D01*
X03242325Y01850783D01*
X03242496Y01850702D01*
X03242665Y01850617D01*
X03242831Y01850529D01*
X03242996Y01850436D01*
X03243158Y01850340D01*
X03243318Y01850240D01*
X03243475Y01850136D01*
X03243630Y01850028D01*
X03243782Y01849917D01*
X03236921Y01843584D02*
X03236812Y01843650D01*
X03236706Y01843719D01*
X03236601Y01843792D01*
X03236499Y01843867D01*
X03236399Y01843946D01*
X03236301Y01844027D01*
X03236206Y01844112D01*
X03236114Y01844199D01*
X03236024Y01844289D01*
X03235936Y01844381D01*
X03235852Y01844476D01*
X03235770Y01844574D01*
X03235691Y01844674D01*
X03235616Y01844776D01*
X03235543Y01844880D01*
X03235473Y01844987D01*
X03235407Y01845096D01*
X03235344Y01845206D01*
X03235284Y01845318D01*
X03235228Y01845432D01*
X03235175Y01845548D01*
X03235125Y01845665D01*
X03235079Y01845784D01*
X03235036Y01845903D01*
X03234997Y01846024D01*
X03234962Y01846147D01*
X03234930Y01846270D01*
X03234902Y01846394D01*
X03234878Y01846519D01*
X03234857Y01846644D01*
X03234840Y01846770D01*
X03234827Y01846897D01*
X03234818Y01847024D01*
X03234812Y01847151D01*
X03234810Y01847278D01*
X03234812Y01847406D01*
X03234818Y01847533D01*
X03234827Y01847660D01*
X03234841Y01847787D01*
X03234858Y01847913D01*
X03234879Y01848039D01*
X03234904Y01848164D01*
X03234933Y01848288D01*
X03234965Y01848412D01*
X03235001Y01848534D01*
X03235041Y01848655D01*
X03235084Y01848775D01*
X03235131Y01848894D01*
X03235182Y01849011D01*
X03235236Y01849126D01*
X03235294Y01849240D01*
X03235355Y01849352D01*
X03235419Y01849462D01*
X03235487Y01849570D01*
X03235557Y01849676D01*
X03235631Y01849780D01*
X03235709Y01849882D01*
X03235789Y01849981D01*
X03235872Y01850078D01*
X03235958Y01850172D01*
X03236047Y01850263D01*
X03236138Y01850352D01*
X03236232Y01850438D01*
X03236329Y01850521D01*
X03236428Y01850602D01*
X03236530Y01850679D01*
X03236634Y01850753D01*
X03236740Y01850824D01*
X03236848Y01850891D01*
X03236958Y01850955D01*
X03237070Y01851016D01*
X03237184Y01851074D01*
X03237299Y01851128D01*
X03237416Y01851179D01*
X03237535Y01851226D01*
X03237655Y01851269D01*
X03237776Y01851309D01*
X03237898Y01851345D01*
X03238022Y01851377D01*
X03238146Y01851406D01*
X03238271Y01851431D01*
X03238397Y01851452D01*
X03238523Y01851469D01*
X03238650Y01851483D01*
X03238777Y01851492D01*
X03238905Y01851498D01*
X03239032Y01851500D01*
X03234283Y01835139D02*
X03234435Y01834989D01*
X03234590Y01834843D01*
X03234749Y01834701D01*
X03234912Y01834562D01*
X03235077Y01834428D01*
X03235246Y01834297D01*
X03235418Y01834171D01*
X03235593Y01834049D01*
X03235771Y01833931D01*
X03235951Y01833817D01*
X03236135Y01833707D01*
X03236320Y01833602D01*
X03236509Y01833502D01*
X03236699Y01833406D01*
X03236892Y01833314D01*
X03237087Y01833228D01*
X03237284Y01833146D01*
X03237483Y01833068D01*
X03237684Y01832996D01*
X03237886Y01832928D01*
X03238090Y01832865D01*
X03238295Y01832807D01*
X03238502Y01832754D01*
X03238710Y01832706D01*
X03238919Y01832663D01*
X03239129Y01832625D01*
X03239340Y01832592D01*
X03239551Y01832564D01*
X03239764Y01832541D01*
X03239976Y01832523D01*
X03240189Y01832510D01*
X03240403Y01832503D01*
X03240616Y01832500D01*
X03240744Y01832502D01*
X03240871Y01832508D01*
X03240998Y01832517D01*
X03241125Y01832531D01*
X03241251Y01832548D01*
X03241377Y01832569D01*
X03241502Y01832594D01*
X03241626Y01832623D01*
X03241750Y01832655D01*
X03241872Y01832691D01*
X03241993Y01832731D01*
X03242113Y01832774D01*
X03242232Y01832821D01*
X03242349Y01832872D01*
X03242464Y01832926D01*
X03242578Y01832984D01*
X03242690Y01833045D01*
X03242800Y01833109D01*
X03242908Y01833177D01*
X03243014Y01833247D01*
X03243118Y01833321D01*
X03243220Y01833399D01*
X03243319Y01833479D01*
X03243416Y01833562D01*
X03243510Y01833648D01*
X03243601Y01833737D01*
X03243690Y01833828D01*
X03243776Y01833922D01*
X03243859Y01834019D01*
X03243939Y01834118D01*
X03244017Y01834220D01*
X03244091Y01834324D01*
X03244161Y01834430D01*
X03244229Y01834538D01*
X03244293Y01834648D01*
X03244354Y01834760D01*
X03244412Y01834874D01*
X03244466Y01834989D01*
X03244517Y01835106D01*
X03244564Y01835225D01*
X03244607Y01835345D01*
X03244647Y01835466D01*
X03244683Y01835588D01*
X03244715Y01835712D01*
X03244744Y01835836D01*
X03244769Y01835961D01*
X03244790Y01836087D01*
X03244807Y01836213D01*
X03244821Y01836340D01*
X03244830Y01836467D01*
X03244836Y01836594D01*
X03244838Y01836722D01*
X03244836Y01836849D01*
X03244830Y01836976D01*
X03244821Y01837103D01*
X03244808Y01837230D01*
X03244791Y01837356D01*
X03244770Y01837481D01*
X03244746Y01837606D01*
X03244718Y01837730D01*
X03244686Y01837853D01*
X03244651Y01837975D01*
X03244612Y01838097D01*
X03244569Y01838216D01*
X03244523Y01838335D01*
X03244473Y01838452D01*
X03244420Y01838568D01*
X03244364Y01838682D01*
X03244304Y01838794D01*
X03244241Y01838904D01*
X03244175Y01839013D01*
X03244105Y01839119D01*
X03244032Y01839224D01*
X03243957Y01839326D01*
X03243878Y01839426D01*
X03243796Y01839523D01*
X03243712Y01839619D01*
X03243625Y01839711D01*
X03243534Y01839801D01*
X03243442Y01839888D01*
X03243347Y01839972D01*
X03243249Y01840054D01*
X03243149Y01840133D01*
X03243047Y01840208D01*
X03242942Y01840281D01*
X03242836Y01840350D01*
X03242727Y01840416D01*
X02765718Y01838833D02*
X02765718Y01837778D01*
X02765717Y01838833D02*
X02765715Y01838961D01*
X02765709Y01839088D01*
X02765700Y01839215D01*
X02765686Y01839342D01*
X02765669Y01839468D01*
X02765648Y01839594D01*
X02765623Y01839719D01*
X02765594Y01839843D01*
X02765562Y01839967D01*
X02765526Y01840089D01*
X02765486Y01840210D01*
X02765443Y01840330D01*
X02765396Y01840449D01*
X02765345Y01840566D01*
X02765291Y01840681D01*
X02765233Y01840795D01*
X02765172Y01840907D01*
X02765108Y01841017D01*
X02765040Y01841125D01*
X02764970Y01841231D01*
X02764896Y01841335D01*
X02764818Y01841437D01*
X02764738Y01841536D01*
X02764655Y01841633D01*
X02764569Y01841727D01*
X02764480Y01841818D01*
X02764389Y01841907D01*
X02764295Y01841993D01*
X02764198Y01842076D01*
X02764099Y01842156D01*
X02763997Y01842234D01*
X02763893Y01842308D01*
X02763787Y01842378D01*
X02763679Y01842446D01*
X02763569Y01842510D01*
X02763457Y01842571D01*
X02763343Y01842629D01*
X02763228Y01842683D01*
X02763111Y01842734D01*
X02762992Y01842781D01*
X02762872Y01842824D01*
X02762751Y01842864D01*
X02762629Y01842900D01*
X02762505Y01842932D01*
X02762381Y01842961D01*
X02762256Y01842986D01*
X02762130Y01843007D01*
X02762004Y01843024D01*
X02761877Y01843038D01*
X02761750Y01843047D01*
X02761623Y01843053D01*
X02761495Y01843055D01*
X02755162Y01843055D01*
X02755162Y01837778D01*
X02755164Y01837634D01*
X02755170Y01837490D01*
X02755180Y01837346D01*
X02755193Y01837202D01*
X02755211Y01837059D01*
X02755233Y01836917D01*
X02755258Y01836775D01*
X02755288Y01836634D01*
X02755321Y01836493D01*
X02755358Y01836354D01*
X02755399Y01836216D01*
X02755443Y01836079D01*
X02755491Y01835943D01*
X02755543Y01835808D01*
X02755599Y01835675D01*
X02755658Y01835544D01*
X02755721Y01835414D01*
X02755787Y01835286D01*
X02755857Y01835160D01*
X02755930Y01835036D01*
X02756007Y01834913D01*
X02756087Y01834793D01*
X02756170Y01834676D01*
X02756256Y01834560D01*
X02756346Y01834447D01*
X02756438Y01834337D01*
X02756534Y01834229D01*
X02756632Y01834123D01*
X02756733Y01834020D01*
X02756837Y01833921D01*
X02756944Y01833824D01*
X02757054Y01833730D01*
X02757165Y01833639D01*
X02757280Y01833551D01*
X02757396Y01833466D01*
X02757515Y01833385D01*
X02757636Y01833306D01*
X02757759Y01833231D01*
X02757885Y01833160D01*
X02758012Y01833092D01*
X02758141Y01833027D01*
X02758271Y01832966D01*
X02758404Y01832909D01*
X02758537Y01832855D01*
X02758673Y01832805D01*
X02758809Y01832758D01*
X02758947Y01832716D01*
X02759086Y01832677D01*
X02759225Y01832642D01*
X02759366Y01832610D01*
X02759508Y01832583D01*
X02759650Y01832559D01*
X02759793Y01832540D01*
X02759936Y01832524D01*
X02760080Y01832512D01*
X02760224Y01832504D01*
X02760368Y01832500D01*
X02760512Y01832500D01*
X02760656Y01832504D01*
X02760800Y01832512D01*
X02760944Y01832524D01*
X02761087Y01832540D01*
X02761230Y01832559D01*
X02761372Y01832583D01*
X02761514Y01832610D01*
X02761655Y01832642D01*
X02761794Y01832677D01*
X02761933Y01832716D01*
X02762071Y01832758D01*
X02762207Y01832805D01*
X02762343Y01832855D01*
X02762476Y01832909D01*
X02762609Y01832966D01*
X02762739Y01833027D01*
X02762868Y01833092D01*
X02762995Y01833160D01*
X02763121Y01833231D01*
X02763244Y01833306D01*
X02763365Y01833385D01*
X02763484Y01833466D01*
X02763600Y01833551D01*
X02763715Y01833639D01*
X02763826Y01833730D01*
X02763936Y01833824D01*
X02764043Y01833921D01*
X02764147Y01834020D01*
X02764248Y01834123D01*
X02764346Y01834229D01*
X02764442Y01834337D01*
X02764534Y01834447D01*
X02764624Y01834560D01*
X02764710Y01834676D01*
X02764793Y01834793D01*
X02764873Y01834913D01*
X02764950Y01835036D01*
X02765023Y01835160D01*
X02765093Y01835286D01*
X02765159Y01835414D01*
X02765222Y01835544D01*
X02765281Y01835675D01*
X02765337Y01835808D01*
X02765389Y01835943D01*
X02765437Y01836079D01*
X02765481Y01836216D01*
X02765522Y01836354D01*
X02765559Y01836493D01*
X02765592Y01836634D01*
X02765622Y01836775D01*
X02765647Y01836917D01*
X02765669Y01837059D01*
X02765687Y01837202D01*
X02765700Y01837346D01*
X02765710Y01837490D01*
X02765716Y01837634D01*
X02765718Y01837778D01*
X02755162Y01843055D02*
X02755165Y01843262D01*
X02755172Y01843469D01*
X02755185Y01843676D01*
X02755203Y01843883D01*
X02755226Y01844089D01*
X02755253Y01844294D01*
X02755286Y01844499D01*
X02755324Y01844703D01*
X02755367Y01844905D01*
X02755415Y01845107D01*
X02755468Y01845307D01*
X02755526Y01845506D01*
X02755588Y01845704D01*
X02755656Y01845900D01*
X02755728Y01846094D01*
X02755805Y01846287D01*
X02755886Y01846477D01*
X02755973Y01846666D01*
X02756064Y01846852D01*
X02756159Y01847036D01*
X02756259Y01847217D01*
X02756363Y01847397D01*
X02756472Y01847573D01*
X02756585Y01847747D01*
X02756702Y01847918D01*
X02756824Y01848086D01*
X02756949Y01848251D01*
X02757079Y01848412D01*
X02757212Y01848571D01*
X02757350Y01848726D01*
X02757491Y01848878D01*
X02757635Y01849026D01*
X02757784Y01849171D01*
X02757936Y01849312D01*
X02758091Y01849450D01*
X02758249Y01849583D01*
X02758411Y01849713D01*
X02758576Y01849838D01*
X02758744Y01849959D01*
X02758915Y01850077D01*
X02759089Y01850190D01*
X02759265Y01850298D01*
X02759444Y01850403D01*
X02759626Y01850503D01*
X02759810Y01850598D01*
X02759996Y01850689D01*
X02760185Y01850775D01*
X02760375Y01850857D01*
X02760568Y01850934D01*
X02760762Y01851006D01*
X02760958Y01851074D01*
X02761155Y01851136D01*
X02761355Y01851194D01*
X02761555Y01851247D01*
X02761757Y01851295D01*
X02761959Y01851338D01*
X02762163Y01851376D01*
X02762368Y01851409D01*
X02762573Y01851436D01*
X02762779Y01851459D01*
X02762986Y01851477D01*
X02763193Y01851490D01*
X02763400Y01851497D01*
X02763607Y01851500D01*
X02742727Y01840417D02*
X02736921Y01843583D01*
X02739032Y01851500D02*
X02739221Y01851498D01*
X02739409Y01851491D01*
X02739598Y01851480D01*
X02739786Y01851464D01*
X02739973Y01851444D01*
X02740160Y01851419D01*
X02740347Y01851390D01*
X02740533Y01851356D01*
X02740717Y01851319D01*
X02740901Y01851276D01*
X02741084Y01851229D01*
X02741266Y01851178D01*
X02741446Y01851123D01*
X02741625Y01851063D01*
X02741803Y01850999D01*
X02741978Y01850931D01*
X02742153Y01850859D01*
X02742325Y01850783D01*
X02742496Y01850702D01*
X02742665Y01850617D01*
X02742831Y01850529D01*
X02742996Y01850436D01*
X02743158Y01850340D01*
X02743318Y01850240D01*
X02743475Y01850136D01*
X02743630Y01850028D01*
X02743782Y01849917D01*
X02736921Y01843584D02*
X02736812Y01843650D01*
X02736706Y01843719D01*
X02736601Y01843792D01*
X02736499Y01843867D01*
X02736399Y01843946D01*
X02736301Y01844027D01*
X02736206Y01844112D01*
X02736114Y01844199D01*
X02736024Y01844289D01*
X02735936Y01844381D01*
X02735852Y01844476D01*
X02735770Y01844574D01*
X02735691Y01844674D01*
X02735616Y01844776D01*
X02735543Y01844880D01*
X02735473Y01844987D01*
X02735407Y01845096D01*
X02735344Y01845206D01*
X02735284Y01845318D01*
X02735228Y01845432D01*
X02735175Y01845548D01*
X02735125Y01845665D01*
X02735079Y01845784D01*
X02735036Y01845903D01*
X02734997Y01846024D01*
X02734962Y01846147D01*
X02734930Y01846270D01*
X02734902Y01846394D01*
X02734878Y01846519D01*
X02734857Y01846644D01*
X02734840Y01846770D01*
X02734827Y01846897D01*
X02734818Y01847024D01*
X02734812Y01847151D01*
X02734810Y01847278D01*
X02734812Y01847406D01*
X02734818Y01847533D01*
X02734827Y01847660D01*
X02734841Y01847787D01*
X02734858Y01847913D01*
X02734879Y01848039D01*
X02734904Y01848164D01*
X02734933Y01848288D01*
X02734965Y01848412D01*
X02735001Y01848534D01*
X02735041Y01848655D01*
X02735084Y01848775D01*
X02735131Y01848894D01*
X02735182Y01849011D01*
X02735236Y01849126D01*
X02735294Y01849240D01*
X02735355Y01849352D01*
X02735419Y01849462D01*
X02735487Y01849570D01*
X02735557Y01849676D01*
X02735631Y01849780D01*
X02735709Y01849882D01*
X02735789Y01849981D01*
X02735872Y01850078D01*
X02735958Y01850172D01*
X02736047Y01850263D01*
X02736138Y01850352D01*
X02736232Y01850438D01*
X02736329Y01850521D01*
X02736428Y01850602D01*
X02736530Y01850679D01*
X02736634Y01850753D01*
X02736740Y01850824D01*
X02736848Y01850891D01*
X02736958Y01850955D01*
X02737070Y01851016D01*
X02737184Y01851074D01*
X02737299Y01851128D01*
X02737416Y01851179D01*
X02737535Y01851226D01*
X02737655Y01851269D01*
X02737776Y01851309D01*
X02737898Y01851345D01*
X02738022Y01851377D01*
X02738146Y01851406D01*
X02738271Y01851431D01*
X02738397Y01851452D01*
X02738523Y01851469D01*
X02738650Y01851483D01*
X02738777Y01851492D01*
X02738905Y01851498D01*
X02739032Y01851500D01*
X02734283Y01835139D02*
X02734435Y01834989D01*
X02734590Y01834843D01*
X02734749Y01834701D01*
X02734912Y01834562D01*
X02735077Y01834428D01*
X02735246Y01834297D01*
X02735418Y01834171D01*
X02735593Y01834049D01*
X02735771Y01833931D01*
X02735951Y01833817D01*
X02736135Y01833707D01*
X02736320Y01833602D01*
X02736509Y01833502D01*
X02736699Y01833406D01*
X02736892Y01833314D01*
X02737087Y01833228D01*
X02737284Y01833146D01*
X02737483Y01833068D01*
X02737684Y01832996D01*
X02737886Y01832928D01*
X02738090Y01832865D01*
X02738295Y01832807D01*
X02738502Y01832754D01*
X02738710Y01832706D01*
X02738919Y01832663D01*
X02739129Y01832625D01*
X02739340Y01832592D01*
X02739551Y01832564D01*
X02739764Y01832541D01*
X02739976Y01832523D01*
X02740189Y01832510D01*
X02740403Y01832503D01*
X02740616Y01832500D01*
X02740744Y01832502D01*
X02740871Y01832508D01*
X02740998Y01832517D01*
X02741125Y01832531D01*
X02741251Y01832548D01*
X02741377Y01832569D01*
X02741502Y01832594D01*
X02741626Y01832623D01*
X02741750Y01832655D01*
X02741872Y01832691D01*
X02741993Y01832731D01*
X02742113Y01832774D01*
X02742232Y01832821D01*
X02742349Y01832872D01*
X02742464Y01832926D01*
X02742578Y01832984D01*
X02742690Y01833045D01*
X02742800Y01833109D01*
X02742908Y01833177D01*
X02743014Y01833247D01*
X02743118Y01833321D01*
X02743220Y01833399D01*
X02743319Y01833479D01*
X02743416Y01833562D01*
X02743510Y01833648D01*
X02743601Y01833737D01*
X02743690Y01833828D01*
X02743776Y01833922D01*
X02743859Y01834019D01*
X02743939Y01834118D01*
X02744017Y01834220D01*
X02744091Y01834324D01*
X02744161Y01834430D01*
X02744229Y01834538D01*
X02744293Y01834648D01*
X02744354Y01834760D01*
X02744412Y01834874D01*
X02744466Y01834989D01*
X02744517Y01835106D01*
X02744564Y01835225D01*
X02744607Y01835345D01*
X02744647Y01835466D01*
X02744683Y01835588D01*
X02744715Y01835712D01*
X02744744Y01835836D01*
X02744769Y01835961D01*
X02744790Y01836087D01*
X02744807Y01836213D01*
X02744821Y01836340D01*
X02744830Y01836467D01*
X02744836Y01836594D01*
X02744838Y01836722D01*
X02744836Y01836849D01*
X02744830Y01836976D01*
X02744821Y01837103D01*
X02744808Y01837230D01*
X02744791Y01837356D01*
X02744770Y01837481D01*
X02744746Y01837606D01*
X02744718Y01837730D01*
X02744686Y01837853D01*
X02744651Y01837975D01*
X02744612Y01838097D01*
X02744569Y01838216D01*
X02744523Y01838335D01*
X02744473Y01838452D01*
X02744420Y01838568D01*
X02744364Y01838682D01*
X02744304Y01838794D01*
X02744241Y01838904D01*
X02744175Y01839013D01*
X02744105Y01839119D01*
X02744032Y01839224D01*
X02743957Y01839326D01*
X02743878Y01839426D01*
X02743796Y01839523D01*
X02743712Y01839619D01*
X02743625Y01839711D01*
X02743534Y01839801D01*
X02743442Y01839888D01*
X02743347Y01839972D01*
X02743249Y01840054D01*
X02743149Y01840133D01*
X02743047Y01840208D01*
X02742942Y01840281D01*
X02742836Y01840350D01*
X02742727Y01840416D01*
X02265718Y01838833D02*
X02265718Y01836722D01*
X02265717Y01836722D02*
X02265715Y01836594D01*
X02265709Y01836467D01*
X02265700Y01836340D01*
X02265686Y01836213D01*
X02265669Y01836087D01*
X02265648Y01835961D01*
X02265623Y01835836D01*
X02265594Y01835712D01*
X02265562Y01835588D01*
X02265526Y01835466D01*
X02265486Y01835345D01*
X02265443Y01835225D01*
X02265396Y01835106D01*
X02265345Y01834989D01*
X02265291Y01834874D01*
X02265233Y01834760D01*
X02265172Y01834648D01*
X02265108Y01834538D01*
X02265040Y01834430D01*
X02264970Y01834324D01*
X02264896Y01834220D01*
X02264818Y01834118D01*
X02264738Y01834019D01*
X02264655Y01833922D01*
X02264569Y01833828D01*
X02264480Y01833737D01*
X02264389Y01833648D01*
X02264295Y01833562D01*
X02264198Y01833479D01*
X02264099Y01833399D01*
X02263997Y01833321D01*
X02263893Y01833247D01*
X02263787Y01833177D01*
X02263679Y01833109D01*
X02263569Y01833045D01*
X02263457Y01832984D01*
X02263343Y01832926D01*
X02263228Y01832872D01*
X02263111Y01832821D01*
X02262992Y01832774D01*
X02262872Y01832731D01*
X02262751Y01832691D01*
X02262629Y01832655D01*
X02262505Y01832623D01*
X02262381Y01832594D01*
X02262256Y01832569D01*
X02262130Y01832548D01*
X02262004Y01832531D01*
X02261877Y01832517D01*
X02261750Y01832508D01*
X02261623Y01832502D01*
X02261495Y01832500D01*
X02255162Y01832500D01*
X02265717Y01838833D02*
X02265715Y01838961D01*
X02265709Y01839088D01*
X02265700Y01839215D01*
X02265686Y01839342D01*
X02265669Y01839468D01*
X02265648Y01839594D01*
X02265623Y01839719D01*
X02265594Y01839843D01*
X02265562Y01839967D01*
X02265526Y01840089D01*
X02265486Y01840210D01*
X02265443Y01840330D01*
X02265396Y01840449D01*
X02265345Y01840566D01*
X02265291Y01840681D01*
X02265233Y01840795D01*
X02265172Y01840907D01*
X02265108Y01841017D01*
X02265040Y01841125D01*
X02264970Y01841231D01*
X02264896Y01841335D01*
X02264818Y01841437D01*
X02264738Y01841536D01*
X02264655Y01841633D01*
X02264569Y01841727D01*
X02264480Y01841818D01*
X02264389Y01841907D01*
X02264295Y01841993D01*
X02264198Y01842076D01*
X02264099Y01842156D01*
X02263997Y01842234D01*
X02263893Y01842308D01*
X02263787Y01842378D01*
X02263679Y01842446D01*
X02263569Y01842510D01*
X02263457Y01842571D01*
X02263343Y01842629D01*
X02263228Y01842683D01*
X02263111Y01842734D01*
X02262992Y01842781D01*
X02262872Y01842824D01*
X02262751Y01842864D01*
X02262629Y01842900D01*
X02262505Y01842932D01*
X02262381Y01842961D01*
X02262256Y01842986D01*
X02262130Y01843007D01*
X02262004Y01843024D01*
X02261877Y01843038D01*
X02261750Y01843047D01*
X02261623Y01843053D01*
X02261495Y01843055D01*
X02255162Y01843055D01*
X02255162Y01851500D01*
X02265718Y01851500D01*
X02242727Y01840417D02*
X02236921Y01843583D01*
X02239032Y01851500D02*
X02239221Y01851498D01*
X02239409Y01851491D01*
X02239598Y01851480D01*
X02239786Y01851464D01*
X02239973Y01851444D01*
X02240160Y01851419D01*
X02240347Y01851390D01*
X02240533Y01851356D01*
X02240717Y01851319D01*
X02240901Y01851276D01*
X02241084Y01851229D01*
X02241266Y01851178D01*
X02241446Y01851123D01*
X02241625Y01851063D01*
X02241803Y01850999D01*
X02241978Y01850931D01*
X02242153Y01850859D01*
X02242325Y01850783D01*
X02242496Y01850702D01*
X02242665Y01850617D01*
X02242831Y01850529D01*
X02242996Y01850436D01*
X02243158Y01850340D01*
X02243318Y01850240D01*
X02243475Y01850136D01*
X02243630Y01850028D01*
X02243782Y01849917D01*
X02236921Y01843584D02*
X02236812Y01843650D01*
X02236706Y01843719D01*
X02236601Y01843792D01*
X02236499Y01843867D01*
X02236399Y01843946D01*
X02236301Y01844027D01*
X02236206Y01844112D01*
X02236114Y01844199D01*
X02236024Y01844289D01*
X02235936Y01844381D01*
X02235852Y01844476D01*
X02235770Y01844574D01*
X02235691Y01844674D01*
X02235616Y01844776D01*
X02235543Y01844880D01*
X02235473Y01844987D01*
X02235407Y01845096D01*
X02235344Y01845206D01*
X02235284Y01845318D01*
X02235228Y01845432D01*
X02235175Y01845548D01*
X02235125Y01845665D01*
X02235079Y01845784D01*
X02235036Y01845903D01*
X02234997Y01846024D01*
X02234962Y01846147D01*
X02234930Y01846270D01*
X02234902Y01846394D01*
X02234878Y01846519D01*
X02234857Y01846644D01*
X02234840Y01846770D01*
X02234827Y01846897D01*
X02234818Y01847024D01*
X02234812Y01847151D01*
X02234810Y01847278D01*
X02234812Y01847406D01*
X02234818Y01847533D01*
X02234827Y01847660D01*
X02234841Y01847787D01*
X02234858Y01847913D01*
X02234879Y01848039D01*
X02234904Y01848164D01*
X02234933Y01848288D01*
X02234965Y01848412D01*
X02235001Y01848534D01*
X02235041Y01848655D01*
X02235084Y01848775D01*
X02235131Y01848894D01*
X02235182Y01849011D01*
X02235236Y01849126D01*
X02235294Y01849240D01*
X02235355Y01849352D01*
X02235419Y01849462D01*
X02235487Y01849570D01*
X02235557Y01849676D01*
X02235631Y01849780D01*
X02235709Y01849882D01*
X02235789Y01849981D01*
X02235872Y01850078D01*
X02235958Y01850172D01*
X02236047Y01850263D01*
X02236138Y01850352D01*
X02236232Y01850438D01*
X02236329Y01850521D01*
X02236428Y01850602D01*
X02236530Y01850679D01*
X02236634Y01850753D01*
X02236740Y01850824D01*
X02236848Y01850891D01*
X02236958Y01850955D01*
X02237070Y01851016D01*
X02237184Y01851074D01*
X02237299Y01851128D01*
X02237416Y01851179D01*
X02237535Y01851226D01*
X02237655Y01851269D01*
X02237776Y01851309D01*
X02237898Y01851345D01*
X02238022Y01851377D01*
X02238146Y01851406D01*
X02238271Y01851431D01*
X02238397Y01851452D01*
X02238523Y01851469D01*
X02238650Y01851483D01*
X02238777Y01851492D01*
X02238905Y01851498D01*
X02239032Y01851500D01*
X02234283Y01835139D02*
X02234435Y01834989D01*
X02234590Y01834843D01*
X02234749Y01834701D01*
X02234912Y01834562D01*
X02235077Y01834428D01*
X02235246Y01834297D01*
X02235418Y01834171D01*
X02235593Y01834049D01*
X02235771Y01833931D01*
X02235951Y01833817D01*
X02236135Y01833707D01*
X02236320Y01833602D01*
X02236509Y01833502D01*
X02236699Y01833406D01*
X02236892Y01833314D01*
X02237087Y01833228D01*
X02237284Y01833146D01*
X02237483Y01833068D01*
X02237684Y01832996D01*
X02237886Y01832928D01*
X02238090Y01832865D01*
X02238295Y01832807D01*
X02238502Y01832754D01*
X02238710Y01832706D01*
X02238919Y01832663D01*
X02239129Y01832625D01*
X02239340Y01832592D01*
X02239551Y01832564D01*
X02239764Y01832541D01*
X02239976Y01832523D01*
X02240189Y01832510D01*
X02240403Y01832503D01*
X02240616Y01832500D01*
X02240744Y01832502D01*
X02240871Y01832508D01*
X02240998Y01832517D01*
X02241125Y01832531D01*
X02241251Y01832548D01*
X02241377Y01832569D01*
X02241502Y01832594D01*
X02241626Y01832623D01*
X02241750Y01832655D01*
X02241872Y01832691D01*
X02241993Y01832731D01*
X02242113Y01832774D01*
X02242232Y01832821D01*
X02242349Y01832872D01*
X02242464Y01832926D01*
X02242578Y01832984D01*
X02242690Y01833045D01*
X02242800Y01833109D01*
X02242908Y01833177D01*
X02243014Y01833247D01*
X02243118Y01833321D01*
X02243220Y01833399D01*
X02243319Y01833479D01*
X02243416Y01833562D01*
X02243510Y01833648D01*
X02243601Y01833737D01*
X02243690Y01833828D01*
X02243776Y01833922D01*
X02243859Y01834019D01*
X02243939Y01834118D01*
X02244017Y01834220D01*
X02244091Y01834324D01*
X02244161Y01834430D01*
X02244229Y01834538D01*
X02244293Y01834648D01*
X02244354Y01834760D01*
X02244412Y01834874D01*
X02244466Y01834989D01*
X02244517Y01835106D01*
X02244564Y01835225D01*
X02244607Y01835345D01*
X02244647Y01835466D01*
X02244683Y01835588D01*
X02244715Y01835712D01*
X02244744Y01835836D01*
X02244769Y01835961D01*
X02244790Y01836087D01*
X02244807Y01836213D01*
X02244821Y01836340D01*
X02244830Y01836467D01*
X02244836Y01836594D01*
X02244838Y01836722D01*
X02244836Y01836849D01*
X02244830Y01836976D01*
X02244821Y01837103D01*
X02244808Y01837230D01*
X02244791Y01837356D01*
X02244770Y01837481D01*
X02244746Y01837606D01*
X02244718Y01837730D01*
X02244686Y01837853D01*
X02244651Y01837975D01*
X02244612Y01838097D01*
X02244569Y01838216D01*
X02244523Y01838335D01*
X02244473Y01838452D01*
X02244420Y01838568D01*
X02244364Y01838682D01*
X02244304Y01838794D01*
X02244241Y01838904D01*
X02244175Y01839013D01*
X02244105Y01839119D01*
X02244032Y01839224D01*
X02243957Y01839326D01*
X02243878Y01839426D01*
X02243796Y01839523D01*
X02243712Y01839619D01*
X02243625Y01839711D01*
X02243534Y01839801D01*
X02243442Y01839888D01*
X02243347Y01839972D01*
X02243249Y01840054D01*
X02243149Y01840133D01*
X02243047Y01840208D01*
X02242942Y01840281D01*
X02242836Y01840350D01*
X02242727Y01840416D01*
X01765718Y01836722D02*
X01755162Y01836722D01*
X01759384Y01851500D01*
X01762551Y01840944D02*
X01762551Y01832500D01*
X01742727Y01840417D02*
X01736921Y01843583D01*
X01739032Y01851500D02*
X01739221Y01851498D01*
X01739409Y01851491D01*
X01739598Y01851480D01*
X01739786Y01851464D01*
X01739973Y01851444D01*
X01740160Y01851419D01*
X01740347Y01851390D01*
X01740533Y01851356D01*
X01740717Y01851319D01*
X01740901Y01851276D01*
X01741084Y01851229D01*
X01741266Y01851178D01*
X01741446Y01851123D01*
X01741625Y01851063D01*
X01741803Y01850999D01*
X01741978Y01850931D01*
X01742153Y01850859D01*
X01742325Y01850783D01*
X01742496Y01850702D01*
X01742665Y01850617D01*
X01742831Y01850529D01*
X01742996Y01850436D01*
X01743158Y01850340D01*
X01743318Y01850240D01*
X01743475Y01850136D01*
X01743630Y01850028D01*
X01743782Y01849917D01*
X01736921Y01843584D02*
X01736812Y01843650D01*
X01736706Y01843719D01*
X01736601Y01843792D01*
X01736499Y01843867D01*
X01736399Y01843946D01*
X01736301Y01844027D01*
X01736206Y01844112D01*
X01736114Y01844199D01*
X01736024Y01844289D01*
X01735936Y01844381D01*
X01735852Y01844476D01*
X01735770Y01844574D01*
X01735691Y01844674D01*
X01735616Y01844776D01*
X01735543Y01844880D01*
X01735473Y01844987D01*
X01735407Y01845096D01*
X01735344Y01845206D01*
X01735284Y01845318D01*
X01735228Y01845432D01*
X01735175Y01845548D01*
X01735125Y01845665D01*
X01735079Y01845784D01*
X01735036Y01845903D01*
X01734997Y01846024D01*
X01734962Y01846147D01*
X01734930Y01846270D01*
X01734902Y01846394D01*
X01734878Y01846519D01*
X01734857Y01846644D01*
X01734840Y01846770D01*
X01734827Y01846897D01*
X01734818Y01847024D01*
X01734812Y01847151D01*
X01734810Y01847278D01*
X01734812Y01847406D01*
X01734818Y01847533D01*
X01734827Y01847660D01*
X01734841Y01847787D01*
X01734858Y01847913D01*
X01734879Y01848039D01*
X01734904Y01848164D01*
X01734933Y01848288D01*
X01734965Y01848412D01*
X01735001Y01848534D01*
X01735041Y01848655D01*
X01735084Y01848775D01*
X01735131Y01848894D01*
X01735182Y01849011D01*
X01735236Y01849126D01*
X01735294Y01849240D01*
X01735355Y01849352D01*
X01735419Y01849462D01*
X01735487Y01849570D01*
X01735557Y01849676D01*
X01735631Y01849780D01*
X01735709Y01849882D01*
X01735789Y01849981D01*
X01735872Y01850078D01*
X01735958Y01850172D01*
X01736047Y01850263D01*
X01736138Y01850352D01*
X01736232Y01850438D01*
X01736329Y01850521D01*
X01736428Y01850602D01*
X01736530Y01850679D01*
X01736634Y01850753D01*
X01736740Y01850824D01*
X01736848Y01850891D01*
X01736958Y01850955D01*
X01737070Y01851016D01*
X01737184Y01851074D01*
X01737299Y01851128D01*
X01737416Y01851179D01*
X01737535Y01851226D01*
X01737655Y01851269D01*
X01737776Y01851309D01*
X01737898Y01851345D01*
X01738022Y01851377D01*
X01738146Y01851406D01*
X01738271Y01851431D01*
X01738397Y01851452D01*
X01738523Y01851469D01*
X01738650Y01851483D01*
X01738777Y01851492D01*
X01738905Y01851498D01*
X01739032Y01851500D01*
X01734283Y01835139D02*
X01734435Y01834989D01*
X01734590Y01834843D01*
X01734749Y01834701D01*
X01734912Y01834562D01*
X01735077Y01834428D01*
X01735246Y01834297D01*
X01735418Y01834171D01*
X01735593Y01834049D01*
X01735771Y01833931D01*
X01735951Y01833817D01*
X01736135Y01833707D01*
X01736320Y01833602D01*
X01736509Y01833502D01*
X01736699Y01833406D01*
X01736892Y01833314D01*
X01737087Y01833228D01*
X01737284Y01833146D01*
X01737483Y01833068D01*
X01737684Y01832996D01*
X01737886Y01832928D01*
X01738090Y01832865D01*
X01738295Y01832807D01*
X01738502Y01832754D01*
X01738710Y01832706D01*
X01738919Y01832663D01*
X01739129Y01832625D01*
X01739340Y01832592D01*
X01739551Y01832564D01*
X01739764Y01832541D01*
X01739976Y01832523D01*
X01740189Y01832510D01*
X01740403Y01832503D01*
X01740616Y01832500D01*
X01740744Y01832502D01*
X01740871Y01832508D01*
X01740998Y01832517D01*
X01741125Y01832531D01*
X01741251Y01832548D01*
X01741377Y01832569D01*
X01741502Y01832594D01*
X01741626Y01832623D01*
X01741750Y01832655D01*
X01741872Y01832691D01*
X01741993Y01832731D01*
X01742113Y01832774D01*
X01742232Y01832821D01*
X01742349Y01832872D01*
X01742464Y01832926D01*
X01742578Y01832984D01*
X01742690Y01833045D01*
X01742800Y01833109D01*
X01742908Y01833177D01*
X01743014Y01833247D01*
X01743118Y01833321D01*
X01743220Y01833399D01*
X01743319Y01833479D01*
X01743416Y01833562D01*
X01743510Y01833648D01*
X01743601Y01833737D01*
X01743690Y01833828D01*
X01743776Y01833922D01*
X01743859Y01834019D01*
X01743939Y01834118D01*
X01744017Y01834220D01*
X01744091Y01834324D01*
X01744161Y01834430D01*
X01744229Y01834538D01*
X01744293Y01834648D01*
X01744354Y01834760D01*
X01744412Y01834874D01*
X01744466Y01834989D01*
X01744517Y01835106D01*
X01744564Y01835225D01*
X01744607Y01835345D01*
X01744647Y01835466D01*
X01744683Y01835588D01*
X01744715Y01835712D01*
X01744744Y01835836D01*
X01744769Y01835961D01*
X01744790Y01836087D01*
X01744807Y01836213D01*
X01744821Y01836340D01*
X01744830Y01836467D01*
X01744836Y01836594D01*
X01744838Y01836722D01*
X01744836Y01836849D01*
X01744830Y01836976D01*
X01744821Y01837103D01*
X01744808Y01837230D01*
X01744791Y01837356D01*
X01744770Y01837481D01*
X01744746Y01837606D01*
X01744718Y01837730D01*
X01744686Y01837853D01*
X01744651Y01837975D01*
X01744612Y01838097D01*
X01744569Y01838216D01*
X01744523Y01838335D01*
X01744473Y01838452D01*
X01744420Y01838568D01*
X01744364Y01838682D01*
X01744304Y01838794D01*
X01744241Y01838904D01*
X01744175Y01839013D01*
X01744105Y01839119D01*
X01744032Y01839224D01*
X01743957Y01839326D01*
X01743878Y01839426D01*
X01743796Y01839523D01*
X01743712Y01839619D01*
X01743625Y01839711D01*
X01743534Y01839801D01*
X01743442Y01839888D01*
X01743347Y01839972D01*
X01743249Y01840054D01*
X01743149Y01840133D01*
X01743047Y01840208D01*
X01742942Y01840281D01*
X01742836Y01840350D01*
X01742727Y01840416D01*
X01261495Y01843055D02*
X01257273Y01843055D01*
X01261495Y01843056D02*
X01261624Y01843058D01*
X01261752Y01843064D01*
X01261881Y01843074D01*
X01262009Y01843087D01*
X01262136Y01843105D01*
X01262263Y01843127D01*
X01262390Y01843152D01*
X01262515Y01843181D01*
X01262639Y01843214D01*
X01262763Y01843251D01*
X01262885Y01843291D01*
X01263006Y01843336D01*
X01263126Y01843384D01*
X01263244Y01843435D01*
X01263360Y01843490D01*
X01263475Y01843549D01*
X01263587Y01843611D01*
X01263698Y01843676D01*
X01263807Y01843745D01*
X01263914Y01843817D01*
X01264018Y01843893D01*
X01264120Y01843971D01*
X01264220Y01844053D01*
X01264317Y01844138D01*
X01264411Y01844225D01*
X01264503Y01844315D01*
X01264592Y01844409D01*
X01264678Y01844504D01*
X01264761Y01844603D01*
X01264841Y01844704D01*
X01264918Y01844807D01*
X01264992Y01844912D01*
X01265063Y01845020D01*
X01265130Y01845130D01*
X01265194Y01845242D01*
X01265254Y01845356D01*
X01265311Y01845471D01*
X01265364Y01845588D01*
X01265414Y01845707D01*
X01265460Y01845827D01*
X01265502Y01845949D01*
X01265541Y01846072D01*
X01265576Y01846196D01*
X01265607Y01846321D01*
X01265634Y01846446D01*
X01265658Y01846573D01*
X01265677Y01846700D01*
X01265693Y01846828D01*
X01265705Y01846956D01*
X01265713Y01847085D01*
X01265717Y01847214D01*
X01265717Y01847342D01*
X01265713Y01847471D01*
X01265705Y01847600D01*
X01265693Y01847728D01*
X01265677Y01847856D01*
X01265658Y01847983D01*
X01265634Y01848110D01*
X01265607Y01848235D01*
X01265576Y01848360D01*
X01265541Y01848484D01*
X01265502Y01848607D01*
X01265460Y01848729D01*
X01265414Y01848849D01*
X01265364Y01848968D01*
X01265311Y01849085D01*
X01265254Y01849200D01*
X01265194Y01849314D01*
X01265130Y01849426D01*
X01265063Y01849536D01*
X01264992Y01849644D01*
X01264918Y01849749D01*
X01264841Y01849852D01*
X01264761Y01849953D01*
X01264678Y01850052D01*
X01264592Y01850147D01*
X01264503Y01850241D01*
X01264411Y01850331D01*
X01264317Y01850418D01*
X01264220Y01850503D01*
X01264120Y01850585D01*
X01264018Y01850663D01*
X01263914Y01850739D01*
X01263807Y01850811D01*
X01263698Y01850880D01*
X01263587Y01850945D01*
X01263475Y01851007D01*
X01263360Y01851066D01*
X01263244Y01851121D01*
X01263126Y01851172D01*
X01263006Y01851220D01*
X01262885Y01851265D01*
X01262763Y01851305D01*
X01262639Y01851342D01*
X01262515Y01851375D01*
X01262390Y01851404D01*
X01262263Y01851429D01*
X01262136Y01851451D01*
X01262009Y01851469D01*
X01261881Y01851482D01*
X01261752Y01851492D01*
X01261624Y01851498D01*
X01261495Y01851500D01*
X01255162Y01851500D01*
X01260440Y01843056D02*
X01260584Y01843054D01*
X01260728Y01843048D01*
X01260872Y01843038D01*
X01261016Y01843025D01*
X01261159Y01843007D01*
X01261301Y01842985D01*
X01261443Y01842960D01*
X01261584Y01842930D01*
X01261725Y01842897D01*
X01261864Y01842860D01*
X01262002Y01842819D01*
X01262139Y01842775D01*
X01262275Y01842727D01*
X01262410Y01842675D01*
X01262543Y01842619D01*
X01262674Y01842560D01*
X01262804Y01842497D01*
X01262932Y01842431D01*
X01263058Y01842361D01*
X01263182Y01842288D01*
X01263305Y01842211D01*
X01263425Y01842131D01*
X01263542Y01842048D01*
X01263658Y01841962D01*
X01263771Y01841872D01*
X01263881Y01841780D01*
X01263989Y01841684D01*
X01264095Y01841586D01*
X01264198Y01841485D01*
X01264297Y01841381D01*
X01264394Y01841274D01*
X01264488Y01841164D01*
X01264579Y01841053D01*
X01264667Y01840938D01*
X01264752Y01840822D01*
X01264833Y01840703D01*
X01264912Y01840582D01*
X01264987Y01840459D01*
X01265058Y01840333D01*
X01265126Y01840206D01*
X01265191Y01840077D01*
X01265252Y01839947D01*
X01265309Y01839814D01*
X01265363Y01839681D01*
X01265413Y01839545D01*
X01265460Y01839409D01*
X01265502Y01839271D01*
X01265541Y01839132D01*
X01265576Y01838993D01*
X01265608Y01838852D01*
X01265635Y01838710D01*
X01265659Y01838568D01*
X01265678Y01838425D01*
X01265694Y01838282D01*
X01265706Y01838138D01*
X01265714Y01837994D01*
X01265718Y01837850D01*
X01265718Y01837706D01*
X01265714Y01837562D01*
X01265706Y01837418D01*
X01265694Y01837274D01*
X01265678Y01837131D01*
X01265659Y01836988D01*
X01265635Y01836846D01*
X01265608Y01836704D01*
X01265576Y01836563D01*
X01265541Y01836424D01*
X01265502Y01836285D01*
X01265460Y01836147D01*
X01265413Y01836011D01*
X01265363Y01835875D01*
X01265309Y01835742D01*
X01265252Y01835609D01*
X01265191Y01835479D01*
X01265126Y01835350D01*
X01265058Y01835223D01*
X01264987Y01835097D01*
X01264912Y01834974D01*
X01264833Y01834853D01*
X01264752Y01834734D01*
X01264667Y01834618D01*
X01264579Y01834503D01*
X01264488Y01834392D01*
X01264394Y01834282D01*
X01264297Y01834175D01*
X01264198Y01834071D01*
X01264095Y01833970D01*
X01263989Y01833872D01*
X01263881Y01833776D01*
X01263771Y01833684D01*
X01263658Y01833594D01*
X01263542Y01833508D01*
X01263425Y01833425D01*
X01263305Y01833345D01*
X01263182Y01833268D01*
X01263058Y01833195D01*
X01262932Y01833125D01*
X01262804Y01833059D01*
X01262674Y01832996D01*
X01262543Y01832937D01*
X01262410Y01832881D01*
X01262275Y01832829D01*
X01262139Y01832781D01*
X01262002Y01832737D01*
X01261864Y01832696D01*
X01261725Y01832659D01*
X01261584Y01832626D01*
X01261443Y01832596D01*
X01261301Y01832571D01*
X01261159Y01832549D01*
X01261016Y01832531D01*
X01260872Y01832518D01*
X01260728Y01832508D01*
X01260584Y01832502D01*
X01260440Y01832500D01*
X01255162Y01832500D01*
X01242727Y01840417D02*
X01236921Y01843583D01*
X01239032Y01851500D02*
X01239221Y01851498D01*
X01239409Y01851491D01*
X01239598Y01851480D01*
X01239786Y01851464D01*
X01239973Y01851444D01*
X01240160Y01851419D01*
X01240347Y01851390D01*
X01240533Y01851356D01*
X01240717Y01851319D01*
X01240901Y01851276D01*
X01241084Y01851229D01*
X01241266Y01851178D01*
X01241446Y01851123D01*
X01241625Y01851063D01*
X01241803Y01850999D01*
X01241978Y01850931D01*
X01242153Y01850859D01*
X01242325Y01850783D01*
X01242496Y01850702D01*
X01242665Y01850617D01*
X01242831Y01850529D01*
X01242996Y01850436D01*
X01243158Y01850340D01*
X01243318Y01850240D01*
X01243475Y01850136D01*
X01243630Y01850028D01*
X01243782Y01849917D01*
X01236921Y01843584D02*
X01236812Y01843650D01*
X01236706Y01843719D01*
X01236601Y01843792D01*
X01236499Y01843867D01*
X01236399Y01843946D01*
X01236301Y01844027D01*
X01236206Y01844112D01*
X01236114Y01844199D01*
X01236024Y01844289D01*
X01235936Y01844381D01*
X01235852Y01844476D01*
X01235770Y01844574D01*
X01235691Y01844674D01*
X01235616Y01844776D01*
X01235543Y01844880D01*
X01235473Y01844987D01*
X01235407Y01845096D01*
X01235344Y01845206D01*
X01235284Y01845318D01*
X01235228Y01845432D01*
X01235175Y01845548D01*
X01235125Y01845665D01*
X01235079Y01845784D01*
X01235036Y01845903D01*
X01234997Y01846024D01*
X01234962Y01846147D01*
X01234930Y01846270D01*
X01234902Y01846394D01*
X01234878Y01846519D01*
X01234857Y01846644D01*
X01234840Y01846770D01*
X01234827Y01846897D01*
X01234818Y01847024D01*
X01234812Y01847151D01*
X01234810Y01847278D01*
X01234812Y01847406D01*
X01234818Y01847533D01*
X01234827Y01847660D01*
X01234841Y01847787D01*
X01234858Y01847913D01*
X01234879Y01848039D01*
X01234904Y01848164D01*
X01234933Y01848288D01*
X01234965Y01848412D01*
X01235001Y01848534D01*
X01235041Y01848655D01*
X01235084Y01848775D01*
X01235131Y01848894D01*
X01235182Y01849011D01*
X01235236Y01849126D01*
X01235294Y01849240D01*
X01235355Y01849352D01*
X01235419Y01849462D01*
X01235487Y01849570D01*
X01235557Y01849676D01*
X01235631Y01849780D01*
X01235709Y01849882D01*
X01235789Y01849981D01*
X01235872Y01850078D01*
X01235958Y01850172D01*
X01236047Y01850263D01*
X01236138Y01850352D01*
X01236232Y01850438D01*
X01236329Y01850521D01*
X01236428Y01850602D01*
X01236530Y01850679D01*
X01236634Y01850753D01*
X01236740Y01850824D01*
X01236848Y01850891D01*
X01236958Y01850955D01*
X01237070Y01851016D01*
X01237184Y01851074D01*
X01237299Y01851128D01*
X01237416Y01851179D01*
X01237535Y01851226D01*
X01237655Y01851269D01*
X01237776Y01851309D01*
X01237898Y01851345D01*
X01238022Y01851377D01*
X01238146Y01851406D01*
X01238271Y01851431D01*
X01238397Y01851452D01*
X01238523Y01851469D01*
X01238650Y01851483D01*
X01238777Y01851492D01*
X01238905Y01851498D01*
X01239032Y01851500D01*
X01234283Y01835139D02*
X01234435Y01834989D01*
X01234590Y01834843D01*
X01234749Y01834701D01*
X01234912Y01834562D01*
X01235077Y01834428D01*
X01235246Y01834297D01*
X01235418Y01834171D01*
X01235593Y01834049D01*
X01235771Y01833931D01*
X01235951Y01833817D01*
X01236135Y01833707D01*
X01236320Y01833602D01*
X01236509Y01833502D01*
X01236699Y01833406D01*
X01236892Y01833314D01*
X01237087Y01833228D01*
X01237284Y01833146D01*
X01237483Y01833068D01*
X01237684Y01832996D01*
X01237886Y01832928D01*
X01238090Y01832865D01*
X01238295Y01832807D01*
X01238502Y01832754D01*
X01238710Y01832706D01*
X01238919Y01832663D01*
X01239129Y01832625D01*
X01239340Y01832592D01*
X01239551Y01832564D01*
X01239764Y01832541D01*
X01239976Y01832523D01*
X01240189Y01832510D01*
X01240403Y01832503D01*
X01240616Y01832500D01*
X01240744Y01832502D01*
X01240871Y01832508D01*
X01240998Y01832517D01*
X01241125Y01832531D01*
X01241251Y01832548D01*
X01241377Y01832569D01*
X01241502Y01832594D01*
X01241626Y01832623D01*
X01241750Y01832655D01*
X01241872Y01832691D01*
X01241993Y01832731D01*
X01242113Y01832774D01*
X01242232Y01832821D01*
X01242349Y01832872D01*
X01242464Y01832926D01*
X01242578Y01832984D01*
X01242690Y01833045D01*
X01242800Y01833109D01*
X01242908Y01833177D01*
X01243014Y01833247D01*
X01243118Y01833321D01*
X01243220Y01833399D01*
X01243319Y01833479D01*
X01243416Y01833562D01*
X01243510Y01833648D01*
X01243601Y01833737D01*
X01243690Y01833828D01*
X01243776Y01833922D01*
X01243859Y01834019D01*
X01243939Y01834118D01*
X01244017Y01834220D01*
X01244091Y01834324D01*
X01244161Y01834430D01*
X01244229Y01834538D01*
X01244293Y01834648D01*
X01244354Y01834760D01*
X01244412Y01834874D01*
X01244466Y01834989D01*
X01244517Y01835106D01*
X01244564Y01835225D01*
X01244607Y01835345D01*
X01244647Y01835466D01*
X01244683Y01835588D01*
X01244715Y01835712D01*
X01244744Y01835836D01*
X01244769Y01835961D01*
X01244790Y01836087D01*
X01244807Y01836213D01*
X01244821Y01836340D01*
X01244830Y01836467D01*
X01244836Y01836594D01*
X01244838Y01836722D01*
X01244836Y01836849D01*
X01244830Y01836976D01*
X01244821Y01837103D01*
X01244808Y01837230D01*
X01244791Y01837356D01*
X01244770Y01837481D01*
X01244746Y01837606D01*
X01244718Y01837730D01*
X01244686Y01837853D01*
X01244651Y01837975D01*
X01244612Y01838097D01*
X01244569Y01838216D01*
X01244523Y01838335D01*
X01244473Y01838452D01*
X01244420Y01838568D01*
X01244364Y01838682D01*
X01244304Y01838794D01*
X01244241Y01838904D01*
X01244175Y01839013D01*
X01244105Y01839119D01*
X01244032Y01839224D01*
X01243957Y01839326D01*
X01243878Y01839426D01*
X01243796Y01839523D01*
X01243712Y01839619D01*
X01243625Y01839711D01*
X01243534Y01839801D01*
X01243442Y01839888D01*
X01243347Y01839972D01*
X01243249Y01840054D01*
X01243149Y01840133D01*
X01243047Y01840208D01*
X01242942Y01840281D01*
X01242836Y01840350D01*
X01242727Y01840416D01*
X00765718Y01832500D02*
X00755162Y01832500D01*
X00764134Y01843055D01*
X00760968Y01851500D02*
X00760815Y01851498D01*
X00760661Y01851492D01*
X00760508Y01851483D01*
X00760355Y01851469D01*
X00760203Y01851452D01*
X00760051Y01851431D01*
X00759899Y01851406D01*
X00759748Y01851377D01*
X00759598Y01851344D01*
X00759449Y01851308D01*
X00759301Y01851268D01*
X00759154Y01851224D01*
X00759008Y01851177D01*
X00758863Y01851126D01*
X00758720Y01851071D01*
X00758578Y01851013D01*
X00758438Y01850951D01*
X00758299Y01850885D01*
X00758162Y01850816D01*
X00758026Y01850744D01*
X00757893Y01850668D01*
X00757761Y01850589D01*
X00757632Y01850507D01*
X00757504Y01850422D01*
X00757379Y01850333D01*
X00757256Y01850241D01*
X00757135Y01850146D01*
X00757017Y01850048D01*
X00756901Y01849947D01*
X00756788Y01849844D01*
X00756678Y01849737D01*
X00756570Y01849628D01*
X00756465Y01849516D01*
X00756363Y01849401D01*
X00756264Y01849284D01*
X00756167Y01849165D01*
X00756074Y01849043D01*
X00755984Y01848919D01*
X00755897Y01848792D01*
X00755813Y01848664D01*
X00755733Y01848533D01*
X00755656Y01848400D01*
X00755582Y01848266D01*
X00755511Y01848129D01*
X00755445Y01847991D01*
X00755381Y01847852D01*
X00755321Y01847710D01*
X00755265Y01847568D01*
X00755212Y01847423D01*
X00755163Y01847278D01*
X00764135Y01843056D02*
X00764236Y01843155D01*
X00764335Y01843258D01*
X00764431Y01843363D01*
X00764525Y01843471D01*
X00764615Y01843581D01*
X00764701Y01843694D01*
X00764785Y01843809D01*
X00764866Y01843927D01*
X00764943Y01844047D01*
X00765017Y01844168D01*
X00765087Y01844292D01*
X00765154Y01844418D01*
X00765217Y01844546D01*
X00765277Y01844675D01*
X00765333Y01844806D01*
X00765386Y01844938D01*
X00765434Y01845072D01*
X00765479Y01845207D01*
X00765520Y01845344D01*
X00765558Y01845481D01*
X00765591Y01845620D01*
X00765621Y01845759D01*
X00765647Y01845899D01*
X00765668Y01846040D01*
X00765686Y01846181D01*
X00765700Y01846323D01*
X00765710Y01846465D01*
X00765716Y01846608D01*
X00765718Y01846750D01*
X00765716Y01846886D01*
X00765710Y01847021D01*
X00765701Y01847156D01*
X00765687Y01847291D01*
X00765670Y01847426D01*
X00765648Y01847560D01*
X00765623Y01847693D01*
X00765595Y01847826D01*
X00765562Y01847958D01*
X00765526Y01848088D01*
X00765486Y01848218D01*
X00765442Y01848346D01*
X00765394Y01848473D01*
X00765343Y01848599D01*
X00765289Y01848723D01*
X00765231Y01848846D01*
X00765169Y01848967D01*
X00765104Y01849086D01*
X00765036Y01849203D01*
X00764964Y01849318D01*
X00764889Y01849431D01*
X00764811Y01849542D01*
X00764730Y01849651D01*
X00764645Y01849757D01*
X00764558Y01849861D01*
X00764468Y01849962D01*
X00764374Y01850060D01*
X00764278Y01850156D01*
X00764180Y01850250D01*
X00764079Y01850340D01*
X00763975Y01850427D01*
X00763869Y01850512D01*
X00763760Y01850593D01*
X00763649Y01850671D01*
X00763536Y01850746D01*
X00763421Y01850818D01*
X00763304Y01850886D01*
X00763185Y01850951D01*
X00763064Y01851013D01*
X00762941Y01851071D01*
X00762817Y01851125D01*
X00762691Y01851176D01*
X00762564Y01851224D01*
X00762436Y01851268D01*
X00762306Y01851308D01*
X00762176Y01851344D01*
X00762044Y01851377D01*
X00761911Y01851405D01*
X00761778Y01851430D01*
X00761644Y01851452D01*
X00761509Y01851469D01*
X00761374Y01851483D01*
X00761239Y01851492D01*
X00761104Y01851498D01*
X00760968Y01851500D01*
X00742727Y01840417D02*
X00736921Y01843583D01*
X00739032Y01851500D02*
X00739221Y01851498D01*
X00739409Y01851491D01*
X00739598Y01851480D01*
X00739786Y01851464D01*
X00739973Y01851444D01*
X00740160Y01851419D01*
X00740347Y01851390D01*
X00740533Y01851356D01*
X00740717Y01851319D01*
X00740901Y01851276D01*
X00741084Y01851229D01*
X00741266Y01851178D01*
X00741446Y01851123D01*
X00741625Y01851063D01*
X00741803Y01850999D01*
X00741978Y01850931D01*
X00742153Y01850859D01*
X00742325Y01850783D01*
X00742496Y01850702D01*
X00742665Y01850617D01*
X00742831Y01850529D01*
X00742996Y01850436D01*
X00743158Y01850340D01*
X00743318Y01850240D01*
X00743475Y01850136D01*
X00743630Y01850028D01*
X00743782Y01849917D01*
X00736921Y01843584D02*
X00736812Y01843650D01*
X00736706Y01843719D01*
X00736601Y01843792D01*
X00736499Y01843867D01*
X00736399Y01843946D01*
X00736301Y01844027D01*
X00736206Y01844112D01*
X00736114Y01844199D01*
X00736024Y01844289D01*
X00735936Y01844381D01*
X00735852Y01844476D01*
X00735770Y01844574D01*
X00735691Y01844674D01*
X00735616Y01844776D01*
X00735543Y01844880D01*
X00735473Y01844987D01*
X00735407Y01845096D01*
X00735344Y01845206D01*
X00735284Y01845318D01*
X00735228Y01845432D01*
X00735175Y01845548D01*
X00735125Y01845665D01*
X00735079Y01845784D01*
X00735036Y01845903D01*
X00734997Y01846024D01*
X00734962Y01846147D01*
X00734930Y01846270D01*
X00734902Y01846394D01*
X00734878Y01846519D01*
X00734857Y01846644D01*
X00734840Y01846770D01*
X00734827Y01846897D01*
X00734818Y01847024D01*
X00734812Y01847151D01*
X00734810Y01847278D01*
X00734812Y01847406D01*
X00734818Y01847533D01*
X00734827Y01847660D01*
X00734841Y01847787D01*
X00734858Y01847913D01*
X00734879Y01848039D01*
X00734904Y01848164D01*
X00734933Y01848288D01*
X00734965Y01848412D01*
X00735001Y01848534D01*
X00735041Y01848655D01*
X00735084Y01848775D01*
X00735131Y01848894D01*
X00735182Y01849011D01*
X00735236Y01849126D01*
X00735294Y01849240D01*
X00735355Y01849352D01*
X00735419Y01849462D01*
X00735487Y01849570D01*
X00735557Y01849676D01*
X00735631Y01849780D01*
X00735709Y01849882D01*
X00735789Y01849981D01*
X00735872Y01850078D01*
X00735958Y01850172D01*
X00736047Y01850263D01*
X00736138Y01850352D01*
X00736232Y01850438D01*
X00736329Y01850521D01*
X00736428Y01850602D01*
X00736530Y01850679D01*
X00736634Y01850753D01*
X00736740Y01850824D01*
X00736848Y01850891D01*
X00736958Y01850955D01*
X00737070Y01851016D01*
X00737184Y01851074D01*
X00737299Y01851128D01*
X00737416Y01851179D01*
X00737535Y01851226D01*
X00737655Y01851269D01*
X00737776Y01851309D01*
X00737898Y01851345D01*
X00738022Y01851377D01*
X00738146Y01851406D01*
X00738271Y01851431D01*
X00738397Y01851452D01*
X00738523Y01851469D01*
X00738650Y01851483D01*
X00738777Y01851492D01*
X00738905Y01851498D01*
X00739032Y01851500D01*
X00734283Y01835139D02*
X00734435Y01834989D01*
X00734590Y01834843D01*
X00734749Y01834701D01*
X00734912Y01834562D01*
X00735077Y01834428D01*
X00735246Y01834297D01*
X00735418Y01834171D01*
X00735593Y01834049D01*
X00735771Y01833931D01*
X00735951Y01833817D01*
X00736135Y01833707D01*
X00736320Y01833602D01*
X00736509Y01833502D01*
X00736699Y01833406D01*
X00736892Y01833314D01*
X00737087Y01833228D01*
X00737284Y01833146D01*
X00737483Y01833068D01*
X00737684Y01832996D01*
X00737886Y01832928D01*
X00738090Y01832865D01*
X00738295Y01832807D01*
X00738502Y01832754D01*
X00738710Y01832706D01*
X00738919Y01832663D01*
X00739129Y01832625D01*
X00739340Y01832592D01*
X00739551Y01832564D01*
X00739764Y01832541D01*
X00739976Y01832523D01*
X00740189Y01832510D01*
X00740403Y01832503D01*
X00740616Y01832500D01*
X00740744Y01832502D01*
X00740871Y01832508D01*
X00740998Y01832517D01*
X00741125Y01832531D01*
X00741251Y01832548D01*
X00741377Y01832569D01*
X00741502Y01832594D01*
X00741626Y01832623D01*
X00741750Y01832655D01*
X00741872Y01832691D01*
X00741993Y01832731D01*
X00742113Y01832774D01*
X00742232Y01832821D01*
X00742349Y01832872D01*
X00742464Y01832926D01*
X00742578Y01832984D01*
X00742690Y01833045D01*
X00742800Y01833109D01*
X00742908Y01833177D01*
X00743014Y01833247D01*
X00743118Y01833321D01*
X00743220Y01833399D01*
X00743319Y01833479D01*
X00743416Y01833562D01*
X00743510Y01833648D01*
X00743601Y01833737D01*
X00743690Y01833828D01*
X00743776Y01833922D01*
X00743859Y01834019D01*
X00743939Y01834118D01*
X00744017Y01834220D01*
X00744091Y01834324D01*
X00744161Y01834430D01*
X00744229Y01834538D01*
X00744293Y01834648D01*
X00744354Y01834760D01*
X00744412Y01834874D01*
X00744466Y01834989D01*
X00744517Y01835106D01*
X00744564Y01835225D01*
X00744607Y01835345D01*
X00744647Y01835466D01*
X00744683Y01835588D01*
X00744715Y01835712D01*
X00744744Y01835836D01*
X00744769Y01835961D01*
X00744790Y01836087D01*
X00744807Y01836213D01*
X00744821Y01836340D01*
X00744830Y01836467D01*
X00744836Y01836594D01*
X00744838Y01836722D01*
X00744836Y01836849D01*
X00744830Y01836976D01*
X00744821Y01837103D01*
X00744808Y01837230D01*
X00744791Y01837356D01*
X00744770Y01837481D01*
X00744746Y01837606D01*
X00744718Y01837730D01*
X00744686Y01837853D01*
X00744651Y01837975D01*
X00744612Y01838097D01*
X00744569Y01838216D01*
X00744523Y01838335D01*
X00744473Y01838452D01*
X00744420Y01838568D01*
X00744364Y01838682D01*
X00744304Y01838794D01*
X00744241Y01838904D01*
X00744175Y01839013D01*
X00744105Y01839119D01*
X00744032Y01839224D01*
X00743957Y01839326D01*
X00743878Y01839426D01*
X00743796Y01839523D01*
X00743712Y01839619D01*
X00743625Y01839711D01*
X00743534Y01839801D01*
X00743442Y01839888D01*
X00743347Y01839972D01*
X00743249Y01840054D01*
X00743149Y01840133D01*
X00743047Y01840208D01*
X00742942Y01840281D01*
X00742836Y01840350D01*
X00742727Y01840416D01*
X00265718Y01832500D02*
X00255162Y01832500D01*
X00260440Y01832500D02*
X00260440Y01851500D01*
X00255162Y01847278D01*
X00242727Y01840417D02*
X00236921Y01843583D01*
X00239032Y01851500D02*
X00239221Y01851498D01*
X00239409Y01851491D01*
X00239598Y01851480D01*
X00239786Y01851464D01*
X00239973Y01851444D01*
X00240160Y01851419D01*
X00240347Y01851390D01*
X00240533Y01851356D01*
X00240717Y01851319D01*
X00240901Y01851276D01*
X00241084Y01851229D01*
X00241266Y01851178D01*
X00241446Y01851123D01*
X00241625Y01851063D01*
X00241803Y01850999D01*
X00241978Y01850931D01*
X00242153Y01850859D01*
X00242325Y01850783D01*
X00242496Y01850702D01*
X00242665Y01850617D01*
X00242831Y01850529D01*
X00242996Y01850436D01*
X00243158Y01850340D01*
X00243318Y01850240D01*
X00243475Y01850136D01*
X00243630Y01850028D01*
X00243782Y01849917D01*
X00236921Y01843584D02*
X00236812Y01843650D01*
X00236706Y01843719D01*
X00236601Y01843792D01*
X00236499Y01843867D01*
X00236399Y01843946D01*
X00236301Y01844027D01*
X00236206Y01844112D01*
X00236114Y01844199D01*
X00236024Y01844289D01*
X00235936Y01844381D01*
X00235852Y01844476D01*
X00235770Y01844574D01*
X00235691Y01844674D01*
X00235616Y01844776D01*
X00235543Y01844880D01*
X00235473Y01844987D01*
X00235407Y01845096D01*
X00235344Y01845206D01*
X00235284Y01845318D01*
X00235228Y01845432D01*
X00235175Y01845548D01*
X00235125Y01845665D01*
X00235079Y01845784D01*
X00235036Y01845903D01*
X00234997Y01846024D01*
X00234962Y01846147D01*
X00234930Y01846270D01*
X00234902Y01846394D01*
X00234878Y01846519D01*
X00234857Y01846644D01*
X00234840Y01846770D01*
X00234827Y01846897D01*
X00234818Y01847024D01*
X00234812Y01847151D01*
X00234810Y01847278D01*
X00234812Y01847406D01*
X00234818Y01847533D01*
X00234827Y01847660D01*
X00234841Y01847787D01*
X00234858Y01847913D01*
X00234879Y01848039D01*
X00234904Y01848164D01*
X00234933Y01848288D01*
X00234965Y01848412D01*
X00235001Y01848534D01*
X00235041Y01848655D01*
X00235084Y01848775D01*
X00235131Y01848894D01*
X00235182Y01849011D01*
X00235236Y01849126D01*
X00235294Y01849240D01*
X00235355Y01849352D01*
X00235419Y01849462D01*
X00235487Y01849570D01*
X00235557Y01849676D01*
X00235631Y01849780D01*
X00235709Y01849882D01*
X00235789Y01849981D01*
X00235872Y01850078D01*
X00235958Y01850172D01*
X00236047Y01850263D01*
X00236138Y01850352D01*
X00236232Y01850438D01*
X00236329Y01850521D01*
X00236428Y01850602D01*
X00236530Y01850679D01*
X00236634Y01850753D01*
X00236740Y01850824D01*
X00236848Y01850891D01*
X00236958Y01850955D01*
X00237070Y01851016D01*
X00237184Y01851074D01*
X00237299Y01851128D01*
X00237416Y01851179D01*
X00237535Y01851226D01*
X00237655Y01851269D01*
X00237776Y01851309D01*
X00237898Y01851345D01*
X00238022Y01851377D01*
X00238146Y01851406D01*
X00238271Y01851431D01*
X00238397Y01851452D01*
X00238523Y01851469D01*
X00238650Y01851483D01*
X00238777Y01851492D01*
X00238905Y01851498D01*
X00239032Y01851500D01*
X00234283Y01835139D02*
X00234435Y01834989D01*
X00234590Y01834843D01*
X00234749Y01834701D01*
X00234912Y01834562D01*
X00235077Y01834428D01*
X00235246Y01834297D01*
X00235418Y01834171D01*
X00235593Y01834049D01*
X00235771Y01833931D01*
X00235951Y01833817D01*
X00236135Y01833707D01*
X00236320Y01833602D01*
X00236509Y01833502D01*
X00236699Y01833406D01*
X00236892Y01833314D01*
X00237087Y01833228D01*
X00237284Y01833146D01*
X00237483Y01833068D01*
X00237684Y01832996D01*
X00237886Y01832928D01*
X00238090Y01832865D01*
X00238295Y01832807D01*
X00238502Y01832754D01*
X00238710Y01832706D01*
X00238919Y01832663D01*
X00239129Y01832625D01*
X00239340Y01832592D01*
X00239551Y01832564D01*
X00239764Y01832541D01*
X00239976Y01832523D01*
X00240189Y01832510D01*
X00240403Y01832503D01*
X00240616Y01832500D01*
X00240744Y01832502D01*
X00240871Y01832508D01*
X00240998Y01832517D01*
X00241125Y01832531D01*
X00241251Y01832548D01*
X00241377Y01832569D01*
X00241502Y01832594D01*
X00241626Y01832623D01*
X00241750Y01832655D01*
X00241872Y01832691D01*
X00241993Y01832731D01*
X00242113Y01832774D01*
X00242232Y01832821D01*
X00242349Y01832872D01*
X00242464Y01832926D01*
X00242578Y01832984D01*
X00242690Y01833045D01*
X00242800Y01833109D01*
X00242908Y01833177D01*
X00243014Y01833247D01*
X00243118Y01833321D01*
X00243220Y01833399D01*
X00243319Y01833479D01*
X00243416Y01833562D01*
X00243510Y01833648D01*
X00243601Y01833737D01*
X00243690Y01833828D01*
X00243776Y01833922D01*
X00243859Y01834019D01*
X00243939Y01834118D01*
X00244017Y01834220D01*
X00244091Y01834324D01*
X00244161Y01834430D01*
X00244229Y01834538D01*
X00244293Y01834648D01*
X00244354Y01834760D01*
X00244412Y01834874D01*
X00244466Y01834989D01*
X00244517Y01835106D01*
X00244564Y01835225D01*
X00244607Y01835345D01*
X00244647Y01835466D01*
X00244683Y01835588D01*
X00244715Y01835712D01*
X00244744Y01835836D01*
X00244769Y01835961D01*
X00244790Y01836087D01*
X00244807Y01836213D01*
X00244821Y01836340D01*
X00244830Y01836467D01*
X00244836Y01836594D01*
X00244838Y01836722D01*
X00244836Y01836849D01*
X00244830Y01836976D01*
X00244821Y01837103D01*
X00244808Y01837230D01*
X00244791Y01837356D01*
X00244770Y01837481D01*
X00244746Y01837606D01*
X00244718Y01837730D01*
X00244686Y01837853D01*
X00244651Y01837975D01*
X00244612Y01838097D01*
X00244569Y01838216D01*
X00244523Y01838335D01*
X00244473Y01838452D01*
X00244420Y01838568D01*
X00244364Y01838682D01*
X00244304Y01838794D01*
X00244241Y01838904D01*
X00244175Y01839013D01*
X00244105Y01839119D01*
X00244032Y01839224D01*
X00243957Y01839326D01*
X00243878Y01839426D01*
X00243796Y01839523D01*
X00243712Y01839619D01*
X00243625Y01839711D01*
X00243534Y01839801D01*
X00243442Y01839888D01*
X00243347Y01839972D01*
X00243249Y01840054D01*
X00243149Y01840133D01*
X00243047Y01840208D01*
X00242942Y01840281D01*
X00242836Y01840350D01*
X00242727Y01840416D01*
D13*
X00165000Y01820000D02*
X00335000Y01820000D01*
X00370000Y01739291D02*
X00370000Y01660000D01*
X00335000Y01580000D02*
X00165000Y01580000D01*
X00130000Y01660000D02*
X00130000Y01740472D01*
X00180000Y01700000D02*
X00180021Y01701718D01*
X00180084Y01703435D01*
X00180190Y01705150D01*
X00180337Y01706861D01*
X00180526Y01708569D01*
X00180758Y01710271D01*
X00181031Y01711967D01*
X00181345Y01713656D01*
X00181701Y01715337D01*
X00182098Y01717009D01*
X00182536Y01718670D01*
X00183014Y01720320D01*
X00183533Y01721958D01*
X00184092Y01723582D01*
X00184691Y01725193D01*
X00185328Y01726788D01*
X00186005Y01728367D01*
X00186721Y01729929D01*
X00187474Y01731473D01*
X00188266Y01732998D01*
X00189094Y01734503D01*
X00189959Y01735987D01*
X00190860Y01737450D01*
X00191797Y01738890D01*
X00192769Y01740307D01*
X00193775Y01741699D01*
X00194816Y01743066D01*
X00195889Y01744408D01*
X00196995Y01745722D01*
X00198133Y01747009D01*
X00199303Y01748268D01*
X00200503Y01749497D01*
X00201732Y01750697D01*
X00202991Y01751867D01*
X00204278Y01753005D01*
X00205592Y01754111D01*
X00206934Y01755184D01*
X00208301Y01756225D01*
X00209693Y01757231D01*
X00211110Y01758203D01*
X00212550Y01759140D01*
X00214013Y01760041D01*
X00215497Y01760906D01*
X00217002Y01761734D01*
X00218527Y01762526D01*
X00220071Y01763279D01*
X00221633Y01763995D01*
X00223212Y01764672D01*
X00224807Y01765309D01*
X00226418Y01765908D01*
X00228042Y01766467D01*
X00229680Y01766986D01*
X00231330Y01767464D01*
X00232991Y01767902D01*
X00234663Y01768299D01*
X00236344Y01768655D01*
X00238033Y01768969D01*
X00239729Y01769242D01*
X00241431Y01769474D01*
X00243139Y01769663D01*
X00244850Y01769810D01*
X00246565Y01769916D01*
X00248282Y01769979D01*
X00250000Y01770000D01*
X00251718Y01769979D01*
X00253435Y01769916D01*
X00255150Y01769810D01*
X00256861Y01769663D01*
X00258569Y01769474D01*
X00260271Y01769242D01*
X00261967Y01768969D01*
X00263656Y01768655D01*
X00265337Y01768299D01*
X00267009Y01767902D01*
X00268670Y01767464D01*
X00270320Y01766986D01*
X00271958Y01766467D01*
X00273582Y01765908D01*
X00275193Y01765309D01*
X00276788Y01764672D01*
X00278367Y01763995D01*
X00279929Y01763279D01*
X00281473Y01762526D01*
X00282998Y01761734D01*
X00284503Y01760906D01*
X00285987Y01760041D01*
X00287450Y01759140D01*
X00288890Y01758203D01*
X00290307Y01757231D01*
X00291699Y01756225D01*
X00293066Y01755184D01*
X00294408Y01754111D01*
X00295722Y01753005D01*
X00297009Y01751867D01*
X00298268Y01750697D01*
X00299497Y01749497D01*
X00300697Y01748268D01*
X00301867Y01747009D01*
X00303005Y01745722D01*
X00304111Y01744408D01*
X00305184Y01743066D01*
X00306225Y01741699D01*
X00307231Y01740307D01*
X00308203Y01738890D01*
X00309140Y01737450D01*
X00310041Y01735987D01*
X00310906Y01734503D01*
X00311734Y01732998D01*
X00312526Y01731473D01*
X00313279Y01729929D01*
X00313995Y01728367D01*
X00314672Y01726788D01*
X00315309Y01725193D01*
X00315908Y01723582D01*
X00316467Y01721958D01*
X00316986Y01720320D01*
X00317464Y01718670D01*
X00317902Y01717009D01*
X00318299Y01715337D01*
X00318655Y01713656D01*
X00318969Y01711967D01*
X00319242Y01710271D01*
X00319474Y01708569D01*
X00319663Y01706861D01*
X00319810Y01705150D01*
X00319916Y01703435D01*
X00319979Y01701718D01*
X00320000Y01700000D01*
X00319979Y01698282D01*
X00319916Y01696565D01*
X00319810Y01694850D01*
X00319663Y01693139D01*
X00319474Y01691431D01*
X00319242Y01689729D01*
X00318969Y01688033D01*
X00318655Y01686344D01*
X00318299Y01684663D01*
X00317902Y01682991D01*
X00317464Y01681330D01*
X00316986Y01679680D01*
X00316467Y01678042D01*
X00315908Y01676418D01*
X00315309Y01674807D01*
X00314672Y01673212D01*
X00313995Y01671633D01*
X00313279Y01670071D01*
X00312526Y01668527D01*
X00311734Y01667002D01*
X00310906Y01665497D01*
X00310041Y01664013D01*
X00309140Y01662550D01*
X00308203Y01661110D01*
X00307231Y01659693D01*
X00306225Y01658301D01*
X00305184Y01656934D01*
X00304111Y01655592D01*
X00303005Y01654278D01*
X00301867Y01652991D01*
X00300697Y01651732D01*
X00299497Y01650503D01*
X00298268Y01649303D01*
X00297009Y01648133D01*
X00295722Y01646995D01*
X00294408Y01645889D01*
X00293066Y01644816D01*
X00291699Y01643775D01*
X00290307Y01642769D01*
X00288890Y01641797D01*
X00287450Y01640860D01*
X00285987Y01639959D01*
X00284503Y01639094D01*
X00282998Y01638266D01*
X00281473Y01637474D01*
X00279929Y01636721D01*
X00278367Y01636005D01*
X00276788Y01635328D01*
X00275193Y01634691D01*
X00273582Y01634092D01*
X00271958Y01633533D01*
X00270320Y01633014D01*
X00268670Y01632536D01*
X00267009Y01632098D01*
X00265337Y01631701D01*
X00263656Y01631345D01*
X00261967Y01631031D01*
X00260271Y01630758D01*
X00258569Y01630526D01*
X00256861Y01630337D01*
X00255150Y01630190D01*
X00253435Y01630084D01*
X00251718Y01630021D01*
X00250000Y01630000D01*
X00248282Y01630021D01*
X00246565Y01630084D01*
X00244850Y01630190D01*
X00243139Y01630337D01*
X00241431Y01630526D01*
X00239729Y01630758D01*
X00238033Y01631031D01*
X00236344Y01631345D01*
X00234663Y01631701D01*
X00232991Y01632098D01*
X00231330Y01632536D01*
X00229680Y01633014D01*
X00228042Y01633533D01*
X00226418Y01634092D01*
X00224807Y01634691D01*
X00223212Y01635328D01*
X00221633Y01636005D01*
X00220071Y01636721D01*
X00218527Y01637474D01*
X00217002Y01638266D01*
X00215497Y01639094D01*
X00214013Y01639959D01*
X00212550Y01640860D01*
X00211110Y01641797D01*
X00209693Y01642769D01*
X00208301Y01643775D01*
X00206934Y01644816D01*
X00205592Y01645889D01*
X00204278Y01646995D01*
X00202991Y01648133D01*
X00201732Y01649303D01*
X00200503Y01650503D01*
X00199303Y01651732D01*
X00198133Y01652991D01*
X00196995Y01654278D01*
X00195889Y01655592D01*
X00194816Y01656934D01*
X00193775Y01658301D01*
X00192769Y01659693D01*
X00191797Y01661110D01*
X00190860Y01662550D01*
X00189959Y01664013D01*
X00189094Y01665497D01*
X00188266Y01667002D01*
X00187474Y01668527D01*
X00186721Y01670071D01*
X00186005Y01671633D01*
X00185328Y01673212D01*
X00184691Y01674807D01*
X00184092Y01676418D01*
X00183533Y01678042D01*
X00183014Y01679680D01*
X00182536Y01681330D01*
X00182098Y01682991D01*
X00181701Y01684663D01*
X00181345Y01686344D01*
X00181031Y01688033D01*
X00180758Y01689729D01*
X00180526Y01691431D01*
X00180337Y01693139D01*
X00180190Y01694850D01*
X00180084Y01696565D01*
X00180021Y01698282D01*
X00180000Y01700000D01*
X00630000Y01660000D02*
X00630000Y01740472D01*
X00665000Y01820000D02*
X00835000Y01820000D01*
X00870000Y01739291D02*
X00870000Y01660000D01*
X00835000Y01580000D02*
X00665000Y01580000D01*
X00680000Y01700000D02*
X00680021Y01701718D01*
X00680084Y01703435D01*
X00680190Y01705150D01*
X00680337Y01706861D01*
X00680526Y01708569D01*
X00680758Y01710271D01*
X00681031Y01711967D01*
X00681345Y01713656D01*
X00681701Y01715337D01*
X00682098Y01717009D01*
X00682536Y01718670D01*
X00683014Y01720320D01*
X00683533Y01721958D01*
X00684092Y01723582D01*
X00684691Y01725193D01*
X00685328Y01726788D01*
X00686005Y01728367D01*
X00686721Y01729929D01*
X00687474Y01731473D01*
X00688266Y01732998D01*
X00689094Y01734503D01*
X00689959Y01735987D01*
X00690860Y01737450D01*
X00691797Y01738890D01*
X00692769Y01740307D01*
X00693775Y01741699D01*
X00694816Y01743066D01*
X00695889Y01744408D01*
X00696995Y01745722D01*
X00698133Y01747009D01*
X00699303Y01748268D01*
X00700503Y01749497D01*
X00701732Y01750697D01*
X00702991Y01751867D01*
X00704278Y01753005D01*
X00705592Y01754111D01*
X00706934Y01755184D01*
X00708301Y01756225D01*
X00709693Y01757231D01*
X00711110Y01758203D01*
X00712550Y01759140D01*
X00714013Y01760041D01*
X00715497Y01760906D01*
X00717002Y01761734D01*
X00718527Y01762526D01*
X00720071Y01763279D01*
X00721633Y01763995D01*
X00723212Y01764672D01*
X00724807Y01765309D01*
X00726418Y01765908D01*
X00728042Y01766467D01*
X00729680Y01766986D01*
X00731330Y01767464D01*
X00732991Y01767902D01*
X00734663Y01768299D01*
X00736344Y01768655D01*
X00738033Y01768969D01*
X00739729Y01769242D01*
X00741431Y01769474D01*
X00743139Y01769663D01*
X00744850Y01769810D01*
X00746565Y01769916D01*
X00748282Y01769979D01*
X00750000Y01770000D01*
X00751718Y01769979D01*
X00753435Y01769916D01*
X00755150Y01769810D01*
X00756861Y01769663D01*
X00758569Y01769474D01*
X00760271Y01769242D01*
X00761967Y01768969D01*
X00763656Y01768655D01*
X00765337Y01768299D01*
X00767009Y01767902D01*
X00768670Y01767464D01*
X00770320Y01766986D01*
X00771958Y01766467D01*
X00773582Y01765908D01*
X00775193Y01765309D01*
X00776788Y01764672D01*
X00778367Y01763995D01*
X00779929Y01763279D01*
X00781473Y01762526D01*
X00782998Y01761734D01*
X00784503Y01760906D01*
X00785987Y01760041D01*
X00787450Y01759140D01*
X00788890Y01758203D01*
X00790307Y01757231D01*
X00791699Y01756225D01*
X00793066Y01755184D01*
X00794408Y01754111D01*
X00795722Y01753005D01*
X00797009Y01751867D01*
X00798268Y01750697D01*
X00799497Y01749497D01*
X00800697Y01748268D01*
X00801867Y01747009D01*
X00803005Y01745722D01*
X00804111Y01744408D01*
X00805184Y01743066D01*
X00806225Y01741699D01*
X00807231Y01740307D01*
X00808203Y01738890D01*
X00809140Y01737450D01*
X00810041Y01735987D01*
X00810906Y01734503D01*
X00811734Y01732998D01*
X00812526Y01731473D01*
X00813279Y01729929D01*
X00813995Y01728367D01*
X00814672Y01726788D01*
X00815309Y01725193D01*
X00815908Y01723582D01*
X00816467Y01721958D01*
X00816986Y01720320D01*
X00817464Y01718670D01*
X00817902Y01717009D01*
X00818299Y01715337D01*
X00818655Y01713656D01*
X00818969Y01711967D01*
X00819242Y01710271D01*
X00819474Y01708569D01*
X00819663Y01706861D01*
X00819810Y01705150D01*
X00819916Y01703435D01*
X00819979Y01701718D01*
X00820000Y01700000D01*
X00819979Y01698282D01*
X00819916Y01696565D01*
X00819810Y01694850D01*
X00819663Y01693139D01*
X00819474Y01691431D01*
X00819242Y01689729D01*
X00818969Y01688033D01*
X00818655Y01686344D01*
X00818299Y01684663D01*
X00817902Y01682991D01*
X00817464Y01681330D01*
X00816986Y01679680D01*
X00816467Y01678042D01*
X00815908Y01676418D01*
X00815309Y01674807D01*
X00814672Y01673212D01*
X00813995Y01671633D01*
X00813279Y01670071D01*
X00812526Y01668527D01*
X00811734Y01667002D01*
X00810906Y01665497D01*
X00810041Y01664013D01*
X00809140Y01662550D01*
X00808203Y01661110D01*
X00807231Y01659693D01*
X00806225Y01658301D01*
X00805184Y01656934D01*
X00804111Y01655592D01*
X00803005Y01654278D01*
X00801867Y01652991D01*
X00800697Y01651732D01*
X00799497Y01650503D01*
X00798268Y01649303D01*
X00797009Y01648133D01*
X00795722Y01646995D01*
X00794408Y01645889D01*
X00793066Y01644816D01*
X00791699Y01643775D01*
X00790307Y01642769D01*
X00788890Y01641797D01*
X00787450Y01640860D01*
X00785987Y01639959D01*
X00784503Y01639094D01*
X00782998Y01638266D01*
X00781473Y01637474D01*
X00779929Y01636721D01*
X00778367Y01636005D01*
X00776788Y01635328D01*
X00775193Y01634691D01*
X00773582Y01634092D01*
X00771958Y01633533D01*
X00770320Y01633014D01*
X00768670Y01632536D01*
X00767009Y01632098D01*
X00765337Y01631701D01*
X00763656Y01631345D01*
X00761967Y01631031D01*
X00760271Y01630758D01*
X00758569Y01630526D01*
X00756861Y01630337D01*
X00755150Y01630190D01*
X00753435Y01630084D01*
X00751718Y01630021D01*
X00750000Y01630000D01*
X00748282Y01630021D01*
X00746565Y01630084D01*
X00744850Y01630190D01*
X00743139Y01630337D01*
X00741431Y01630526D01*
X00739729Y01630758D01*
X00738033Y01631031D01*
X00736344Y01631345D01*
X00734663Y01631701D01*
X00732991Y01632098D01*
X00731330Y01632536D01*
X00729680Y01633014D01*
X00728042Y01633533D01*
X00726418Y01634092D01*
X00724807Y01634691D01*
X00723212Y01635328D01*
X00721633Y01636005D01*
X00720071Y01636721D01*
X00718527Y01637474D01*
X00717002Y01638266D01*
X00715497Y01639094D01*
X00714013Y01639959D01*
X00712550Y01640860D01*
X00711110Y01641797D01*
X00709693Y01642769D01*
X00708301Y01643775D01*
X00706934Y01644816D01*
X00705592Y01645889D01*
X00704278Y01646995D01*
X00702991Y01648133D01*
X00701732Y01649303D01*
X00700503Y01650503D01*
X00699303Y01651732D01*
X00698133Y01652991D01*
X00696995Y01654278D01*
X00695889Y01655592D01*
X00694816Y01656934D01*
X00693775Y01658301D01*
X00692769Y01659693D01*
X00691797Y01661110D01*
X00690860Y01662550D01*
X00689959Y01664013D01*
X00689094Y01665497D01*
X00688266Y01667002D01*
X00687474Y01668527D01*
X00686721Y01670071D01*
X00686005Y01671633D01*
X00685328Y01673212D01*
X00684691Y01674807D01*
X00684092Y01676418D01*
X00683533Y01678042D01*
X00683014Y01679680D01*
X00682536Y01681330D01*
X00682098Y01682991D01*
X00681701Y01684663D01*
X00681345Y01686344D01*
X00681031Y01688033D01*
X00680758Y01689729D01*
X00680526Y01691431D01*
X00680337Y01693139D01*
X00680190Y01694850D01*
X00680084Y01696565D01*
X00680021Y01698282D01*
X00680000Y01700000D01*
X01130000Y01660000D02*
X01130000Y01740472D01*
X01165000Y01820000D02*
X01335000Y01820000D01*
X01370000Y01739291D02*
X01370000Y01660000D01*
X01335000Y01580000D02*
X01165000Y01580000D01*
X01180000Y01700000D02*
X01180021Y01701718D01*
X01180084Y01703435D01*
X01180190Y01705150D01*
X01180337Y01706861D01*
X01180526Y01708569D01*
X01180758Y01710271D01*
X01181031Y01711967D01*
X01181345Y01713656D01*
X01181701Y01715337D01*
X01182098Y01717009D01*
X01182536Y01718670D01*
X01183014Y01720320D01*
X01183533Y01721958D01*
X01184092Y01723582D01*
X01184691Y01725193D01*
X01185328Y01726788D01*
X01186005Y01728367D01*
X01186721Y01729929D01*
X01187474Y01731473D01*
X01188266Y01732998D01*
X01189094Y01734503D01*
X01189959Y01735987D01*
X01190860Y01737450D01*
X01191797Y01738890D01*
X01192769Y01740307D01*
X01193775Y01741699D01*
X01194816Y01743066D01*
X01195889Y01744408D01*
X01196995Y01745722D01*
X01198133Y01747009D01*
X01199303Y01748268D01*
X01200503Y01749497D01*
X01201732Y01750697D01*
X01202991Y01751867D01*
X01204278Y01753005D01*
X01205592Y01754111D01*
X01206934Y01755184D01*
X01208301Y01756225D01*
X01209693Y01757231D01*
X01211110Y01758203D01*
X01212550Y01759140D01*
X01214013Y01760041D01*
X01215497Y01760906D01*
X01217002Y01761734D01*
X01218527Y01762526D01*
X01220071Y01763279D01*
X01221633Y01763995D01*
X01223212Y01764672D01*
X01224807Y01765309D01*
X01226418Y01765908D01*
X01228042Y01766467D01*
X01229680Y01766986D01*
X01231330Y01767464D01*
X01232991Y01767902D01*
X01234663Y01768299D01*
X01236344Y01768655D01*
X01238033Y01768969D01*
X01239729Y01769242D01*
X01241431Y01769474D01*
X01243139Y01769663D01*
X01244850Y01769810D01*
X01246565Y01769916D01*
X01248282Y01769979D01*
X01250000Y01770000D01*
X01251718Y01769979D01*
X01253435Y01769916D01*
X01255150Y01769810D01*
X01256861Y01769663D01*
X01258569Y01769474D01*
X01260271Y01769242D01*
X01261967Y01768969D01*
X01263656Y01768655D01*
X01265337Y01768299D01*
X01267009Y01767902D01*
X01268670Y01767464D01*
X01270320Y01766986D01*
X01271958Y01766467D01*
X01273582Y01765908D01*
X01275193Y01765309D01*
X01276788Y01764672D01*
X01278367Y01763995D01*
X01279929Y01763279D01*
X01281473Y01762526D01*
X01282998Y01761734D01*
X01284503Y01760906D01*
X01285987Y01760041D01*
X01287450Y01759140D01*
X01288890Y01758203D01*
X01290307Y01757231D01*
X01291699Y01756225D01*
X01293066Y01755184D01*
X01294408Y01754111D01*
X01295722Y01753005D01*
X01297009Y01751867D01*
X01298268Y01750697D01*
X01299497Y01749497D01*
X01300697Y01748268D01*
X01301867Y01747009D01*
X01303005Y01745722D01*
X01304111Y01744408D01*
X01305184Y01743066D01*
X01306225Y01741699D01*
X01307231Y01740307D01*
X01308203Y01738890D01*
X01309140Y01737450D01*
X01310041Y01735987D01*
X01310906Y01734503D01*
X01311734Y01732998D01*
X01312526Y01731473D01*
X01313279Y01729929D01*
X01313995Y01728367D01*
X01314672Y01726788D01*
X01315309Y01725193D01*
X01315908Y01723582D01*
X01316467Y01721958D01*
X01316986Y01720320D01*
X01317464Y01718670D01*
X01317902Y01717009D01*
X01318299Y01715337D01*
X01318655Y01713656D01*
X01318969Y01711967D01*
X01319242Y01710271D01*
X01319474Y01708569D01*
X01319663Y01706861D01*
X01319810Y01705150D01*
X01319916Y01703435D01*
X01319979Y01701718D01*
X01320000Y01700000D01*
X01319979Y01698282D01*
X01319916Y01696565D01*
X01319810Y01694850D01*
X01319663Y01693139D01*
X01319474Y01691431D01*
X01319242Y01689729D01*
X01318969Y01688033D01*
X01318655Y01686344D01*
X01318299Y01684663D01*
X01317902Y01682991D01*
X01317464Y01681330D01*
X01316986Y01679680D01*
X01316467Y01678042D01*
X01315908Y01676418D01*
X01315309Y01674807D01*
X01314672Y01673212D01*
X01313995Y01671633D01*
X01313279Y01670071D01*
X01312526Y01668527D01*
X01311734Y01667002D01*
X01310906Y01665497D01*
X01310041Y01664013D01*
X01309140Y01662550D01*
X01308203Y01661110D01*
X01307231Y01659693D01*
X01306225Y01658301D01*
X01305184Y01656934D01*
X01304111Y01655592D01*
X01303005Y01654278D01*
X01301867Y01652991D01*
X01300697Y01651732D01*
X01299497Y01650503D01*
X01298268Y01649303D01*
X01297009Y01648133D01*
X01295722Y01646995D01*
X01294408Y01645889D01*
X01293066Y01644816D01*
X01291699Y01643775D01*
X01290307Y01642769D01*
X01288890Y01641797D01*
X01287450Y01640860D01*
X01285987Y01639959D01*
X01284503Y01639094D01*
X01282998Y01638266D01*
X01281473Y01637474D01*
X01279929Y01636721D01*
X01278367Y01636005D01*
X01276788Y01635328D01*
X01275193Y01634691D01*
X01273582Y01634092D01*
X01271958Y01633533D01*
X01270320Y01633014D01*
X01268670Y01632536D01*
X01267009Y01632098D01*
X01265337Y01631701D01*
X01263656Y01631345D01*
X01261967Y01631031D01*
X01260271Y01630758D01*
X01258569Y01630526D01*
X01256861Y01630337D01*
X01255150Y01630190D01*
X01253435Y01630084D01*
X01251718Y01630021D01*
X01250000Y01630000D01*
X01248282Y01630021D01*
X01246565Y01630084D01*
X01244850Y01630190D01*
X01243139Y01630337D01*
X01241431Y01630526D01*
X01239729Y01630758D01*
X01238033Y01631031D01*
X01236344Y01631345D01*
X01234663Y01631701D01*
X01232991Y01632098D01*
X01231330Y01632536D01*
X01229680Y01633014D01*
X01228042Y01633533D01*
X01226418Y01634092D01*
X01224807Y01634691D01*
X01223212Y01635328D01*
X01221633Y01636005D01*
X01220071Y01636721D01*
X01218527Y01637474D01*
X01217002Y01638266D01*
X01215497Y01639094D01*
X01214013Y01639959D01*
X01212550Y01640860D01*
X01211110Y01641797D01*
X01209693Y01642769D01*
X01208301Y01643775D01*
X01206934Y01644816D01*
X01205592Y01645889D01*
X01204278Y01646995D01*
X01202991Y01648133D01*
X01201732Y01649303D01*
X01200503Y01650503D01*
X01199303Y01651732D01*
X01198133Y01652991D01*
X01196995Y01654278D01*
X01195889Y01655592D01*
X01194816Y01656934D01*
X01193775Y01658301D01*
X01192769Y01659693D01*
X01191797Y01661110D01*
X01190860Y01662550D01*
X01189959Y01664013D01*
X01189094Y01665497D01*
X01188266Y01667002D01*
X01187474Y01668527D01*
X01186721Y01670071D01*
X01186005Y01671633D01*
X01185328Y01673212D01*
X01184691Y01674807D01*
X01184092Y01676418D01*
X01183533Y01678042D01*
X01183014Y01679680D01*
X01182536Y01681330D01*
X01182098Y01682991D01*
X01181701Y01684663D01*
X01181345Y01686344D01*
X01181031Y01688033D01*
X01180758Y01689729D01*
X01180526Y01691431D01*
X01180337Y01693139D01*
X01180190Y01694850D01*
X01180084Y01696565D01*
X01180021Y01698282D01*
X01180000Y01700000D01*
X01630000Y01660000D02*
X01630000Y01740472D01*
X01665000Y01820000D02*
X01835000Y01820000D01*
X01870000Y01739291D02*
X01870000Y01660000D01*
X01835000Y01580000D02*
X01665000Y01580000D01*
X01680000Y01700000D02*
X01680021Y01701718D01*
X01680084Y01703435D01*
X01680190Y01705150D01*
X01680337Y01706861D01*
X01680526Y01708569D01*
X01680758Y01710271D01*
X01681031Y01711967D01*
X01681345Y01713656D01*
X01681701Y01715337D01*
X01682098Y01717009D01*
X01682536Y01718670D01*
X01683014Y01720320D01*
X01683533Y01721958D01*
X01684092Y01723582D01*
X01684691Y01725193D01*
X01685328Y01726788D01*
X01686005Y01728367D01*
X01686721Y01729929D01*
X01687474Y01731473D01*
X01688266Y01732998D01*
X01689094Y01734503D01*
X01689959Y01735987D01*
X01690860Y01737450D01*
X01691797Y01738890D01*
X01692769Y01740307D01*
X01693775Y01741699D01*
X01694816Y01743066D01*
X01695889Y01744408D01*
X01696995Y01745722D01*
X01698133Y01747009D01*
X01699303Y01748268D01*
X01700503Y01749497D01*
X01701732Y01750697D01*
X01702991Y01751867D01*
X01704278Y01753005D01*
X01705592Y01754111D01*
X01706934Y01755184D01*
X01708301Y01756225D01*
X01709693Y01757231D01*
X01711110Y01758203D01*
X01712550Y01759140D01*
X01714013Y01760041D01*
X01715497Y01760906D01*
X01717002Y01761734D01*
X01718527Y01762526D01*
X01720071Y01763279D01*
X01721633Y01763995D01*
X01723212Y01764672D01*
X01724807Y01765309D01*
X01726418Y01765908D01*
X01728042Y01766467D01*
X01729680Y01766986D01*
X01731330Y01767464D01*
X01732991Y01767902D01*
X01734663Y01768299D01*
X01736344Y01768655D01*
X01738033Y01768969D01*
X01739729Y01769242D01*
X01741431Y01769474D01*
X01743139Y01769663D01*
X01744850Y01769810D01*
X01746565Y01769916D01*
X01748282Y01769979D01*
X01750000Y01770000D01*
X01751718Y01769979D01*
X01753435Y01769916D01*
X01755150Y01769810D01*
X01756861Y01769663D01*
X01758569Y01769474D01*
X01760271Y01769242D01*
X01761967Y01768969D01*
X01763656Y01768655D01*
X01765337Y01768299D01*
X01767009Y01767902D01*
X01768670Y01767464D01*
X01770320Y01766986D01*
X01771958Y01766467D01*
X01773582Y01765908D01*
X01775193Y01765309D01*
X01776788Y01764672D01*
X01778367Y01763995D01*
X01779929Y01763279D01*
X01781473Y01762526D01*
X01782998Y01761734D01*
X01784503Y01760906D01*
X01785987Y01760041D01*
X01787450Y01759140D01*
X01788890Y01758203D01*
X01790307Y01757231D01*
X01791699Y01756225D01*
X01793066Y01755184D01*
X01794408Y01754111D01*
X01795722Y01753005D01*
X01797009Y01751867D01*
X01798268Y01750697D01*
X01799497Y01749497D01*
X01800697Y01748268D01*
X01801867Y01747009D01*
X01803005Y01745722D01*
X01804111Y01744408D01*
X01805184Y01743066D01*
X01806225Y01741699D01*
X01807231Y01740307D01*
X01808203Y01738890D01*
X01809140Y01737450D01*
X01810041Y01735987D01*
X01810906Y01734503D01*
X01811734Y01732998D01*
X01812526Y01731473D01*
X01813279Y01729929D01*
X01813995Y01728367D01*
X01814672Y01726788D01*
X01815309Y01725193D01*
X01815908Y01723582D01*
X01816467Y01721958D01*
X01816986Y01720320D01*
X01817464Y01718670D01*
X01817902Y01717009D01*
X01818299Y01715337D01*
X01818655Y01713656D01*
X01818969Y01711967D01*
X01819242Y01710271D01*
X01819474Y01708569D01*
X01819663Y01706861D01*
X01819810Y01705150D01*
X01819916Y01703435D01*
X01819979Y01701718D01*
X01820000Y01700000D01*
X01819979Y01698282D01*
X01819916Y01696565D01*
X01819810Y01694850D01*
X01819663Y01693139D01*
X01819474Y01691431D01*
X01819242Y01689729D01*
X01818969Y01688033D01*
X01818655Y01686344D01*
X01818299Y01684663D01*
X01817902Y01682991D01*
X01817464Y01681330D01*
X01816986Y01679680D01*
X01816467Y01678042D01*
X01815908Y01676418D01*
X01815309Y01674807D01*
X01814672Y01673212D01*
X01813995Y01671633D01*
X01813279Y01670071D01*
X01812526Y01668527D01*
X01811734Y01667002D01*
X01810906Y01665497D01*
X01810041Y01664013D01*
X01809140Y01662550D01*
X01808203Y01661110D01*
X01807231Y01659693D01*
X01806225Y01658301D01*
X01805184Y01656934D01*
X01804111Y01655592D01*
X01803005Y01654278D01*
X01801867Y01652991D01*
X01800697Y01651732D01*
X01799497Y01650503D01*
X01798268Y01649303D01*
X01797009Y01648133D01*
X01795722Y01646995D01*
X01794408Y01645889D01*
X01793066Y01644816D01*
X01791699Y01643775D01*
X01790307Y01642769D01*
X01788890Y01641797D01*
X01787450Y01640860D01*
X01785987Y01639959D01*
X01784503Y01639094D01*
X01782998Y01638266D01*
X01781473Y01637474D01*
X01779929Y01636721D01*
X01778367Y01636005D01*
X01776788Y01635328D01*
X01775193Y01634691D01*
X01773582Y01634092D01*
X01771958Y01633533D01*
X01770320Y01633014D01*
X01768670Y01632536D01*
X01767009Y01632098D01*
X01765337Y01631701D01*
X01763656Y01631345D01*
X01761967Y01631031D01*
X01760271Y01630758D01*
X01758569Y01630526D01*
X01756861Y01630337D01*
X01755150Y01630190D01*
X01753435Y01630084D01*
X01751718Y01630021D01*
X01750000Y01630000D01*
X01748282Y01630021D01*
X01746565Y01630084D01*
X01744850Y01630190D01*
X01743139Y01630337D01*
X01741431Y01630526D01*
X01739729Y01630758D01*
X01738033Y01631031D01*
X01736344Y01631345D01*
X01734663Y01631701D01*
X01732991Y01632098D01*
X01731330Y01632536D01*
X01729680Y01633014D01*
X01728042Y01633533D01*
X01726418Y01634092D01*
X01724807Y01634691D01*
X01723212Y01635328D01*
X01721633Y01636005D01*
X01720071Y01636721D01*
X01718527Y01637474D01*
X01717002Y01638266D01*
X01715497Y01639094D01*
X01714013Y01639959D01*
X01712550Y01640860D01*
X01711110Y01641797D01*
X01709693Y01642769D01*
X01708301Y01643775D01*
X01706934Y01644816D01*
X01705592Y01645889D01*
X01704278Y01646995D01*
X01702991Y01648133D01*
X01701732Y01649303D01*
X01700503Y01650503D01*
X01699303Y01651732D01*
X01698133Y01652991D01*
X01696995Y01654278D01*
X01695889Y01655592D01*
X01694816Y01656934D01*
X01693775Y01658301D01*
X01692769Y01659693D01*
X01691797Y01661110D01*
X01690860Y01662550D01*
X01689959Y01664013D01*
X01689094Y01665497D01*
X01688266Y01667002D01*
X01687474Y01668527D01*
X01686721Y01670071D01*
X01686005Y01671633D01*
X01685328Y01673212D01*
X01684691Y01674807D01*
X01684092Y01676418D01*
X01683533Y01678042D01*
X01683014Y01679680D01*
X01682536Y01681330D01*
X01682098Y01682991D01*
X01681701Y01684663D01*
X01681345Y01686344D01*
X01681031Y01688033D01*
X01680758Y01689729D01*
X01680526Y01691431D01*
X01680337Y01693139D01*
X01680190Y01694850D01*
X01680084Y01696565D01*
X01680021Y01698282D01*
X01680000Y01700000D01*
X02130000Y01660000D02*
X02130000Y01740472D01*
X02165000Y01820000D02*
X02335000Y01820000D01*
X02370000Y01739291D02*
X02370000Y01660000D01*
X02335000Y01580000D02*
X02165000Y01580000D01*
X02180000Y01700000D02*
X02180021Y01701718D01*
X02180084Y01703435D01*
X02180190Y01705150D01*
X02180337Y01706861D01*
X02180526Y01708569D01*
X02180758Y01710271D01*
X02181031Y01711967D01*
X02181345Y01713656D01*
X02181701Y01715337D01*
X02182098Y01717009D01*
X02182536Y01718670D01*
X02183014Y01720320D01*
X02183533Y01721958D01*
X02184092Y01723582D01*
X02184691Y01725193D01*
X02185328Y01726788D01*
X02186005Y01728367D01*
X02186721Y01729929D01*
X02187474Y01731473D01*
X02188266Y01732998D01*
X02189094Y01734503D01*
X02189959Y01735987D01*
X02190860Y01737450D01*
X02191797Y01738890D01*
X02192769Y01740307D01*
X02193775Y01741699D01*
X02194816Y01743066D01*
X02195889Y01744408D01*
X02196995Y01745722D01*
X02198133Y01747009D01*
X02199303Y01748268D01*
X02200503Y01749497D01*
X02201732Y01750697D01*
X02202991Y01751867D01*
X02204278Y01753005D01*
X02205592Y01754111D01*
X02206934Y01755184D01*
X02208301Y01756225D01*
X02209693Y01757231D01*
X02211110Y01758203D01*
X02212550Y01759140D01*
X02214013Y01760041D01*
X02215497Y01760906D01*
X02217002Y01761734D01*
X02218527Y01762526D01*
X02220071Y01763279D01*
X02221633Y01763995D01*
X02223212Y01764672D01*
X02224807Y01765309D01*
X02226418Y01765908D01*
X02228042Y01766467D01*
X02229680Y01766986D01*
X02231330Y01767464D01*
X02232991Y01767902D01*
X02234663Y01768299D01*
X02236344Y01768655D01*
X02238033Y01768969D01*
X02239729Y01769242D01*
X02241431Y01769474D01*
X02243139Y01769663D01*
X02244850Y01769810D01*
X02246565Y01769916D01*
X02248282Y01769979D01*
X02250000Y01770000D01*
X02251718Y01769979D01*
X02253435Y01769916D01*
X02255150Y01769810D01*
X02256861Y01769663D01*
X02258569Y01769474D01*
X02260271Y01769242D01*
X02261967Y01768969D01*
X02263656Y01768655D01*
X02265337Y01768299D01*
X02267009Y01767902D01*
X02268670Y01767464D01*
X02270320Y01766986D01*
X02271958Y01766467D01*
X02273582Y01765908D01*
X02275193Y01765309D01*
X02276788Y01764672D01*
X02278367Y01763995D01*
X02279929Y01763279D01*
X02281473Y01762526D01*
X02282998Y01761734D01*
X02284503Y01760906D01*
X02285987Y01760041D01*
X02287450Y01759140D01*
X02288890Y01758203D01*
X02290307Y01757231D01*
X02291699Y01756225D01*
X02293066Y01755184D01*
X02294408Y01754111D01*
X02295722Y01753005D01*
X02297009Y01751867D01*
X02298268Y01750697D01*
X02299497Y01749497D01*
X02300697Y01748268D01*
X02301867Y01747009D01*
X02303005Y01745722D01*
X02304111Y01744408D01*
X02305184Y01743066D01*
X02306225Y01741699D01*
X02307231Y01740307D01*
X02308203Y01738890D01*
X02309140Y01737450D01*
X02310041Y01735987D01*
X02310906Y01734503D01*
X02311734Y01732998D01*
X02312526Y01731473D01*
X02313279Y01729929D01*
X02313995Y01728367D01*
X02314672Y01726788D01*
X02315309Y01725193D01*
X02315908Y01723582D01*
X02316467Y01721958D01*
X02316986Y01720320D01*
X02317464Y01718670D01*
X02317902Y01717009D01*
X02318299Y01715337D01*
X02318655Y01713656D01*
X02318969Y01711967D01*
X02319242Y01710271D01*
X02319474Y01708569D01*
X02319663Y01706861D01*
X02319810Y01705150D01*
X02319916Y01703435D01*
X02319979Y01701718D01*
X02320000Y01700000D01*
X02319979Y01698282D01*
X02319916Y01696565D01*
X02319810Y01694850D01*
X02319663Y01693139D01*
X02319474Y01691431D01*
X02319242Y01689729D01*
X02318969Y01688033D01*
X02318655Y01686344D01*
X02318299Y01684663D01*
X02317902Y01682991D01*
X02317464Y01681330D01*
X02316986Y01679680D01*
X02316467Y01678042D01*
X02315908Y01676418D01*
X02315309Y01674807D01*
X02314672Y01673212D01*
X02313995Y01671633D01*
X02313279Y01670071D01*
X02312526Y01668527D01*
X02311734Y01667002D01*
X02310906Y01665497D01*
X02310041Y01664013D01*
X02309140Y01662550D01*
X02308203Y01661110D01*
X02307231Y01659693D01*
X02306225Y01658301D01*
X02305184Y01656934D01*
X02304111Y01655592D01*
X02303005Y01654278D01*
X02301867Y01652991D01*
X02300697Y01651732D01*
X02299497Y01650503D01*
X02298268Y01649303D01*
X02297009Y01648133D01*
X02295722Y01646995D01*
X02294408Y01645889D01*
X02293066Y01644816D01*
X02291699Y01643775D01*
X02290307Y01642769D01*
X02288890Y01641797D01*
X02287450Y01640860D01*
X02285987Y01639959D01*
X02284503Y01639094D01*
X02282998Y01638266D01*
X02281473Y01637474D01*
X02279929Y01636721D01*
X02278367Y01636005D01*
X02276788Y01635328D01*
X02275193Y01634691D01*
X02273582Y01634092D01*
X02271958Y01633533D01*
X02270320Y01633014D01*
X02268670Y01632536D01*
X02267009Y01632098D01*
X02265337Y01631701D01*
X02263656Y01631345D01*
X02261967Y01631031D01*
X02260271Y01630758D01*
X02258569Y01630526D01*
X02256861Y01630337D01*
X02255150Y01630190D01*
X02253435Y01630084D01*
X02251718Y01630021D01*
X02250000Y01630000D01*
X02248282Y01630021D01*
X02246565Y01630084D01*
X02244850Y01630190D01*
X02243139Y01630337D01*
X02241431Y01630526D01*
X02239729Y01630758D01*
X02238033Y01631031D01*
X02236344Y01631345D01*
X02234663Y01631701D01*
X02232991Y01632098D01*
X02231330Y01632536D01*
X02229680Y01633014D01*
X02228042Y01633533D01*
X02226418Y01634092D01*
X02224807Y01634691D01*
X02223212Y01635328D01*
X02221633Y01636005D01*
X02220071Y01636721D01*
X02218527Y01637474D01*
X02217002Y01638266D01*
X02215497Y01639094D01*
X02214013Y01639959D01*
X02212550Y01640860D01*
X02211110Y01641797D01*
X02209693Y01642769D01*
X02208301Y01643775D01*
X02206934Y01644816D01*
X02205592Y01645889D01*
X02204278Y01646995D01*
X02202991Y01648133D01*
X02201732Y01649303D01*
X02200503Y01650503D01*
X02199303Y01651732D01*
X02198133Y01652991D01*
X02196995Y01654278D01*
X02195889Y01655592D01*
X02194816Y01656934D01*
X02193775Y01658301D01*
X02192769Y01659693D01*
X02191797Y01661110D01*
X02190860Y01662550D01*
X02189959Y01664013D01*
X02189094Y01665497D01*
X02188266Y01667002D01*
X02187474Y01668527D01*
X02186721Y01670071D01*
X02186005Y01671633D01*
X02185328Y01673212D01*
X02184691Y01674807D01*
X02184092Y01676418D01*
X02183533Y01678042D01*
X02183014Y01679680D01*
X02182536Y01681330D01*
X02182098Y01682991D01*
X02181701Y01684663D01*
X02181345Y01686344D01*
X02181031Y01688033D01*
X02180758Y01689729D01*
X02180526Y01691431D01*
X02180337Y01693139D01*
X02180190Y01694850D01*
X02180084Y01696565D01*
X02180021Y01698282D01*
X02180000Y01700000D01*
X02630000Y01660000D02*
X02630000Y01740472D01*
X02665000Y01820000D02*
X02835000Y01820000D01*
X02870000Y01739291D02*
X02870000Y01660000D01*
X02835000Y01580000D02*
X02665000Y01580000D01*
X02680000Y01700000D02*
X02680021Y01701718D01*
X02680084Y01703435D01*
X02680190Y01705150D01*
X02680337Y01706861D01*
X02680526Y01708569D01*
X02680758Y01710271D01*
X02681031Y01711967D01*
X02681345Y01713656D01*
X02681701Y01715337D01*
X02682098Y01717009D01*
X02682536Y01718670D01*
X02683014Y01720320D01*
X02683533Y01721958D01*
X02684092Y01723582D01*
X02684691Y01725193D01*
X02685328Y01726788D01*
X02686005Y01728367D01*
X02686721Y01729929D01*
X02687474Y01731473D01*
X02688266Y01732998D01*
X02689094Y01734503D01*
X02689959Y01735987D01*
X02690860Y01737450D01*
X02691797Y01738890D01*
X02692769Y01740307D01*
X02693775Y01741699D01*
X02694816Y01743066D01*
X02695889Y01744408D01*
X02696995Y01745722D01*
X02698133Y01747009D01*
X02699303Y01748268D01*
X02700503Y01749497D01*
X02701732Y01750697D01*
X02702991Y01751867D01*
X02704278Y01753005D01*
X02705592Y01754111D01*
X02706934Y01755184D01*
X02708301Y01756225D01*
X02709693Y01757231D01*
X02711110Y01758203D01*
X02712550Y01759140D01*
X02714013Y01760041D01*
X02715497Y01760906D01*
X02717002Y01761734D01*
X02718527Y01762526D01*
X02720071Y01763279D01*
X02721633Y01763995D01*
X02723212Y01764672D01*
X02724807Y01765309D01*
X02726418Y01765908D01*
X02728042Y01766467D01*
X02729680Y01766986D01*
X02731330Y01767464D01*
X02732991Y01767902D01*
X02734663Y01768299D01*
X02736344Y01768655D01*
X02738033Y01768969D01*
X02739729Y01769242D01*
X02741431Y01769474D01*
X02743139Y01769663D01*
X02744850Y01769810D01*
X02746565Y01769916D01*
X02748282Y01769979D01*
X02750000Y01770000D01*
X02751718Y01769979D01*
X02753435Y01769916D01*
X02755150Y01769810D01*
X02756861Y01769663D01*
X02758569Y01769474D01*
X02760271Y01769242D01*
X02761967Y01768969D01*
X02763656Y01768655D01*
X02765337Y01768299D01*
X02767009Y01767902D01*
X02768670Y01767464D01*
X02770320Y01766986D01*
X02771958Y01766467D01*
X02773582Y01765908D01*
X02775193Y01765309D01*
X02776788Y01764672D01*
X02778367Y01763995D01*
X02779929Y01763279D01*
X02781473Y01762526D01*
X02782998Y01761734D01*
X02784503Y01760906D01*
X02785987Y01760041D01*
X02787450Y01759140D01*
X02788890Y01758203D01*
X02790307Y01757231D01*
X02791699Y01756225D01*
X02793066Y01755184D01*
X02794408Y01754111D01*
X02795722Y01753005D01*
X02797009Y01751867D01*
X02798268Y01750697D01*
X02799497Y01749497D01*
X02800697Y01748268D01*
X02801867Y01747009D01*
X02803005Y01745722D01*
X02804111Y01744408D01*
X02805184Y01743066D01*
X02806225Y01741699D01*
X02807231Y01740307D01*
X02808203Y01738890D01*
X02809140Y01737450D01*
X02810041Y01735987D01*
X02810906Y01734503D01*
X02811734Y01732998D01*
X02812526Y01731473D01*
X02813279Y01729929D01*
X02813995Y01728367D01*
X02814672Y01726788D01*
X02815309Y01725193D01*
X02815908Y01723582D01*
X02816467Y01721958D01*
X02816986Y01720320D01*
X02817464Y01718670D01*
X02817902Y01717009D01*
X02818299Y01715337D01*
X02818655Y01713656D01*
X02818969Y01711967D01*
X02819242Y01710271D01*
X02819474Y01708569D01*
X02819663Y01706861D01*
X02819810Y01705150D01*
X02819916Y01703435D01*
X02819979Y01701718D01*
X02820000Y01700000D01*
X02819979Y01698282D01*
X02819916Y01696565D01*
X02819810Y01694850D01*
X02819663Y01693139D01*
X02819474Y01691431D01*
X02819242Y01689729D01*
X02818969Y01688033D01*
X02818655Y01686344D01*
X02818299Y01684663D01*
X02817902Y01682991D01*
X02817464Y01681330D01*
X02816986Y01679680D01*
X02816467Y01678042D01*
X02815908Y01676418D01*
X02815309Y01674807D01*
X02814672Y01673212D01*
X02813995Y01671633D01*
X02813279Y01670071D01*
X02812526Y01668527D01*
X02811734Y01667002D01*
X02810906Y01665497D01*
X02810041Y01664013D01*
X02809140Y01662550D01*
X02808203Y01661110D01*
X02807231Y01659693D01*
X02806225Y01658301D01*
X02805184Y01656934D01*
X02804111Y01655592D01*
X02803005Y01654278D01*
X02801867Y01652991D01*
X02800697Y01651732D01*
X02799497Y01650503D01*
X02798268Y01649303D01*
X02797009Y01648133D01*
X02795722Y01646995D01*
X02794408Y01645889D01*
X02793066Y01644816D01*
X02791699Y01643775D01*
X02790307Y01642769D01*
X02788890Y01641797D01*
X02787450Y01640860D01*
X02785987Y01639959D01*
X02784503Y01639094D01*
X02782998Y01638266D01*
X02781473Y01637474D01*
X02779929Y01636721D01*
X02778367Y01636005D01*
X02776788Y01635328D01*
X02775193Y01634691D01*
X02773582Y01634092D01*
X02771958Y01633533D01*
X02770320Y01633014D01*
X02768670Y01632536D01*
X02767009Y01632098D01*
X02765337Y01631701D01*
X02763656Y01631345D01*
X02761967Y01631031D01*
X02760271Y01630758D01*
X02758569Y01630526D01*
X02756861Y01630337D01*
X02755150Y01630190D01*
X02753435Y01630084D01*
X02751718Y01630021D01*
X02750000Y01630000D01*
X02748282Y01630021D01*
X02746565Y01630084D01*
X02744850Y01630190D01*
X02743139Y01630337D01*
X02741431Y01630526D01*
X02739729Y01630758D01*
X02738033Y01631031D01*
X02736344Y01631345D01*
X02734663Y01631701D01*
X02732991Y01632098D01*
X02731330Y01632536D01*
X02729680Y01633014D01*
X02728042Y01633533D01*
X02726418Y01634092D01*
X02724807Y01634691D01*
X02723212Y01635328D01*
X02721633Y01636005D01*
X02720071Y01636721D01*
X02718527Y01637474D01*
X02717002Y01638266D01*
X02715497Y01639094D01*
X02714013Y01639959D01*
X02712550Y01640860D01*
X02711110Y01641797D01*
X02709693Y01642769D01*
X02708301Y01643775D01*
X02706934Y01644816D01*
X02705592Y01645889D01*
X02704278Y01646995D01*
X02702991Y01648133D01*
X02701732Y01649303D01*
X02700503Y01650503D01*
X02699303Y01651732D01*
X02698133Y01652991D01*
X02696995Y01654278D01*
X02695889Y01655592D01*
X02694816Y01656934D01*
X02693775Y01658301D01*
X02692769Y01659693D01*
X02691797Y01661110D01*
X02690860Y01662550D01*
X02689959Y01664013D01*
X02689094Y01665497D01*
X02688266Y01667002D01*
X02687474Y01668527D01*
X02686721Y01670071D01*
X02686005Y01671633D01*
X02685328Y01673212D01*
X02684691Y01674807D01*
X02684092Y01676418D01*
X02683533Y01678042D01*
X02683014Y01679680D01*
X02682536Y01681330D01*
X02682098Y01682991D01*
X02681701Y01684663D01*
X02681345Y01686344D01*
X02681031Y01688033D01*
X02680758Y01689729D01*
X02680526Y01691431D01*
X02680337Y01693139D01*
X02680190Y01694850D01*
X02680084Y01696565D01*
X02680021Y01698282D01*
X02680000Y01700000D01*
X03130000Y01660000D02*
X03130000Y01740472D01*
X03165000Y01820000D02*
X03335000Y01820000D01*
X03370000Y01739291D02*
X03370000Y01660000D01*
X03335000Y01580000D02*
X03165000Y01580000D01*
X03180000Y01700000D02*
X03180021Y01701718D01*
X03180084Y01703435D01*
X03180190Y01705150D01*
X03180337Y01706861D01*
X03180526Y01708569D01*
X03180758Y01710271D01*
X03181031Y01711967D01*
X03181345Y01713656D01*
X03181701Y01715337D01*
X03182098Y01717009D01*
X03182536Y01718670D01*
X03183014Y01720320D01*
X03183533Y01721958D01*
X03184092Y01723582D01*
X03184691Y01725193D01*
X03185328Y01726788D01*
X03186005Y01728367D01*
X03186721Y01729929D01*
X03187474Y01731473D01*
X03188266Y01732998D01*
X03189094Y01734503D01*
X03189959Y01735987D01*
X03190860Y01737450D01*
X03191797Y01738890D01*
X03192769Y01740307D01*
X03193775Y01741699D01*
X03194816Y01743066D01*
X03195889Y01744408D01*
X03196995Y01745722D01*
X03198133Y01747009D01*
X03199303Y01748268D01*
X03200503Y01749497D01*
X03201732Y01750697D01*
X03202991Y01751867D01*
X03204278Y01753005D01*
X03205592Y01754111D01*
X03206934Y01755184D01*
X03208301Y01756225D01*
X03209693Y01757231D01*
X03211110Y01758203D01*
X03212550Y01759140D01*
X03214013Y01760041D01*
X03215497Y01760906D01*
X03217002Y01761734D01*
X03218527Y01762526D01*
X03220071Y01763279D01*
X03221633Y01763995D01*
X03223212Y01764672D01*
X03224807Y01765309D01*
X03226418Y01765908D01*
X03228042Y01766467D01*
X03229680Y01766986D01*
X03231330Y01767464D01*
X03232991Y01767902D01*
X03234663Y01768299D01*
X03236344Y01768655D01*
X03238033Y01768969D01*
X03239729Y01769242D01*
X03241431Y01769474D01*
X03243139Y01769663D01*
X03244850Y01769810D01*
X03246565Y01769916D01*
X03248282Y01769979D01*
X03250000Y01770000D01*
X03251718Y01769979D01*
X03253435Y01769916D01*
X03255150Y01769810D01*
X03256861Y01769663D01*
X03258569Y01769474D01*
X03260271Y01769242D01*
X03261967Y01768969D01*
X03263656Y01768655D01*
X03265337Y01768299D01*
X03267009Y01767902D01*
X03268670Y01767464D01*
X03270320Y01766986D01*
X03271958Y01766467D01*
X03273582Y01765908D01*
X03275193Y01765309D01*
X03276788Y01764672D01*
X03278367Y01763995D01*
X03279929Y01763279D01*
X03281473Y01762526D01*
X03282998Y01761734D01*
X03284503Y01760906D01*
X03285987Y01760041D01*
X03287450Y01759140D01*
X03288890Y01758203D01*
X03290307Y01757231D01*
X03291699Y01756225D01*
X03293066Y01755184D01*
X03294408Y01754111D01*
X03295722Y01753005D01*
X03297009Y01751867D01*
X03298268Y01750697D01*
X03299497Y01749497D01*
X03300697Y01748268D01*
X03301867Y01747009D01*
X03303005Y01745722D01*
X03304111Y01744408D01*
X03305184Y01743066D01*
X03306225Y01741699D01*
X03307231Y01740307D01*
X03308203Y01738890D01*
X03309140Y01737450D01*
X03310041Y01735987D01*
X03310906Y01734503D01*
X03311734Y01732998D01*
X03312526Y01731473D01*
X03313279Y01729929D01*
X03313995Y01728367D01*
X03314672Y01726788D01*
X03315309Y01725193D01*
X03315908Y01723582D01*
X03316467Y01721958D01*
X03316986Y01720320D01*
X03317464Y01718670D01*
X03317902Y01717009D01*
X03318299Y01715337D01*
X03318655Y01713656D01*
X03318969Y01711967D01*
X03319242Y01710271D01*
X03319474Y01708569D01*
X03319663Y01706861D01*
X03319810Y01705150D01*
X03319916Y01703435D01*
X03319979Y01701718D01*
X03320000Y01700000D01*
X03319979Y01698282D01*
X03319916Y01696565D01*
X03319810Y01694850D01*
X03319663Y01693139D01*
X03319474Y01691431D01*
X03319242Y01689729D01*
X03318969Y01688033D01*
X03318655Y01686344D01*
X03318299Y01684663D01*
X03317902Y01682991D01*
X03317464Y01681330D01*
X03316986Y01679680D01*
X03316467Y01678042D01*
X03315908Y01676418D01*
X03315309Y01674807D01*
X03314672Y01673212D01*
X03313995Y01671633D01*
X03313279Y01670071D01*
X03312526Y01668527D01*
X03311734Y01667002D01*
X03310906Y01665497D01*
X03310041Y01664013D01*
X03309140Y01662550D01*
X03308203Y01661110D01*
X03307231Y01659693D01*
X03306225Y01658301D01*
X03305184Y01656934D01*
X03304111Y01655592D01*
X03303005Y01654278D01*
X03301867Y01652991D01*
X03300697Y01651732D01*
X03299497Y01650503D01*
X03298268Y01649303D01*
X03297009Y01648133D01*
X03295722Y01646995D01*
X03294408Y01645889D01*
X03293066Y01644816D01*
X03291699Y01643775D01*
X03290307Y01642769D01*
X03288890Y01641797D01*
X03287450Y01640860D01*
X03285987Y01639959D01*
X03284503Y01639094D01*
X03282998Y01638266D01*
X03281473Y01637474D01*
X03279929Y01636721D01*
X03278367Y01636005D01*
X03276788Y01635328D01*
X03275193Y01634691D01*
X03273582Y01634092D01*
X03271958Y01633533D01*
X03270320Y01633014D01*
X03268670Y01632536D01*
X03267009Y01632098D01*
X03265337Y01631701D01*
X03263656Y01631345D01*
X03261967Y01631031D01*
X03260271Y01630758D01*
X03258569Y01630526D01*
X03256861Y01630337D01*
X03255150Y01630190D01*
X03253435Y01630084D01*
X03251718Y01630021D01*
X03250000Y01630000D01*
X03248282Y01630021D01*
X03246565Y01630084D01*
X03244850Y01630190D01*
X03243139Y01630337D01*
X03241431Y01630526D01*
X03239729Y01630758D01*
X03238033Y01631031D01*
X03236344Y01631345D01*
X03234663Y01631701D01*
X03232991Y01632098D01*
X03231330Y01632536D01*
X03229680Y01633014D01*
X03228042Y01633533D01*
X03226418Y01634092D01*
X03224807Y01634691D01*
X03223212Y01635328D01*
X03221633Y01636005D01*
X03220071Y01636721D01*
X03218527Y01637474D01*
X03217002Y01638266D01*
X03215497Y01639094D01*
X03214013Y01639959D01*
X03212550Y01640860D01*
X03211110Y01641797D01*
X03209693Y01642769D01*
X03208301Y01643775D01*
X03206934Y01644816D01*
X03205592Y01645889D01*
X03204278Y01646995D01*
X03202991Y01648133D01*
X03201732Y01649303D01*
X03200503Y01650503D01*
X03199303Y01651732D01*
X03198133Y01652991D01*
X03196995Y01654278D01*
X03195889Y01655592D01*
X03194816Y01656934D01*
X03193775Y01658301D01*
X03192769Y01659693D01*
X03191797Y01661110D01*
X03190860Y01662550D01*
X03189959Y01664013D01*
X03189094Y01665497D01*
X03188266Y01667002D01*
X03187474Y01668527D01*
X03186721Y01670071D01*
X03186005Y01671633D01*
X03185328Y01673212D01*
X03184691Y01674807D01*
X03184092Y01676418D01*
X03183533Y01678042D01*
X03183014Y01679680D01*
X03182536Y01681330D01*
X03182098Y01682991D01*
X03181701Y01684663D01*
X03181345Y01686344D01*
X03181031Y01688033D01*
X03180758Y01689729D01*
X03180526Y01691431D01*
X03180337Y01693139D01*
X03180190Y01694850D01*
X03180084Y01696565D01*
X03180021Y01698282D01*
X03180000Y01700000D01*
X03630000Y01660000D02*
X03630000Y01740472D01*
X03665000Y01820000D02*
X03835000Y01820000D01*
X03870000Y01739291D02*
X03870000Y01660000D01*
X03835000Y01580000D02*
X03665000Y01580000D01*
X03680000Y01700000D02*
X03680021Y01701718D01*
X03680084Y01703435D01*
X03680190Y01705150D01*
X03680337Y01706861D01*
X03680526Y01708569D01*
X03680758Y01710271D01*
X03681031Y01711967D01*
X03681345Y01713656D01*
X03681701Y01715337D01*
X03682098Y01717009D01*
X03682536Y01718670D01*
X03683014Y01720320D01*
X03683533Y01721958D01*
X03684092Y01723582D01*
X03684691Y01725193D01*
X03685328Y01726788D01*
X03686005Y01728367D01*
X03686721Y01729929D01*
X03687474Y01731473D01*
X03688266Y01732998D01*
X03689094Y01734503D01*
X03689959Y01735987D01*
X03690860Y01737450D01*
X03691797Y01738890D01*
X03692769Y01740307D01*
X03693775Y01741699D01*
X03694816Y01743066D01*
X03695889Y01744408D01*
X03696995Y01745722D01*
X03698133Y01747009D01*
X03699303Y01748268D01*
X03700503Y01749497D01*
X03701732Y01750697D01*
X03702991Y01751867D01*
X03704278Y01753005D01*
X03705592Y01754111D01*
X03706934Y01755184D01*
X03708301Y01756225D01*
X03709693Y01757231D01*
X03711110Y01758203D01*
X03712550Y01759140D01*
X03714013Y01760041D01*
X03715497Y01760906D01*
X03717002Y01761734D01*
X03718527Y01762526D01*
X03720071Y01763279D01*
X03721633Y01763995D01*
X03723212Y01764672D01*
X03724807Y01765309D01*
X03726418Y01765908D01*
X03728042Y01766467D01*
X03729680Y01766986D01*
X03731330Y01767464D01*
X03732991Y01767902D01*
X03734663Y01768299D01*
X03736344Y01768655D01*
X03738033Y01768969D01*
X03739729Y01769242D01*
X03741431Y01769474D01*
X03743139Y01769663D01*
X03744850Y01769810D01*
X03746565Y01769916D01*
X03748282Y01769979D01*
X03750000Y01770000D01*
X03751718Y01769979D01*
X03753435Y01769916D01*
X03755150Y01769810D01*
X03756861Y01769663D01*
X03758569Y01769474D01*
X03760271Y01769242D01*
X03761967Y01768969D01*
X03763656Y01768655D01*
X03765337Y01768299D01*
X03767009Y01767902D01*
X03768670Y01767464D01*
X03770320Y01766986D01*
X03771958Y01766467D01*
X03773582Y01765908D01*
X03775193Y01765309D01*
X03776788Y01764672D01*
X03778367Y01763995D01*
X03779929Y01763279D01*
X03781473Y01762526D01*
X03782998Y01761734D01*
X03784503Y01760906D01*
X03785987Y01760041D01*
X03787450Y01759140D01*
X03788890Y01758203D01*
X03790307Y01757231D01*
X03791699Y01756225D01*
X03793066Y01755184D01*
X03794408Y01754111D01*
X03795722Y01753005D01*
X03797009Y01751867D01*
X03798268Y01750697D01*
X03799497Y01749497D01*
X03800697Y01748268D01*
X03801867Y01747009D01*
X03803005Y01745722D01*
X03804111Y01744408D01*
X03805184Y01743066D01*
X03806225Y01741699D01*
X03807231Y01740307D01*
X03808203Y01738890D01*
X03809140Y01737450D01*
X03810041Y01735987D01*
X03810906Y01734503D01*
X03811734Y01732998D01*
X03812526Y01731473D01*
X03813279Y01729929D01*
X03813995Y01728367D01*
X03814672Y01726788D01*
X03815309Y01725193D01*
X03815908Y01723582D01*
X03816467Y01721958D01*
X03816986Y01720320D01*
X03817464Y01718670D01*
X03817902Y01717009D01*
X03818299Y01715337D01*
X03818655Y01713656D01*
X03818969Y01711967D01*
X03819242Y01710271D01*
X03819474Y01708569D01*
X03819663Y01706861D01*
X03819810Y01705150D01*
X03819916Y01703435D01*
X03819979Y01701718D01*
X03820000Y01700000D01*
X03819979Y01698282D01*
X03819916Y01696565D01*
X03819810Y01694850D01*
X03819663Y01693139D01*
X03819474Y01691431D01*
X03819242Y01689729D01*
X03818969Y01688033D01*
X03818655Y01686344D01*
X03818299Y01684663D01*
X03817902Y01682991D01*
X03817464Y01681330D01*
X03816986Y01679680D01*
X03816467Y01678042D01*
X03815908Y01676418D01*
X03815309Y01674807D01*
X03814672Y01673212D01*
X03813995Y01671633D01*
X03813279Y01670071D01*
X03812526Y01668527D01*
X03811734Y01667002D01*
X03810906Y01665497D01*
X03810041Y01664013D01*
X03809140Y01662550D01*
X03808203Y01661110D01*
X03807231Y01659693D01*
X03806225Y01658301D01*
X03805184Y01656934D01*
X03804111Y01655592D01*
X03803005Y01654278D01*
X03801867Y01652991D01*
X03800697Y01651732D01*
X03799497Y01650503D01*
X03798268Y01649303D01*
X03797009Y01648133D01*
X03795722Y01646995D01*
X03794408Y01645889D01*
X03793066Y01644816D01*
X03791699Y01643775D01*
X03790307Y01642769D01*
X03788890Y01641797D01*
X03787450Y01640860D01*
X03785987Y01639959D01*
X03784503Y01639094D01*
X03782998Y01638266D01*
X03781473Y01637474D01*
X03779929Y01636721D01*
X03778367Y01636005D01*
X03776788Y01635328D01*
X03775193Y01634691D01*
X03773582Y01634092D01*
X03771958Y01633533D01*
X03770320Y01633014D01*
X03768670Y01632536D01*
X03767009Y01632098D01*
X03765337Y01631701D01*
X03763656Y01631345D01*
X03761967Y01631031D01*
X03760271Y01630758D01*
X03758569Y01630526D01*
X03756861Y01630337D01*
X03755150Y01630190D01*
X03753435Y01630084D01*
X03751718Y01630021D01*
X03750000Y01630000D01*
X03748282Y01630021D01*
X03746565Y01630084D01*
X03744850Y01630190D01*
X03743139Y01630337D01*
X03741431Y01630526D01*
X03739729Y01630758D01*
X03738033Y01631031D01*
X03736344Y01631345D01*
X03734663Y01631701D01*
X03732991Y01632098D01*
X03731330Y01632536D01*
X03729680Y01633014D01*
X03728042Y01633533D01*
X03726418Y01634092D01*
X03724807Y01634691D01*
X03723212Y01635328D01*
X03721633Y01636005D01*
X03720071Y01636721D01*
X03718527Y01637474D01*
X03717002Y01638266D01*
X03715497Y01639094D01*
X03714013Y01639959D01*
X03712550Y01640860D01*
X03711110Y01641797D01*
X03709693Y01642769D01*
X03708301Y01643775D01*
X03706934Y01644816D01*
X03705592Y01645889D01*
X03704278Y01646995D01*
X03702991Y01648133D01*
X03701732Y01649303D01*
X03700503Y01650503D01*
X03699303Y01651732D01*
X03698133Y01652991D01*
X03696995Y01654278D01*
X03695889Y01655592D01*
X03694816Y01656934D01*
X03693775Y01658301D01*
X03692769Y01659693D01*
X03691797Y01661110D01*
X03690860Y01662550D01*
X03689959Y01664013D01*
X03689094Y01665497D01*
X03688266Y01667002D01*
X03687474Y01668527D01*
X03686721Y01670071D01*
X03686005Y01671633D01*
X03685328Y01673212D01*
X03684691Y01674807D01*
X03684092Y01676418D01*
X03683533Y01678042D01*
X03683014Y01679680D01*
X03682536Y01681330D01*
X03682098Y01682991D01*
X03681701Y01684663D01*
X03681345Y01686344D01*
X03681031Y01688033D01*
X03680758Y01689729D01*
X03680526Y01691431D01*
X03680337Y01693139D01*
X03680190Y01694850D01*
X03680084Y01696565D01*
X03680021Y01698282D01*
X03680000Y01700000D01*
X04130000Y01660000D02*
X04130000Y01740472D01*
X04165000Y01820000D02*
X04335000Y01820000D01*
X04370000Y01739291D02*
X04370000Y01660000D01*
X04335000Y01580000D02*
X04165000Y01580000D01*
X04180000Y01700000D02*
X04180021Y01701718D01*
X04180084Y01703435D01*
X04180190Y01705150D01*
X04180337Y01706861D01*
X04180526Y01708569D01*
X04180758Y01710271D01*
X04181031Y01711967D01*
X04181345Y01713656D01*
X04181701Y01715337D01*
X04182098Y01717009D01*
X04182536Y01718670D01*
X04183014Y01720320D01*
X04183533Y01721958D01*
X04184092Y01723582D01*
X04184691Y01725193D01*
X04185328Y01726788D01*
X04186005Y01728367D01*
X04186721Y01729929D01*
X04187474Y01731473D01*
X04188266Y01732998D01*
X04189094Y01734503D01*
X04189959Y01735987D01*
X04190860Y01737450D01*
X04191797Y01738890D01*
X04192769Y01740307D01*
X04193775Y01741699D01*
X04194816Y01743066D01*
X04195889Y01744408D01*
X04196995Y01745722D01*
X04198133Y01747009D01*
X04199303Y01748268D01*
X04200503Y01749497D01*
X04201732Y01750697D01*
X04202991Y01751867D01*
X04204278Y01753005D01*
X04205592Y01754111D01*
X04206934Y01755184D01*
X04208301Y01756225D01*
X04209693Y01757231D01*
X04211110Y01758203D01*
X04212550Y01759140D01*
X04214013Y01760041D01*
X04215497Y01760906D01*
X04217002Y01761734D01*
X04218527Y01762526D01*
X04220071Y01763279D01*
X04221633Y01763995D01*
X04223212Y01764672D01*
X04224807Y01765309D01*
X04226418Y01765908D01*
X04228042Y01766467D01*
X04229680Y01766986D01*
X04231330Y01767464D01*
X04232991Y01767902D01*
X04234663Y01768299D01*
X04236344Y01768655D01*
X04238033Y01768969D01*
X04239729Y01769242D01*
X04241431Y01769474D01*
X04243139Y01769663D01*
X04244850Y01769810D01*
X04246565Y01769916D01*
X04248282Y01769979D01*
X04250000Y01770000D01*
X04251718Y01769979D01*
X04253435Y01769916D01*
X04255150Y01769810D01*
X04256861Y01769663D01*
X04258569Y01769474D01*
X04260271Y01769242D01*
X04261967Y01768969D01*
X04263656Y01768655D01*
X04265337Y01768299D01*
X04267009Y01767902D01*
X04268670Y01767464D01*
X04270320Y01766986D01*
X04271958Y01766467D01*
X04273582Y01765908D01*
X04275193Y01765309D01*
X04276788Y01764672D01*
X04278367Y01763995D01*
X04279929Y01763279D01*
X04281473Y01762526D01*
X04282998Y01761734D01*
X04284503Y01760906D01*
X04285987Y01760041D01*
X04287450Y01759140D01*
X04288890Y01758203D01*
X04290307Y01757231D01*
X04291699Y01756225D01*
X04293066Y01755184D01*
X04294408Y01754111D01*
X04295722Y01753005D01*
X04297009Y01751867D01*
X04298268Y01750697D01*
X04299497Y01749497D01*
X04300697Y01748268D01*
X04301867Y01747009D01*
X04303005Y01745722D01*
X04304111Y01744408D01*
X04305184Y01743066D01*
X04306225Y01741699D01*
X04307231Y01740307D01*
X04308203Y01738890D01*
X04309140Y01737450D01*
X04310041Y01735987D01*
X04310906Y01734503D01*
X04311734Y01732998D01*
X04312526Y01731473D01*
X04313279Y01729929D01*
X04313995Y01728367D01*
X04314672Y01726788D01*
X04315309Y01725193D01*
X04315908Y01723582D01*
X04316467Y01721958D01*
X04316986Y01720320D01*
X04317464Y01718670D01*
X04317902Y01717009D01*
X04318299Y01715337D01*
X04318655Y01713656D01*
X04318969Y01711967D01*
X04319242Y01710271D01*
X04319474Y01708569D01*
X04319663Y01706861D01*
X04319810Y01705150D01*
X04319916Y01703435D01*
X04319979Y01701718D01*
X04320000Y01700000D01*
X04319979Y01698282D01*
X04319916Y01696565D01*
X04319810Y01694850D01*
X04319663Y01693139D01*
X04319474Y01691431D01*
X04319242Y01689729D01*
X04318969Y01688033D01*
X04318655Y01686344D01*
X04318299Y01684663D01*
X04317902Y01682991D01*
X04317464Y01681330D01*
X04316986Y01679680D01*
X04316467Y01678042D01*
X04315908Y01676418D01*
X04315309Y01674807D01*
X04314672Y01673212D01*
X04313995Y01671633D01*
X04313279Y01670071D01*
X04312526Y01668527D01*
X04311734Y01667002D01*
X04310906Y01665497D01*
X04310041Y01664013D01*
X04309140Y01662550D01*
X04308203Y01661110D01*
X04307231Y01659693D01*
X04306225Y01658301D01*
X04305184Y01656934D01*
X04304111Y01655592D01*
X04303005Y01654278D01*
X04301867Y01652991D01*
X04300697Y01651732D01*
X04299497Y01650503D01*
X04298268Y01649303D01*
X04297009Y01648133D01*
X04295722Y01646995D01*
X04294408Y01645889D01*
X04293066Y01644816D01*
X04291699Y01643775D01*
X04290307Y01642769D01*
X04288890Y01641797D01*
X04287450Y01640860D01*
X04285987Y01639959D01*
X04284503Y01639094D01*
X04282998Y01638266D01*
X04281473Y01637474D01*
X04279929Y01636721D01*
X04278367Y01636005D01*
X04276788Y01635328D01*
X04275193Y01634691D01*
X04273582Y01634092D01*
X04271958Y01633533D01*
X04270320Y01633014D01*
X04268670Y01632536D01*
X04267009Y01632098D01*
X04265337Y01631701D01*
X04263656Y01631345D01*
X04261967Y01631031D01*
X04260271Y01630758D01*
X04258569Y01630526D01*
X04256861Y01630337D01*
X04255150Y01630190D01*
X04253435Y01630084D01*
X04251718Y01630021D01*
X04250000Y01630000D01*
X04248282Y01630021D01*
X04246565Y01630084D01*
X04244850Y01630190D01*
X04243139Y01630337D01*
X04241431Y01630526D01*
X04239729Y01630758D01*
X04238033Y01631031D01*
X04236344Y01631345D01*
X04234663Y01631701D01*
X04232991Y01632098D01*
X04231330Y01632536D01*
X04229680Y01633014D01*
X04228042Y01633533D01*
X04226418Y01634092D01*
X04224807Y01634691D01*
X04223212Y01635328D01*
X04221633Y01636005D01*
X04220071Y01636721D01*
X04218527Y01637474D01*
X04217002Y01638266D01*
X04215497Y01639094D01*
X04214013Y01639959D01*
X04212550Y01640860D01*
X04211110Y01641797D01*
X04209693Y01642769D01*
X04208301Y01643775D01*
X04206934Y01644816D01*
X04205592Y01645889D01*
X04204278Y01646995D01*
X04202991Y01648133D01*
X04201732Y01649303D01*
X04200503Y01650503D01*
X04199303Y01651732D01*
X04198133Y01652991D01*
X04196995Y01654278D01*
X04195889Y01655592D01*
X04194816Y01656934D01*
X04193775Y01658301D01*
X04192769Y01659693D01*
X04191797Y01661110D01*
X04190860Y01662550D01*
X04189959Y01664013D01*
X04189094Y01665497D01*
X04188266Y01667002D01*
X04187474Y01668527D01*
X04186721Y01670071D01*
X04186005Y01671633D01*
X04185328Y01673212D01*
X04184691Y01674807D01*
X04184092Y01676418D01*
X04183533Y01678042D01*
X04183014Y01679680D01*
X04182536Y01681330D01*
X04182098Y01682991D01*
X04181701Y01684663D01*
X04181345Y01686344D01*
X04181031Y01688033D01*
X04180758Y01689729D01*
X04180526Y01691431D01*
X04180337Y01693139D01*
X04180190Y01694850D01*
X04180084Y01696565D01*
X04180021Y01698282D01*
X04180000Y01700000D01*
X04630000Y01660000D02*
X04630000Y01740472D01*
X04665000Y01820000D02*
X04835000Y01820000D01*
X04870000Y01739291D02*
X04870000Y01660000D01*
X04835000Y01580000D02*
X04665000Y01580000D01*
X04680000Y01700000D02*
X04680021Y01701718D01*
X04680084Y01703435D01*
X04680190Y01705150D01*
X04680337Y01706861D01*
X04680526Y01708569D01*
X04680758Y01710271D01*
X04681031Y01711967D01*
X04681345Y01713656D01*
X04681701Y01715337D01*
X04682098Y01717009D01*
X04682536Y01718670D01*
X04683014Y01720320D01*
X04683533Y01721958D01*
X04684092Y01723582D01*
X04684691Y01725193D01*
X04685328Y01726788D01*
X04686005Y01728367D01*
X04686721Y01729929D01*
X04687474Y01731473D01*
X04688266Y01732998D01*
X04689094Y01734503D01*
X04689959Y01735987D01*
X04690860Y01737450D01*
X04691797Y01738890D01*
X04692769Y01740307D01*
X04693775Y01741699D01*
X04694816Y01743066D01*
X04695889Y01744408D01*
X04696995Y01745722D01*
X04698133Y01747009D01*
X04699303Y01748268D01*
X04700503Y01749497D01*
X04701732Y01750697D01*
X04702991Y01751867D01*
X04704278Y01753005D01*
X04705592Y01754111D01*
X04706934Y01755184D01*
X04708301Y01756225D01*
X04709693Y01757231D01*
X04711110Y01758203D01*
X04712550Y01759140D01*
X04714013Y01760041D01*
X04715497Y01760906D01*
X04717002Y01761734D01*
X04718527Y01762526D01*
X04720071Y01763279D01*
X04721633Y01763995D01*
X04723212Y01764672D01*
X04724807Y01765309D01*
X04726418Y01765908D01*
X04728042Y01766467D01*
X04729680Y01766986D01*
X04731330Y01767464D01*
X04732991Y01767902D01*
X04734663Y01768299D01*
X04736344Y01768655D01*
X04738033Y01768969D01*
X04739729Y01769242D01*
X04741431Y01769474D01*
X04743139Y01769663D01*
X04744850Y01769810D01*
X04746565Y01769916D01*
X04748282Y01769979D01*
X04750000Y01770000D01*
X04751718Y01769979D01*
X04753435Y01769916D01*
X04755150Y01769810D01*
X04756861Y01769663D01*
X04758569Y01769474D01*
X04760271Y01769242D01*
X04761967Y01768969D01*
X04763656Y01768655D01*
X04765337Y01768299D01*
X04767009Y01767902D01*
X04768670Y01767464D01*
X04770320Y01766986D01*
X04771958Y01766467D01*
X04773582Y01765908D01*
X04775193Y01765309D01*
X04776788Y01764672D01*
X04778367Y01763995D01*
X04779929Y01763279D01*
X04781473Y01762526D01*
X04782998Y01761734D01*
X04784503Y01760906D01*
X04785987Y01760041D01*
X04787450Y01759140D01*
X04788890Y01758203D01*
X04790307Y01757231D01*
X04791699Y01756225D01*
X04793066Y01755184D01*
X04794408Y01754111D01*
X04795722Y01753005D01*
X04797009Y01751867D01*
X04798268Y01750697D01*
X04799497Y01749497D01*
X04800697Y01748268D01*
X04801867Y01747009D01*
X04803005Y01745722D01*
X04804111Y01744408D01*
X04805184Y01743066D01*
X04806225Y01741699D01*
X04807231Y01740307D01*
X04808203Y01738890D01*
X04809140Y01737450D01*
X04810041Y01735987D01*
X04810906Y01734503D01*
X04811734Y01732998D01*
X04812526Y01731473D01*
X04813279Y01729929D01*
X04813995Y01728367D01*
X04814672Y01726788D01*
X04815309Y01725193D01*
X04815908Y01723582D01*
X04816467Y01721958D01*
X04816986Y01720320D01*
X04817464Y01718670D01*
X04817902Y01717009D01*
X04818299Y01715337D01*
X04818655Y01713656D01*
X04818969Y01711967D01*
X04819242Y01710271D01*
X04819474Y01708569D01*
X04819663Y01706861D01*
X04819810Y01705150D01*
X04819916Y01703435D01*
X04819979Y01701718D01*
X04820000Y01700000D01*
X04819979Y01698282D01*
X04819916Y01696565D01*
X04819810Y01694850D01*
X04819663Y01693139D01*
X04819474Y01691431D01*
X04819242Y01689729D01*
X04818969Y01688033D01*
X04818655Y01686344D01*
X04818299Y01684663D01*
X04817902Y01682991D01*
X04817464Y01681330D01*
X04816986Y01679680D01*
X04816467Y01678042D01*
X04815908Y01676418D01*
X04815309Y01674807D01*
X04814672Y01673212D01*
X04813995Y01671633D01*
X04813279Y01670071D01*
X04812526Y01668527D01*
X04811734Y01667002D01*
X04810906Y01665497D01*
X04810041Y01664013D01*
X04809140Y01662550D01*
X04808203Y01661110D01*
X04807231Y01659693D01*
X04806225Y01658301D01*
X04805184Y01656934D01*
X04804111Y01655592D01*
X04803005Y01654278D01*
X04801867Y01652991D01*
X04800697Y01651732D01*
X04799497Y01650503D01*
X04798268Y01649303D01*
X04797009Y01648133D01*
X04795722Y01646995D01*
X04794408Y01645889D01*
X04793066Y01644816D01*
X04791699Y01643775D01*
X04790307Y01642769D01*
X04788890Y01641797D01*
X04787450Y01640860D01*
X04785987Y01639959D01*
X04784503Y01639094D01*
X04782998Y01638266D01*
X04781473Y01637474D01*
X04779929Y01636721D01*
X04778367Y01636005D01*
X04776788Y01635328D01*
X04775193Y01634691D01*
X04773582Y01634092D01*
X04771958Y01633533D01*
X04770320Y01633014D01*
X04768670Y01632536D01*
X04767009Y01632098D01*
X04765337Y01631701D01*
X04763656Y01631345D01*
X04761967Y01631031D01*
X04760271Y01630758D01*
X04758569Y01630526D01*
X04756861Y01630337D01*
X04755150Y01630190D01*
X04753435Y01630084D01*
X04751718Y01630021D01*
X04750000Y01630000D01*
X04748282Y01630021D01*
X04746565Y01630084D01*
X04744850Y01630190D01*
X04743139Y01630337D01*
X04741431Y01630526D01*
X04739729Y01630758D01*
X04738033Y01631031D01*
X04736344Y01631345D01*
X04734663Y01631701D01*
X04732991Y01632098D01*
X04731330Y01632536D01*
X04729680Y01633014D01*
X04728042Y01633533D01*
X04726418Y01634092D01*
X04724807Y01634691D01*
X04723212Y01635328D01*
X04721633Y01636005D01*
X04720071Y01636721D01*
X04718527Y01637474D01*
X04717002Y01638266D01*
X04715497Y01639094D01*
X04714013Y01639959D01*
X04712550Y01640860D01*
X04711110Y01641797D01*
X04709693Y01642769D01*
X04708301Y01643775D01*
X04706934Y01644816D01*
X04705592Y01645889D01*
X04704278Y01646995D01*
X04702991Y01648133D01*
X04701732Y01649303D01*
X04700503Y01650503D01*
X04699303Y01651732D01*
X04698133Y01652991D01*
X04696995Y01654278D01*
X04695889Y01655592D01*
X04694816Y01656934D01*
X04693775Y01658301D01*
X04692769Y01659693D01*
X04691797Y01661110D01*
X04690860Y01662550D01*
X04689959Y01664013D01*
X04689094Y01665497D01*
X04688266Y01667002D01*
X04687474Y01668527D01*
X04686721Y01670071D01*
X04686005Y01671633D01*
X04685328Y01673212D01*
X04684691Y01674807D01*
X04684092Y01676418D01*
X04683533Y01678042D01*
X04683014Y01679680D01*
X04682536Y01681330D01*
X04682098Y01682991D01*
X04681701Y01684663D01*
X04681345Y01686344D01*
X04681031Y01688033D01*
X04680758Y01689729D01*
X04680526Y01691431D01*
X04680337Y01693139D01*
X04680190Y01694850D01*
X04680084Y01696565D01*
X04680021Y01698282D01*
X04680000Y01700000D01*
X05130000Y01660000D02*
X05130000Y01740472D01*
X05165000Y01820000D02*
X05335000Y01820000D01*
X05370000Y01739291D02*
X05370000Y01660000D01*
X05335000Y01580000D02*
X05165000Y01580000D01*
X05180000Y01700000D02*
X05180021Y01701718D01*
X05180084Y01703435D01*
X05180190Y01705150D01*
X05180337Y01706861D01*
X05180526Y01708569D01*
X05180758Y01710271D01*
X05181031Y01711967D01*
X05181345Y01713656D01*
X05181701Y01715337D01*
X05182098Y01717009D01*
X05182536Y01718670D01*
X05183014Y01720320D01*
X05183533Y01721958D01*
X05184092Y01723582D01*
X05184691Y01725193D01*
X05185328Y01726788D01*
X05186005Y01728367D01*
X05186721Y01729929D01*
X05187474Y01731473D01*
X05188266Y01732998D01*
X05189094Y01734503D01*
X05189959Y01735987D01*
X05190860Y01737450D01*
X05191797Y01738890D01*
X05192769Y01740307D01*
X05193775Y01741699D01*
X05194816Y01743066D01*
X05195889Y01744408D01*
X05196995Y01745722D01*
X05198133Y01747009D01*
X05199303Y01748268D01*
X05200503Y01749497D01*
X05201732Y01750697D01*
X05202991Y01751867D01*
X05204278Y01753005D01*
X05205592Y01754111D01*
X05206934Y01755184D01*
X05208301Y01756225D01*
X05209693Y01757231D01*
X05211110Y01758203D01*
X05212550Y01759140D01*
X05214013Y01760041D01*
X05215497Y01760906D01*
X05217002Y01761734D01*
X05218527Y01762526D01*
X05220071Y01763279D01*
X05221633Y01763995D01*
X05223212Y01764672D01*
X05224807Y01765309D01*
X05226418Y01765908D01*
X05228042Y01766467D01*
X05229680Y01766986D01*
X05231330Y01767464D01*
X05232991Y01767902D01*
X05234663Y01768299D01*
X05236344Y01768655D01*
X05238033Y01768969D01*
X05239729Y01769242D01*
X05241431Y01769474D01*
X05243139Y01769663D01*
X05244850Y01769810D01*
X05246565Y01769916D01*
X05248282Y01769979D01*
X05250000Y01770000D01*
X05251718Y01769979D01*
X05253435Y01769916D01*
X05255150Y01769810D01*
X05256861Y01769663D01*
X05258569Y01769474D01*
X05260271Y01769242D01*
X05261967Y01768969D01*
X05263656Y01768655D01*
X05265337Y01768299D01*
X05267009Y01767902D01*
X05268670Y01767464D01*
X05270320Y01766986D01*
X05271958Y01766467D01*
X05273582Y01765908D01*
X05275193Y01765309D01*
X05276788Y01764672D01*
X05278367Y01763995D01*
X05279929Y01763279D01*
X05281473Y01762526D01*
X05282998Y01761734D01*
X05284503Y01760906D01*
X05285987Y01760041D01*
X05287450Y01759140D01*
X05288890Y01758203D01*
X05290307Y01757231D01*
X05291699Y01756225D01*
X05293066Y01755184D01*
X05294408Y01754111D01*
X05295722Y01753005D01*
X05297009Y01751867D01*
X05298268Y01750697D01*
X05299497Y01749497D01*
X05300697Y01748268D01*
X05301867Y01747009D01*
X05303005Y01745722D01*
X05304111Y01744408D01*
X05305184Y01743066D01*
X05306225Y01741699D01*
X05307231Y01740307D01*
X05308203Y01738890D01*
X05309140Y01737450D01*
X05310041Y01735987D01*
X05310906Y01734503D01*
X05311734Y01732998D01*
X05312526Y01731473D01*
X05313279Y01729929D01*
X05313995Y01728367D01*
X05314672Y01726788D01*
X05315309Y01725193D01*
X05315908Y01723582D01*
X05316467Y01721958D01*
X05316986Y01720320D01*
X05317464Y01718670D01*
X05317902Y01717009D01*
X05318299Y01715337D01*
X05318655Y01713656D01*
X05318969Y01711967D01*
X05319242Y01710271D01*
X05319474Y01708569D01*
X05319663Y01706861D01*
X05319810Y01705150D01*
X05319916Y01703435D01*
X05319979Y01701718D01*
X05320000Y01700000D01*
X05319979Y01698282D01*
X05319916Y01696565D01*
X05319810Y01694850D01*
X05319663Y01693139D01*
X05319474Y01691431D01*
X05319242Y01689729D01*
X05318969Y01688033D01*
X05318655Y01686344D01*
X05318299Y01684663D01*
X05317902Y01682991D01*
X05317464Y01681330D01*
X05316986Y01679680D01*
X05316467Y01678042D01*
X05315908Y01676418D01*
X05315309Y01674807D01*
X05314672Y01673212D01*
X05313995Y01671633D01*
X05313279Y01670071D01*
X05312526Y01668527D01*
X05311734Y01667002D01*
X05310906Y01665497D01*
X05310041Y01664013D01*
X05309140Y01662550D01*
X05308203Y01661110D01*
X05307231Y01659693D01*
X05306225Y01658301D01*
X05305184Y01656934D01*
X05304111Y01655592D01*
X05303005Y01654278D01*
X05301867Y01652991D01*
X05300697Y01651732D01*
X05299497Y01650503D01*
X05298268Y01649303D01*
X05297009Y01648133D01*
X05295722Y01646995D01*
X05294408Y01645889D01*
X05293066Y01644816D01*
X05291699Y01643775D01*
X05290307Y01642769D01*
X05288890Y01641797D01*
X05287450Y01640860D01*
X05285987Y01639959D01*
X05284503Y01639094D01*
X05282998Y01638266D01*
X05281473Y01637474D01*
X05279929Y01636721D01*
X05278367Y01636005D01*
X05276788Y01635328D01*
X05275193Y01634691D01*
X05273582Y01634092D01*
X05271958Y01633533D01*
X05270320Y01633014D01*
X05268670Y01632536D01*
X05267009Y01632098D01*
X05265337Y01631701D01*
X05263656Y01631345D01*
X05261967Y01631031D01*
X05260271Y01630758D01*
X05258569Y01630526D01*
X05256861Y01630337D01*
X05255150Y01630190D01*
X05253435Y01630084D01*
X05251718Y01630021D01*
X05250000Y01630000D01*
X05248282Y01630021D01*
X05246565Y01630084D01*
X05244850Y01630190D01*
X05243139Y01630337D01*
X05241431Y01630526D01*
X05239729Y01630758D01*
X05238033Y01631031D01*
X05236344Y01631345D01*
X05234663Y01631701D01*
X05232991Y01632098D01*
X05231330Y01632536D01*
X05229680Y01633014D01*
X05228042Y01633533D01*
X05226418Y01634092D01*
X05224807Y01634691D01*
X05223212Y01635328D01*
X05221633Y01636005D01*
X05220071Y01636721D01*
X05218527Y01637474D01*
X05217002Y01638266D01*
X05215497Y01639094D01*
X05214013Y01639959D01*
X05212550Y01640860D01*
X05211110Y01641797D01*
X05209693Y01642769D01*
X05208301Y01643775D01*
X05206934Y01644816D01*
X05205592Y01645889D01*
X05204278Y01646995D01*
X05202991Y01648133D01*
X05201732Y01649303D01*
X05200503Y01650503D01*
X05199303Y01651732D01*
X05198133Y01652991D01*
X05196995Y01654278D01*
X05195889Y01655592D01*
X05194816Y01656934D01*
X05193775Y01658301D01*
X05192769Y01659693D01*
X05191797Y01661110D01*
X05190860Y01662550D01*
X05189959Y01664013D01*
X05189094Y01665497D01*
X05188266Y01667002D01*
X05187474Y01668527D01*
X05186721Y01670071D01*
X05186005Y01671633D01*
X05185328Y01673212D01*
X05184691Y01674807D01*
X05184092Y01676418D01*
X05183533Y01678042D01*
X05183014Y01679680D01*
X05182536Y01681330D01*
X05182098Y01682991D01*
X05181701Y01684663D01*
X05181345Y01686344D01*
X05181031Y01688033D01*
X05180758Y01689729D01*
X05180526Y01691431D01*
X05180337Y01693139D01*
X05180190Y01694850D01*
X05180084Y01696565D01*
X05180021Y01698282D01*
X05180000Y01700000D01*
X05630000Y01660000D02*
X05630000Y01740472D01*
X05665000Y01820000D02*
X05835000Y01820000D01*
X05870000Y01739291D02*
X05870000Y01660000D01*
X05835000Y01580000D02*
X05665000Y01580000D01*
X05680000Y01700000D02*
X05680021Y01701718D01*
X05680084Y01703435D01*
X05680190Y01705150D01*
X05680337Y01706861D01*
X05680526Y01708569D01*
X05680758Y01710271D01*
X05681031Y01711967D01*
X05681345Y01713656D01*
X05681701Y01715337D01*
X05682098Y01717009D01*
X05682536Y01718670D01*
X05683014Y01720320D01*
X05683533Y01721958D01*
X05684092Y01723582D01*
X05684691Y01725193D01*
X05685328Y01726788D01*
X05686005Y01728367D01*
X05686721Y01729929D01*
X05687474Y01731473D01*
X05688266Y01732998D01*
X05689094Y01734503D01*
X05689959Y01735987D01*
X05690860Y01737450D01*
X05691797Y01738890D01*
X05692769Y01740307D01*
X05693775Y01741699D01*
X05694816Y01743066D01*
X05695889Y01744408D01*
X05696995Y01745722D01*
X05698133Y01747009D01*
X05699303Y01748268D01*
X05700503Y01749497D01*
X05701732Y01750697D01*
X05702991Y01751867D01*
X05704278Y01753005D01*
X05705592Y01754111D01*
X05706934Y01755184D01*
X05708301Y01756225D01*
X05709693Y01757231D01*
X05711110Y01758203D01*
X05712550Y01759140D01*
X05714013Y01760041D01*
X05715497Y01760906D01*
X05717002Y01761734D01*
X05718527Y01762526D01*
X05720071Y01763279D01*
X05721633Y01763995D01*
X05723212Y01764672D01*
X05724807Y01765309D01*
X05726418Y01765908D01*
X05728042Y01766467D01*
X05729680Y01766986D01*
X05731330Y01767464D01*
X05732991Y01767902D01*
X05734663Y01768299D01*
X05736344Y01768655D01*
X05738033Y01768969D01*
X05739729Y01769242D01*
X05741431Y01769474D01*
X05743139Y01769663D01*
X05744850Y01769810D01*
X05746565Y01769916D01*
X05748282Y01769979D01*
X05750000Y01770000D01*
X05751718Y01769979D01*
X05753435Y01769916D01*
X05755150Y01769810D01*
X05756861Y01769663D01*
X05758569Y01769474D01*
X05760271Y01769242D01*
X05761967Y01768969D01*
X05763656Y01768655D01*
X05765337Y01768299D01*
X05767009Y01767902D01*
X05768670Y01767464D01*
X05770320Y01766986D01*
X05771958Y01766467D01*
X05773582Y01765908D01*
X05775193Y01765309D01*
X05776788Y01764672D01*
X05778367Y01763995D01*
X05779929Y01763279D01*
X05781473Y01762526D01*
X05782998Y01761734D01*
X05784503Y01760906D01*
X05785987Y01760041D01*
X05787450Y01759140D01*
X05788890Y01758203D01*
X05790307Y01757231D01*
X05791699Y01756225D01*
X05793066Y01755184D01*
X05794408Y01754111D01*
X05795722Y01753005D01*
X05797009Y01751867D01*
X05798268Y01750697D01*
X05799497Y01749497D01*
X05800697Y01748268D01*
X05801867Y01747009D01*
X05803005Y01745722D01*
X05804111Y01744408D01*
X05805184Y01743066D01*
X05806225Y01741699D01*
X05807231Y01740307D01*
X05808203Y01738890D01*
X05809140Y01737450D01*
X05810041Y01735987D01*
X05810906Y01734503D01*
X05811734Y01732998D01*
X05812526Y01731473D01*
X05813279Y01729929D01*
X05813995Y01728367D01*
X05814672Y01726788D01*
X05815309Y01725193D01*
X05815908Y01723582D01*
X05816467Y01721958D01*
X05816986Y01720320D01*
X05817464Y01718670D01*
X05817902Y01717009D01*
X05818299Y01715337D01*
X05818655Y01713656D01*
X05818969Y01711967D01*
X05819242Y01710271D01*
X05819474Y01708569D01*
X05819663Y01706861D01*
X05819810Y01705150D01*
X05819916Y01703435D01*
X05819979Y01701718D01*
X05820000Y01700000D01*
X05819979Y01698282D01*
X05819916Y01696565D01*
X05819810Y01694850D01*
X05819663Y01693139D01*
X05819474Y01691431D01*
X05819242Y01689729D01*
X05818969Y01688033D01*
X05818655Y01686344D01*
X05818299Y01684663D01*
X05817902Y01682991D01*
X05817464Y01681330D01*
X05816986Y01679680D01*
X05816467Y01678042D01*
X05815908Y01676418D01*
X05815309Y01674807D01*
X05814672Y01673212D01*
X05813995Y01671633D01*
X05813279Y01670071D01*
X05812526Y01668527D01*
X05811734Y01667002D01*
X05810906Y01665497D01*
X05810041Y01664013D01*
X05809140Y01662550D01*
X05808203Y01661110D01*
X05807231Y01659693D01*
X05806225Y01658301D01*
X05805184Y01656934D01*
X05804111Y01655592D01*
X05803005Y01654278D01*
X05801867Y01652991D01*
X05800697Y01651732D01*
X05799497Y01650503D01*
X05798268Y01649303D01*
X05797009Y01648133D01*
X05795722Y01646995D01*
X05794408Y01645889D01*
X05793066Y01644816D01*
X05791699Y01643775D01*
X05790307Y01642769D01*
X05788890Y01641797D01*
X05787450Y01640860D01*
X05785987Y01639959D01*
X05784503Y01639094D01*
X05782998Y01638266D01*
X05781473Y01637474D01*
X05779929Y01636721D01*
X05778367Y01636005D01*
X05776788Y01635328D01*
X05775193Y01634691D01*
X05773582Y01634092D01*
X05771958Y01633533D01*
X05770320Y01633014D01*
X05768670Y01632536D01*
X05767009Y01632098D01*
X05765337Y01631701D01*
X05763656Y01631345D01*
X05761967Y01631031D01*
X05760271Y01630758D01*
X05758569Y01630526D01*
X05756861Y01630337D01*
X05755150Y01630190D01*
X05753435Y01630084D01*
X05751718Y01630021D01*
X05750000Y01630000D01*
X05748282Y01630021D01*
X05746565Y01630084D01*
X05744850Y01630190D01*
X05743139Y01630337D01*
X05741431Y01630526D01*
X05739729Y01630758D01*
X05738033Y01631031D01*
X05736344Y01631345D01*
X05734663Y01631701D01*
X05732991Y01632098D01*
X05731330Y01632536D01*
X05729680Y01633014D01*
X05728042Y01633533D01*
X05726418Y01634092D01*
X05724807Y01634691D01*
X05723212Y01635328D01*
X05721633Y01636005D01*
X05720071Y01636721D01*
X05718527Y01637474D01*
X05717002Y01638266D01*
X05715497Y01639094D01*
X05714013Y01639959D01*
X05712550Y01640860D01*
X05711110Y01641797D01*
X05709693Y01642769D01*
X05708301Y01643775D01*
X05706934Y01644816D01*
X05705592Y01645889D01*
X05704278Y01646995D01*
X05702991Y01648133D01*
X05701732Y01649303D01*
X05700503Y01650503D01*
X05699303Y01651732D01*
X05698133Y01652991D01*
X05696995Y01654278D01*
X05695889Y01655592D01*
X05694816Y01656934D01*
X05693775Y01658301D01*
X05692769Y01659693D01*
X05691797Y01661110D01*
X05690860Y01662550D01*
X05689959Y01664013D01*
X05689094Y01665497D01*
X05688266Y01667002D01*
X05687474Y01668527D01*
X05686721Y01670071D01*
X05686005Y01671633D01*
X05685328Y01673212D01*
X05684691Y01674807D01*
X05684092Y01676418D01*
X05683533Y01678042D01*
X05683014Y01679680D01*
X05682536Y01681330D01*
X05682098Y01682991D01*
X05681701Y01684663D01*
X05681345Y01686344D01*
X05681031Y01688033D01*
X05680758Y01689729D01*
X05680526Y01691431D01*
X05680337Y01693139D01*
X05680190Y01694850D01*
X05680084Y01696565D01*
X05680021Y01698282D01*
X05680000Y01700000D01*
M02*
